<?xml version="1.0" encoding="utf-8" standalone="no"?>
<!DOCTYPE svg PUBLIC "-//W3C//DTD SVG 1.1//EN"
  "http://www.w3.org/Graphics/SVG/1.1/DTD/svg11.dtd">
<svg xmlns:xlink="http://www.w3.org/1999/xlink" width="460.8pt" height="345.6pt" viewBox="0 0 460.8 345.6" xmlns="http://www.w3.org/2000/svg" version="1.1">
 <metadata>
  <rdf:RDF xmlns:dc="http://purl.org/dc/elements/1.1/" xmlns:cc="http://creativecommons.org/ns#" xmlns:rdf="http://www.w3.org/1999/02/22-rdf-syntax-ns#">
   <cc:Work>
    <dc:type rdf:resource="http://purl.org/dc/dcmitype/StillImage"/>
    <dc:date>2023-04-28T11:06:02.203269</dc:date>
    <dc:format>image/svg+xml</dc:format>
    <dc:creator>
     <cc:Agent>
      <dc:title>Matplotlib v3.7.1, https://matplotlib.org/</dc:title>
     </cc:Agent>
    </dc:creator>
   </cc:Work>
  </rdf:RDF>
 </metadata>
 <defs>
  <style type="text/css">*{stroke-linejoin: round; stroke-linecap: butt}</style>
 </defs>
 <g id="figure_1">
  <g id="patch_1">
   <path d="M 0 345.6 
L 460.8 345.6 
L 460.8 0 
L 0 0 
z
" style="fill: #ffffff"/>
  </g>
  <g id="axes_1">
   <g id="patch_2">
    <path d="M 46.42 334.8 
L 450 334.8 
L 450 10.8 
L 46.42 10.8 
z
" style="fill: #ffffff"/>
   </g>
   <g id="matplotlib.axis_1"/>
   <g id="matplotlib.axis_2">
    <g id="ytick_1">
     <g id="line2d_1">
      <defs>
       <path id="m6b7ce0af5b" d="M 0 0 
L -3.5 0 
" style="stroke: #000000; stroke-width: 0.8"/>
      </defs>
      <g>
       <use xlink:href="#m6b7ce0af5b" x="46.42" y="320.072727" style="stroke: #000000; stroke-width: 0.8"/>
      </g>
     </g>
     <g id="text_1">
      <!-- 0.0 -->
      <g transform="translate(10.794375 326.911321) scale(0.18 -0.18)">
       <defs>
        <path id="DejaVuSans-30" d="M 2034 4250 
Q 1547 4250 1301 3770 
Q 1056 3291 1056 2328 
Q 1056 1369 1301 889 
Q 1547 409 2034 409 
Q 2525 409 2770 889 
Q 3016 1369 3016 2328 
Q 3016 3291 2770 3770 
Q 2525 4250 2034 4250 
z
M 2034 4750 
Q 2819 4750 3233 4129 
Q 3647 3509 3647 2328 
Q 3647 1150 3233 529 
Q 2819 -91 2034 -91 
Q 1250 -91 836 529 
Q 422 1150 422 2328 
Q 422 3509 836 4129 
Q 1250 4750 2034 4750 
z
" transform="scale(0.015625)"/>
        <path id="DejaVuSans-2e" d="M 684 794 
L 1344 794 
L 1344 0 
L 684 0 
L 684 794 
z
" transform="scale(0.015625)"/>
       </defs>
       <use xlink:href="#DejaVuSans-30"/>
       <use xlink:href="#DejaVuSans-2e" x="63.623047"/>
       <use xlink:href="#DejaVuSans-30" x="95.410156"/>
      </g>
     </g>
    </g>
    <g id="ytick_2">
     <g id="line2d_2">
      <g>
       <use xlink:href="#m6b7ce0af5b" x="46.42" y="172.8" style="stroke: #000000; stroke-width: 0.8"/>
      </g>
     </g>
     <g id="text_2">
      <!-- 0.5 -->
      <g transform="translate(10.794375 179.638594) scale(0.18 -0.18)">
       <defs>
        <path id="DejaVuSans-35" d="M 691 4666 
L 3169 4666 
L 3169 4134 
L 1269 4134 
L 1269 2991 
Q 1406 3038 1543 3061 
Q 1681 3084 1819 3084 
Q 2600 3084 3056 2656 
Q 3513 2228 3513 1497 
Q 3513 744 3044 326 
Q 2575 -91 1722 -91 
Q 1428 -91 1123 -41 
Q 819 9 494 109 
L 494 744 
Q 775 591 1075 516 
Q 1375 441 1709 441 
Q 2250 441 2565 725 
Q 2881 1009 2881 1497 
Q 2881 1984 2565 2268 
Q 2250 2553 1709 2553 
Q 1456 2553 1204 2497 
Q 953 2441 691 2322 
L 691 4666 
z
" transform="scale(0.015625)"/>
       </defs>
       <use xlink:href="#DejaVuSans-30"/>
       <use xlink:href="#DejaVuSans-2e" x="63.623047"/>
       <use xlink:href="#DejaVuSans-35" x="95.410156"/>
      </g>
     </g>
    </g>
    <g id="ytick_3">
     <g id="line2d_3">
      <g>
       <use xlink:href="#m6b7ce0af5b" x="46.42" y="25.527273" style="stroke: #000000; stroke-width: 0.8"/>
      </g>
     </g>
     <g id="text_3">
      <!-- 1.0 -->
      <g transform="translate(10.794375 32.365866) scale(0.18 -0.18)">
       <defs>
        <path id="DejaVuSans-31" d="M 794 531 
L 1825 531 
L 1825 4091 
L 703 3866 
L 703 4441 
L 1819 4666 
L 2450 4666 
L 2450 531 
L 3481 531 
L 3481 0 
L 794 0 
L 794 531 
z
" transform="scale(0.015625)"/>
       </defs>
       <use xlink:href="#DejaVuSans-31"/>
       <use xlink:href="#DejaVuSans-2e" x="63.623047"/>
       <use xlink:href="#DejaVuSans-30" x="95.410156"/>
      </g>
     </g>
    </g>
   </g>
   <g id="line2d_4">
    <path d="M 64.764545 158.980348 
L 66.94194 190.396042 
L 69.119334 235.410723 
L 70.208031 268.723412 
L 72.385425 316.369927 
L 73.474122 320.072727 
L 74.562819 315.495279 
L 75.651516 310.346928 
L 77.82891 298.375811 
L 80.006304 284.838001 
L 82.183698 270.196283 
L 85.44979 261.770767 
L 86.538487 258.59287 
L 87.627184 254.958084 
L 89.804578 245.902986 
L 90.893275 240.600604 
L 94.159366 217.702101 
L 97.425457 194.409047 
L 99.602851 179.944027 
L 101.780245 167.105604 
L 103.95764 153.213603 
L 106.135034 137.282879 
L 109.401125 110.777096 
L 113.755913 75.193419 
L 115.933307 59.57137 
L 118.110701 45.924033 
L 120.288095 35.1607 
L 121.376793 31.211258 
L 122.46549 28.176655 
L 123.554187 26.430403 
L 124.642884 25.543425 
L 125.731581 25.527273 
L 126.820278 25.929505 
L 127.908975 26.606264 
L 130.086369 28.791669 
L 132.263763 31.719898 
L 135.529854 36.950721 
L 140.97334 46.579321 
L 145.328128 54.73063 
L 152.949007 69.093087 
L 159.48119 81.711152 
L 172.545554 110.168718 
L 175.811646 116.271614 
L 180.166434 124.215689 
L 183.432525 130.704173 
L 186.698616 137.409266 
L 189.964707 143.488303 
L 192.142101 147.126069 
L 204.117769 165.84078 
L 211.738649 177.013796 
L 213.916043 179.76856 
L 216.093437 182.242547 
L 225.89171 193.099305 
L 229.157801 197.127057 
L 232.423893 201.162754 
L 238.956075 209.127089 
L 242.222166 213.935455 
L 245.488257 219.288416 
L 257.463925 239.074955 
L 267.262199 255.701908 
L 269.439593 258.763785 
L 271.616987 261.473447 
L 274.883078 265.231618 
L 277.060472 267.724609 
L 279.237866 270.6423 
L 282.503957 275.626084 
L 287.947443 284.339565 
L 292.302231 291.697976 
L 297.745716 301.709352 
L 301.011807 307.612166 
L 302.100504 309.458225 
L 304.277899 312.631822 
L 307.54399 316.756957 
L 308.632687 317.979356 
L 309.721384 318.956677 
L 310.810081 319.643487 
L 311.898778 320.01924 
L 312.987475 320.072727 
L 314.076172 319.753185 
L 315.164869 319.067267 
L 316.253566 317.954816 
L 317.342263 316.569827 
L 319.519657 313.128443 
L 327.140537 300.062726 
L 336.93881 282.082541 
L 343.470993 270.950777 
L 344.55969 268.982675 
L 348.914478 259.981936 
L 353.269266 250.768243 
L 363.06754 232.536164 
L 365.244934 228.192679 
L 367.422328 224.181614 
L 369.599722 220.487352 
L 370.688419 218.756935 
L 375.043207 213.258801 
L 378.309299 208.765921 
L 379.397996 207.077727 
L 383.752784 197.962736 
L 388.107572 189.281833 
L 395.728452 177.367757 
L 397.905846 173.601409 
L 401.171937 167.554711 
L 403.349331 162.818976 
L 406.615422 155.337982 
L 408.792816 149.827559 
L 410.97021 143.590533 
L 412.058907 140.307193 
L 414.236302 132.695775 
L 417.502393 119.868737 
L 420.768484 106.131723 
L 425.123272 86.561828 
L 428.389363 71.332425 
L 430.566757 62.067925 
L 431.655455 57.869341 
L 431.655455 57.869341 
" clip-path="url(#p34c21b699d)" style="fill: none; stroke: #000000; stroke-width: 4; stroke-linecap: square"/>
   </g>
   <g id="patch_3">
    <path d="M 46.42 334.8 
L 46.42 10.8 
" style="fill: none; stroke: #000000; stroke-width: 0.8; stroke-linejoin: miter; stroke-linecap: square"/>
   </g>
   <g id="patch_4">
    <path d="M 46.42 334.8 
L 450 334.8 
" style="fill: none; stroke: #000000; stroke-width: 0.8; stroke-linejoin: miter; stroke-linecap: square"/>
   </g>
  </g>
 </g>
 <defs>
  <clipPath id="p34c21b699d">
   <rect x="46.42" y="10.8" width="403.58" height="324"/>
  </clipPath>
 </defs>
</svg>
