<?xml version="1.0" encoding="utf-8" standalone="no"?>
<!DOCTYPE svg PUBLIC "-//W3C//DTD SVG 1.1//EN"
  "http://www.w3.org/Graphics/SVG/1.1/DTD/svg11.dtd">
<svg xmlns:xlink="http://www.w3.org/1999/xlink" width="460.8pt" height="345.6pt" viewBox="0 0 460.8 345.6" xmlns="http://www.w3.org/2000/svg" version="1.1">
 <metadata>
  <rdf:RDF xmlns:dc="http://purl.org/dc/elements/1.1/" xmlns:cc="http://creativecommons.org/ns#" xmlns:rdf="http://www.w3.org/1999/02/22-rdf-syntax-ns#">
   <cc:Work>
    <dc:type rdf:resource="http://purl.org/dc/dcmitype/StillImage"/>
    <dc:date>2023-04-28T11:08:18.741315</dc:date>
    <dc:format>image/svg+xml</dc:format>
    <dc:creator>
     <cc:Agent>
      <dc:title>Matplotlib v3.7.1, https://matplotlib.org/</dc:title>
     </cc:Agent>
    </dc:creator>
   </cc:Work>
  </rdf:RDF>
 </metadata>
 <defs>
  <style type="text/css">*{stroke-linejoin: round; stroke-linecap: butt}</style>
 </defs>
 <g id="figure_1">
  <g id="patch_1">
   <path d="M 0 345.6 
L 460.8 345.6 
L 460.8 0 
L 0 0 
z
" style="fill: #ffffff"/>
  </g>
  <g id="axes_1">
   <g id="patch_2">
    <path d="M 46.42 334.8 
L 450 334.8 
L 450 10.8 
L 46.42 10.8 
z
" style="fill: #ffffff"/>
   </g>
   <g id="matplotlib.axis_1"/>
   <g id="matplotlib.axis_2">
    <g id="ytick_1">
     <g id="line2d_1">
      <defs>
       <path id="ma8b2933fda" d="M 0 0 
L -3.5 0 
" style="stroke: #000000; stroke-width: 0.8"/>
      </defs>
      <g>
       <use xlink:href="#ma8b2933fda" x="46.42" y="320.072727" style="stroke: #000000; stroke-width: 0.8"/>
      </g>
     </g>
     <g id="text_1">
      <!-- 0.0 -->
      <g transform="translate(10.794375 326.911321) scale(0.18 -0.18)">
       <defs>
        <path id="DejaVuSans-30" d="M 2034 4250 
Q 1547 4250 1301 3770 
Q 1056 3291 1056 2328 
Q 1056 1369 1301 889 
Q 1547 409 2034 409 
Q 2525 409 2770 889 
Q 3016 1369 3016 2328 
Q 3016 3291 2770 3770 
Q 2525 4250 2034 4250 
z
M 2034 4750 
Q 2819 4750 3233 4129 
Q 3647 3509 3647 2328 
Q 3647 1150 3233 529 
Q 2819 -91 2034 -91 
Q 1250 -91 836 529 
Q 422 1150 422 2328 
Q 422 3509 836 4129 
Q 1250 4750 2034 4750 
z
" transform="scale(0.015625)"/>
        <path id="DejaVuSans-2e" d="M 684 794 
L 1344 794 
L 1344 0 
L 684 0 
L 684 794 
z
" transform="scale(0.015625)"/>
       </defs>
       <use xlink:href="#DejaVuSans-30"/>
       <use xlink:href="#DejaVuSans-2e" x="63.623047"/>
       <use xlink:href="#DejaVuSans-30" x="95.410156"/>
      </g>
     </g>
    </g>
    <g id="ytick_2">
     <g id="line2d_2">
      <g>
       <use xlink:href="#ma8b2933fda" x="46.42" y="172.8" style="stroke: #000000; stroke-width: 0.8"/>
      </g>
     </g>
     <g id="text_2">
      <!-- 0.5 -->
      <g transform="translate(10.794375 179.638594) scale(0.18 -0.18)">
       <defs>
        <path id="DejaVuSans-35" d="M 691 4666 
L 3169 4666 
L 3169 4134 
L 1269 4134 
L 1269 2991 
Q 1406 3038 1543 3061 
Q 1681 3084 1819 3084 
Q 2600 3084 3056 2656 
Q 3513 2228 3513 1497 
Q 3513 744 3044 326 
Q 2575 -91 1722 -91 
Q 1428 -91 1123 -41 
Q 819 9 494 109 
L 494 744 
Q 775 591 1075 516 
Q 1375 441 1709 441 
Q 2250 441 2565 725 
Q 2881 1009 2881 1497 
Q 2881 1984 2565 2268 
Q 2250 2553 1709 2553 
Q 1456 2553 1204 2497 
Q 953 2441 691 2322 
L 691 4666 
z
" transform="scale(0.015625)"/>
       </defs>
       <use xlink:href="#DejaVuSans-30"/>
       <use xlink:href="#DejaVuSans-2e" x="63.623047"/>
       <use xlink:href="#DejaVuSans-35" x="95.410156"/>
      </g>
     </g>
    </g>
    <g id="ytick_3">
     <g id="line2d_3">
      <g>
       <use xlink:href="#ma8b2933fda" x="46.42" y="25.527273" style="stroke: #000000; stroke-width: 0.8"/>
      </g>
     </g>
     <g id="text_3">
      <!-- 1.0 -->
      <g transform="translate(10.794375 32.365866) scale(0.18 -0.18)">
       <defs>
        <path id="DejaVuSans-31" d="M 794 531 
L 1825 531 
L 1825 4091 
L 703 3866 
L 703 4441 
L 1819 4666 
L 2450 4666 
L 2450 531 
L 3481 531 
L 3481 0 
L 794 0 
L 794 531 
z
" transform="scale(0.015625)"/>
       </defs>
       <use xlink:href="#DejaVuSans-31"/>
       <use xlink:href="#DejaVuSans-2e" x="63.623047"/>
       <use xlink:href="#DejaVuSans-30" x="95.410156"/>
      </g>
     </g>
    </g>
   </g>
   <g id="line2d_4">
    <path d="M 64.764545 224.687849 
L 66.94194 220.943877 
L 69.119334 215.696393 
L 73.474122 203.104048 
L 75.651516 195.472808 
L 80.006304 178.115417 
L 84.361093 157.374493 
L 86.538487 146.081576 
L 88.715881 133.861476 
L 90.893275 120.658401 
L 96.33676 81.622826 
L 99.602851 56.693299 
L 101.780245 42.209177 
L 102.868943 36.189814 
L 103.95764 30.866224 
L 105.046337 27.433182 
L 106.135034 25.527273 
L 107.223731 26.583441 
L 108.312428 29.140881 
L 109.401125 34.465683 
L 110.489822 40.780395 
L 111.578519 48.525978 
L 113.755913 66.539456 
L 118.110701 104.535822 
L 122.46549 140.781318 
L 124.642884 157.672002 
L 131.175066 206.043259 
L 140.97334 274.477552 
L 144.239431 295.027138 
L 146.416825 306.993131 
L 147.505522 311.916104 
L 148.594219 315.626162 
L 149.682916 318.317043 
L 150.771613 319.7819 
L 151.86031 320.072727 
L 152.949007 318.526283 
L 154.037704 315.666612 
L 155.126401 311.065108 
L 156.215098 305.29311 
L 158.392493 291.014473 
L 167.102069 226.460638 
L 169.279463 211.22215 
L 172.545554 188.827986 
L 175.811646 165.114915 
L 177.98904 148.577288 
L 182.343828 112.546225 
L 184.521222 93.057686 
L 189.964707 41.587597 
L 191.053404 33.72774 
L 192.142101 28.508346 
L 193.230798 25.527273 
L 194.319496 25.578063 
L 195.408193 28.094387 
L 196.49689 33.858762 
L 197.585587 41.482101 
L 199.762981 61.196379 
L 203.029072 92.075237 
L 205.206466 110.301778 
L 207.38386 126.325251 
L 215.00474 178.409661 
L 218.270831 204.188982 
L 224.803013 258.924482 
L 226.980407 275.105716 
L 229.157801 290.358695 
L 230.246499 297.452498 
L 231.335196 303.721604 
L 232.423893 309.322963 
L 233.51259 314.053586 
L 234.601287 317.708701 
L 235.689984 319.741446 
L 236.778681 320.072727 
L 237.867378 318.850143 
L 238.956075 316.253426 
L 240.044772 312.535605 
L 241.133469 307.668659 
L 242.222166 301.898421 
L 244.39956 288.613777 
L 246.576954 273.412769 
L 249.843046 248.169146 
L 253.109137 223.010514 
L 256.375228 201.087192 
L 260.730016 173.441032 
L 262.90741 157.935644 
L 265.084804 140.492236 
L 267.262199 121.333721 
L 269.439593 100.407832 
L 273.794381 55.576878 
L 274.883078 45.591675 
L 275.971775 37.331815 
L 277.060472 30.941032 
L 278.149169 26.946382 
L 279.237866 25.527273 
L 280.326563 27.120277 
L 281.41526 30.906499 
L 282.503957 36.723753 
L 283.592654 44.145617 
L 285.770049 61.633618 
L 291.213534 108.294182 
L 293.390928 125.107285 
L 295.568322 140.539638 
L 297.745716 154.516559 
L 302.100504 182.651406 
L 305.366596 205.496468 
L 315.164869 278.081395 
L 317.342263 292.534572 
L 319.519657 305.354193 
L 320.608354 310.904791 
L 321.697052 315.288545 
L 322.785749 318.650791 
L 323.874446 319.994112 
L 324.963143 320.072727 
L 326.05184 318.531655 
L 327.140537 315.983609 
L 328.229234 312.05025 
L 329.317931 307.380713 
L 331.495325 296.273943 
L 334.761416 278.341004 
L 339.116204 252.648898 
L 342.382296 232.059967 
L 345.648387 210.037136 
L 347.825781 193.914039 
L 350.003175 176.219629 
L 352.180569 156.99756 
L 354.357963 135.567174 
L 361.978843 55.67277 
L 363.06754 45.669344 
L 364.156237 37.01524 
L 365.244934 30.894332 
L 366.333631 26.747715 
L 367.422328 25.527273 
L 368.511025 26.567271 
L 369.599722 30.435077 
L 370.688419 36.028367 
L 371.777116 44.16686 
L 373.95451 63.572375 
L 379.397996 115.841661 
L 382.664087 143.858372 
L 384.841481 161.22167 
L 390.284966 204.303107 
L 393.551057 232.813 
L 397.905846 271.747534 
L 398.994543 280.44839 
L 401.171937 295.451308 
L 402.260634 301.641647 
L 403.349331 307.12147 
L 404.438028 311.282571 
L 405.526725 314.780475 
L 406.615422 317.532922 
L 407.704119 319.326588 
L 408.792816 320.072727 
L 409.881513 320.071367 
L 410.97021 319.076791 
L 412.058907 317.159044 
L 413.147605 314.293162 
L 414.236302 310.538877 
L 415.324999 305.148964 
L 417.502393 291.871136 
L 419.679787 276.454354 
L 424.034575 242.150674 
L 429.47806 195.801286 
L 431.655455 176.087562 
L 431.655455 176.087562 
" clip-path="url(#pad976e9b59)" style="fill: none; stroke: #000000; stroke-width: 4; stroke-linecap: square"/>
   </g>
   <g id="patch_3">
    <path d="M 46.42 334.8 
L 46.42 10.8 
" style="fill: none; stroke: #000000; stroke-width: 0.8; stroke-linejoin: miter; stroke-linecap: square"/>
   </g>
   <g id="patch_4">
    <path d="M 46.42 334.8 
L 450 334.8 
" style="fill: none; stroke: #000000; stroke-width: 0.8; stroke-linejoin: miter; stroke-linecap: square"/>
   </g>
  </g>
 </g>
 <defs>
  <clipPath id="pad976e9b59">
   <rect x="46.42" y="10.8" width="403.58" height="324"/>
  </clipPath>
 </defs>
</svg>
