<?xml version="1.0" encoding="utf-8" standalone="no"?>
<!DOCTYPE svg PUBLIC "-//W3C//DTD SVG 1.1//EN"
  "http://www.w3.org/Graphics/SVG/1.1/DTD/svg11.dtd">
<svg xmlns:xlink="http://www.w3.org/1999/xlink" width="460.8pt" height="345.6pt" viewBox="0 0 460.8 345.6" xmlns="http://www.w3.org/2000/svg" version="1.1">
 <metadata>
  <rdf:RDF xmlns:dc="http://purl.org/dc/elements/1.1/" xmlns:cc="http://creativecommons.org/ns#" xmlns:rdf="http://www.w3.org/1999/02/22-rdf-syntax-ns#">
   <cc:Work>
    <dc:type rdf:resource="http://purl.org/dc/dcmitype/StillImage"/>
    <dc:date>2023-04-28T11:01:28.959026</dc:date>
    <dc:format>image/svg+xml</dc:format>
    <dc:creator>
     <cc:Agent>
      <dc:title>Matplotlib v3.7.1, https://matplotlib.org/</dc:title>
     </cc:Agent>
    </dc:creator>
   </cc:Work>
  </rdf:RDF>
 </metadata>
 <defs>
  <style type="text/css">*{stroke-linejoin: round; stroke-linecap: butt}</style>
 </defs>
 <g id="figure_1">
  <g id="patch_1">
   <path d="M 0 345.6 
L 460.8 345.6 
L 460.8 0 
L 0 0 
z
" style="fill: #ffffff"/>
  </g>
  <g id="axes_1">
   <g id="patch_2">
    <path d="M 46.42 334.8 
L 450 334.8 
L 450 10.8 
L 46.42 10.8 
z
" style="fill: #ffffff"/>
   </g>
   <g id="matplotlib.axis_1"/>
   <g id="matplotlib.axis_2">
    <g id="ytick_1">
     <g id="line2d_1">
      <defs>
       <path id="m8e17754034" d="M 0 0 
L -3.5 0 
" style="stroke: #000000; stroke-width: 0.8"/>
      </defs>
      <g>
       <use xlink:href="#m8e17754034" x="46.42" y="320.072727" style="stroke: #000000; stroke-width: 0.8"/>
      </g>
     </g>
     <g id="text_1">
      <!-- 0.0 -->
      <g transform="translate(10.794375 326.911321) scale(0.18 -0.18)">
       <defs>
        <path id="DejaVuSans-30" d="M 2034 4250 
Q 1547 4250 1301 3770 
Q 1056 3291 1056 2328 
Q 1056 1369 1301 889 
Q 1547 409 2034 409 
Q 2525 409 2770 889 
Q 3016 1369 3016 2328 
Q 3016 3291 2770 3770 
Q 2525 4250 2034 4250 
z
M 2034 4750 
Q 2819 4750 3233 4129 
Q 3647 3509 3647 2328 
Q 3647 1150 3233 529 
Q 2819 -91 2034 -91 
Q 1250 -91 836 529 
Q 422 1150 422 2328 
Q 422 3509 836 4129 
Q 1250 4750 2034 4750 
z
" transform="scale(0.015625)"/>
        <path id="DejaVuSans-2e" d="M 684 794 
L 1344 794 
L 1344 0 
L 684 0 
L 684 794 
z
" transform="scale(0.015625)"/>
       </defs>
       <use xlink:href="#DejaVuSans-30"/>
       <use xlink:href="#DejaVuSans-2e" x="63.623047"/>
       <use xlink:href="#DejaVuSans-30" x="95.410156"/>
      </g>
     </g>
    </g>
    <g id="ytick_2">
     <g id="line2d_2">
      <g>
       <use xlink:href="#m8e17754034" x="46.42" y="172.8" style="stroke: #000000; stroke-width: 0.8"/>
      </g>
     </g>
     <g id="text_2">
      <!-- 0.5 -->
      <g transform="translate(10.794375 179.638594) scale(0.18 -0.18)">
       <defs>
        <path id="DejaVuSans-35" d="M 691 4666 
L 3169 4666 
L 3169 4134 
L 1269 4134 
L 1269 2991 
Q 1406 3038 1543 3061 
Q 1681 3084 1819 3084 
Q 2600 3084 3056 2656 
Q 3513 2228 3513 1497 
Q 3513 744 3044 326 
Q 2575 -91 1722 -91 
Q 1428 -91 1123 -41 
Q 819 9 494 109 
L 494 744 
Q 775 591 1075 516 
Q 1375 441 1709 441 
Q 2250 441 2565 725 
Q 2881 1009 2881 1497 
Q 2881 1984 2565 2268 
Q 2250 2553 1709 2553 
Q 1456 2553 1204 2497 
Q 953 2441 691 2322 
L 691 4666 
z
" transform="scale(0.015625)"/>
       </defs>
       <use xlink:href="#DejaVuSans-30"/>
       <use xlink:href="#DejaVuSans-2e" x="63.623047"/>
       <use xlink:href="#DejaVuSans-35" x="95.410156"/>
      </g>
     </g>
    </g>
    <g id="ytick_3">
     <g id="line2d_3">
      <g>
       <use xlink:href="#m8e17754034" x="46.42" y="25.527273" style="stroke: #000000; stroke-width: 0.8"/>
      </g>
     </g>
     <g id="text_3">
      <!-- 1.0 -->
      <g transform="translate(10.794375 32.365866) scale(0.18 -0.18)">
       <defs>
        <path id="DejaVuSans-31" d="M 794 531 
L 1825 531 
L 1825 4091 
L 703 3866 
L 703 4441 
L 1819 4666 
L 2450 4666 
L 2450 531 
L 3481 531 
L 3481 0 
L 794 0 
L 794 531 
z
" transform="scale(0.015625)"/>
       </defs>
       <use xlink:href="#DejaVuSans-31"/>
       <use xlink:href="#DejaVuSans-2e" x="63.623047"/>
       <use xlink:href="#DejaVuSans-30" x="95.410156"/>
      </g>
     </g>
    </g>
   </g>
   <g id="line2d_4">
    <path d="M 64.764545 246.535148 
L 66.94194 235.03465 
L 69.119334 221.522049 
L 71.296728 205.719784 
L 75.651516 171.1334 
L 81.095001 130.307489 
L 82.183698 122.887223 
L 85.44979 99.098801 
L 89.804578 71.193766 
L 94.159366 46.230881 
L 95.248063 41.069687 
L 96.33676 36.459444 
L 97.425457 32.865077 
L 98.514154 29.688146 
L 99.602851 27.503864 
L 100.691548 26.122694 
L 101.780245 25.592389 
L 102.868943 25.527273 
L 103.95764 26.391112 
L 105.046337 27.968561 
L 106.135034 30.459797 
L 107.223731 33.620699 
L 108.312428 37.600567 
L 109.401125 42.278103 
L 110.489822 47.813931 
L 111.578519 54.044408 
L 113.755913 68.903567 
L 115.933307 85.509417 
L 126.820278 173.102152 
L 133.35246 227.751762 
L 135.529854 243.508653 
L 137.707248 257.248033 
L 139.884643 269.747672 
L 144.239431 293.29703 
L 146.416825 304.259855 
L 147.505522 308.944895 
L 148.594219 312.962109 
L 149.682916 316.177758 
L 150.771613 318.495677 
L 151.86031 319.83654 
L 152.949007 320.072727 
L 154.037704 319.374374 
L 155.126401 317.67344 
L 156.215098 314.75384 
L 157.303796 310.806973 
L 159.48119 300.056412 
L 161.658584 285.683325 
L 164.924675 259.067741 
L 167.102069 239.964251 
L 171.456857 198.638811 
L 174.722948 165.694729 
L 179.077737 125.861046 
L 182.343828 101.164069 
L 184.521222 86.441357 
L 186.698616 72.553078 
L 188.87601 59.401916 
L 191.053404 47.881242 
L 193.230798 38.176851 
L 194.319496 34.385591 
L 195.408193 31.011046 
L 196.49689 28.679678 
L 197.585587 26.787269 
L 198.674284 25.86725 
L 199.762981 25.527273 
L 200.851678 26.157982 
L 201.940375 27.440679 
L 203.029072 29.702261 
L 204.117769 32.586722 
L 205.206466 36.293484 
L 206.295163 40.586731 
L 207.38386 45.630018 
L 208.472557 51.362054 
L 210.649951 64.445554 
L 212.827346 79.067914 
L 215.00474 95.373306 
L 218.270831 121.674435 
L 230.246499 221.467659 
L 233.51259 245.659604 
L 236.778681 267.142312 
L 238.956075 280.289905 
L 241.133469 292.483387 
L 243.310863 303.258555 
L 244.39956 307.905319 
L 245.488257 311.91813 
L 246.576954 315.343445 
L 247.665651 317.874806 
L 248.754349 319.37884 
L 249.843046 320.072727 
L 250.931743 319.501938 
L 252.02044 318.28844 
L 253.109137 315.494225 
L 254.197834 311.936718 
L 256.375228 301.662032 
L 258.552622 288.835111 
L 260.730016 273.970874 
L 262.90741 258.220181 
L 265.084804 241.24736 
L 268.350896 213.355755 
L 275.971775 146.086018 
L 280.326563 111.450239 
L 286.858746 63.605925 
L 289.03614 49.667171 
L 290.124837 43.796721 
L 291.213534 38.593778 
L 292.302231 34.339734 
L 293.390928 30.847193 
L 294.479625 28.270985 
L 295.568322 26.498662 
L 296.657019 25.627712 
L 297.745716 25.527273 
L 298.834413 26.191216 
L 299.92311 27.592576 
L 301.011807 29.974313 
L 302.100504 32.852015 
L 304.277899 40.784345 
L 306.455293 51.295727 
L 308.632687 63.667811 
L 311.898778 84.677847 
L 314.076172 100.179917 
L 316.253566 117.475027 
L 318.43096 136.41609 
L 327.140537 216.683521 
L 329.317931 234.436034 
L 331.495325 250.853106 
L 333.672719 265.929954 
L 335.850113 279.719203 
L 336.93881 286.390832 
L 339.116204 298.17798 
L 341.293599 307.925885 
L 342.382296 311.883799 
L 343.470993 315.277446 
L 344.55969 317.678274 
L 345.648387 319.326601 
L 346.737084 320.072727 
L 347.825781 319.971305 
L 348.914478 318.903361 
L 350.003175 316.905742 
L 351.091872 313.772695 
L 352.180569 309.635528 
L 353.269266 304.453882 
L 354.357963 298.716488 
L 356.535357 285.110106 
L 358.712752 268.979392 
L 360.890146 250.875521 
L 363.06754 230.699575 
L 365.244934 208.478867 
L 368.511025 172.53548 
L 371.777116 137.044184 
L 373.95451 115.635146 
L 376.131905 96.846454 
L 378.309299 81.054758 
L 380.486693 67.370904 
L 382.664087 55.381318 
L 384.841481 45.058772 
L 387.018875 36.631758 
L 388.107572 33.241132 
L 389.196269 30.50999 
L 390.284966 28.379869 
L 391.373663 26.845942 
L 392.46236 25.981085 
L 393.551057 25.527273 
L 394.639755 25.579204 
L 395.728452 26.071307 
L 396.817149 27.058496 
L 397.905846 28.624095 
L 398.994543 30.792962 
L 400.08324 33.527949 
L 401.171937 37.019717 
L 402.260634 41.047268 
L 403.349331 45.91471 
L 404.438028 51.473941 
L 406.615422 64.939991 
L 408.792816 80.87126 
L 413.147605 116.370754 
L 424.034575 208.022316 
L 428.389363 241.780369 
L 430.566757 255.964103 
L 431.655455 262.197239 
L 431.655455 262.197239 
" clip-path="url(#pbc56638994)" style="fill: none; stroke: #000000; stroke-width: 4; stroke-linecap: square"/>
   </g>
   <g id="patch_3">
    <path d="M 46.42 334.8 
L 46.42 10.8 
" style="fill: none; stroke: #000000; stroke-width: 0.8; stroke-linejoin: miter; stroke-linecap: square"/>
   </g>
   <g id="patch_4">
    <path d="M 46.42 334.8 
L 450 334.8 
" style="fill: none; stroke: #000000; stroke-width: 0.8; stroke-linejoin: miter; stroke-linecap: square"/>
   </g>
  </g>
 </g>
 <defs>
  <clipPath id="pbc56638994">
   <rect x="46.42" y="10.8" width="403.58" height="324"/>
  </clipPath>
 </defs>
</svg>
