<?xml version="1.0" encoding="utf-8" standalone="no"?>
<!DOCTYPE svg PUBLIC "-//W3C//DTD SVG 1.1//EN"
  "http://www.w3.org/Graphics/SVG/1.1/DTD/svg11.dtd">
<svg xmlns:xlink="http://www.w3.org/1999/xlink" width="460.8pt" height="345.6pt" viewBox="0 0 460.8 345.6" xmlns="http://www.w3.org/2000/svg" version="1.1">
 <metadata>
  <rdf:RDF xmlns:dc="http://purl.org/dc/elements/1.1/" xmlns:cc="http://creativecommons.org/ns#" xmlns:rdf="http://www.w3.org/1999/02/22-rdf-syntax-ns#">
   <cc:Work>
    <dc:type rdf:resource="http://purl.org/dc/dcmitype/StillImage"/>
    <dc:date>2023-04-28T11:06:02.290429</dc:date>
    <dc:format>image/svg+xml</dc:format>
    <dc:creator>
     <cc:Agent>
      <dc:title>Matplotlib v3.7.1, https://matplotlib.org/</dc:title>
     </cc:Agent>
    </dc:creator>
   </cc:Work>
  </rdf:RDF>
 </metadata>
 <defs>
  <style type="text/css">*{stroke-linejoin: round; stroke-linecap: butt}</style>
 </defs>
 <g id="figure_1">
  <g id="patch_1">
   <path d="M 0 345.6 
L 460.8 345.6 
L 460.8 0 
L 0 0 
z
" style="fill: #ffffff"/>
  </g>
  <g id="axes_1">
   <g id="patch_2">
    <path d="M 46.42 334.8 
L 450 334.8 
L 450 10.8 
L 46.42 10.8 
z
" style="fill: #ffffff"/>
   </g>
   <g id="matplotlib.axis_1"/>
   <g id="matplotlib.axis_2">
    <g id="ytick_1">
     <g id="line2d_1">
      <defs>
       <path id="m2d7c02e11a" d="M 0 0 
L -3.5 0 
" style="stroke: #000000; stroke-width: 0.8"/>
      </defs>
      <g>
       <use xlink:href="#m2d7c02e11a" x="46.42" y="320.072727" style="stroke: #000000; stroke-width: 0.8"/>
      </g>
     </g>
     <g id="text_1">
      <!-- 0.0 -->
      <g transform="translate(10.794375 326.911321) scale(0.18 -0.18)">
       <defs>
        <path id="DejaVuSans-30" d="M 2034 4250 
Q 1547 4250 1301 3770 
Q 1056 3291 1056 2328 
Q 1056 1369 1301 889 
Q 1547 409 2034 409 
Q 2525 409 2770 889 
Q 3016 1369 3016 2328 
Q 3016 3291 2770 3770 
Q 2525 4250 2034 4250 
z
M 2034 4750 
Q 2819 4750 3233 4129 
Q 3647 3509 3647 2328 
Q 3647 1150 3233 529 
Q 2819 -91 2034 -91 
Q 1250 -91 836 529 
Q 422 1150 422 2328 
Q 422 3509 836 4129 
Q 1250 4750 2034 4750 
z
" transform="scale(0.015625)"/>
        <path id="DejaVuSans-2e" d="M 684 794 
L 1344 794 
L 1344 0 
L 684 0 
L 684 794 
z
" transform="scale(0.015625)"/>
       </defs>
       <use xlink:href="#DejaVuSans-30"/>
       <use xlink:href="#DejaVuSans-2e" x="63.623047"/>
       <use xlink:href="#DejaVuSans-30" x="95.410156"/>
      </g>
     </g>
    </g>
    <g id="ytick_2">
     <g id="line2d_2">
      <g>
       <use xlink:href="#m2d7c02e11a" x="46.42" y="172.8" style="stroke: #000000; stroke-width: 0.8"/>
      </g>
     </g>
     <g id="text_2">
      <!-- 0.5 -->
      <g transform="translate(10.794375 179.638594) scale(0.18 -0.18)">
       <defs>
        <path id="DejaVuSans-35" d="M 691 4666 
L 3169 4666 
L 3169 4134 
L 1269 4134 
L 1269 2991 
Q 1406 3038 1543 3061 
Q 1681 3084 1819 3084 
Q 2600 3084 3056 2656 
Q 3513 2228 3513 1497 
Q 3513 744 3044 326 
Q 2575 -91 1722 -91 
Q 1428 -91 1123 -41 
Q 819 9 494 109 
L 494 744 
Q 775 591 1075 516 
Q 1375 441 1709 441 
Q 2250 441 2565 725 
Q 2881 1009 2881 1497 
Q 2881 1984 2565 2268 
Q 2250 2553 1709 2553 
Q 1456 2553 1204 2497 
Q 953 2441 691 2322 
L 691 4666 
z
" transform="scale(0.015625)"/>
       </defs>
       <use xlink:href="#DejaVuSans-30"/>
       <use xlink:href="#DejaVuSans-2e" x="63.623047"/>
       <use xlink:href="#DejaVuSans-35" x="95.410156"/>
      </g>
     </g>
    </g>
    <g id="ytick_3">
     <g id="line2d_3">
      <g>
       <use xlink:href="#m2d7c02e11a" x="46.42" y="25.527273" style="stroke: #000000; stroke-width: 0.8"/>
      </g>
     </g>
     <g id="text_3">
      <!-- 1.0 -->
      <g transform="translate(10.794375 32.365866) scale(0.18 -0.18)">
       <defs>
        <path id="DejaVuSans-31" d="M 794 531 
L 1825 531 
L 1825 4091 
L 703 3866 
L 703 4441 
L 1819 4666 
L 2450 4666 
L 2450 531 
L 3481 531 
L 3481 0 
L 794 0 
L 794 531 
z
" transform="scale(0.015625)"/>
       </defs>
       <use xlink:href="#DejaVuSans-31"/>
       <use xlink:href="#DejaVuSans-2e" x="63.623047"/>
       <use xlink:href="#DejaVuSans-30" x="95.410156"/>
      </g>
     </g>
    </g>
   </g>
   <g id="line2d_4">
    <path d="M 64.764545 299.010497 
L 65.853243 302.722533 
L 70.208031 315.384147 
L 71.296728 317.144778 
L 72.385425 318.346611 
L 73.474122 318.367062 
L 74.562819 319.70769 
L 75.651516 320.072727 
L 76.740213 319.734874 
L 77.82891 318.910074 
L 81.095001 315.956654 
L 83.272395 314.164616 
L 84.361093 313.266357 
L 86.538487 311.899056 
L 90.893275 309.672937 
L 93.070669 308.910283 
L 95.248063 307.893543 
L 99.602851 305.856413 
L 102.868943 303.32483 
L 106.135034 300.784291 
L 109.401125 298.015152 
L 111.578519 296.132841 
L 114.84461 293.711771 
L 119.199398 290.852472 
L 121.376793 289.174906 
L 123.554187 287.041136 
L 125.731581 284.503488 
L 127.908975 281.398355 
L 132.263763 275.056479 
L 134.441157 272.170359 
L 138.795946 267.116631 
L 140.97334 264.283996 
L 145.328128 257.622227 
L 154.037704 242.517522 
L 157.303796 236.502258 
L 159.48119 231.990014 
L 161.658584 227.335959 
L 163.835978 222.742465 
L 169.279463 211.228531 
L 172.545554 202.791906 
L 174.722948 196.48369 
L 181.255131 176.812101 
L 183.432525 171.090914 
L 186.698616 163.260024 
L 197.585587 138.736837 
L 199.762981 134.444643 
L 201.940375 130.748116 
L 205.206466 126.013645 
L 211.738649 116.766139 
L 223.714316 98.202009 
L 225.89171 95.334753 
L 231.335196 88.691299 
L 233.51259 85.813966 
L 238.956075 77.810691 
L 242.222166 73.166319 
L 244.39956 70.25756 
L 245.488257 68.733534 
L 247.665651 65.088605 
L 249.843046 60.565072 
L 252.02044 55.481916 
L 255.286531 47.399585 
L 258.552622 40.211712 
L 260.730016 35.931965 
L 262.90741 32.249694 
L 263.996107 30.66194 
L 265.084804 29.304049 
L 266.173501 28.172249 
L 267.262199 27.233023 
L 268.350896 26.526699 
L 269.439593 26.043638 
L 270.52829 25.723359 
L 271.616987 25.53749 
L 272.705684 25.527273 
L 273.794381 25.705451 
L 274.883078 26.011106 
L 275.971775 26.506773 
L 277.060472 27.21738 
L 278.149169 28.125338 
L 279.237866 29.226064 
L 280.326563 30.526809 
L 281.41526 32.035543 
L 283.592654 35.612546 
L 287.947443 43.09447 
L 292.302231 51.056294 
L 307.54399 82.763089 
L 310.810081 90.065289 
L 315.164869 100.553918 
L 319.519657 111.062912 
L 321.697052 115.871752 
L 328.229234 129.616807 
L 332.584022 139.514668 
L 335.850113 146.570887 
L 344.55969 163.142977 
L 350.003175 174.873467 
L 353.269266 181.09398 
L 359.801449 191.201024 
L 363.06754 196.307425 
L 366.333631 201.646069 
L 369.599722 207.522112 
L 372.865813 213.884664 
L 382.664087 233.261185 
L 387.018875 241.301978 
L 389.196269 244.831123 
L 391.373663 248.039506 
L 393.551057 250.886573 
L 397.905846 256.161821 
L 400.08324 259.203547 
L 402.260634 262.462905 
L 405.526725 267.481064 
L 407.704119 270.11049 
L 409.881513 272.249551 
L 412.058907 273.931521 
L 415.324999 275.91682 
L 422.945878 281.019851 
L 426.211969 282.289354 
L 428.389363 282.952222 
L 431.655455 283.630072 
L 431.655455 283.630072 
" clip-path="url(#pf72e62512f)" style="fill: none; stroke: #000000; stroke-width: 4; stroke-linecap: square"/>
   </g>
   <g id="patch_3">
    <path d="M 46.42 334.8 
L 46.42 10.8 
" style="fill: none; stroke: #000000; stroke-width: 0.8; stroke-linejoin: miter; stroke-linecap: square"/>
   </g>
   <g id="patch_4">
    <path d="M 46.42 334.8 
L 450 334.8 
" style="fill: none; stroke: #000000; stroke-width: 0.8; stroke-linejoin: miter; stroke-linecap: square"/>
   </g>
  </g>
 </g>
 <defs>
  <clipPath id="pf72e62512f">
   <rect x="46.42" y="10.8" width="403.58" height="324"/>
  </clipPath>
 </defs>
</svg>
