<?xml version="1.0" encoding="utf-8" standalone="no"?>
<!DOCTYPE svg PUBLIC "-//W3C//DTD SVG 1.1//EN"
  "http://www.w3.org/Graphics/SVG/1.1/DTD/svg11.dtd">
<svg xmlns:xlink="http://www.w3.org/1999/xlink" width="460.8pt" height="345.6pt" viewBox="0 0 460.8 345.6" xmlns="http://www.w3.org/2000/svg" version="1.1">
 <metadata>
  <rdf:RDF xmlns:dc="http://purl.org/dc/elements/1.1/" xmlns:cc="http://creativecommons.org/ns#" xmlns:rdf="http://www.w3.org/1999/02/22-rdf-syntax-ns#">
   <cc:Work>
    <dc:type rdf:resource="http://purl.org/dc/dcmitype/StillImage"/>
    <dc:date>2023-04-28T11:01:29.045687</dc:date>
    <dc:format>image/svg+xml</dc:format>
    <dc:creator>
     <cc:Agent>
      <dc:title>Matplotlib v3.7.1, https://matplotlib.org/</dc:title>
     </cc:Agent>
    </dc:creator>
   </cc:Work>
  </rdf:RDF>
 </metadata>
 <defs>
  <style type="text/css">*{stroke-linejoin: round; stroke-linecap: butt}</style>
 </defs>
 <g id="figure_1">
  <g id="patch_1">
   <path d="M 0 345.6 
L 460.8 345.6 
L 460.8 0 
L 0 0 
z
" style="fill: #ffffff"/>
  </g>
  <g id="axes_1">
   <g id="patch_2">
    <path d="M 46.42 334.8 
L 450 334.8 
L 450 10.8 
L 46.42 10.8 
z
" style="fill: #ffffff"/>
   </g>
   <g id="matplotlib.axis_1"/>
   <g id="matplotlib.axis_2">
    <g id="ytick_1">
     <g id="line2d_1">
      <defs>
       <path id="m7d44816942" d="M 0 0 
L -3.5 0 
" style="stroke: #000000; stroke-width: 0.8"/>
      </defs>
      <g>
       <use xlink:href="#m7d44816942" x="46.42" y="320.072727" style="stroke: #000000; stroke-width: 0.8"/>
      </g>
     </g>
     <g id="text_1">
      <!-- 0.0 -->
      <g transform="translate(10.794375 326.911321) scale(0.18 -0.18)">
       <defs>
        <path id="DejaVuSans-30" d="M 2034 4250 
Q 1547 4250 1301 3770 
Q 1056 3291 1056 2328 
Q 1056 1369 1301 889 
Q 1547 409 2034 409 
Q 2525 409 2770 889 
Q 3016 1369 3016 2328 
Q 3016 3291 2770 3770 
Q 2525 4250 2034 4250 
z
M 2034 4750 
Q 2819 4750 3233 4129 
Q 3647 3509 3647 2328 
Q 3647 1150 3233 529 
Q 2819 -91 2034 -91 
Q 1250 -91 836 529 
Q 422 1150 422 2328 
Q 422 3509 836 4129 
Q 1250 4750 2034 4750 
z
" transform="scale(0.015625)"/>
        <path id="DejaVuSans-2e" d="M 684 794 
L 1344 794 
L 1344 0 
L 684 0 
L 684 794 
z
" transform="scale(0.015625)"/>
       </defs>
       <use xlink:href="#DejaVuSans-30"/>
       <use xlink:href="#DejaVuSans-2e" x="63.623047"/>
       <use xlink:href="#DejaVuSans-30" x="95.410156"/>
      </g>
     </g>
    </g>
    <g id="ytick_2">
     <g id="line2d_2">
      <g>
       <use xlink:href="#m7d44816942" x="46.42" y="172.8" style="stroke: #000000; stroke-width: 0.8"/>
      </g>
     </g>
     <g id="text_2">
      <!-- 0.5 -->
      <g transform="translate(10.794375 179.638594) scale(0.18 -0.18)">
       <defs>
        <path id="DejaVuSans-35" d="M 691 4666 
L 3169 4666 
L 3169 4134 
L 1269 4134 
L 1269 2991 
Q 1406 3038 1543 3061 
Q 1681 3084 1819 3084 
Q 2600 3084 3056 2656 
Q 3513 2228 3513 1497 
Q 3513 744 3044 326 
Q 2575 -91 1722 -91 
Q 1428 -91 1123 -41 
Q 819 9 494 109 
L 494 744 
Q 775 591 1075 516 
Q 1375 441 1709 441 
Q 2250 441 2565 725 
Q 2881 1009 2881 1497 
Q 2881 1984 2565 2268 
Q 2250 2553 1709 2553 
Q 1456 2553 1204 2497 
Q 953 2441 691 2322 
L 691 4666 
z
" transform="scale(0.015625)"/>
       </defs>
       <use xlink:href="#DejaVuSans-30"/>
       <use xlink:href="#DejaVuSans-2e" x="63.623047"/>
       <use xlink:href="#DejaVuSans-35" x="95.410156"/>
      </g>
     </g>
    </g>
    <g id="ytick_3">
     <g id="line2d_3">
      <g>
       <use xlink:href="#m7d44816942" x="46.42" y="25.527273" style="stroke: #000000; stroke-width: 0.8"/>
      </g>
     </g>
     <g id="text_3">
      <!-- 1.0 -->
      <g transform="translate(10.794375 32.365866) scale(0.18 -0.18)">
       <defs>
        <path id="DejaVuSans-31" d="M 794 531 
L 1825 531 
L 1825 4091 
L 703 3866 
L 703 4441 
L 1819 4666 
L 2450 4666 
L 2450 531 
L 3481 531 
L 3481 0 
L 794 0 
L 794 531 
z
" transform="scale(0.015625)"/>
       </defs>
       <use xlink:href="#DejaVuSans-31"/>
       <use xlink:href="#DejaVuSans-2e" x="63.623047"/>
       <use xlink:href="#DejaVuSans-30" x="95.410156"/>
      </g>
     </g>
    </g>
   </g>
   <g id="line2d_4">
    <path d="M 64.764545 188.506521 
L 66.94194 172.215253 
L 69.119334 154.541121 
L 74.562819 108.915516 
L 76.740213 92.561563 
L 77.82891 84.898634 
L 80.006304 71.575527 
L 82.183698 60.598605 
L 84.361093 51.005574 
L 86.538487 42.931302 
L 88.715881 36.447505 
L 89.804578 33.526404 
L 90.893275 31.000583 
L 91.981972 28.96114 
L 93.070669 27.455092 
L 94.159366 26.147466 
L 95.248063 25.612719 
L 96.33676 25.527273 
L 97.425457 26.145377 
L 98.514154 27.284094 
L 99.602851 29.167181 
L 100.691548 31.638051 
L 101.780245 34.619792 
L 102.868943 38.622412 
L 103.95764 43.282498 
L 106.135034 55.280773 
L 108.312428 69.91135 
L 112.667216 103.497579 
L 119.199398 158.085715 
L 127.908975 230.909785 
L 130.086369 248.121095 
L 132.263763 263.938036 
L 134.441157 278.083651 
L 136.618551 290.047727 
L 138.795946 300.416967 
L 140.97334 308.809001 
L 142.062037 312.178833 
L 143.150734 315.050642 
L 144.239431 317.243139 
L 145.328128 318.87931 
L 146.416825 319.765493 
L 147.505522 320.072727 
L 148.594219 319.501797 
L 149.682916 318.16098 
L 150.771613 315.672161 
L 151.86031 312.551881 
L 154.037704 304.078669 
L 156.215098 293.045442 
L 158.392493 279.267124 
L 160.569887 263.353606 
L 162.747281 245.218502 
L 167.102069 205.377094 
L 173.634251 145.255465 
L 176.900343 117.514581 
L 179.077737 100.586292 
L 181.255131 85.127007 
L 183.432525 70.701365 
L 184.521222 63.972781 
L 187.787313 46.785045 
L 188.87601 41.324446 
L 191.053404 32.386036 
L 192.142101 29.241654 
L 193.230798 26.816114 
L 194.319496 25.642056 
L 195.408193 25.527273 
L 196.49689 26.778122 
L 197.585587 29.342269 
L 198.674284 33.123453 
L 199.762981 38.00106 
L 200.851678 43.473124 
L 203.029072 56.972847 
L 207.38386 89.097885 
L 210.649951 113.601058 
L 213.916043 136.946079 
L 219.359528 177.294319 
L 222.625619 201.97805 
L 224.803013 217.894825 
L 231.335196 259.657035 
L 233.51259 272.735553 
L 236.778681 292.838486 
L 238.956075 304.397483 
L 240.044772 309.13147 
L 241.133469 313.342859 
L 242.222166 316.523817 
L 243.310863 318.810007 
L 244.39956 320.072727 
L 245.488257 320.032681 
L 246.576954 318.79411 
L 247.665651 316.272688 
L 248.754349 312.775165 
L 249.843046 307.850936 
L 250.931743 301.858926 
L 253.109137 287.258004 
L 255.286531 270.18941 
L 258.552622 241.491893 
L 260.730016 221.275752 
L 269.439593 138.85701 
L 271.616987 120.42801 
L 273.794381 104.154412 
L 275.971775 89.802261 
L 278.149169 77.252051 
L 280.326563 65.678602 
L 282.503957 54.863461 
L 284.681351 44.589229 
L 285.770049 39.842819 
L 287.947443 32.028994 
L 289.03614 29.150572 
L 290.124837 26.988376 
L 291.213534 25.784929 
L 292.302231 25.527273 
L 293.390928 26.274169 
L 294.479625 28.152691 
L 295.568322 30.952338 
L 296.657019 34.504289 
L 297.745716 38.921852 
L 298.834413 43.980079 
L 301.011807 56.110852 
L 303.189202 70.78718 
L 305.366596 87.015307 
L 308.632687 114.110787 
L 315.164869 170.826727 
L 318.43096 198.903849 
L 321.697052 225.339925 
L 323.874446 241.959741 
L 326.05184 257.079694 
L 328.229234 270.600661 
L 330.406628 282.400143 
L 332.584022 293.056035 
L 334.761416 302.481322 
L 336.93881 310.80064 
L 338.027507 314.392045 
L 339.116204 317.283947 
L 340.204902 319.167374 
L 341.293599 320.072727 
L 342.382296 319.866301 
L 343.470993 318.732675 
L 344.55969 316.395927 
L 345.648387 312.53024 
L 346.737084 307.155045 
L 347.825781 300.688091 
L 348.914478 293.402945 
L 351.091872 276.52637 
L 353.269266 257.338162 
L 357.624054 215.919384 
L 361.978843 174.579258 
L 366.333631 134.557407 
L 368.511025 116.280708 
L 370.688419 99.695012 
L 372.865813 85.690089 
L 377.220602 60.223673 
L 379.397996 48.476838 
L 381.57539 38.51165 
L 382.664087 34.47411 
L 383.752784 31.239243 
L 384.841481 28.69841 
L 385.930178 26.9941 
L 387.018875 25.821551 
L 388.107572 25.527273 
L 389.196269 26.069358 
L 390.284966 27.464608 
L 391.373663 29.628911 
L 392.46236 32.856948 
L 393.551057 36.947561 
L 394.639755 41.721165 
L 396.817149 53.640631 
L 398.994543 67.969029 
L 403.349331 101.566722 
L 418.59109 228.909915 
L 421.857181 252.986786 
L 422.945878 260.37431 
L 425.123272 271.432447 
L 426.211969 275.871095 
L 427.300666 279.736079 
L 428.389363 282.831413 
L 429.47806 285.337146 
L 430.566757 287.308222 
L 431.655455 288.817364 
L 431.655455 288.817364 
" clip-path="url(#pde46b35324)" style="fill: none; stroke: #000000; stroke-width: 4; stroke-linecap: square"/>
   </g>
   <g id="patch_3">
    <path d="M 46.42 334.8 
L 46.42 10.8 
" style="fill: none; stroke: #000000; stroke-width: 0.8; stroke-linejoin: miter; stroke-linecap: square"/>
   </g>
   <g id="patch_4">
    <path d="M 46.42 334.8 
L 450 334.8 
" style="fill: none; stroke: #000000; stroke-width: 0.8; stroke-linejoin: miter; stroke-linecap: square"/>
   </g>
  </g>
 </g>
 <defs>
  <clipPath id="pde46b35324">
   <rect x="46.42" y="10.8" width="403.58" height="324"/>
  </clipPath>
 </defs>
</svg>
