<?xml version="1.0" encoding="utf-8" standalone="no"?>
<!DOCTYPE svg PUBLIC "-//W3C//DTD SVG 1.1//EN"
  "http://www.w3.org/Graphics/SVG/1.1/DTD/svg11.dtd">
<svg xmlns:xlink="http://www.w3.org/1999/xlink" width="460.8pt" height="345.6pt" viewBox="0 0 460.8 345.6" xmlns="http://www.w3.org/2000/svg" version="1.1">
 <metadata>
  <rdf:RDF xmlns:dc="http://purl.org/dc/elements/1.1/" xmlns:cc="http://creativecommons.org/ns#" xmlns:rdf="http://www.w3.org/1999/02/22-rdf-syntax-ns#">
   <cc:Work>
    <dc:type rdf:resource="http://purl.org/dc/dcmitype/StillImage"/>
    <dc:date>2023-04-28T11:08:18.831404</dc:date>
    <dc:format>image/svg+xml</dc:format>
    <dc:creator>
     <cc:Agent>
      <dc:title>Matplotlib v3.7.1, https://matplotlib.org/</dc:title>
     </cc:Agent>
    </dc:creator>
   </cc:Work>
  </rdf:RDF>
 </metadata>
 <defs>
  <style type="text/css">*{stroke-linejoin: round; stroke-linecap: butt}</style>
 </defs>
 <g id="figure_1">
  <g id="patch_1">
   <path d="M 0 345.6 
L 460.8 345.6 
L 460.8 0 
L 0 0 
z
" style="fill: #ffffff"/>
  </g>
  <g id="axes_1">
   <g id="patch_2">
    <path d="M 46.42 334.8 
L 450 334.8 
L 450 10.8 
L 46.42 10.8 
z
" style="fill: #ffffff"/>
   </g>
   <g id="matplotlib.axis_1"/>
   <g id="matplotlib.axis_2">
    <g id="ytick_1">
     <g id="line2d_1">
      <defs>
       <path id="m46c7c39af5" d="M 0 0 
L -3.5 0 
" style="stroke: #000000; stroke-width: 0.8"/>
      </defs>
      <g>
       <use xlink:href="#m46c7c39af5" x="46.42" y="320.072727" style="stroke: #000000; stroke-width: 0.8"/>
      </g>
     </g>
     <g id="text_1">
      <!-- 0.0 -->
      <g transform="translate(10.794375 326.911321) scale(0.18 -0.18)">
       <defs>
        <path id="DejaVuSans-30" d="M 2034 4250 
Q 1547 4250 1301 3770 
Q 1056 3291 1056 2328 
Q 1056 1369 1301 889 
Q 1547 409 2034 409 
Q 2525 409 2770 889 
Q 3016 1369 3016 2328 
Q 3016 3291 2770 3770 
Q 2525 4250 2034 4250 
z
M 2034 4750 
Q 2819 4750 3233 4129 
Q 3647 3509 3647 2328 
Q 3647 1150 3233 529 
Q 2819 -91 2034 -91 
Q 1250 -91 836 529 
Q 422 1150 422 2328 
Q 422 3509 836 4129 
Q 1250 4750 2034 4750 
z
" transform="scale(0.015625)"/>
        <path id="DejaVuSans-2e" d="M 684 794 
L 1344 794 
L 1344 0 
L 684 0 
L 684 794 
z
" transform="scale(0.015625)"/>
       </defs>
       <use xlink:href="#DejaVuSans-30"/>
       <use xlink:href="#DejaVuSans-2e" x="63.623047"/>
       <use xlink:href="#DejaVuSans-30" x="95.410156"/>
      </g>
     </g>
    </g>
    <g id="ytick_2">
     <g id="line2d_2">
      <g>
       <use xlink:href="#m46c7c39af5" x="46.42" y="172.8" style="stroke: #000000; stroke-width: 0.8"/>
      </g>
     </g>
     <g id="text_2">
      <!-- 0.5 -->
      <g transform="translate(10.794375 179.638594) scale(0.18 -0.18)">
       <defs>
        <path id="DejaVuSans-35" d="M 691 4666 
L 3169 4666 
L 3169 4134 
L 1269 4134 
L 1269 2991 
Q 1406 3038 1543 3061 
Q 1681 3084 1819 3084 
Q 2600 3084 3056 2656 
Q 3513 2228 3513 1497 
Q 3513 744 3044 326 
Q 2575 -91 1722 -91 
Q 1428 -91 1123 -41 
Q 819 9 494 109 
L 494 744 
Q 775 591 1075 516 
Q 1375 441 1709 441 
Q 2250 441 2565 725 
Q 2881 1009 2881 1497 
Q 2881 1984 2565 2268 
Q 2250 2553 1709 2553 
Q 1456 2553 1204 2497 
Q 953 2441 691 2322 
L 691 4666 
z
" transform="scale(0.015625)"/>
       </defs>
       <use xlink:href="#DejaVuSans-30"/>
       <use xlink:href="#DejaVuSans-2e" x="63.623047"/>
       <use xlink:href="#DejaVuSans-35" x="95.410156"/>
      </g>
     </g>
    </g>
    <g id="ytick_3">
     <g id="line2d_3">
      <g>
       <use xlink:href="#m46c7c39af5" x="46.42" y="25.527273" style="stroke: #000000; stroke-width: 0.8"/>
      </g>
     </g>
     <g id="text_3">
      <!-- 1.0 -->
      <g transform="translate(10.794375 32.365866) scale(0.18 -0.18)">
       <defs>
        <path id="DejaVuSans-31" d="M 794 531 
L 1825 531 
L 1825 4091 
L 703 3866 
L 703 4441 
L 1819 4666 
L 2450 4666 
L 2450 531 
L 3481 531 
L 3481 0 
L 794 0 
L 794 531 
z
" transform="scale(0.015625)"/>
       </defs>
       <use xlink:href="#DejaVuSans-31"/>
       <use xlink:href="#DejaVuSans-2e" x="63.623047"/>
       <use xlink:href="#DejaVuSans-30" x="95.410156"/>
      </g>
     </g>
    </g>
   </g>
   <g id="line2d_4">
    <path d="M 64.764545 153.139463 
L 69.119334 121.1524 
L 71.296728 106.310516 
L 73.474122 89.643289 
L 75.651516 69.598585 
L 77.82891 48.227065 
L 78.917607 39.395362 
L 80.006304 32.602874 
L 81.095001 27.867876 
L 82.183698 25.527273 
L 83.272395 27.242591 
L 84.361093 30.636887 
L 85.44979 35.794587 
L 86.538487 42.533547 
L 88.715881 58.368519 
L 91.981972 85.098442 
L 94.159366 104.835121 
L 98.514154 147.662185 
L 103.95764 203.678797 
L 107.223731 234.92466 
L 109.401125 253.367757 
L 111.578519 269.732183 
L 113.755913 283.980469 
L 115.933307 296.807871 
L 117.022004 302.614607 
L 119.199398 312.050647 
L 120.288095 315.883581 
L 121.376793 318.557394 
L 122.46549 320.072727 
L 123.554187 319.706556 
L 124.642884 317.832572 
L 125.731581 314.118242 
L 126.820278 309.367146 
L 127.908975 303.12655 
L 130.086369 288.65269 
L 133.35246 264.526097 
L 143.150734 188.667855 
L 146.416825 166.876266 
L 151.86031 132.949287 
L 154.037704 117.10573 
L 156.215098 98.533506 
L 161.658584 49.703337 
L 163.835978 34.657924 
L 164.924675 29.676752 
L 166.013372 26.232579 
L 167.102069 25.527273 
L 168.190766 26.532809 
L 169.279463 29.707528 
L 170.36816 35.125009 
L 171.456857 42.428736 
L 173.634251 60.500536 
L 176.900343 91.404657 
L 180.166434 123.313138 
L 184.521222 163.512887 
L 187.787313 192.157481 
L 192.142101 227.897892 
L 195.408193 252.455941 
L 197.585587 267.021476 
L 199.762981 279.931177 
L 203.029072 296.986008 
L 205.206466 307.021148 
L 206.295163 311.339472 
L 207.38386 314.956207 
L 208.472557 317.912681 
L 209.561254 319.691961 
L 210.649951 320.072727 
L 211.738649 318.254634 
L 212.827346 314.831277 
L 213.916043 309.728903 
L 215.00474 303.439095 
L 217.182134 287.589116 
L 224.803013 224.12216 
L 228.069104 200.051064 
L 230.246499 185.442486 
L 233.51259 165.590164 
L 238.956075 133.686317 
L 241.133469 118.990783 
L 243.310863 101.867795 
L 245.488257 81.896669 
L 248.754349 50.484767 
L 249.843046 40.841104 
L 250.931743 33.040429 
L 252.02044 27.739873 
L 253.109137 25.527273 
L 254.197834 27.035691 
L 255.286531 31.505712 
L 256.375228 37.954993 
L 257.463925 46.944772 
L 258.552622 57.672535 
L 262.90741 105.540041 
L 265.084804 126.65006 
L 267.262199 146.066372 
L 269.439593 163.735993 
L 274.883078 204.95038 
L 277.060472 220.779638 
L 279.237866 235.596723 
L 281.41526 249.472292 
L 283.592654 262.591409 
L 286.858746 281.072436 
L 290.124837 298.103283 
L 292.302231 308.455377 
L 293.390928 312.825806 
L 294.479625 316.217075 
L 295.568322 318.8889 
L 296.657019 320.072727 
L 297.745716 319.905627 
L 298.834413 318.473289 
L 299.92311 316.07158 
L 301.011807 312.565902 
L 302.100504 308.279841 
L 303.189202 303.337152 
L 305.366596 291.733551 
L 307.54399 277.947621 
L 309.721384 262.03692 
L 315.164869 220.168232 
L 318.43096 197.212205 
L 321.697052 173.951771 
L 323.874446 157.399915 
L 326.05184 138.953955 
L 329.317931 106.988768 
L 334.761416 53.325057 
L 335.850113 44.376429 
L 336.93881 36.876072 
L 338.027507 31.264067 
L 339.116204 27.162148 
L 340.204902 25.527273 
L 341.293599 25.811983 
L 342.382296 28.452675 
L 343.470993 32.692832 
L 344.55969 39.152647 
L 346.737084 54.420165 
L 348.914478 71.50804 
L 354.357963 116.773197 
L 358.712752 154.687786 
L 361.978843 180.913563 
L 373.95451 270.506959 
L 376.131905 284.695525 
L 378.309299 297.554752 
L 379.397996 303.499253 
L 380.486693 308.648761 
L 381.57539 313.069435 
L 382.664087 316.537748 
L 383.752784 318.889977 
L 384.841481 320.072727 
L 385.930178 319.546337 
L 387.018875 317.886915 
L 388.107572 314.640237 
L 389.196269 310.798927 
L 391.373663 299.990751 
L 393.551057 286.70456 
L 396.817149 264.515572 
L 400.08324 239.413028 
L 404.438028 203.747293 
L 408.792816 164.820251 
L 412.058907 133.698642 
L 418.59109 68.85936 
L 419.679787 59.127723 
L 421.857181 42.991818 
L 422.945878 36.932392 
L 424.034575 31.608276 
L 425.123272 28.451042 
L 426.211969 26.152417 
L 427.300666 25.579889 
L 428.389363 25.527273 
L 430.566757 51.868922 
L 431.655455 78.359746 
L 431.655455 78.359746 
" clip-path="url(#p09cf8e9db3)" style="fill: none; stroke: #000000; stroke-width: 4; stroke-linecap: square"/>
   </g>
   <g id="patch_3">
    <path d="M 46.42 334.8 
L 46.42 10.8 
" style="fill: none; stroke: #000000; stroke-width: 0.8; stroke-linejoin: miter; stroke-linecap: square"/>
   </g>
   <g id="patch_4">
    <path d="M 46.42 334.8 
L 450 334.8 
" style="fill: none; stroke: #000000; stroke-width: 0.8; stroke-linejoin: miter; stroke-linecap: square"/>
   </g>
  </g>
 </g>
 <defs>
  <clipPath id="p09cf8e9db3">
   <rect x="46.42" y="10.8" width="403.58" height="324"/>
  </clipPath>
 </defs>
</svg>
