<?xml version="1.0" encoding="utf-8" standalone="no"?>
<!DOCTYPE svg PUBLIC "-//W3C//DTD SVG 1.1//EN"
  "http://www.w3.org/Graphics/SVG/1.1/DTD/svg11.dtd">
<svg xmlns:xlink="http://www.w3.org/1999/xlink" width="460.8pt" height="345.6pt" viewBox="0 0 460.8 345.6" xmlns="http://www.w3.org/2000/svg" version="1.1">
 <metadata>
  <rdf:RDF xmlns:dc="http://purl.org/dc/elements/1.1/" xmlns:cc="http://creativecommons.org/ns#" xmlns:rdf="http://www.w3.org/1999/02/22-rdf-syntax-ns#">
   <cc:Work>
    <dc:type rdf:resource="http://purl.org/dc/dcmitype/StillImage"/>
    <dc:date>2023-04-28T11:06:01.862119</dc:date>
    <dc:format>image/svg+xml</dc:format>
    <dc:creator>
     <cc:Agent>
      <dc:title>Matplotlib v3.7.1, https://matplotlib.org/</dc:title>
     </cc:Agent>
    </dc:creator>
   </cc:Work>
  </rdf:RDF>
 </metadata>
 <defs>
  <style type="text/css">*{stroke-linejoin: round; stroke-linecap: butt}</style>
 </defs>
 <g id="figure_1">
  <g id="patch_1">
   <path d="M 0 345.6 
L 460.8 345.6 
L 460.8 0 
L 0 0 
z
" style="fill: #ffffff"/>
  </g>
  <g id="axes_1">
   <g id="patch_2">
    <path d="M 46.42 334.8 
L 450 334.8 
L 450 10.8 
L 46.42 10.8 
z
" style="fill: #ffffff"/>
   </g>
   <g id="matplotlib.axis_1"/>
   <g id="matplotlib.axis_2">
    <g id="ytick_1">
     <g id="line2d_1">
      <defs>
       <path id="mcba939ba04" d="M 0 0 
L -3.5 0 
" style="stroke: #000000; stroke-width: 0.8"/>
      </defs>
      <g>
       <use xlink:href="#mcba939ba04" x="46.42" y="320.072727" style="stroke: #000000; stroke-width: 0.8"/>
      </g>
     </g>
     <g id="text_1">
      <!-- 0.0 -->
      <g transform="translate(10.794375 326.911321) scale(0.18 -0.18)">
       <defs>
        <path id="DejaVuSans-30" d="M 2034 4250 
Q 1547 4250 1301 3770 
Q 1056 3291 1056 2328 
Q 1056 1369 1301 889 
Q 1547 409 2034 409 
Q 2525 409 2770 889 
Q 3016 1369 3016 2328 
Q 3016 3291 2770 3770 
Q 2525 4250 2034 4250 
z
M 2034 4750 
Q 2819 4750 3233 4129 
Q 3647 3509 3647 2328 
Q 3647 1150 3233 529 
Q 2819 -91 2034 -91 
Q 1250 -91 836 529 
Q 422 1150 422 2328 
Q 422 3509 836 4129 
Q 1250 4750 2034 4750 
z
" transform="scale(0.015625)"/>
        <path id="DejaVuSans-2e" d="M 684 794 
L 1344 794 
L 1344 0 
L 684 0 
L 684 794 
z
" transform="scale(0.015625)"/>
       </defs>
       <use xlink:href="#DejaVuSans-30"/>
       <use xlink:href="#DejaVuSans-2e" x="63.623047"/>
       <use xlink:href="#DejaVuSans-30" x="95.410156"/>
      </g>
     </g>
    </g>
    <g id="ytick_2">
     <g id="line2d_2">
      <g>
       <use xlink:href="#mcba939ba04" x="46.42" y="172.8" style="stroke: #000000; stroke-width: 0.8"/>
      </g>
     </g>
     <g id="text_2">
      <!-- 0.5 -->
      <g transform="translate(10.794375 179.638594) scale(0.18 -0.18)">
       <defs>
        <path id="DejaVuSans-35" d="M 691 4666 
L 3169 4666 
L 3169 4134 
L 1269 4134 
L 1269 2991 
Q 1406 3038 1543 3061 
Q 1681 3084 1819 3084 
Q 2600 3084 3056 2656 
Q 3513 2228 3513 1497 
Q 3513 744 3044 326 
Q 2575 -91 1722 -91 
Q 1428 -91 1123 -41 
Q 819 9 494 109 
L 494 744 
Q 775 591 1075 516 
Q 1375 441 1709 441 
Q 2250 441 2565 725 
Q 2881 1009 2881 1497 
Q 2881 1984 2565 2268 
Q 2250 2553 1709 2553 
Q 1456 2553 1204 2497 
Q 953 2441 691 2322 
L 691 4666 
z
" transform="scale(0.015625)"/>
       </defs>
       <use xlink:href="#DejaVuSans-30"/>
       <use xlink:href="#DejaVuSans-2e" x="63.623047"/>
       <use xlink:href="#DejaVuSans-35" x="95.410156"/>
      </g>
     </g>
    </g>
    <g id="ytick_3">
     <g id="line2d_3">
      <g>
       <use xlink:href="#mcba939ba04" x="46.42" y="25.527273" style="stroke: #000000; stroke-width: 0.8"/>
      </g>
     </g>
     <g id="text_3">
      <!-- 1.0 -->
      <g transform="translate(10.794375 32.365866) scale(0.18 -0.18)">
       <defs>
        <path id="DejaVuSans-31" d="M 794 531 
L 1825 531 
L 1825 4091 
L 703 3866 
L 703 4441 
L 1819 4666 
L 2450 4666 
L 2450 531 
L 3481 531 
L 3481 0 
L 794 0 
L 794 531 
z
" transform="scale(0.015625)"/>
       </defs>
       <use xlink:href="#DejaVuSans-31"/>
       <use xlink:href="#DejaVuSans-2e" x="63.623047"/>
       <use xlink:href="#DejaVuSans-30" x="95.410156"/>
      </g>
     </g>
    </g>
   </g>
   <g id="line2d_4">
    <path d="M 64.764545 280.606594 
L 65.853243 280.787147 
L 69.119334 282.025725 
L 70.208031 282.707264 
L 71.296728 283.597786 
L 73.474122 285.781179 
L 82.183698 295.184413 
L 84.361093 297.660834 
L 86.538487 300.625771 
L 88.715881 303.805243 
L 90.893275 307.369977 
L 93.070669 312.146681 
L 94.159366 314.408566 
L 96.33676 317.869042 
L 97.425457 319.066325 
L 98.514154 319.87389 
L 99.602851 320.072727 
L 100.691548 319.586559 
L 102.868943 318.306132 
L 105.046337 316.544791 
L 109.401125 312.608058 
L 111.578519 310.880501 
L 115.933307 307.284849 
L 117.022004 306.547077 
L 119.199398 304.666765 
L 121.376793 303.150537 
L 125.731581 300.477236 
L 127.908975 299.448888 
L 128.997672 298.850866 
L 131.175066 297.133279 
L 133.35246 295.170417 
L 136.618551 291.862386 
L 138.795946 289.715773 
L 142.062037 286.902 
L 144.239431 285.121919 
L 146.416825 283.017141 
L 148.594219 280.531637 
L 150.771613 277.727794 
L 152.949007 274.872055 
L 155.126401 272.24532 
L 163.835978 263.15766 
L 167.102069 258.974003 
L 169.279463 255.779134 
L 175.811646 244.586248 
L 182.343828 233.994599 
L 187.787313 225.889498 
L 191.053404 221.091797 
L 195.408193 213.873771 
L 200.851678 203.960101 
L 208.472557 190.521824 
L 211.738649 184.343287 
L 216.093437 175.579466 
L 219.359528 169.365782 
L 225.89171 157.941262 
L 226.980407 155.935809 
L 229.157801 151.286239 
L 232.423893 143.321834 
L 242.222166 119.074193 
L 247.665651 106.455338 
L 252.02044 96.92479 
L 254.197834 92.814321 
L 256.375228 89.179311 
L 262.90741 79.599044 
L 265.084804 75.747899 
L 268.350896 69.255623 
L 271.616987 62.708834 
L 273.794381 58.717555 
L 278.149169 51.483421 
L 281.41526 46.11508 
L 286.858746 36.561094 
L 289.03614 33.181107 
L 291.213534 30.482743 
L 293.390928 28.269317 
L 295.568322 26.794011 
L 297.745716 25.86258 
L 298.834413 25.61846 
L 299.92311 25.527273 
L 302.100504 25.774009 
L 304.277899 26.22898 
L 306.455293 26.928351 
L 307.54399 27.359867 
L 309.721384 28.590299 
L 311.898778 30.313921 
L 314.076172 32.52589 
L 316.253566 35.114036 
L 318.43096 38.144249 
L 323.874446 47.286207 
L 326.05184 51.51964 
L 328.229234 56.353409 
L 330.406628 61.925596 
L 333.672719 71.668206 
L 340.204902 91.751288 
L 341.293599 94.789876 
L 344.55969 102.794485 
L 348.914478 112.058845 
L 352.180569 119.611748 
L 353.269266 122.205776 
L 355.44666 127.895011 
L 357.624054 133.065966 
L 358.712752 135.474582 
L 360.890146 139.558032 
L 361.978843 141.264748 
L 365.244934 144.957289 
L 366.333631 146.135105 
L 368.511025 148.978836 
L 370.688419 152.171532 
L 376.131905 163.433831 
L 379.397996 169.837203 
L 384.841481 178.537286 
L 388.107572 184.114476 
L 391.373663 191.456652 
L 395.728452 200.320825 
L 400.08324 208.332632 
L 403.349331 214.407394 
L 407.704119 222.557773 
L 416.413696 238.266322 
L 419.679787 243.47268 
L 422.945878 248.4673 
L 428.389363 254.163136 
L 430.566757 256.126388 
L 431.655455 257.017023 
L 431.655455 257.017023 
" clip-path="url(#pa299e3a514)" style="fill: none; stroke: #000000; stroke-width: 4; stroke-linecap: square"/>
   </g>
   <g id="patch_3">
    <path d="M 46.42 334.8 
L 46.42 10.8 
" style="fill: none; stroke: #000000; stroke-width: 0.8; stroke-linejoin: miter; stroke-linecap: square"/>
   </g>
   <g id="patch_4">
    <path d="M 46.42 334.8 
L 450 334.8 
" style="fill: none; stroke: #000000; stroke-width: 0.8; stroke-linejoin: miter; stroke-linecap: square"/>
   </g>
  </g>
 </g>
 <defs>
  <clipPath id="pa299e3a514">
   <rect x="46.42" y="10.8" width="403.58" height="324"/>
  </clipPath>
 </defs>
</svg>
