<?xml version="1.0" encoding="utf-8" standalone="no"?>
<!DOCTYPE svg PUBLIC "-//W3C//DTD SVG 1.1//EN"
  "http://www.w3.org/Graphics/SVG/1.1/DTD/svg11.dtd">
<svg xmlns:xlink="http://www.w3.org/1999/xlink" width="460.8pt" height="345.6pt" viewBox="0 0 460.8 345.6" xmlns="http://www.w3.org/2000/svg" version="1.1">
 <metadata>
  <rdf:RDF xmlns:dc="http://purl.org/dc/elements/1.1/" xmlns:cc="http://creativecommons.org/ns#" xmlns:rdf="http://www.w3.org/1999/02/22-rdf-syntax-ns#">
   <cc:Work>
    <dc:type rdf:resource="http://purl.org/dc/dcmitype/StillImage"/>
    <dc:date>2023-04-28T11:01:28.606621</dc:date>
    <dc:format>image/svg+xml</dc:format>
    <dc:creator>
     <cc:Agent>
      <dc:title>Matplotlib v3.7.1, https://matplotlib.org/</dc:title>
     </cc:Agent>
    </dc:creator>
   </cc:Work>
  </rdf:RDF>
 </metadata>
 <defs>
  <style type="text/css">*{stroke-linejoin: round; stroke-linecap: butt}</style>
 </defs>
 <g id="figure_1">
  <g id="patch_1">
   <path d="M 0 345.6 
L 460.8 345.6 
L 460.8 0 
L 0 0 
z
" style="fill: #ffffff"/>
  </g>
  <g id="axes_1">
   <g id="patch_2">
    <path d="M 46.42 334.8 
L 450 334.8 
L 450 10.8 
L 46.42 10.8 
z
" style="fill: #ffffff"/>
   </g>
   <g id="matplotlib.axis_1"/>
   <g id="matplotlib.axis_2">
    <g id="ytick_1">
     <g id="line2d_1">
      <defs>
       <path id="m3e06e9628d" d="M 0 0 
L -3.5 0 
" style="stroke: #000000; stroke-width: 0.8"/>
      </defs>
      <g>
       <use xlink:href="#m3e06e9628d" x="46.42" y="320.072727" style="stroke: #000000; stroke-width: 0.8"/>
      </g>
     </g>
     <g id="text_1">
      <!-- 0.0 -->
      <g transform="translate(10.794375 326.911321) scale(0.18 -0.18)">
       <defs>
        <path id="DejaVuSans-30" d="M 2034 4250 
Q 1547 4250 1301 3770 
Q 1056 3291 1056 2328 
Q 1056 1369 1301 889 
Q 1547 409 2034 409 
Q 2525 409 2770 889 
Q 3016 1369 3016 2328 
Q 3016 3291 2770 3770 
Q 2525 4250 2034 4250 
z
M 2034 4750 
Q 2819 4750 3233 4129 
Q 3647 3509 3647 2328 
Q 3647 1150 3233 529 
Q 2819 -91 2034 -91 
Q 1250 -91 836 529 
Q 422 1150 422 2328 
Q 422 3509 836 4129 
Q 1250 4750 2034 4750 
z
" transform="scale(0.015625)"/>
        <path id="DejaVuSans-2e" d="M 684 794 
L 1344 794 
L 1344 0 
L 684 0 
L 684 794 
z
" transform="scale(0.015625)"/>
       </defs>
       <use xlink:href="#DejaVuSans-30"/>
       <use xlink:href="#DejaVuSans-2e" x="63.623047"/>
       <use xlink:href="#DejaVuSans-30" x="95.410156"/>
      </g>
     </g>
    </g>
    <g id="ytick_2">
     <g id="line2d_2">
      <g>
       <use xlink:href="#m3e06e9628d" x="46.42" y="172.8" style="stroke: #000000; stroke-width: 0.8"/>
      </g>
     </g>
     <g id="text_2">
      <!-- 0.5 -->
      <g transform="translate(10.794375 179.638594) scale(0.18 -0.18)">
       <defs>
        <path id="DejaVuSans-35" d="M 691 4666 
L 3169 4666 
L 3169 4134 
L 1269 4134 
L 1269 2991 
Q 1406 3038 1543 3061 
Q 1681 3084 1819 3084 
Q 2600 3084 3056 2656 
Q 3513 2228 3513 1497 
Q 3513 744 3044 326 
Q 2575 -91 1722 -91 
Q 1428 -91 1123 -41 
Q 819 9 494 109 
L 494 744 
Q 775 591 1075 516 
Q 1375 441 1709 441 
Q 2250 441 2565 725 
Q 2881 1009 2881 1497 
Q 2881 1984 2565 2268 
Q 2250 2553 1709 2553 
Q 1456 2553 1204 2497 
Q 953 2441 691 2322 
L 691 4666 
z
" transform="scale(0.015625)"/>
       </defs>
       <use xlink:href="#DejaVuSans-30"/>
       <use xlink:href="#DejaVuSans-2e" x="63.623047"/>
       <use xlink:href="#DejaVuSans-35" x="95.410156"/>
      </g>
     </g>
    </g>
    <g id="ytick_3">
     <g id="line2d_3">
      <g>
       <use xlink:href="#m3e06e9628d" x="46.42" y="25.527273" style="stroke: #000000; stroke-width: 0.8"/>
      </g>
     </g>
     <g id="text_3">
      <!-- 1.0 -->
      <g transform="translate(10.794375 32.365866) scale(0.18 -0.18)">
       <defs>
        <path id="DejaVuSans-31" d="M 794 531 
L 1825 531 
L 1825 4091 
L 703 3866 
L 703 4441 
L 1819 4666 
L 2450 4666 
L 2450 531 
L 3481 531 
L 3481 0 
L 794 0 
L 794 531 
z
" transform="scale(0.015625)"/>
       </defs>
       <use xlink:href="#DejaVuSans-31"/>
       <use xlink:href="#DejaVuSans-2e" x="63.623047"/>
       <use xlink:href="#DejaVuSans-30" x="95.410156"/>
      </g>
     </g>
    </g>
   </g>
   <g id="line2d_4">
    <path d="M 64.764545 142.94915 
L 69.119334 101.986879 
L 71.296728 80.040988 
L 72.385425 69.116121 
L 73.474122 60.183539 
L 74.562819 50.297284 
L 75.651516 42.561988 
L 76.740213 36.770804 
L 77.82891 32.596448 
L 80.006304 26.29773 
L 81.095001 25.527273 
L 82.183698 25.703801 
L 84.361093 29.955089 
L 85.44979 33.324805 
L 86.538487 35.554365 
L 87.627184 38.503029 
L 88.715881 40.45132 
L 89.804578 43.188256 
L 90.893275 44.659208 
L 91.981972 47.987001 
L 93.070669 50.329236 
L 94.159366 53.696056 
L 95.248063 56.596336 
L 96.33676 61.657073 
L 97.425457 65.906833 
L 99.602851 77.991977 
L 102.868943 101.359663 
L 107.223731 139.370882 
L 117.022004 238.084184 
L 120.288095 261.784057 
L 122.46549 276.427216 
L 124.642884 289.241458 
L 126.820278 301.17688 
L 127.908975 307.300758 
L 128.997672 311.542496 
L 130.086369 315.266237 
L 131.175066 317.809773 
L 132.263763 319.87384 
L 133.35246 320.072727 
L 134.441157 318.937345 
L 135.529854 316.126219 
L 136.618551 312.580889 
L 137.707248 308.518118 
L 138.795946 303.261904 
L 140.97334 291.268356 
L 143.150734 277.631617 
L 147.505522 244.816973 
L 150.771613 217.154231 
L 160.569887 127.696502 
L 164.924675 85.759243 
L 168.190766 58.806688 
L 169.279463 50.799446 
L 170.36816 45.015495 
L 171.456857 39.970313 
L 172.545554 35.603136 
L 173.634251 31.97457 
L 174.722948 28.771936 
L 175.811646 26.799664 
L 176.900343 25.527273 
L 177.98904 26.096833 
L 179.077737 27.212517 
L 180.166434 29.876296 
L 181.255131 33.035355 
L 183.432525 41.894393 
L 187.787313 63.889336 
L 191.053404 81.776795 
L 193.230798 94.874585 
L 196.49689 115.610971 
L 197.585587 122.648019 
L 201.940375 154.923654 
L 205.206466 182.767366 
L 207.38386 202.623366 
L 215.00474 278.518801 
L 216.093437 288.163794 
L 218.270831 304.020878 
L 220.448225 314.353015 
L 222.625619 319.827211 
L 223.714316 320.072727 
L 224.803013 319.299882 
L 225.89171 316.849405 
L 226.980407 313.475637 
L 228.069104 308.998986 
L 230.246499 297.772579 
L 233.51259 277.733812 
L 234.601287 270.684014 
L 238.956075 238.319807 
L 242.222166 210.488341 
L 244.39956 189.65946 
L 246.576954 167.864 
L 253.109137 103.278231 
L 256.375228 76.538651 
L 258.552622 61.005665 
L 260.730016 47.785226 
L 261.818713 41.802767 
L 262.90741 36.73822 
L 265.084804 29.370342 
L 266.173501 27.267381 
L 267.262199 25.618513 
L 268.350896 25.527273 
L 269.439593 26.189548 
L 270.52829 28.480519 
L 271.616987 31.505168 
L 272.705684 35.964462 
L 273.794381 41.328888 
L 274.883078 47.473181 
L 277.060472 62.951111 
L 281.41526 99.310302 
L 283.592654 118.376383 
L 285.770049 136.702398 
L 289.03614 163.086919 
L 292.302231 187.411185 
L 294.479625 202.079148 
L 304.277899 259.736363 
L 306.455293 273.359573 
L 309.721384 292.753012 
L 310.810081 298.416726 
L 312.987475 308.027213 
L 315.164869 315.261149 
L 316.253566 317.739947 
L 317.342263 319.585534 
L 318.43096 320.072727 
L 319.519657 319.715194 
L 320.608354 318.398862 
L 321.697052 316.199617 
L 322.785749 313.057141 
L 323.874446 308.63053 
L 324.963143 303.583735 
L 327.140537 290.873994 
L 329.317931 276.040052 
L 331.495325 259.844786 
L 334.761416 234.039069 
L 339.116204 197.002566 
L 341.293599 177.359313 
L 342.382296 167.72973 
L 344.55969 147.132196 
L 346.737084 128.753021 
L 348.914478 111.181839 
L 351.091872 95.464652 
L 352.180569 88.212189 
L 353.269266 81.716068 
L 355.44666 67.445729 
L 356.535357 60.381399 
L 357.624054 54.551556 
L 358.712752 48.097114 
L 359.801449 43.188624 
L 360.890146 37.67978 
L 363.06754 29.975261 
L 364.156237 27.616435 
L 365.244934 25.773166 
L 366.333631 25.527273 
L 367.422328 25.957682 
L 368.511025 27.28197 
L 369.599722 30.047768 
L 370.688419 33.699527 
L 372.865813 43.165661 
L 375.043207 55.273997 
L 378.309299 75.724268 
L 380.486693 90.695858 
L 383.752784 114.430891 
L 388.107572 147.856831 
L 391.373663 175.276576 
L 395.728452 210.326578 
L 396.817149 218.902003 
L 398.994543 233.790867 
L 402.260634 257.555821 
L 406.615422 290.326806 
L 408.792816 304.204576 
L 409.881513 309.383099 
L 410.97021 313.963878 
L 412.058907 316.914583 
L 413.147605 319.270628 
L 414.236302 320.072727 
L 415.324999 319.534487 
L 416.413696 317.350364 
L 417.502393 314.630307 
L 419.679787 306.339754 
L 420.768484 301.379738 
L 421.857181 295.685656 
L 424.034575 282.038716 
L 426.211969 266.641549 
L 430.566757 232.522013 
L 431.655455 223.529003 
L 431.655455 223.529003 
" clip-path="url(#pf47e59a389)" style="fill: none; stroke: #000000; stroke-width: 4; stroke-linecap: square"/>
   </g>
   <g id="patch_3">
    <path d="M 46.42 334.8 
L 46.42 10.8 
" style="fill: none; stroke: #000000; stroke-width: 0.8; stroke-linejoin: miter; stroke-linecap: square"/>
   </g>
   <g id="patch_4">
    <path d="M 46.42 334.8 
L 450 334.8 
" style="fill: none; stroke: #000000; stroke-width: 0.8; stroke-linejoin: miter; stroke-linecap: square"/>
   </g>
  </g>
 </g>
 <defs>
  <clipPath id="pf47e59a389">
   <rect x="46.42" y="10.8" width="403.58" height="324"/>
  </clipPath>
 </defs>
</svg>
