<?xml version="1.0" encoding="utf-8" standalone="no"?>
<!DOCTYPE svg PUBLIC "-//W3C//DTD SVG 1.1//EN"
  "http://www.w3.org/Graphics/SVG/1.1/DTD/svg11.dtd">
<svg xmlns:xlink="http://www.w3.org/1999/xlink" width="460.8pt" height="345.6pt" viewBox="0 0 460.8 345.6" xmlns="http://www.w3.org/2000/svg" version="1.1">
 <metadata>
  <rdf:RDF xmlns:dc="http://purl.org/dc/elements/1.1/" xmlns:cc="http://creativecommons.org/ns#" xmlns:rdf="http://www.w3.org/1999/02/22-rdf-syntax-ns#">
   <cc:Work>
    <dc:type rdf:resource="http://purl.org/dc/dcmitype/StillImage"/>
    <dc:date>2023-04-28T11:08:18.288664</dc:date>
    <dc:format>image/svg+xml</dc:format>
    <dc:creator>
     <cc:Agent>
      <dc:title>Matplotlib v3.7.1, https://matplotlib.org/</dc:title>
     </cc:Agent>
    </dc:creator>
   </cc:Work>
  </rdf:RDF>
 </metadata>
 <defs>
  <style type="text/css">*{stroke-linejoin: round; stroke-linecap: butt}</style>
 </defs>
 <g id="figure_1">
  <g id="patch_1">
   <path d="M 0 345.6 
L 460.8 345.6 
L 460.8 0 
L 0 0 
z
" style="fill: #ffffff"/>
  </g>
  <g id="axes_1">
   <g id="patch_2">
    <path d="M 46.42 334.8 
L 450 334.8 
L 450 10.8 
L 46.42 10.8 
z
" style="fill: #ffffff"/>
   </g>
   <g id="matplotlib.axis_1"/>
   <g id="matplotlib.axis_2">
    <g id="ytick_1">
     <g id="line2d_1">
      <defs>
       <path id="mf28c2bc223" d="M 0 0 
L -3.5 0 
" style="stroke: #000000; stroke-width: 0.8"/>
      </defs>
      <g>
       <use xlink:href="#mf28c2bc223" x="46.42" y="320.072727" style="stroke: #000000; stroke-width: 0.8"/>
      </g>
     </g>
     <g id="text_1">
      <!-- 0.0 -->
      <g transform="translate(10.794375 326.911321) scale(0.18 -0.18)">
       <defs>
        <path id="DejaVuSans-30" d="M 2034 4250 
Q 1547 4250 1301 3770 
Q 1056 3291 1056 2328 
Q 1056 1369 1301 889 
Q 1547 409 2034 409 
Q 2525 409 2770 889 
Q 3016 1369 3016 2328 
Q 3016 3291 2770 3770 
Q 2525 4250 2034 4250 
z
M 2034 4750 
Q 2819 4750 3233 4129 
Q 3647 3509 3647 2328 
Q 3647 1150 3233 529 
Q 2819 -91 2034 -91 
Q 1250 -91 836 529 
Q 422 1150 422 2328 
Q 422 3509 836 4129 
Q 1250 4750 2034 4750 
z
" transform="scale(0.015625)"/>
        <path id="DejaVuSans-2e" d="M 684 794 
L 1344 794 
L 1344 0 
L 684 0 
L 684 794 
z
" transform="scale(0.015625)"/>
       </defs>
       <use xlink:href="#DejaVuSans-30"/>
       <use xlink:href="#DejaVuSans-2e" x="63.623047"/>
       <use xlink:href="#DejaVuSans-30" x="95.410156"/>
      </g>
     </g>
    </g>
    <g id="ytick_2">
     <g id="line2d_2">
      <g>
       <use xlink:href="#mf28c2bc223" x="46.42" y="172.8" style="stroke: #000000; stroke-width: 0.8"/>
      </g>
     </g>
     <g id="text_2">
      <!-- 0.5 -->
      <g transform="translate(10.794375 179.638594) scale(0.18 -0.18)">
       <defs>
        <path id="DejaVuSans-35" d="M 691 4666 
L 3169 4666 
L 3169 4134 
L 1269 4134 
L 1269 2991 
Q 1406 3038 1543 3061 
Q 1681 3084 1819 3084 
Q 2600 3084 3056 2656 
Q 3513 2228 3513 1497 
Q 3513 744 3044 326 
Q 2575 -91 1722 -91 
Q 1428 -91 1123 -41 
Q 819 9 494 109 
L 494 744 
Q 775 591 1075 516 
Q 1375 441 1709 441 
Q 2250 441 2565 725 
Q 2881 1009 2881 1497 
Q 2881 1984 2565 2268 
Q 2250 2553 1709 2553 
Q 1456 2553 1204 2497 
Q 953 2441 691 2322 
L 691 4666 
z
" transform="scale(0.015625)"/>
       </defs>
       <use xlink:href="#DejaVuSans-30"/>
       <use xlink:href="#DejaVuSans-2e" x="63.623047"/>
       <use xlink:href="#DejaVuSans-35" x="95.410156"/>
      </g>
     </g>
    </g>
    <g id="ytick_3">
     <g id="line2d_3">
      <g>
       <use xlink:href="#mf28c2bc223" x="46.42" y="25.527273" style="stroke: #000000; stroke-width: 0.8"/>
      </g>
     </g>
     <g id="text_3">
      <!-- 1.0 -->
      <g transform="translate(10.794375 32.365866) scale(0.18 -0.18)">
       <defs>
        <path id="DejaVuSans-31" d="M 794 531 
L 1825 531 
L 1825 4091 
L 703 3866 
L 703 4441 
L 1819 4666 
L 2450 4666 
L 2450 531 
L 3481 531 
L 3481 0 
L 794 0 
L 794 531 
z
" transform="scale(0.015625)"/>
       </defs>
       <use xlink:href="#DejaVuSans-31"/>
       <use xlink:href="#DejaVuSans-2e" x="63.623047"/>
       <use xlink:href="#DejaVuSans-30" x="95.410156"/>
      </g>
     </g>
    </g>
   </g>
   <g id="line2d_4">
    <path d="M 64.764545 160.14691 
L 65.853243 155.414001 
L 66.94194 151.182535 
L 69.119334 143.948418 
L 73.474122 132.833591 
L 77.82891 104.809349 
L 81.095001 81.305865 
L 82.183698 74.350525 
L 83.272395 69.460013 
L 85.44979 61.726034 
L 87.627184 55.249629 
L 88.715881 52.483321 
L 89.804578 50.035801 
L 90.893275 47.189314 
L 91.981972 45.016654 
L 94.159366 39.86731 
L 95.248063 36.568117 
L 96.33676 33.923492 
L 98.514154 28.221828 
L 99.602851 25.649061 
L 101.780245 25.527273 
L 103.95764 26.890728 
L 105.046337 28.929732 
L 106.135034 30.637589 
L 107.223731 33.372962 
L 108.312428 35.762617 
L 110.489822 44.775554 
L 112.667216 56.901077 
L 114.84461 73.361351 
L 119.199398 109.223805 
L 121.376793 123.985983 
L 124.642884 142.204149 
L 125.731581 147.484989 
L 127.908975 155.489282 
L 130.086369 165.910653 
L 132.263763 179.263361 
L 134.441157 196.67199 
L 136.618551 217.93761 
L 140.97334 259.883704 
L 143.150734 278.881294 
L 144.239431 284.468867 
L 145.328128 289.26788 
L 146.416825 293.197271 
L 147.505522 296.554106 
L 148.594219 299.543121 
L 150.771613 303.610578 
L 151.86031 304.22329 
L 152.949007 307.909641 
L 154.037704 310.548353 
L 155.126401 313.797663 
L 156.215098 315.670165 
L 157.303796 317.966882 
L 158.392493 319.35171 
L 159.48119 320.072727 
L 160.569887 319.969128 
L 161.658584 314.333726 
L 162.747281 307.820036 
L 163.835978 299.906424 
L 166.013372 281.226076 
L 168.190766 257.484195 
L 169.279463 243.132694 
L 175.811646 198.730736 
L 177.98904 182.887231 
L 179.077737 175.264076 
L 181.255131 158.9396 
L 183.432525 142.52018 
L 186.698616 117.951838 
L 193.230798 55.257827 
L 195.408193 39.862377 
L 196.49689 35.044882 
L 197.585587 29.675786 
L 198.674284 27.169241 
L 199.762981 25.527273 
L 200.851678 25.561543 
L 201.940375 26.240356 
L 203.029072 27.555602 
L 204.117769 29.104663 
L 205.206466 31.325233 
L 206.295163 34.000248 
L 207.38386 38.302344 
L 208.472557 43.228969 
L 210.649951 57.936582 
L 212.827346 77.552439 
L 217.182134 125.081635 
L 223.714316 194.452955 
L 226.980407 224.707951 
L 228.069104 234.449069 
L 231.335196 260.4533 
L 232.423893 269.697158 
L 233.51259 277.185722 
L 234.601287 285.488437 
L 235.689984 291.887807 
L 236.778681 299.304775 
L 238.956075 310.719534 
L 241.133469 318.315437 
L 242.222166 319.713541 
L 243.310863 320.072727 
L 244.39956 317.445378 
L 245.488257 312.897443 
L 246.576954 305.74641 
L 247.665651 297.286685 
L 249.843046 274.119738 
L 260.730016 148.33452 
L 262.90741 121.971224 
L 263.996107 108.247904 
L 267.262199 75.061835 
L 268.350896 65.985362 
L 271.616987 45.578683 
L 272.705684 40.181304 
L 274.883078 31.772866 
L 275.971775 28.223759 
L 277.060472 25.876467 
L 278.149169 25.527273 
L 279.237866 25.838528 
L 280.326563 27.047383 
L 281.41526 29.232314 
L 282.503957 32.215653 
L 283.592654 35.73688 
L 284.681351 39.715396 
L 285.770049 44.781014 
L 287.947443 55.954232 
L 290.124837 66.894198 
L 295.568322 97.856466 
L 296.657019 104.838949 
L 299.92311 131.019291 
L 302.100504 150.798315 
L 306.455293 192.622169 
L 314.076172 267.956058 
L 316.253566 287.676443 
L 318.43096 304.344157 
L 319.519657 310.028036 
L 320.608354 314.870581 
L 322.785749 319.508558 
L 324.963143 320.072727 
L 326.05184 318.099876 
L 327.140537 316.395664 
L 329.317931 308.829908 
L 331.495325 298.435274 
L 333.672719 286.149646 
L 336.93881 264.718084 
L 339.116204 248.6135 
L 340.204902 240.661279 
L 344.55969 204.604065 
L 347.825781 172.068184 
L 352.180569 132.730536 
L 354.357963 116.918738 
L 355.44666 110.309467 
L 356.535357 102.54652 
L 357.624054 96.074697 
L 361.978843 65.997564 
L 365.244934 42.280947 
L 366.333631 35.846378 
L 367.422328 31.503921 
L 369.599722 25.657786 
L 370.688419 25.527273 
L 371.777116 28.152463 
L 372.865813 32.727067 
L 375.043207 45.753351 
L 376.131905 53.503323 
L 377.220602 62.056232 
L 379.397996 82.987125 
L 380.486693 88.453078 
L 381.57539 95.081609 
L 382.664087 104.311593 
L 384.841481 130.11667 
L 388.107572 176.199747 
L 390.284966 216.119166 
L 391.373663 231.771228 
L 392.46236 245.118589 
L 393.551057 256.674434 
L 396.817149 287.561943 
L 397.905846 289.63411 
L 400.08324 296.197176 
L 401.171937 300.694069 
L 403.349331 307.49791 
L 404.438028 309.053669 
L 405.526725 309.610881 
L 406.615422 315.177838 
L 407.704119 318.639185 
L 408.792816 320.072727 
L 409.881513 319.367176 
L 410.97021 317.929963 
L 412.058907 315.364359 
L 413.147605 311.825972 
L 414.236302 306.945905 
L 416.413696 290.185494 
L 418.59109 269.593449 
L 422.945878 221.898885 
L 425.123272 203.940333 
L 427.300666 183.643951 
L 429.47806 159.485793 
L 431.655455 132.130006 
L 431.655455 132.130006 
" clip-path="url(#p5f3fcdd6f9)" style="fill: none; stroke: #000000; stroke-width: 4; stroke-linecap: square"/>
   </g>
   <g id="patch_3">
    <path d="M 46.42 334.8 
L 46.42 10.8 
" style="fill: none; stroke: #000000; stroke-width: 0.8; stroke-linejoin: miter; stroke-linecap: square"/>
   </g>
   <g id="patch_4">
    <path d="M 46.42 334.8 
L 450 334.8 
" style="fill: none; stroke: #000000; stroke-width: 0.8; stroke-linejoin: miter; stroke-linecap: square"/>
   </g>
  </g>
 </g>
 <defs>
  <clipPath id="p5f3fcdd6f9">
   <rect x="46.42" y="10.8" width="403.58" height="324"/>
  </clipPath>
 </defs>
</svg>
