<?xml version="1.0" encoding="utf-8" standalone="no"?>
<!DOCTYPE svg PUBLIC "-//W3C//DTD SVG 1.1//EN"
  "http://www.w3.org/Graphics/SVG/1.1/DTD/svg11.dtd">
<svg xmlns:xlink="http://www.w3.org/1999/xlink" width="460.8pt" height="345.6pt" viewBox="0 0 460.8 345.6" xmlns="http://www.w3.org/2000/svg" version="1.1">
 <metadata>
  <rdf:RDF xmlns:dc="http://purl.org/dc/elements/1.1/" xmlns:cc="http://creativecommons.org/ns#" xmlns:rdf="http://www.w3.org/1999/02/22-rdf-syntax-ns#">
   <cc:Work>
    <dc:type rdf:resource="http://purl.org/dc/dcmitype/StillImage"/>
    <dc:date>2023-04-28T11:01:28.685290</dc:date>
    <dc:format>image/svg+xml</dc:format>
    <dc:creator>
     <cc:Agent>
      <dc:title>Matplotlib v3.7.1, https://matplotlib.org/</dc:title>
     </cc:Agent>
    </dc:creator>
   </cc:Work>
  </rdf:RDF>
 </metadata>
 <defs>
  <style type="text/css">*{stroke-linejoin: round; stroke-linecap: butt}</style>
 </defs>
 <g id="figure_1">
  <g id="patch_1">
   <path d="M 0 345.6 
L 460.8 345.6 
L 460.8 0 
L 0 0 
z
" style="fill: #ffffff"/>
  </g>
  <g id="axes_1">
   <g id="patch_2">
    <path d="M 46.42 334.8 
L 450 334.8 
L 450 10.8 
L 46.42 10.8 
z
" style="fill: #ffffff"/>
   </g>
   <g id="matplotlib.axis_1"/>
   <g id="matplotlib.axis_2">
    <g id="ytick_1">
     <g id="line2d_1">
      <defs>
       <path id="m7988717d4c" d="M 0 0 
L -3.5 0 
" style="stroke: #000000; stroke-width: 0.8"/>
      </defs>
      <g>
       <use xlink:href="#m7988717d4c" x="46.42" y="320.072727" style="stroke: #000000; stroke-width: 0.8"/>
      </g>
     </g>
     <g id="text_1">
      <!-- 0.0 -->
      <g transform="translate(10.794375 326.911321) scale(0.18 -0.18)">
       <defs>
        <path id="DejaVuSans-30" d="M 2034 4250 
Q 1547 4250 1301 3770 
Q 1056 3291 1056 2328 
Q 1056 1369 1301 889 
Q 1547 409 2034 409 
Q 2525 409 2770 889 
Q 3016 1369 3016 2328 
Q 3016 3291 2770 3770 
Q 2525 4250 2034 4250 
z
M 2034 4750 
Q 2819 4750 3233 4129 
Q 3647 3509 3647 2328 
Q 3647 1150 3233 529 
Q 2819 -91 2034 -91 
Q 1250 -91 836 529 
Q 422 1150 422 2328 
Q 422 3509 836 4129 
Q 1250 4750 2034 4750 
z
" transform="scale(0.015625)"/>
        <path id="DejaVuSans-2e" d="M 684 794 
L 1344 794 
L 1344 0 
L 684 0 
L 684 794 
z
" transform="scale(0.015625)"/>
       </defs>
       <use xlink:href="#DejaVuSans-30"/>
       <use xlink:href="#DejaVuSans-2e" x="63.623047"/>
       <use xlink:href="#DejaVuSans-30" x="95.410156"/>
      </g>
     </g>
    </g>
    <g id="ytick_2">
     <g id="line2d_2">
      <g>
       <use xlink:href="#m7988717d4c" x="46.42" y="172.8" style="stroke: #000000; stroke-width: 0.8"/>
      </g>
     </g>
     <g id="text_2">
      <!-- 0.5 -->
      <g transform="translate(10.794375 179.638594) scale(0.18 -0.18)">
       <defs>
        <path id="DejaVuSans-35" d="M 691 4666 
L 3169 4666 
L 3169 4134 
L 1269 4134 
L 1269 2991 
Q 1406 3038 1543 3061 
Q 1681 3084 1819 3084 
Q 2600 3084 3056 2656 
Q 3513 2228 3513 1497 
Q 3513 744 3044 326 
Q 2575 -91 1722 -91 
Q 1428 -91 1123 -41 
Q 819 9 494 109 
L 494 744 
Q 775 591 1075 516 
Q 1375 441 1709 441 
Q 2250 441 2565 725 
Q 2881 1009 2881 1497 
Q 2881 1984 2565 2268 
Q 2250 2553 1709 2553 
Q 1456 2553 1204 2497 
Q 953 2441 691 2322 
L 691 4666 
z
" transform="scale(0.015625)"/>
       </defs>
       <use xlink:href="#DejaVuSans-30"/>
       <use xlink:href="#DejaVuSans-2e" x="63.623047"/>
       <use xlink:href="#DejaVuSans-35" x="95.410156"/>
      </g>
     </g>
    </g>
    <g id="ytick_3">
     <g id="line2d_3">
      <g>
       <use xlink:href="#m7988717d4c" x="46.42" y="25.527273" style="stroke: #000000; stroke-width: 0.8"/>
      </g>
     </g>
     <g id="text_3">
      <!-- 1.0 -->
      <g transform="translate(10.794375 32.365866) scale(0.18 -0.18)">
       <defs>
        <path id="DejaVuSans-31" d="M 794 531 
L 1825 531 
L 1825 4091 
L 703 3866 
L 703 4441 
L 1819 4666 
L 2450 4666 
L 2450 531 
L 3481 531 
L 3481 0 
L 794 0 
L 794 531 
z
" transform="scale(0.015625)"/>
       </defs>
       <use xlink:href="#DejaVuSans-31"/>
       <use xlink:href="#DejaVuSans-2e" x="63.623047"/>
       <use xlink:href="#DejaVuSans-30" x="95.410156"/>
      </g>
     </g>
    </g>
   </g>
   <g id="line2d_4">
    <path d="M 64.764545 203.564268 
L 68.030637 224.604378 
L 72.385425 254.307049 
L 75.651516 276.567351 
L 77.82891 289.882692 
L 78.917607 295.719581 
L 81.095001 305.86827 
L 82.183698 310.03083 
L 83.272395 313.237204 
L 84.361093 315.872212 
L 85.44979 318.033103 
L 86.538487 319.378084 
L 87.627184 320.072727 
L 88.715881 320.008577 
L 89.804578 319.322792 
L 90.893275 317.779194 
L 91.981972 314.966017 
L 93.070669 311.144521 
L 94.159366 306.837227 
L 96.33676 295.99487 
L 98.514154 282.718228 
L 100.691548 269.199661 
L 102.868943 255.4331 
L 105.046337 240.600991 
L 108.312428 216.451269 
L 110.489822 196.966663 
L 115.933307 147.100033 
L 118.110701 129.067349 
L 121.376793 105.166408 
L 124.642884 83.16583 
L 128.997672 55.153561 
L 131.175066 42.982935 
L 133.35246 33.375016 
L 134.441157 29.817535 
L 135.529854 27.174262 
L 136.618551 25.966004 
L 137.707248 25.527273 
L 138.795946 26.46088 
L 139.884643 28.343019 
L 140.97334 31.53561 
L 142.062037 35.575766 
L 143.150734 40.620948 
L 144.239431 46.61668 
L 146.416825 60.623096 
L 148.594219 76.086472 
L 152.949007 109.339009 
L 157.303796 143.946574 
L 161.658584 177.563466 
L 164.924675 200.830545 
L 169.279463 229.29969 
L 174.722948 263.021335 
L 181.255131 301.47357 
L 182.343828 306.940865 
L 183.432525 311.723363 
L 184.521222 315.574527 
L 185.609919 318.347347 
L 186.698616 320.053375 
L 187.787313 320.072727 
L 188.87601 318.653197 
L 189.964707 315.804201 
L 191.053404 311.578005 
L 192.142101 305.929597 
L 193.230798 299.122128 
L 194.319496 291.316601 
L 196.49689 273.449514 
L 199.762981 245.509585 
L 211.738649 147.907516 
L 217.182134 106.873686 
L 219.359528 91.966792 
L 221.536922 78.102003 
L 223.714316 65.374527 
L 225.89171 53.546477 
L 228.069104 42.725648 
L 229.157801 37.91061 
L 230.246499 33.836992 
L 231.335196 30.35416 
L 232.423893 27.736818 
L 233.51259 26.086791 
L 234.601287 25.527273 
L 235.689984 26.353173 
L 236.778681 27.997318 
L 237.867378 30.993806 
L 238.956075 34.595546 
L 241.133469 44.811421 
L 243.310863 57.259735 
L 245.488257 71.410217 
L 247.665651 86.779895 
L 249.843046 103.283498 
L 254.197834 138.429707 
L 258.552622 172.932673 
L 261.818713 196.320092 
L 265.084804 217.530278 
L 267.262199 231.287921 
L 269.439593 245.885544 
L 275.971775 291.444658 
L 277.060472 298.131919 
L 278.149169 304.105792 
L 279.237866 309.233847 
L 280.326563 313.482863 
L 281.41526 316.869448 
L 282.503957 319.114173 
L 283.592654 320.072727 
L 284.681351 319.643933 
L 285.770049 318.146285 
L 286.858746 315.331853 
L 287.947443 311.283116 
L 289.03614 306.13805 
L 291.213534 293.260276 
L 294.479625 269.914794 
L 302.100504 213.378859 
L 308.632687 162.382474 
L 312.987475 129.952448 
L 320.608354 79.05429 
L 323.874446 58.057509 
L 326.05184 45.350768 
L 327.140537 39.825667 
L 328.229234 34.964105 
L 329.317931 30.9608 
L 330.406628 27.857166 
L 331.495325 26.058069 
L 332.584022 25.527273 
L 333.672719 26.214601 
L 334.761416 28.277306 
L 335.850113 31.592826 
L 336.93881 36.401877 
L 338.027507 42.076311 
L 339.116204 48.373836 
L 341.293599 63.197812 
L 345.648387 96.772542 
L 351.091872 139.094915 
L 357.624054 187.036982 
L 361.978843 215.89463 
L 375.043207 293.795947 
L 377.220602 304.584434 
L 379.397996 313.786566 
L 380.486693 316.968374 
L 381.57539 319.24097 
L 382.664087 320.072727 
L 383.752784 319.748287 
L 384.841481 317.932896 
L 385.930178 315.069776 
L 387.018875 311.129927 
L 388.107572 306.339408 
L 390.284966 295.097321 
L 393.551057 276.567974 
L 396.817149 257.020279 
L 398.994543 240.996656 
L 401.171937 222.875673 
L 404.438028 191.10047 
L 407.704119 157.534993 
L 410.97021 126.59625 
L 413.147605 107.792213 
L 419.679787 55.150892 
L 420.768484 47.636911 
L 422.945878 35.536229 
L 424.034575 31.8117 
L 425.123272 28.55236 
L 426.211969 26.974612 
L 427.300666 25.619373 
L 428.389363 25.527273 
L 429.47806 25.638931 
L 430.566757 44.670795 
L 431.655455 69.194755 
L 431.655455 69.194755 
" clip-path="url(#p71922c4214)" style="fill: none; stroke: #000000; stroke-width: 4; stroke-linecap: square"/>
   </g>
   <g id="patch_3">
    <path d="M 46.42 334.8 
L 46.42 10.8 
" style="fill: none; stroke: #000000; stroke-width: 0.8; stroke-linejoin: miter; stroke-linecap: square"/>
   </g>
   <g id="patch_4">
    <path d="M 46.42 334.8 
L 450 334.8 
" style="fill: none; stroke: #000000; stroke-width: 0.8; stroke-linejoin: miter; stroke-linecap: square"/>
   </g>
  </g>
 </g>
 <defs>
  <clipPath id="p71922c4214">
   <rect x="46.42" y="10.8" width="403.58" height="324"/>
  </clipPath>
 </defs>
</svg>
