<?xml version="1.0" encoding="utf-8" standalone="no"?>
<!DOCTYPE svg PUBLIC "-//W3C//DTD SVG 1.1//EN"
  "http://www.w3.org/Graphics/SVG/1.1/DTD/svg11.dtd">
<svg xmlns:xlink="http://www.w3.org/1999/xlink" width="460.8pt" height="345.6pt" viewBox="0 0 460.8 345.6" xmlns="http://www.w3.org/2000/svg" version="1.1">
 <metadata>
  <rdf:RDF xmlns:dc="http://purl.org/dc/elements/1.1/" xmlns:cc="http://creativecommons.org/ns#" xmlns:rdf="http://www.w3.org/1999/02/22-rdf-syntax-ns#">
   <cc:Work>
    <dc:type rdf:resource="http://purl.org/dc/dcmitype/StillImage"/>
    <dc:date>2023-04-28T11:06:01.944124</dc:date>
    <dc:format>image/svg+xml</dc:format>
    <dc:creator>
     <cc:Agent>
      <dc:title>Matplotlib v3.7.1, https://matplotlib.org/</dc:title>
     </cc:Agent>
    </dc:creator>
   </cc:Work>
  </rdf:RDF>
 </metadata>
 <defs>
  <style type="text/css">*{stroke-linejoin: round; stroke-linecap: butt}</style>
 </defs>
 <g id="figure_1">
  <g id="patch_1">
   <path d="M 0 345.6 
L 460.8 345.6 
L 460.8 0 
L 0 0 
z
" style="fill: #ffffff"/>
  </g>
  <g id="axes_1">
   <g id="patch_2">
    <path d="M 46.42 334.8 
L 450 334.8 
L 450 10.8 
L 46.42 10.8 
z
" style="fill: #ffffff"/>
   </g>
   <g id="matplotlib.axis_1"/>
   <g id="matplotlib.axis_2">
    <g id="ytick_1">
     <g id="line2d_1">
      <defs>
       <path id="ma605dad110" d="M 0 0 
L -3.5 0 
" style="stroke: #000000; stroke-width: 0.8"/>
      </defs>
      <g>
       <use xlink:href="#ma605dad110" x="46.42" y="320.072727" style="stroke: #000000; stroke-width: 0.8"/>
      </g>
     </g>
     <g id="text_1">
      <!-- 0.0 -->
      <g transform="translate(10.794375 326.911321) scale(0.18 -0.18)">
       <defs>
        <path id="DejaVuSans-30" d="M 2034 4250 
Q 1547 4250 1301 3770 
Q 1056 3291 1056 2328 
Q 1056 1369 1301 889 
Q 1547 409 2034 409 
Q 2525 409 2770 889 
Q 3016 1369 3016 2328 
Q 3016 3291 2770 3770 
Q 2525 4250 2034 4250 
z
M 2034 4750 
Q 2819 4750 3233 4129 
Q 3647 3509 3647 2328 
Q 3647 1150 3233 529 
Q 2819 -91 2034 -91 
Q 1250 -91 836 529 
Q 422 1150 422 2328 
Q 422 3509 836 4129 
Q 1250 4750 2034 4750 
z
" transform="scale(0.015625)"/>
        <path id="DejaVuSans-2e" d="M 684 794 
L 1344 794 
L 1344 0 
L 684 0 
L 684 794 
z
" transform="scale(0.015625)"/>
       </defs>
       <use xlink:href="#DejaVuSans-30"/>
       <use xlink:href="#DejaVuSans-2e" x="63.623047"/>
       <use xlink:href="#DejaVuSans-30" x="95.410156"/>
      </g>
     </g>
    </g>
    <g id="ytick_2">
     <g id="line2d_2">
      <g>
       <use xlink:href="#ma605dad110" x="46.42" y="172.8" style="stroke: #000000; stroke-width: 0.8"/>
      </g>
     </g>
     <g id="text_2">
      <!-- 0.5 -->
      <g transform="translate(10.794375 179.638594) scale(0.18 -0.18)">
       <defs>
        <path id="DejaVuSans-35" d="M 691 4666 
L 3169 4666 
L 3169 4134 
L 1269 4134 
L 1269 2991 
Q 1406 3038 1543 3061 
Q 1681 3084 1819 3084 
Q 2600 3084 3056 2656 
Q 3513 2228 3513 1497 
Q 3513 744 3044 326 
Q 2575 -91 1722 -91 
Q 1428 -91 1123 -41 
Q 819 9 494 109 
L 494 744 
Q 775 591 1075 516 
Q 1375 441 1709 441 
Q 2250 441 2565 725 
Q 2881 1009 2881 1497 
Q 2881 1984 2565 2268 
Q 2250 2553 1709 2553 
Q 1456 2553 1204 2497 
Q 953 2441 691 2322 
L 691 4666 
z
" transform="scale(0.015625)"/>
       </defs>
       <use xlink:href="#DejaVuSans-30"/>
       <use xlink:href="#DejaVuSans-2e" x="63.623047"/>
       <use xlink:href="#DejaVuSans-35" x="95.410156"/>
      </g>
     </g>
    </g>
    <g id="ytick_3">
     <g id="line2d_3">
      <g>
       <use xlink:href="#ma605dad110" x="46.42" y="25.527273" style="stroke: #000000; stroke-width: 0.8"/>
      </g>
     </g>
     <g id="text_3">
      <!-- 1.0 -->
      <g transform="translate(10.794375 32.365866) scale(0.18 -0.18)">
       <defs>
        <path id="DejaVuSans-31" d="M 794 531 
L 1825 531 
L 1825 4091 
L 703 3866 
L 703 4441 
L 1819 4666 
L 2450 4666 
L 2450 531 
L 3481 531 
L 3481 0 
L 794 0 
L 794 531 
z
" transform="scale(0.015625)"/>
       </defs>
       <use xlink:href="#DejaVuSans-31"/>
       <use xlink:href="#DejaVuSans-2e" x="63.623047"/>
       <use xlink:href="#DejaVuSans-30" x="95.410156"/>
      </g>
     </g>
    </g>
   </g>
   <g id="line2d_4">
    <path d="M 64.764545 170.409572 
L 65.853243 174.159128 
L 68.030637 180.506951 
L 74.562819 197.482405 
L 81.095001 216.327094 
L 85.44979 227.52964 
L 88.715881 234.804768 
L 94.159366 246.45812 
L 99.602851 257.070736 
L 108.312428 269.763626 
L 115.933307 283.240588 
L 121.376793 293.215363 
L 123.554187 296.894395 
L 135.529854 315.279642 
L 136.618551 316.798248 
L 137.707248 318.099989 
L 138.795946 319.124812 
L 139.884643 319.747477 
L 140.97334 320.072727 
L 142.062037 320.016442 
L 143.150734 319.562999 
L 144.239431 318.505253 
L 145.328128 316.922419 
L 147.505522 313.054208 
L 152.949007 302.915179 
L 157.303796 295.909731 
L 160.569887 290.848296 
L 166.013372 280.967248 
L 169.279463 275.419684 
L 172.545554 270.752909 
L 174.722948 267.248681 
L 176.900343 263.493424 
L 180.166434 257.898128 
L 184.521222 250.963991 
L 194.319496 236.247122 
L 196.49689 233.587732 
L 198.674284 231.392407 
L 199.762981 230.558581 
L 200.851678 229.882638 
L 203.029072 228.902427 
L 206.295163 227.633828 
L 207.38386 227.08982 
L 208.472557 226.396207 
L 210.649951 224.543598 
L 212.827346 222.243831 
L 215.00474 219.707371 
L 216.093437 218.580995 
L 218.270831 216.835673 
L 220.448225 215.39008 
L 222.625619 214.186527 
L 224.803013 212.864548 
L 226.980407 211.192681 
L 230.246499 208.508625 
L 237.867378 202.397469 
L 240.044772 200.281631 
L 244.39956 195.503883 
L 248.754349 190.660264 
L 252.02044 187.047937 
L 254.197834 184.41849 
L 257.463925 179.972099 
L 261.818713 173.604315 
L 267.262199 164.810314 
L 269.439593 161.757874 
L 271.616987 159.183404 
L 274.883078 155.71869 
L 277.060472 153.430212 
L 279.237866 150.832076 
L 283.592654 145.043052 
L 287.947443 138.321052 
L 291.213534 133.022321 
L 295.568322 125.608428 
L 298.834413 119.507394 
L 301.011807 115.077857 
L 307.54399 100.453198 
L 310.810081 92.442444 
L 312.987475 86.629244 
L 324.963143 52.47895 
L 329.317931 40.889261 
L 331.495325 35.630085 
L 332.584022 33.29568 
L 333.672719 31.234976 
L 334.761416 29.428857 
L 335.850113 27.95197 
L 336.93881 26.790535 
L 338.027507 25.983999 
L 339.116204 25.527273 
L 340.204902 25.547111 
L 341.293599 25.984192 
L 342.382296 26.900455 
L 343.470993 28.097582 
L 344.55969 29.801103 
L 345.648387 31.875307 
L 347.825781 37.142997 
L 350.003175 43.277406 
L 352.180569 50.231307 
L 354.357963 57.99227 
L 357.624054 70.689075 
L 364.156237 96.677035 
L 368.511025 112.714677 
L 372.865813 128.252421 
L 375.043207 135.494702 
L 378.309299 144.953427 
L 379.397996 147.972703 
L 388.107572 167.683627 
L 393.551057 182.785343 
L 396.817149 191.610006 
L 400.08324 199.771823 
L 409.881513 222.692956 
L 410.97021 225.049149 
L 412.058907 227.130375 
L 413.147605 228.833896 
L 415.324999 231.618093 
L 416.413696 232.623401 
L 417.502393 233.40218 
L 420.768484 234.845622 
L 422.945878 236.16818 
L 425.123272 236.508508 
L 430.566757 237.975923 
L 431.655455 238.153075 
L 431.655455 238.153075 
" clip-path="url(#p192ae6034b)" style="fill: none; stroke: #000000; stroke-width: 4; stroke-linecap: square"/>
   </g>
   <g id="patch_3">
    <path d="M 46.42 334.8 
L 46.42 10.8 
" style="fill: none; stroke: #000000; stroke-width: 0.8; stroke-linejoin: miter; stroke-linecap: square"/>
   </g>
   <g id="patch_4">
    <path d="M 46.42 334.8 
L 450 334.8 
" style="fill: none; stroke: #000000; stroke-width: 0.8; stroke-linejoin: miter; stroke-linecap: square"/>
   </g>
  </g>
 </g>
 <defs>
  <clipPath id="p192ae6034b">
   <rect x="46.42" y="10.8" width="403.58" height="324"/>
  </clipPath>
 </defs>
</svg>
