<?xml version="1.0" encoding="utf-8" standalone="no"?>
<!DOCTYPE svg PUBLIC "-//W3C//DTD SVG 1.1//EN"
  "http://www.w3.org/Graphics/SVG/1.1/DTD/svg11.dtd">
<svg xmlns:xlink="http://www.w3.org/1999/xlink" width="460.8pt" height="345.6pt" viewBox="0 0 460.8 345.6" xmlns="http://www.w3.org/2000/svg" version="1.1">
 <metadata>
  <rdf:RDF xmlns:dc="http://purl.org/dc/elements/1.1/" xmlns:cc="http://creativecommons.org/ns#" xmlns:rdf="http://www.w3.org/1999/02/22-rdf-syntax-ns#">
   <cc:Work>
    <dc:type rdf:resource="http://purl.org/dc/dcmitype/StillImage"/>
    <dc:date>2023-04-28T11:08:18.434509</dc:date>
    <dc:format>image/svg+xml</dc:format>
    <dc:creator>
     <cc:Agent>
      <dc:title>Matplotlib v3.7.1, https://matplotlib.org/</dc:title>
     </cc:Agent>
    </dc:creator>
   </cc:Work>
  </rdf:RDF>
 </metadata>
 <defs>
  <style type="text/css">*{stroke-linejoin: round; stroke-linecap: butt}</style>
 </defs>
 <g id="figure_1">
  <g id="patch_1">
   <path d="M 0 345.6 
L 460.8 345.6 
L 460.8 0 
L 0 0 
z
" style="fill: #ffffff"/>
  </g>
  <g id="axes_1">
   <g id="patch_2">
    <path d="M 46.42 334.8 
L 450 334.8 
L 450 10.8 
L 46.42 10.8 
z
" style="fill: #ffffff"/>
   </g>
   <g id="matplotlib.axis_1"/>
   <g id="matplotlib.axis_2">
    <g id="ytick_1">
     <g id="line2d_1">
      <defs>
       <path id="m3d6d2bc1f9" d="M 0 0 
L -3.5 0 
" style="stroke: #000000; stroke-width: 0.8"/>
      </defs>
      <g>
       <use xlink:href="#m3d6d2bc1f9" x="46.42" y="320.072727" style="stroke: #000000; stroke-width: 0.8"/>
      </g>
     </g>
     <g id="text_1">
      <!-- 0.0 -->
      <g transform="translate(10.794375 326.911321) scale(0.18 -0.18)">
       <defs>
        <path id="DejaVuSans-30" d="M 2034 4250 
Q 1547 4250 1301 3770 
Q 1056 3291 1056 2328 
Q 1056 1369 1301 889 
Q 1547 409 2034 409 
Q 2525 409 2770 889 
Q 3016 1369 3016 2328 
Q 3016 3291 2770 3770 
Q 2525 4250 2034 4250 
z
M 2034 4750 
Q 2819 4750 3233 4129 
Q 3647 3509 3647 2328 
Q 3647 1150 3233 529 
Q 2819 -91 2034 -91 
Q 1250 -91 836 529 
Q 422 1150 422 2328 
Q 422 3509 836 4129 
Q 1250 4750 2034 4750 
z
" transform="scale(0.015625)"/>
        <path id="DejaVuSans-2e" d="M 684 794 
L 1344 794 
L 1344 0 
L 684 0 
L 684 794 
z
" transform="scale(0.015625)"/>
       </defs>
       <use xlink:href="#DejaVuSans-30"/>
       <use xlink:href="#DejaVuSans-2e" x="63.623047"/>
       <use xlink:href="#DejaVuSans-30" x="95.410156"/>
      </g>
     </g>
    </g>
    <g id="ytick_2">
     <g id="line2d_2">
      <g>
       <use xlink:href="#m3d6d2bc1f9" x="46.42" y="172.8" style="stroke: #000000; stroke-width: 0.8"/>
      </g>
     </g>
     <g id="text_2">
      <!-- 0.5 -->
      <g transform="translate(10.794375 179.638594) scale(0.18 -0.18)">
       <defs>
        <path id="DejaVuSans-35" d="M 691 4666 
L 3169 4666 
L 3169 4134 
L 1269 4134 
L 1269 2991 
Q 1406 3038 1543 3061 
Q 1681 3084 1819 3084 
Q 2600 3084 3056 2656 
Q 3513 2228 3513 1497 
Q 3513 744 3044 326 
Q 2575 -91 1722 -91 
Q 1428 -91 1123 -41 
Q 819 9 494 109 
L 494 744 
Q 775 591 1075 516 
Q 1375 441 1709 441 
Q 2250 441 2565 725 
Q 2881 1009 2881 1497 
Q 2881 1984 2565 2268 
Q 2250 2553 1709 2553 
Q 1456 2553 1204 2497 
Q 953 2441 691 2322 
L 691 4666 
z
" transform="scale(0.015625)"/>
       </defs>
       <use xlink:href="#DejaVuSans-30"/>
       <use xlink:href="#DejaVuSans-2e" x="63.623047"/>
       <use xlink:href="#DejaVuSans-35" x="95.410156"/>
      </g>
     </g>
    </g>
    <g id="ytick_3">
     <g id="line2d_3">
      <g>
       <use xlink:href="#m3d6d2bc1f9" x="46.42" y="25.527273" style="stroke: #000000; stroke-width: 0.8"/>
      </g>
     </g>
     <g id="text_3">
      <!-- 1.0 -->
      <g transform="translate(10.794375 32.365866) scale(0.18 -0.18)">
       <defs>
        <path id="DejaVuSans-31" d="M 794 531 
L 1825 531 
L 1825 4091 
L 703 3866 
L 703 4441 
L 1819 4666 
L 2450 4666 
L 2450 531 
L 3481 531 
L 3481 0 
L 794 0 
L 794 531 
z
" transform="scale(0.015625)"/>
       </defs>
       <use xlink:href="#DejaVuSans-31"/>
       <use xlink:href="#DejaVuSans-2e" x="63.623047"/>
       <use xlink:href="#DejaVuSans-30" x="95.410156"/>
      </g>
     </g>
    </g>
   </g>
   <g id="line2d_4">
    <path d="M 64.764545 241.538092 
L 65.853243 238.871574 
L 68.030637 232.461321 
L 71.296728 221.451411 
L 73.474122 213.130666 
L 75.651516 202.557109 
L 77.82891 189.838297 
L 80.006304 175.586515 
L 84.361093 144.997528 
L 86.538487 130.733387 
L 88.715881 117.631664 
L 90.893275 106.278318 
L 94.159366 85.283257 
L 96.33676 69.785489 
L 99.602851 43.891068 
L 100.691548 36.870664 
L 101.780245 30.857253 
L 102.868943 27.254846 
L 103.95764 25.527273 
L 105.046337 26.672451 
L 106.135034 29.998909 
L 107.223731 36.401262 
L 108.312428 44.495356 
L 110.489822 66.370126 
L 112.667216 88.582802 
L 114.84461 108.629788 
L 117.022004 126.177568 
L 124.642884 179.224211 
L 126.820278 196.497182 
L 132.263763 241.123316 
L 134.441157 257.879238 
L 138.795946 286.544037 
L 140.97334 299.459426 
L 143.150734 310.504595 
L 144.239431 314.676239 
L 145.328128 318.235194 
L 146.416825 319.7394 
L 147.505522 320.072727 
L 148.594219 318.449948 
L 149.682916 315.744895 
L 150.771613 311.550098 
L 151.86031 306.248618 
L 152.949007 300.042512 
L 155.126401 285.765534 
L 158.392493 262.428473 
L 160.569887 245.311006 
L 163.835978 217.407323 
L 167.102069 189.173546 
L 169.279463 171.752944 
L 172.545554 148.162504 
L 181.255131 87.716505 
L 183.432525 71.058828 
L 186.698616 45.058824 
L 187.787313 37.616192 
L 188.87601 31.598971 
L 189.964707 27.568699 
L 191.053404 25.527273 
L 192.142101 26.256789 
L 193.230798 29.06553 
L 194.319496 34.220246 
L 195.408193 40.813313 
L 197.585587 56.776252 
L 205.206466 119.758747 
L 210.649951 165.744255 
L 215.00474 200.374898 
L 221.536922 250.131385 
L 225.89171 280.518632 
L 228.069104 294.476812 
L 230.246499 306.711899 
L 231.335196 312.175807 
L 232.423893 316.596004 
L 233.51259 319.202868 
L 234.601287 320.072727 
L 235.689984 319.096335 
L 236.778681 316.481065 
L 237.867378 312.318941 
L 238.956075 306.806859 
L 240.044772 299.766218 
L 242.222166 283.682175 
L 245.488257 257.744476 
L 249.843046 221.209442 
L 253.109137 194.402297 
L 256.375228 169.416502 
L 259.641319 146.906703 
L 266.173501 102.298784 
L 268.350896 85.714703 
L 271.616987 57.546042 
L 272.705684 48.359404 
L 273.794381 40.170296 
L 274.883078 33.088498 
L 275.971775 28.195265 
L 277.060472 25.527273 
L 278.149169 25.722007 
L 279.237866 28.291631 
L 280.326563 33.464062 
L 281.41526 40.048421 
L 282.503957 48.253979 
L 284.681351 67.264706 
L 290.124837 115.623893 
L 292.302231 133.408911 
L 295.568322 158.731154 
L 302.100504 208.622837 
L 308.632687 258.84421 
L 311.898778 281.185191 
L 314.076172 294.781611 
L 316.253566 306.69492 
L 317.342263 311.6904 
L 318.43096 316.084656 
L 319.519657 318.800196 
L 320.608354 320.072727 
L 321.697052 319.312558 
L 322.785749 317.142979 
L 323.874446 313.514143 
L 324.963143 308.777957 
L 326.05184 303.031213 
L 328.229234 289.114315 
L 331.495325 265.845359 
L 335.850113 232.595697 
L 339.116204 207.713422 
L 342.382296 184.605297 
L 347.825781 146.986268 
L 352.180569 114.901557 
L 356.535357 79.236349 
L 359.801449 50.692072 
L 360.890146 42.226259 
L 361.978843 35.006872 
L 363.06754 29.441497 
L 364.156237 26.079962 
L 365.244934 25.527273 
L 366.333631 26.937656 
L 367.422328 30.727758 
L 368.511025 36.358776 
L 369.599722 43.947635 
L 370.688419 52.880655 
L 373.95451 85.322039 
L 379.397996 141.726987 
L 384.841481 190.885213 
L 387.018875 208.801104 
L 390.284966 234.089262 
L 393.551057 256.614554 
L 395.728452 270.117324 
L 398.994543 288.714892 
L 401.171937 300.028669 
L 402.260634 305.279766 
L 403.349331 309.803709 
L 404.438028 313.810656 
L 405.526725 316.855248 
L 406.615422 318.989027 
L 407.704119 320.072727 
L 408.792816 319.787526 
L 409.881513 318.285279 
L 410.97021 315.557713 
L 412.058907 311.927768 
L 413.147605 307.140457 
L 415.324999 295.595421 
L 417.502393 282.10848 
L 420.768484 260.479472 
L 422.945878 245.294354 
L 426.211969 218.629433 
L 429.47806 189.636839 
L 431.655455 169.762904 
L 431.655455 169.762904 
" clip-path="url(#pc05d518868)" style="fill: none; stroke: #000000; stroke-width: 4; stroke-linecap: square"/>
   </g>
   <g id="patch_3">
    <path d="M 46.42 334.8 
L 46.42 10.8 
" style="fill: none; stroke: #000000; stroke-width: 0.8; stroke-linejoin: miter; stroke-linecap: square"/>
   </g>
   <g id="patch_4">
    <path d="M 46.42 334.8 
L 450 334.8 
" style="fill: none; stroke: #000000; stroke-width: 0.8; stroke-linejoin: miter; stroke-linecap: square"/>
   </g>
  </g>
 </g>
 <defs>
  <clipPath id="pc05d518868">
   <rect x="46.42" y="10.8" width="403.58" height="324"/>
  </clipPath>
 </defs>
</svg>
