<?xml version="1.0" encoding="utf-8" standalone="no"?>
<!DOCTYPE svg PUBLIC "-//W3C//DTD SVG 1.1//EN"
  "http://www.w3.org/Graphics/SVG/1.1/DTD/svg11.dtd">
<svg xmlns:xlink="http://www.w3.org/1999/xlink" width="460.8pt" height="345.6pt" viewBox="0 0 460.8 345.6" xmlns="http://www.w3.org/2000/svg" version="1.1">
 <metadata>
  <rdf:RDF xmlns:dc="http://purl.org/dc/elements/1.1/" xmlns:cc="http://creativecommons.org/ns#" xmlns:rdf="http://www.w3.org/1999/02/22-rdf-syntax-ns#">
   <cc:Work>
    <dc:type rdf:resource="http://purl.org/dc/dcmitype/StillImage"/>
    <dc:date>2023-04-28T11:01:28.768261</dc:date>
    <dc:format>image/svg+xml</dc:format>
    <dc:creator>
     <cc:Agent>
      <dc:title>Matplotlib v3.7.1, https://matplotlib.org/</dc:title>
     </cc:Agent>
    </dc:creator>
   </cc:Work>
  </rdf:RDF>
 </metadata>
 <defs>
  <style type="text/css">*{stroke-linejoin: round; stroke-linecap: butt}</style>
 </defs>
 <g id="figure_1">
  <g id="patch_1">
   <path d="M 0 345.6 
L 460.8 345.6 
L 460.8 0 
L 0 0 
z
" style="fill: #ffffff"/>
  </g>
  <g id="axes_1">
   <g id="patch_2">
    <path d="M 46.42 334.8 
L 450 334.8 
L 450 10.8 
L 46.42 10.8 
z
" style="fill: #ffffff"/>
   </g>
   <g id="matplotlib.axis_1"/>
   <g id="matplotlib.axis_2">
    <g id="ytick_1">
     <g id="line2d_1">
      <defs>
       <path id="m2e200a009d" d="M 0 0 
L -3.5 0 
" style="stroke: #000000; stroke-width: 0.8"/>
      </defs>
      <g>
       <use xlink:href="#m2e200a009d" x="46.42" y="320.072727" style="stroke: #000000; stroke-width: 0.8"/>
      </g>
     </g>
     <g id="text_1">
      <!-- 0.0 -->
      <g transform="translate(10.794375 326.911321) scale(0.18 -0.18)">
       <defs>
        <path id="DejaVuSans-30" d="M 2034 4250 
Q 1547 4250 1301 3770 
Q 1056 3291 1056 2328 
Q 1056 1369 1301 889 
Q 1547 409 2034 409 
Q 2525 409 2770 889 
Q 3016 1369 3016 2328 
Q 3016 3291 2770 3770 
Q 2525 4250 2034 4250 
z
M 2034 4750 
Q 2819 4750 3233 4129 
Q 3647 3509 3647 2328 
Q 3647 1150 3233 529 
Q 2819 -91 2034 -91 
Q 1250 -91 836 529 
Q 422 1150 422 2328 
Q 422 3509 836 4129 
Q 1250 4750 2034 4750 
z
" transform="scale(0.015625)"/>
        <path id="DejaVuSans-2e" d="M 684 794 
L 1344 794 
L 1344 0 
L 684 0 
L 684 794 
z
" transform="scale(0.015625)"/>
       </defs>
       <use xlink:href="#DejaVuSans-30"/>
       <use xlink:href="#DejaVuSans-2e" x="63.623047"/>
       <use xlink:href="#DejaVuSans-30" x="95.410156"/>
      </g>
     </g>
    </g>
    <g id="ytick_2">
     <g id="line2d_2">
      <g>
       <use xlink:href="#m2e200a009d" x="46.42" y="172.8" style="stroke: #000000; stroke-width: 0.8"/>
      </g>
     </g>
     <g id="text_2">
      <!-- 0.5 -->
      <g transform="translate(10.794375 179.638594) scale(0.18 -0.18)">
       <defs>
        <path id="DejaVuSans-35" d="M 691 4666 
L 3169 4666 
L 3169 4134 
L 1269 4134 
L 1269 2991 
Q 1406 3038 1543 3061 
Q 1681 3084 1819 3084 
Q 2600 3084 3056 2656 
Q 3513 2228 3513 1497 
Q 3513 744 3044 326 
Q 2575 -91 1722 -91 
Q 1428 -91 1123 -41 
Q 819 9 494 109 
L 494 744 
Q 775 591 1075 516 
Q 1375 441 1709 441 
Q 2250 441 2565 725 
Q 2881 1009 2881 1497 
Q 2881 1984 2565 2268 
Q 2250 2553 1709 2553 
Q 1456 2553 1204 2497 
Q 953 2441 691 2322 
L 691 4666 
z
" transform="scale(0.015625)"/>
       </defs>
       <use xlink:href="#DejaVuSans-30"/>
       <use xlink:href="#DejaVuSans-2e" x="63.623047"/>
       <use xlink:href="#DejaVuSans-35" x="95.410156"/>
      </g>
     </g>
    </g>
    <g id="ytick_3">
     <g id="line2d_3">
      <g>
       <use xlink:href="#m2e200a009d" x="46.42" y="25.527273" style="stroke: #000000; stroke-width: 0.8"/>
      </g>
     </g>
     <g id="text_3">
      <!-- 1.0 -->
      <g transform="translate(10.794375 32.365866) scale(0.18 -0.18)">
       <defs>
        <path id="DejaVuSans-31" d="M 794 531 
L 1825 531 
L 1825 4091 
L 703 3866 
L 703 4441 
L 1819 4666 
L 2450 4666 
L 2450 531 
L 3481 531 
L 3481 0 
L 794 0 
L 794 531 
z
" transform="scale(0.015625)"/>
       </defs>
       <use xlink:href="#DejaVuSans-31"/>
       <use xlink:href="#DejaVuSans-2e" x="63.623047"/>
       <use xlink:href="#DejaVuSans-30" x="95.410156"/>
      </g>
     </g>
    </g>
   </g>
   <g id="line2d_4">
    <path d="M 64.764545 150.959026 
L 68.030637 208.568957 
L 70.208031 241.90824 
L 71.296728 250.73615 
L 72.385425 257.007937 
L 73.474122 259.225567 
L 74.562819 282.963274 
L 76.740213 315.239925 
L 77.82891 320.072727 
L 78.917607 318.767559 
L 80.006304 314.849238 
L 81.095001 310.31756 
L 82.183698 304.460736 
L 85.44979 253.668733 
L 87.627184 225.980097 
L 89.804578 203.40642 
L 90.893275 194.921041 
L 91.981972 185.095126 
L 93.070669 177.213718 
L 94.159366 166.296576 
L 95.248063 157.172491 
L 96.33676 144.798001 
L 97.425457 135.55334 
L 98.514154 123.668021 
L 99.602851 113.601129 
L 100.691548 100.051089 
L 103.95764 64.413584 
L 105.046337 54.763829 
L 106.135034 46.270506 
L 107.223731 40.097385 
L 109.401125 29.800646 
L 110.489822 26.517833 
L 111.578519 25.527273 
L 112.667216 26.182947 
L 113.755913 27.606199 
L 115.933307 32.518182 
L 123.554187 53.906433 
L 125.731581 61.654492 
L 126.820278 66.270634 
L 127.908975 71.481373 
L 128.997672 77.40163 
L 131.175066 91.24005 
L 137.707248 136.77466 
L 144.239431 176.401556 
L 147.505522 197.113355 
L 150.771613 217.731903 
L 155.126401 243.550094 
L 157.303796 255.813549 
L 161.658584 277.002975 
L 164.924675 291.080822 
L 169.279463 308.246162 
L 171.456857 315.961322 
L 172.545554 318.425887 
L 173.634251 320.072727 
L 174.722948 319.806135 
L 175.811646 318.000897 
L 176.900343 313.82058 
L 177.98904 308.444757 
L 179.077737 301.184501 
L 180.166434 292.707025 
L 182.343828 272.500119 
L 184.521222 251.628887 
L 187.787313 223.391538 
L 189.964707 205.683109 
L 195.408193 164.880521 
L 201.940375 113.774567 
L 207.38386 73.683597 
L 210.649951 52.273787 
L 212.827346 40.118277 
L 213.916043 35.048744 
L 215.00474 30.77832 
L 216.093437 28.041279 
L 217.182134 25.915618 
L 218.270831 25.527273 
L 219.359528 26.027363 
L 220.448225 28.131237 
L 221.536922 31.29293 
L 222.625619 36.099224 
L 223.714316 41.860193 
L 224.803013 48.453998 
L 226.980407 64.146588 
L 230.246499 91.756959 
L 236.778681 147.161533 
L 238.956075 164.552166 
L 242.222166 190.306128 
L 245.488257 213.912684 
L 247.665651 228.144619 
L 249.843046 240.537937 
L 257.463925 280.736374 
L 259.641319 292.859095 
L 261.818713 303.745785 
L 262.90741 308.273056 
L 263.996107 312.095254 
L 265.084804 315.165622 
L 266.173501 317.611918 
L 267.262199 319.115682 
L 268.350896 320.038676 
L 269.439593 320.072727 
L 270.52829 319.347934 
L 271.616987 317.665662 
L 272.705684 315.344222 
L 273.794381 311.433446 
L 274.883078 306.738345 
L 277.060472 294.195481 
L 279.237866 278.159911 
L 295.568322 144.93717 
L 298.834413 120.519829 
L 303.189202 90.077613 
L 307.54399 60.963582 
L 309.721384 47.687859 
L 311.898778 36.811939 
L 312.987475 32.583895 
L 314.076172 29.109491 
L 315.164869 26.935427 
L 316.253566 25.527273 
L 317.342263 25.755662 
L 318.43096 26.726296 
L 319.519657 29.06811 
L 320.608354 32.37243 
L 321.697052 36.854232 
L 322.785749 42.090233 
L 323.874446 48.3853 
L 326.05184 63.05306 
L 328.229234 79.799502 
L 333.672719 122.342715 
L 336.93881 146.260053 
L 342.382296 186.207229 
L 351.091872 249.929211 
L 353.269266 263.950594 
L 355.44666 276.273898 
L 357.624054 287.174008 
L 359.801449 296.750692 
L 361.978843 304.557772 
L 364.156237 311.177037 
L 366.333631 316.516118 
L 367.422328 318.298179 
L 368.511025 319.67028 
L 369.599722 320.072727 
L 370.688419 319.775061 
L 371.777116 317.962437 
L 372.865813 315.1571 
L 373.95451 311.660408 
L 375.043207 307.312315 
L 376.131905 302.142192 
L 378.309299 289.973219 
L 382.664087 263.581798 
L 384.841481 248.651983 
L 388.107572 224.59179 
L 392.46236 187.97619 
L 398.994543 130.330365 
L 403.349331 89.304084 
L 406.615422 59.677936 
L 407.704119 50.679835 
L 409.881513 37.008253 
L 410.97021 32.249905 
L 412.058907 28.417229 
L 413.147605 26.742817 
L 414.236302 25.527273 
L 415.324999 25.590862 
L 416.413696 26.52461 
L 417.502393 29.116425 
L 418.59109 32.437213 
L 420.768484 42.440727 
L 422.945878 54.56934 
L 425.123272 72.482747 
L 428.389363 101.310102 
L 431.655455 131.319099 
L 431.655455 131.319099 
" clip-path="url(#p352b2eb5a0)" style="fill: none; stroke: #000000; stroke-width: 4; stroke-linecap: square"/>
   </g>
   <g id="patch_3">
    <path d="M 46.42 334.8 
L 46.42 10.8 
" style="fill: none; stroke: #000000; stroke-width: 0.8; stroke-linejoin: miter; stroke-linecap: square"/>
   </g>
   <g id="patch_4">
    <path d="M 46.42 334.8 
L 450 334.8 
" style="fill: none; stroke: #000000; stroke-width: 0.8; stroke-linejoin: miter; stroke-linecap: square"/>
   </g>
  </g>
 </g>
 <defs>
  <clipPath id="p352b2eb5a0">
   <rect x="46.42" y="10.8" width="403.58" height="324"/>
  </clipPath>
 </defs>
</svg>
