<?xml version="1.0" encoding="utf-8" standalone="no"?>
<!DOCTYPE svg PUBLIC "-//W3C//DTD SVG 1.1//EN"
  "http://www.w3.org/Graphics/SVG/1.1/DTD/svg11.dtd">
<svg xmlns:xlink="http://www.w3.org/1999/xlink" width="460.8pt" height="345.6pt" viewBox="0 0 460.8 345.6" xmlns="http://www.w3.org/2000/svg" version="1.1">
 <metadata>
  <rdf:RDF xmlns:dc="http://purl.org/dc/elements/1.1/" xmlns:cc="http://creativecommons.org/ns#" xmlns:rdf="http://www.w3.org/1999/02/22-rdf-syntax-ns#">
   <cc:Work>
    <dc:type rdf:resource="http://purl.org/dc/dcmitype/StillImage"/>
    <dc:date>2023-04-28T11:08:18.528829</dc:date>
    <dc:format>image/svg+xml</dc:format>
    <dc:creator>
     <cc:Agent>
      <dc:title>Matplotlib v3.7.1, https://matplotlib.org/</dc:title>
     </cc:Agent>
    </dc:creator>
   </cc:Work>
  </rdf:RDF>
 </metadata>
 <defs>
  <style type="text/css">*{stroke-linejoin: round; stroke-linecap: butt}</style>
 </defs>
 <g id="figure_1">
  <g id="patch_1">
   <path d="M 0 345.6 
L 460.8 345.6 
L 460.8 0 
L 0 0 
z
" style="fill: #ffffff"/>
  </g>
  <g id="axes_1">
   <g id="patch_2">
    <path d="M 46.42 334.8 
L 450 334.8 
L 450 10.8 
L 46.42 10.8 
z
" style="fill: #ffffff"/>
   </g>
   <g id="matplotlib.axis_1"/>
   <g id="matplotlib.axis_2">
    <g id="ytick_1">
     <g id="line2d_1">
      <defs>
       <path id="mad89e229be" d="M 0 0 
L -3.5 0 
" style="stroke: #000000; stroke-width: 0.8"/>
      </defs>
      <g>
       <use xlink:href="#mad89e229be" x="46.42" y="320.072727" style="stroke: #000000; stroke-width: 0.8"/>
      </g>
     </g>
     <g id="text_1">
      <!-- 0.0 -->
      <g transform="translate(10.794375 326.911321) scale(0.18 -0.18)">
       <defs>
        <path id="DejaVuSans-30" d="M 2034 4250 
Q 1547 4250 1301 3770 
Q 1056 3291 1056 2328 
Q 1056 1369 1301 889 
Q 1547 409 2034 409 
Q 2525 409 2770 889 
Q 3016 1369 3016 2328 
Q 3016 3291 2770 3770 
Q 2525 4250 2034 4250 
z
M 2034 4750 
Q 2819 4750 3233 4129 
Q 3647 3509 3647 2328 
Q 3647 1150 3233 529 
Q 2819 -91 2034 -91 
Q 1250 -91 836 529 
Q 422 1150 422 2328 
Q 422 3509 836 4129 
Q 1250 4750 2034 4750 
z
" transform="scale(0.015625)"/>
        <path id="DejaVuSans-2e" d="M 684 794 
L 1344 794 
L 1344 0 
L 684 0 
L 684 794 
z
" transform="scale(0.015625)"/>
       </defs>
       <use xlink:href="#DejaVuSans-30"/>
       <use xlink:href="#DejaVuSans-2e" x="63.623047"/>
       <use xlink:href="#DejaVuSans-30" x="95.410156"/>
      </g>
     </g>
    </g>
    <g id="ytick_2">
     <g id="line2d_2">
      <g>
       <use xlink:href="#mad89e229be" x="46.42" y="172.8" style="stroke: #000000; stroke-width: 0.8"/>
      </g>
     </g>
     <g id="text_2">
      <!-- 0.5 -->
      <g transform="translate(10.794375 179.638594) scale(0.18 -0.18)">
       <defs>
        <path id="DejaVuSans-35" d="M 691 4666 
L 3169 4666 
L 3169 4134 
L 1269 4134 
L 1269 2991 
Q 1406 3038 1543 3061 
Q 1681 3084 1819 3084 
Q 2600 3084 3056 2656 
Q 3513 2228 3513 1497 
Q 3513 744 3044 326 
Q 2575 -91 1722 -91 
Q 1428 -91 1123 -41 
Q 819 9 494 109 
L 494 744 
Q 775 591 1075 516 
Q 1375 441 1709 441 
Q 2250 441 2565 725 
Q 2881 1009 2881 1497 
Q 2881 1984 2565 2268 
Q 2250 2553 1709 2553 
Q 1456 2553 1204 2497 
Q 953 2441 691 2322 
L 691 4666 
z
" transform="scale(0.015625)"/>
       </defs>
       <use xlink:href="#DejaVuSans-30"/>
       <use xlink:href="#DejaVuSans-2e" x="63.623047"/>
       <use xlink:href="#DejaVuSans-35" x="95.410156"/>
      </g>
     </g>
    </g>
    <g id="ytick_3">
     <g id="line2d_3">
      <g>
       <use xlink:href="#mad89e229be" x="46.42" y="25.527273" style="stroke: #000000; stroke-width: 0.8"/>
      </g>
     </g>
     <g id="text_3">
      <!-- 1.0 -->
      <g transform="translate(10.794375 32.365866) scale(0.18 -0.18)">
       <defs>
        <path id="DejaVuSans-31" d="M 794 531 
L 1825 531 
L 1825 4091 
L 703 3866 
L 703 4441 
L 1819 4666 
L 2450 4666 
L 2450 531 
L 3481 531 
L 3481 0 
L 794 0 
L 794 531 
z
" transform="scale(0.015625)"/>
       </defs>
       <use xlink:href="#DejaVuSans-31"/>
       <use xlink:href="#DejaVuSans-2e" x="63.623047"/>
       <use xlink:href="#DejaVuSans-30" x="95.410156"/>
      </g>
     </g>
    </g>
   </g>
   <g id="line2d_4">
    <path d="M 64.764545 158.815688 
L 66.94194 176.817429 
L 69.119334 192.581149 
L 75.651516 237.400973 
L 77.82891 253.248357 
L 82.183698 286.945726 
L 84.361093 301.032563 
L 85.44979 306.767581 
L 86.538487 311.520772 
L 87.627184 314.819938 
L 88.715881 317.524407 
L 89.804578 319.124396 
L 90.893275 320.072727 
L 93.070669 319.645659 
L 95.248063 317.636396 
L 97.425457 314.046791 
L 99.602851 308.785907 
L 101.780245 300.403469 
L 103.95764 289.256802 
L 106.135034 274.921063 
L 108.312428 258.0418 
L 111.578519 231.020205 
L 115.933307 190.3684 
L 118.110701 167.905099 
L 120.288095 142.684471 
L 122.46549 116.030022 
L 126.820278 59.057164 
L 127.908975 47.045493 
L 128.997672 37.047491 
L 130.086369 30.093748 
L 131.175066 25.946587 
L 132.263763 25.527273 
L 133.35246 27.908676 
L 134.441157 33.229352 
L 135.529854 40.352443 
L 137.707248 59.505358 
L 142.062037 102.312776 
L 144.239431 122.016133 
L 147.505522 147.689187 
L 150.771613 171.410491 
L 154.037704 195.369463 
L 166.013372 281.5174 
L 168.190766 296.18455 
L 170.36816 308.902876 
L 171.456857 313.642959 
L 172.545554 317.404506 
L 173.634251 319.349058 
L 174.722948 320.072727 
L 175.811646 319.097933 
L 176.900343 316.839289 
L 177.98904 313.268689 
L 179.077737 308.332236 
L 180.166434 302.822711 
L 182.343828 290.046446 
L 185.609919 268.138051 
L 189.964707 236.346648 
L 198.674284 171.202484 
L 205.206466 123.488648 
L 207.38386 104.402377 
L 209.561254 82.765722 
L 212.827346 49.310832 
L 213.916043 40.212818 
L 215.00474 33.064165 
L 216.093437 27.959484 
L 217.182134 25.527273 
L 218.270831 25.769795 
L 219.359528 28.261487 
L 220.448225 33.087023 
L 221.536922 39.914624 
L 223.714316 57.722799 
L 228.069104 97.323106 
L 231.335196 126.921866 
L 240.044772 203.328716 
L 243.310863 229.843233 
L 246.576954 254.265208 
L 248.754349 269.039614 
L 250.931743 282.383456 
L 253.109137 295.121138 
L 254.197834 301.150464 
L 255.286531 306.5503 
L 256.375228 311.358705 
L 257.463925 315.288538 
L 258.552622 318.115049 
L 259.641319 319.874613 
L 260.730016 320.072727 
L 261.818713 319.264717 
L 262.90741 317.154551 
L 263.996107 314.292662 
L 266.173501 306.335395 
L 268.350896 296.419734 
L 270.52829 285.024389 
L 272.705684 271.636464 
L 275.971775 248.150453 
L 284.681351 182.981412 
L 290.124837 145.621952 
L 292.302231 127.814094 
L 294.479625 107.35155 
L 297.745716 73.924118 
L 298.834413 62.715699 
L 301.011807 43.297333 
L 302.100504 35.906807 
L 303.189202 29.659669 
L 304.277899 26.771978 
L 305.366596 25.527273 
L 306.455293 27.881833 
L 307.54399 31.664175 
L 308.632687 38.820956 
L 309.721384 47.456696 
L 316.253566 109.388904 
L 318.43096 126.416316 
L 321.697052 150.564062 
L 324.963143 175.826044 
L 328.229234 203.40606 
L 336.93881 279.5162 
L 338.027507 288.092812 
L 340.204902 302.687134 
L 341.293599 308.602521 
L 342.382296 313.826478 
L 343.470993 317.269841 
L 344.55969 319.497311 
L 345.648387 320.072727 
L 346.737084 319.62527 
L 347.825781 317.729968 
L 348.914478 314.814226 
L 350.003175 311.385098 
L 352.180569 303.260283 
L 355.44666 288.964288 
L 357.624054 277.583855 
L 359.801449 264.708257 
L 369.599722 202.217772 
L 372.865813 179.620192 
L 375.043207 161.606118 
L 379.397996 119.922284 
L 385.930178 48.822872 
L 387.018875 39.746102 
L 388.107572 32.152362 
L 389.196269 27.673931 
L 390.284966 25.527273 
L 391.373663 25.947763 
L 392.46236 28.286681 
L 393.551057 32.319919 
L 394.639755 37.916439 
L 395.728452 44.753503 
L 396.817149 52.528476 
L 398.994543 70.406753 
L 405.526725 126.616457 
L 408.792816 152.216178 
L 410.97021 167.502569 
L 413.147605 180.685577 
L 414.236302 186.62541 
L 416.413696 195.997241 
L 419.679787 207.88062 
L 420.768484 211.360713 
L 421.857181 214.46238 
L 424.034575 219.318218 
L 425.123272 221.258345 
L 426.211969 222.87038 
L 429.47806 226.912844 
L 431.655455 229.184056 
L 431.655455 229.184056 
" clip-path="url(#p47c3b7eccd)" style="fill: none; stroke: #000000; stroke-width: 4; stroke-linecap: square"/>
   </g>
   <g id="patch_3">
    <path d="M 46.42 334.8 
L 46.42 10.8 
" style="fill: none; stroke: #000000; stroke-width: 0.8; stroke-linejoin: miter; stroke-linecap: square"/>
   </g>
   <g id="patch_4">
    <path d="M 46.42 334.8 
L 450 334.8 
" style="fill: none; stroke: #000000; stroke-width: 0.8; stroke-linejoin: miter; stroke-linecap: square"/>
   </g>
  </g>
 </g>
 <defs>
  <clipPath id="p47c3b7eccd">
   <rect x="46.42" y="10.8" width="403.58" height="324"/>
  </clipPath>
 </defs>
</svg>
