<?xml version="1.0" encoding="utf-8" standalone="no"?>
<!DOCTYPE svg PUBLIC "-//W3C//DTD SVG 1.1//EN"
  "http://www.w3.org/Graphics/SVG/1.1/DTD/svg11.dtd">
<svg xmlns:xlink="http://www.w3.org/1999/xlink" width="460.8pt" height="345.6pt" viewBox="0 0 460.8 345.6" xmlns="http://www.w3.org/2000/svg" version="1.1">
 <metadata>
  <rdf:RDF xmlns:dc="http://purl.org/dc/elements/1.1/" xmlns:cc="http://creativecommons.org/ns#" xmlns:rdf="http://www.w3.org/1999/02/22-rdf-syntax-ns#">
   <cc:Work>
    <dc:type rdf:resource="http://purl.org/dc/dcmitype/StillImage"/>
    <dc:date>2023-04-28T11:06:02.042110</dc:date>
    <dc:format>image/svg+xml</dc:format>
    <dc:creator>
     <cc:Agent>
      <dc:title>Matplotlib v3.7.1, https://matplotlib.org/</dc:title>
     </cc:Agent>
    </dc:creator>
   </cc:Work>
  </rdf:RDF>
 </metadata>
 <defs>
  <style type="text/css">*{stroke-linejoin: round; stroke-linecap: butt}</style>
 </defs>
 <g id="figure_1">
  <g id="patch_1">
   <path d="M 0 345.6 
L 460.8 345.6 
L 460.8 0 
L 0 0 
z
" style="fill: #ffffff"/>
  </g>
  <g id="axes_1">
   <g id="patch_2">
    <path d="M 46.42 334.8 
L 450 334.8 
L 450 10.8 
L 46.42 10.8 
z
" style="fill: #ffffff"/>
   </g>
   <g id="matplotlib.axis_1"/>
   <g id="matplotlib.axis_2">
    <g id="ytick_1">
     <g id="line2d_1">
      <defs>
       <path id="m9bdc32a06b" d="M 0 0 
L -3.5 0 
" style="stroke: #000000; stroke-width: 0.8"/>
      </defs>
      <g>
       <use xlink:href="#m9bdc32a06b" x="46.42" y="320.072727" style="stroke: #000000; stroke-width: 0.8"/>
      </g>
     </g>
     <g id="text_1">
      <!-- 0.0 -->
      <g transform="translate(10.794375 326.911321) scale(0.18 -0.18)">
       <defs>
        <path id="DejaVuSans-30" d="M 2034 4250 
Q 1547 4250 1301 3770 
Q 1056 3291 1056 2328 
Q 1056 1369 1301 889 
Q 1547 409 2034 409 
Q 2525 409 2770 889 
Q 3016 1369 3016 2328 
Q 3016 3291 2770 3770 
Q 2525 4250 2034 4250 
z
M 2034 4750 
Q 2819 4750 3233 4129 
Q 3647 3509 3647 2328 
Q 3647 1150 3233 529 
Q 2819 -91 2034 -91 
Q 1250 -91 836 529 
Q 422 1150 422 2328 
Q 422 3509 836 4129 
Q 1250 4750 2034 4750 
z
" transform="scale(0.015625)"/>
        <path id="DejaVuSans-2e" d="M 684 794 
L 1344 794 
L 1344 0 
L 684 0 
L 684 794 
z
" transform="scale(0.015625)"/>
       </defs>
       <use xlink:href="#DejaVuSans-30"/>
       <use xlink:href="#DejaVuSans-2e" x="63.623047"/>
       <use xlink:href="#DejaVuSans-30" x="95.410156"/>
      </g>
     </g>
    </g>
    <g id="ytick_2">
     <g id="line2d_2">
      <g>
       <use xlink:href="#m9bdc32a06b" x="46.42" y="172.8" style="stroke: #000000; stroke-width: 0.8"/>
      </g>
     </g>
     <g id="text_2">
      <!-- 0.5 -->
      <g transform="translate(10.794375 179.638594) scale(0.18 -0.18)">
       <defs>
        <path id="DejaVuSans-35" d="M 691 4666 
L 3169 4666 
L 3169 4134 
L 1269 4134 
L 1269 2991 
Q 1406 3038 1543 3061 
Q 1681 3084 1819 3084 
Q 2600 3084 3056 2656 
Q 3513 2228 3513 1497 
Q 3513 744 3044 326 
Q 2575 -91 1722 -91 
Q 1428 -91 1123 -41 
Q 819 9 494 109 
L 494 744 
Q 775 591 1075 516 
Q 1375 441 1709 441 
Q 2250 441 2565 725 
Q 2881 1009 2881 1497 
Q 2881 1984 2565 2268 
Q 2250 2553 1709 2553 
Q 1456 2553 1204 2497 
Q 953 2441 691 2322 
L 691 4666 
z
" transform="scale(0.015625)"/>
       </defs>
       <use xlink:href="#DejaVuSans-30"/>
       <use xlink:href="#DejaVuSans-2e" x="63.623047"/>
       <use xlink:href="#DejaVuSans-35" x="95.410156"/>
      </g>
     </g>
    </g>
    <g id="ytick_3">
     <g id="line2d_3">
      <g>
       <use xlink:href="#m9bdc32a06b" x="46.42" y="25.527273" style="stroke: #000000; stroke-width: 0.8"/>
      </g>
     </g>
     <g id="text_3">
      <!-- 1.0 -->
      <g transform="translate(10.794375 32.365866) scale(0.18 -0.18)">
       <defs>
        <path id="DejaVuSans-31" d="M 794 531 
L 1825 531 
L 1825 4091 
L 703 3866 
L 703 4441 
L 1819 4666 
L 2450 4666 
L 2450 531 
L 3481 531 
L 3481 0 
L 794 0 
L 794 531 
z
" transform="scale(0.015625)"/>
       </defs>
       <use xlink:href="#DejaVuSans-31"/>
       <use xlink:href="#DejaVuSans-2e" x="63.623047"/>
       <use xlink:href="#DejaVuSans-30" x="95.410156"/>
      </g>
     </g>
    </g>
   </g>
   <g id="line2d_4">
    <path d="M 64.764545 267.342462 
L 66.94194 268.754886 
L 68.030637 269.548614 
L 70.208031 271.619957 
L 72.385425 274.063 
L 75.651516 278.276841 
L 80.006304 284.423894 
L 84.361093 291.039427 
L 87.627184 295.933742 
L 91.981972 301.996492 
L 96.33676 307.729236 
L 99.602851 312.345601 
L 101.780245 315.798065 
L 102.868943 317.277156 
L 103.95764 318.48705 
L 105.046337 319.40615 
L 106.135034 319.930644 
L 107.223731 320.072727 
L 108.312428 319.793161 
L 109.401125 318.918443 
L 111.578519 316.451608 
L 118.110701 308.351562 
L 121.376793 304.66733 
L 137.707248 285.478858 
L 143.150734 279.250626 
L 145.328128 276.174994 
L 148.594219 270.994089 
L 151.86031 265.527086 
L 155.126401 261.049449 
L 163.835978 249.653481 
L 167.102069 244.889884 
L 172.545554 236.261035 
L 177.98904 227.248204 
L 180.166434 224.151804 
L 183.432525 219.96155 
L 187.787313 214.69041 
L 189.964707 211.523714 
L 205.206466 187.761688 
L 208.472557 181.925393 
L 212.827346 173.401978 
L 222.625619 154.267401 
L 232.423893 136.739056 
L 235.689984 131.716047 
L 240.044772 125.534639 
L 248.754349 113.17955 
L 253.109137 106.150578 
L 258.552622 97.070015 
L 260.730016 93.80065 
L 263.996107 89.390864 
L 266.173501 86.413056 
L 268.350896 83.10512 
L 270.52829 79.407452 
L 273.794381 73.336369 
L 275.971775 68.919087 
L 279.237866 61.598505 
L 285.770049 46.136306 
L 287.947443 41.540178 
L 290.124837 37.509046 
L 292.302231 34.003952 
L 294.479625 31.209976 
L 296.657019 29.031699 
L 298.834413 27.382374 
L 301.011807 26.240988 
L 303.189202 25.635577 
L 304.277899 25.527273 
L 305.366596 25.587859 
L 306.455293 25.790933 
L 307.54399 26.162863 
L 308.632687 26.696731 
L 309.721384 27.45899 
L 310.810081 28.390403 
L 311.898778 29.540445 
L 312.987475 30.876267 
L 315.164869 34.041874 
L 317.342263 37.779114 
L 319.519657 42.292622 
L 321.697052 47.391615 
L 324.963143 55.962607 
L 330.406628 70.759318 
L 332.584022 76.149955 
L 335.850113 83.649084 
L 341.293599 95.918745 
L 347.825781 110.658662 
L 352.180569 119.439311 
L 356.535357 127.533106 
L 360.890146 135.1447 
L 370.688419 151.367402 
L 376.131905 161.610173 
L 381.57539 172.261637 
L 384.841481 179.13499 
L 389.196269 188.842066 
L 395.728452 203.312546 
L 406.615422 226.125331 
L 409.881513 232.339138 
L 413.147605 237.956664 
L 417.502393 244.762285 
L 421.857181 251.052585 
L 422.945878 252.598911 
L 427.300666 257.696402 
L 430.566757 260.777845 
L 431.655455 261.695578 
L 431.655455 261.695578 
" clip-path="url(#pba59f28720)" style="fill: none; stroke: #000000; stroke-width: 4; stroke-linecap: square"/>
   </g>
   <g id="patch_3">
    <path d="M 46.42 334.8 
L 46.42 10.8 
" style="fill: none; stroke: #000000; stroke-width: 0.8; stroke-linejoin: miter; stroke-linecap: square"/>
   </g>
   <g id="patch_4">
    <path d="M 46.42 334.8 
L 450 334.8 
" style="fill: none; stroke: #000000; stroke-width: 0.8; stroke-linejoin: miter; stroke-linecap: square"/>
   </g>
  </g>
 </g>
 <defs>
  <clipPath id="pba59f28720">
   <rect x="46.42" y="10.8" width="403.58" height="324"/>
  </clipPath>
 </defs>
</svg>
