<?xml version="1.0" encoding="utf-8" standalone="no"?>
<!DOCTYPE svg PUBLIC "-//W3C//DTD SVG 1.1//EN"
  "http://www.w3.org/Graphics/SVG/1.1/DTD/svg11.dtd">
<svg xmlns:xlink="http://www.w3.org/1999/xlink" width="460.8pt" height="345.6pt" viewBox="0 0 460.8 345.6" xmlns="http://www.w3.org/2000/svg" version="1.1">
 <metadata>
  <rdf:RDF xmlns:dc="http://purl.org/dc/elements/1.1/" xmlns:cc="http://creativecommons.org/ns#" xmlns:rdf="http://www.w3.org/1999/02/22-rdf-syntax-ns#">
   <cc:Work>
    <dc:type rdf:resource="http://purl.org/dc/dcmitype/StillImage"/>
    <dc:date>2023-04-28T00:49:24.967345</dc:date>
    <dc:format>image/svg+xml</dc:format>
    <dc:creator>
     <cc:Agent>
      <dc:title>Matplotlib v3.7.1, https://matplotlib.org/</dc:title>
     </cc:Agent>
    </dc:creator>
   </cc:Work>
  </rdf:RDF>
 </metadata>
 <defs>
  <style type="text/css">*{stroke-linejoin: round; stroke-linecap: butt}</style>
 </defs>
 <g id="figure_1">
  <g id="patch_1">
   <path d="M 0 345.6 
L 460.8 345.6 
L 460.8 0 
L 0 0 
z
" style="fill: #ffffff"/>
  </g>
  <g id="axes_1">
   <g id="patch_2">
    <path d="M 46.42 324.36 
L 450 324.36 
L 450 17.64 
L 46.42 17.64 
z
" style="fill: #ffffff"/>
   </g>
   <g id="matplotlib.axis_1"/>
   <g id="matplotlib.axis_2">
    <g id="ytick_1">
     <g id="line2d_1">
      <defs>
       <path id="m64e1d874f9" d="M 0 0 
L -3.5 0 
" style="stroke: #000000; stroke-width: 0.8"/>
      </defs>
      <g>
       <use xlink:href="#m64e1d874f9" x="46.42" y="324.36" style="stroke: #000000; stroke-width: 0.8"/>
      </g>
     </g>
     <g id="text_1">
      <!-- 0.0 -->
      <g transform="translate(10.794375 331.198594) scale(0.18 -0.18)">
       <defs>
        <path id="DejaVuSans-30" d="M 2034 4250 
Q 1547 4250 1301 3770 
Q 1056 3291 1056 2328 
Q 1056 1369 1301 889 
Q 1547 409 2034 409 
Q 2525 409 2770 889 
Q 3016 1369 3016 2328 
Q 3016 3291 2770 3770 
Q 2525 4250 2034 4250 
z
M 2034 4750 
Q 2819 4750 3233 4129 
Q 3647 3509 3647 2328 
Q 3647 1150 3233 529 
Q 2819 -91 2034 -91 
Q 1250 -91 836 529 
Q 422 1150 422 2328 
Q 422 3509 836 4129 
Q 1250 4750 2034 4750 
z
" transform="scale(0.015625)"/>
        <path id="DejaVuSans-2e" d="M 684 794 
L 1344 794 
L 1344 0 
L 684 0 
L 684 794 
z
" transform="scale(0.015625)"/>
       </defs>
       <use xlink:href="#DejaVuSans-30"/>
       <use xlink:href="#DejaVuSans-2e" x="63.623047"/>
       <use xlink:href="#DejaVuSans-30" x="95.410156"/>
      </g>
     </g>
    </g>
    <g id="ytick_2">
     <g id="line2d_2">
      <g>
       <use xlink:href="#m64e1d874f9" x="46.42" y="171" style="stroke: #000000; stroke-width: 0.8"/>
      </g>
     </g>
     <g id="text_2">
      <!-- 0.5 -->
      <g transform="translate(10.794375 177.838594) scale(0.18 -0.18)">
       <defs>
        <path id="DejaVuSans-35" d="M 691 4666 
L 3169 4666 
L 3169 4134 
L 1269 4134 
L 1269 2991 
Q 1406 3038 1543 3061 
Q 1681 3084 1819 3084 
Q 2600 3084 3056 2656 
Q 3513 2228 3513 1497 
Q 3513 744 3044 326 
Q 2575 -91 1722 -91 
Q 1428 -91 1123 -41 
Q 819 9 494 109 
L 494 744 
Q 775 591 1075 516 
Q 1375 441 1709 441 
Q 2250 441 2565 725 
Q 2881 1009 2881 1497 
Q 2881 1984 2565 2268 
Q 2250 2553 1709 2553 
Q 1456 2553 1204 2497 
Q 953 2441 691 2322 
L 691 4666 
z
" transform="scale(0.015625)"/>
       </defs>
       <use xlink:href="#DejaVuSans-30"/>
       <use xlink:href="#DejaVuSans-2e" x="63.623047"/>
       <use xlink:href="#DejaVuSans-35" x="95.410156"/>
      </g>
     </g>
    </g>
    <g id="ytick_3">
     <g id="line2d_3">
      <g>
       <use xlink:href="#m64e1d874f9" x="46.42" y="17.64" style="stroke: #000000; stroke-width: 0.8"/>
      </g>
     </g>
     <g id="text_3">
      <!-- 1.0 -->
      <g transform="translate(10.794375 24.478594) scale(0.18 -0.18)">
       <defs>
        <path id="DejaVuSans-31" d="M 794 531 
L 1825 531 
L 1825 4091 
L 703 3866 
L 703 4441 
L 1819 4666 
L 2450 4666 
L 2450 531 
L 3481 531 
L 3481 0 
L 794 0 
L 794 531 
z
" transform="scale(0.015625)"/>
       </defs>
       <use xlink:href="#DejaVuSans-31"/>
       <use xlink:href="#DejaVuSans-2e" x="63.623047"/>
       <use xlink:href="#DejaVuSans-30" x="95.410156"/>
      </g>
     </g>
    </g>
   </g>
   <g id="line2d_4">
    <path d="M 64.764545 282.739521 
L 65.853243 282.714306 
L 66.94194 282.074945 
L 68.030637 281.056468 
L 69.119334 279.419037 
L 70.208031 277.480859 
L 72.385425 272.397114 
L 73.474122 269.416615 
L 75.651516 261.744733 
L 77.82891 253.400953 
L 81.095001 239.403054 
L 82.183698 234.447845 
L 84.361093 225.370644 
L 87.627184 210.866597 
L 90.893275 194.80246 
L 95.248063 170.24938 
L 101.780245 133.067852 
L 111.578519 80.945776 
L 113.755913 71.147755 
L 115.933307 63.03882 
L 117.022004 59.850396 
L 118.110701 57.022984 
L 119.199398 54.844015 
L 120.288095 53.261622 
L 121.376793 52.43239 
L 122.46549 52.131378 
L 123.554187 52.697076 
L 124.642884 54.011017 
L 125.731581 56.328783 
L 126.820278 59.470662 
L 127.908975 63.46521 
L 128.997672 68.060594 
L 131.175066 79.12314 
L 133.35246 91.998925 
L 136.618551 113.370107 
L 146.416825 180.508499 
L 148.594219 193.592918 
L 150.771613 205.578354 
L 152.949007 216.669009 
L 158.392493 242.690192 
L 160.569887 252.467911 
L 162.747281 261.254603 
L 164.924675 268.719753 
L 166.013372 271.86607 
L 168.190766 277.138667 
L 170.36816 281.461084 
L 172.545554 285.165466 
L 174.722948 288.380717 
L 176.900343 290.940094 
L 177.98904 291.881404 
L 179.077737 292.602206 
L 180.166434 293.085418 
L 181.255131 293.403743 
L 182.343828 293.428085 
L 183.432525 293.182808 
L 184.521222 292.533036 
L 185.609919 291.495993 
L 186.698616 290.083032 
L 187.787313 288.274549 
L 188.87601 285.967014 
L 191.053404 280.303275 
L 193.230798 273.469944 
L 196.49689 262.323018 
L 199.762981 250.487456 
L 201.940375 242.065846 
L 205.206466 228.610039 
L 216.093437 181.4133 
L 222.625619 151.295528 
L 225.89171 135.638603 
L 229.157801 119.749388 
L 232.423893 104.645071 
L 234.601287 95.688421 
L 236.778681 87.976662 
L 238.956075 80.89998 
L 240.044772 77.592046 
L 243.310863 69.18826 
L 244.39956 66.636468 
L 245.488257 64.692769 
L 246.576954 63.105549 
L 247.665651 62.076203 
L 248.754349 61.49268 
L 249.843046 61.599593 
L 250.931743 62.293082 
L 252.02044 63.630643 
L 253.109137 65.49902 
L 254.197834 67.993024 
L 255.286531 70.878864 
L 256.375228 74.178736 
L 258.552622 81.860001 
L 260.730016 90.82506 
L 262.90741 100.431779 
L 266.173501 115.969049 
L 269.439593 133.422704 
L 272.705684 152.669013 
L 284.681351 226.361114 
L 286.858746 238.453582 
L 289.03614 249.763611 
L 291.213534 260.014594 
L 293.390928 269.064989 
L 295.568322 277.201511 
L 297.745716 284.159891 
L 299.92311 289.956469 
L 301.011807 292.444501 
L 302.100504 294.494148 
L 303.189202 296.245512 
L 304.277899 297.771926 
L 305.366596 299.075522 
L 306.455293 299.967966 
L 307.54399 300.616221 
L 308.632687 300.955428 
L 309.721384 301.05905 
L 310.810081 300.915048 
L 311.898778 300.462586 
L 312.987475 299.697018 
L 314.076172 298.689979 
L 315.164869 297.426781 
L 317.342263 294.392188 
L 318.43096 292.630867 
L 320.608354 288.338136 
L 322.785749 283.275639 
L 324.963143 277.484785 
L 328.229234 267.972369 
L 330.406628 260.8722 
L 332.584022 252.373252 
L 334.761416 242.320486 
L 335.850113 236.797238 
L 339.116204 217.874913 
L 343.470993 191.463721 
L 350.003175 148.919022 
L 354.357963 117.687112 
L 357.624054 94.305265 
L 359.801449 80.861295 
L 361.978843 69.345156 
L 363.06754 64.539182 
L 364.156237 60.310973 
L 365.244934 56.555241 
L 366.333631 53.273012 
L 367.422328 50.475601 
L 368.511025 48.331459 
L 369.599722 46.95408 
L 370.688419 46.41915 
L 371.777116 46.766196 
L 372.865813 47.959879 
L 373.95451 50.166527 
L 375.043207 53.068181 
L 376.131905 56.875358 
L 378.309299 66.085121 
L 384.841481 96.173258 
L 387.018875 108.040593 
L 388.107572 114.663938 
L 390.284966 130.051058 
L 396.817149 177.740468 
L 400.08324 200.206427 
L 406.615422 242.551734 
L 410.97021 268.959713 
L 412.058907 274.923111 
L 414.236302 285.166979 
L 416.413696 293.024425 
L 417.502393 295.998564 
L 418.59109 298.52678 
L 419.679787 300.405937 
L 420.768484 301.976038 
L 421.857181 303.145357 
L 422.945878 304.045043 
L 424.034575 304.69283 
L 425.123272 305.05496 
L 426.211969 305.157015 
L 427.300666 305.050986 
L 428.389363 304.589996 
L 429.47806 303.842377 
L 430.566757 302.752437 
L 431.655455 301.340592 
L 431.655455 301.340592 
" clip-path="url(#pb7c4b7f860)" style="fill: none; stroke: #000000; stroke-width: 4; stroke-linecap: square"/>
   </g>
   <g id="patch_3">
    <path d="M 46.42 324.36 
L 46.42 17.64 
" style="fill: none; stroke: #000000; stroke-width: 0.8; stroke-linejoin: miter; stroke-linecap: square"/>
   </g>
   <g id="patch_4">
    <path d="M 46.42 324.36 
L 450 324.36 
" style="fill: none; stroke: #000000; stroke-width: 0.8; stroke-linejoin: miter; stroke-linecap: square"/>
   </g>
  </g>
 </g>
 <defs>
  <clipPath id="pb7c4b7f860">
   <rect x="46.42" y="17.64" width="403.58" height="306.72"/>
  </clipPath>
 </defs>
</svg>
