<?xml version="1.0" encoding="utf-8" standalone="no"?>
<!DOCTYPE svg PUBLIC "-//W3C//DTD SVG 1.1//EN"
  "http://www.w3.org/Graphics/SVG/1.1/DTD/svg11.dtd">
<svg xmlns:xlink="http://www.w3.org/1999/xlink" width="460.8pt" height="345.6pt" viewBox="0 0 460.8 345.6" xmlns="http://www.w3.org/2000/svg" version="1.1">
 <metadata>
  <rdf:RDF xmlns:dc="http://purl.org/dc/elements/1.1/" xmlns:cc="http://creativecommons.org/ns#" xmlns:rdf="http://www.w3.org/1999/02/22-rdf-syntax-ns#">
   <cc:Work>
    <dc:type rdf:resource="http://purl.org/dc/dcmitype/StillImage"/>
    <dc:date>2023-04-28T00:50:29.890734</dc:date>
    <dc:format>image/svg+xml</dc:format>
    <dc:creator>
     <cc:Agent>
      <dc:title>Matplotlib v3.7.1, https://matplotlib.org/</dc:title>
     </cc:Agent>
    </dc:creator>
   </cc:Work>
  </rdf:RDF>
 </metadata>
 <defs>
  <style type="text/css">*{stroke-linejoin: round; stroke-linecap: butt}</style>
 </defs>
 <g id="figure_1">
  <g id="patch_1">
   <path d="M 0 345.6 
L 460.8 345.6 
L 460.8 0 
L 0 0 
z
" style="fill: #ffffff"/>
  </g>
  <g id="axes_1">
   <g id="patch_2">
    <path d="M 46.42 326.755023 
L 450 326.755023 
L 450 13.417643 
L 46.42 13.417643 
z
" style="fill: #ffffff"/>
   </g>
   <g id="matplotlib.axis_1"/>
   <g id="matplotlib.axis_2">
    <g id="ytick_1">
     <g id="line2d_1">
      <defs>
       <path id="mb60a8b19ef" d="M 0 0 
L -3.5 0 
" style="stroke: #000000; stroke-width: 0.8"/>
      </defs>
      <g>
       <use xlink:href="#mb60a8b19ef" x="46.42" y="323.934969" style="stroke: #000000; stroke-width: 0.8"/>
      </g>
     </g>
     <g id="text_1">
      <!-- 0.0 -->
      <g transform="translate(10.794375 330.773563) scale(0.18 -0.18)">
       <defs>
        <path id="DejaVuSans-30" d="M 2034 4250 
Q 1547 4250 1301 3770 
Q 1056 3291 1056 2328 
Q 1056 1369 1301 889 
Q 1547 409 2034 409 
Q 2525 409 2770 889 
Q 3016 1369 3016 2328 
Q 3016 3291 2770 3770 
Q 2525 4250 2034 4250 
z
M 2034 4750 
Q 2819 4750 3233 4129 
Q 3647 3509 3647 2328 
Q 3647 1150 3233 529 
Q 2819 -91 2034 -91 
Q 1250 -91 836 529 
Q 422 1150 422 2328 
Q 422 3509 836 4129 
Q 1250 4750 2034 4750 
z
" transform="scale(0.015625)"/>
        <path id="DejaVuSans-2e" d="M 684 794 
L 1344 794 
L 1344 0 
L 684 0 
L 684 794 
z
" transform="scale(0.015625)"/>
       </defs>
       <use xlink:href="#DejaVuSans-30"/>
       <use xlink:href="#DejaVuSans-2e" x="63.623047"/>
       <use xlink:href="#DejaVuSans-30" x="95.410156"/>
      </g>
     </g>
    </g>
    <g id="ytick_2">
     <g id="line2d_2">
      <g>
       <use xlink:href="#mb60a8b19ef" x="46.42" y="171.162143" style="stroke: #000000; stroke-width: 0.8"/>
      </g>
     </g>
     <g id="text_2">
      <!-- 0.5 -->
      <g transform="translate(10.794375 178.000737) scale(0.18 -0.18)">
       <defs>
        <path id="DejaVuSans-35" d="M 691 4666 
L 3169 4666 
L 3169 4134 
L 1269 4134 
L 1269 2991 
Q 1406 3038 1543 3061 
Q 1681 3084 1819 3084 
Q 2600 3084 3056 2656 
Q 3513 2228 3513 1497 
Q 3513 744 3044 326 
Q 2575 -91 1722 -91 
Q 1428 -91 1123 -41 
Q 819 9 494 109 
L 494 744 
Q 775 591 1075 516 
Q 1375 441 1709 441 
Q 2250 441 2565 725 
Q 2881 1009 2881 1497 
Q 2881 1984 2565 2268 
Q 2250 2553 1709 2553 
Q 1456 2553 1204 2497 
Q 953 2441 691 2322 
L 691 4666 
z
" transform="scale(0.015625)"/>
       </defs>
       <use xlink:href="#DejaVuSans-30"/>
       <use xlink:href="#DejaVuSans-2e" x="63.623047"/>
       <use xlink:href="#DejaVuSans-35" x="95.410156"/>
      </g>
     </g>
    </g>
    <g id="ytick_3">
     <g id="line2d_3">
      <g>
       <use xlink:href="#mb60a8b19ef" x="46.42" y="18.389318" style="stroke: #000000; stroke-width: 0.8"/>
      </g>
     </g>
     <g id="text_3">
      <!-- 1.0 -->
      <g transform="translate(10.794375 25.227911) scale(0.18 -0.18)">
       <defs>
        <path id="DejaVuSans-31" d="M 794 531 
L 1825 531 
L 1825 4091 
L 703 3866 
L 703 4441 
L 1819 4666 
L 2450 4666 
L 2450 531 
L 3481 531 
L 3481 0 
L 794 0 
L 794 531 
z
" transform="scale(0.015625)"/>
       </defs>
       <use xlink:href="#DejaVuSans-31"/>
       <use xlink:href="#DejaVuSans-2e" x="63.623047"/>
       <use xlink:href="#DejaVuSans-30" x="95.410156"/>
      </g>
     </g>
    </g>
   </g>
   <g id="line2d_4">
    <path d="M 64.764545 78.838753 
L 66.94194 78.158701 
L 68.030637 77.81659 
L 70.208031 76.697648 
L 73.474122 74.891406 
L 76.740213 72.588889 
L 77.82891 71.881901 
L 80.006304 70.862306 
L 81.095001 70.388486 
L 82.183698 69.740086 
L 83.272395 69.404841 
L 85.44979 69.138965 
L 87.627184 69.155319 
L 88.715881 69.483534 
L 89.804578 69.94131 
L 90.893275 70.731726 
L 91.981972 71.735368 
L 93.070669 72.941071 
L 96.33676 77.277771 
L 97.425457 78.720849 
L 98.514154 80.431114 
L 101.780245 84.918299 
L 106.135034 91.791212 
L 108.312428 95.540887 
L 113.755913 105.558182 
L 119.199398 115.23832 
L 121.376793 119.893802 
L 125.731581 129.502367 
L 126.820278 131.46565 
L 128.997672 134.715207 
L 132.263763 139.814769 
L 133.35246 141.847021 
L 134.441157 144.331548 
L 135.529854 147.338777 
L 137.707248 154.42375 
L 139.884643 162.634384 
L 146.416825 189.502714 
L 149.682916 202.987599 
L 152.949007 216.06706 
L 157.303796 234.5924 
L 160.569887 250.248044 
L 163.835978 266.531294 
L 166.013372 276.57858 
L 168.190766 285.72758 
L 170.36816 293.576327 
L 172.545554 300.244552 
L 174.722948 306.004299 
L 175.811646 308.618618 
L 176.900343 310.751531 
L 177.98904 311.472728 
L 179.077737 312.059379 
L 180.166434 312.373087 
L 181.255131 312.512415 
L 182.343828 312.236675 
L 183.432525 311.476464 
L 184.521222 309.904295 
L 185.609919 308.038621 
L 186.698616 306.739196 
L 187.787313 304.810096 
L 188.87601 302.208496 
L 191.053404 295.594085 
L 194.319496 283.556516 
L 197.585587 270.745541 
L 206.295163 235.139414 
L 208.472557 225.149718 
L 210.649951 214.132323 
L 215.00474 190.539529 
L 218.270831 172.919386 
L 229.157801 117.210546 
L 232.423893 102.29351 
L 234.601287 93.103747 
L 236.778681 84.630296 
L 240.044772 72.876401 
L 242.222166 65.820221 
L 244.39956 59.265288 
L 246.576954 53.286272 
L 248.754349 47.952997 
L 250.931743 43.4977 
L 253.109137 39.666036 
L 255.286531 36.363136 
L 257.463925 33.495448 
L 259.641319 31.087611 
L 261.818713 29.228828 
L 262.90741 28.590153 
L 263.996107 28.094406 
L 265.084804 27.801121 
L 266.173501 27.660251 
L 268.350896 27.809353 
L 270.52829 28.452962 
L 272.705684 29.407614 
L 275.971775 31.22247 
L 278.149169 32.650195 
L 280.326563 34.283752 
L 282.503957 36.101303 
L 291.213534 43.763139 
L 293.390928 45.981937 
L 295.568322 48.580234 
L 297.745716 51.395618 
L 299.92311 54.666701 
L 303.189202 60.117808 
L 306.455293 66.360096 
L 308.632687 70.860594 
L 310.810081 75.84094 
L 312.987475 81.558014 
L 315.164869 87.879269 
L 321.697052 108.145917 
L 323.874446 114.163725 
L 326.05184 119.035364 
L 329.317931 125.011448 
L 331.495325 128.172713 
L 334.761416 131.795979 
L 335.850113 132.817523 
L 338.027507 134.158122 
L 340.204902 135.026613 
L 342.382296 135.555506 
L 344.55969 135.883867 
L 347.825781 137.658329 
L 348.914478 138.159249 
L 352.180569 139.027813 
L 353.269266 139.237159 
L 360.890146 136.086566 
L 361.978843 135.781334 
L 365.244934 136.165497 
L 367.422328 136.113028 
L 370.688419 135.743744 
L 372.865813 134.698306 
L 373.95451 134.296988 
L 375.043207 134.184912 
L 376.131905 134.282546 
L 377.220602 134.655599 
L 378.309299 135.21405 
L 379.397996 136.085819 
L 381.57539 138.915991 
L 384.841481 143.451019 
L 387.018875 146.815274 
L 388.107572 148.702214 
L 389.196269 150.258588 
L 391.373663 154.143395 
L 393.551057 159.176683 
L 397.905846 170.395366 
L 401.171937 178.359429 
L 403.349331 184.253642 
L 405.526725 190.941621 
L 407.704119 199.38179 
L 409.881513 208.562101 
L 413.147605 223.237292 
L 414.236302 228.326218 
L 417.502393 242.062692 
L 428.389363 289.028319 
L 429.47806 293.092245 
L 430.566757 296.656859 
L 431.655455 299.67847 
L 431.655455 299.67847 
" clip-path="url(#pf076c17895)" style="fill: none; stroke: #000000; stroke-width: 4; stroke-linecap: square"/>
   </g>
   <g id="patch_3">
    <path d="M 46.42 326.755023 
L 46.42 13.417643 
" style="fill: none; stroke: #000000; stroke-width: 0.8; stroke-linejoin: miter; stroke-linecap: square"/>
   </g>
   <g id="patch_4">
    <path d="M 46.42 326.755023 
L 450 326.755023 
" style="fill: none; stroke: #000000; stroke-width: 0.8; stroke-linejoin: miter; stroke-linecap: square"/>
   </g>
  </g>
 </g>
 <defs>
  <clipPath id="pf076c17895">
   <rect x="46.42" y="13.417643" width="403.58" height="313.33738"/>
  </clipPath>
 </defs>
</svg>
