<?xml version="1.0" encoding="utf-8" standalone="no"?>
<!DOCTYPE svg PUBLIC "-//W3C//DTD SVG 1.1//EN"
  "http://www.w3.org/Graphics/SVG/1.1/DTD/svg11.dtd">
<svg xmlns:xlink="http://www.w3.org/1999/xlink" width="460.8pt" height="345.6pt" viewBox="0 0 460.8 345.6" xmlns="http://www.w3.org/2000/svg" version="1.1">
 <metadata>
  <rdf:RDF xmlns:dc="http://purl.org/dc/elements/1.1/" xmlns:cc="http://creativecommons.org/ns#" xmlns:rdf="http://www.w3.org/1999/02/22-rdf-syntax-ns#">
   <cc:Work>
    <dc:type rdf:resource="http://purl.org/dc/dcmitype/StillImage"/>
    <dc:date>2023-04-28T00:50:29.445637</dc:date>
    <dc:format>image/svg+xml</dc:format>
    <dc:creator>
     <cc:Agent>
      <dc:title>Matplotlib v3.7.1, https://matplotlib.org/</dc:title>
     </cc:Agent>
    </dc:creator>
   </cc:Work>
  </rdf:RDF>
 </metadata>
 <defs>
  <style type="text/css">*{stroke-linejoin: round; stroke-linecap: butt}</style>
 </defs>
 <g id="figure_1">
  <g id="patch_1">
   <path d="M 0 345.6 
L 460.8 345.6 
L 460.8 0 
L 0 0 
z
" style="fill: #ffffff"/>
  </g>
  <g id="axes_1">
   <g id="patch_2">
    <path d="M 46.42 334.675524 
L 450 334.675524 
L 450 10.8 
L 46.42 10.8 
z
" style="fill: #ffffff"/>
   </g>
   <g id="matplotlib.axis_1"/>
   <g id="matplotlib.axis_2">
    <g id="ytick_1">
     <g id="line2d_1">
      <defs>
       <path id="m801292ca5a" d="M 0 0 
L -3.5 0 
" style="stroke: #000000; stroke-width: 0.8"/>
      </defs>
      <g>
       <use xlink:href="#m801292ca5a" x="46.42" y="322.120864" style="stroke: #000000; stroke-width: 0.8"/>
      </g>
     </g>
     <g id="text_1">
      <!-- 0.0 -->
      <g transform="translate(10.794375 328.959458) scale(0.18 -0.18)">
       <defs>
        <path id="DejaVuSans-30" d="M 2034 4250 
Q 1547 4250 1301 3770 
Q 1056 3291 1056 2328 
Q 1056 1369 1301 889 
Q 1547 409 2034 409 
Q 2525 409 2770 889 
Q 3016 1369 3016 2328 
Q 3016 3291 2770 3770 
Q 2525 4250 2034 4250 
z
M 2034 4750 
Q 2819 4750 3233 4129 
Q 3647 3509 3647 2328 
Q 3647 1150 3233 529 
Q 2819 -91 2034 -91 
Q 1250 -91 836 529 
Q 422 1150 422 2328 
Q 422 3509 836 4129 
Q 1250 4750 2034 4750 
z
" transform="scale(0.015625)"/>
        <path id="DejaVuSans-2e" d="M 684 794 
L 1344 794 
L 1344 0 
L 684 0 
L 684 794 
z
" transform="scale(0.015625)"/>
       </defs>
       <use xlink:href="#DejaVuSans-30"/>
       <use xlink:href="#DejaVuSans-2e" x="63.623047"/>
       <use xlink:href="#DejaVuSans-30" x="95.410156"/>
      </g>
     </g>
    </g>
    <g id="ytick_2">
     <g id="line2d_2">
      <g>
       <use xlink:href="#m801292ca5a" x="46.42" y="172.353075" style="stroke: #000000; stroke-width: 0.8"/>
      </g>
     </g>
     <g id="text_2">
      <!-- 0.5 -->
      <g transform="translate(10.794375 179.191669) scale(0.18 -0.18)">
       <defs>
        <path id="DejaVuSans-35" d="M 691 4666 
L 3169 4666 
L 3169 4134 
L 1269 4134 
L 1269 2991 
Q 1406 3038 1543 3061 
Q 1681 3084 1819 3084 
Q 2600 3084 3056 2656 
Q 3513 2228 3513 1497 
Q 3513 744 3044 326 
Q 2575 -91 1722 -91 
Q 1428 -91 1123 -41 
Q 819 9 494 109 
L 494 744 
Q 775 591 1075 516 
Q 1375 441 1709 441 
Q 2250 441 2565 725 
Q 2881 1009 2881 1497 
Q 2881 1984 2565 2268 
Q 2250 2553 1709 2553 
Q 1456 2553 1204 2497 
Q 953 2441 691 2322 
L 691 4666 
z
" transform="scale(0.015625)"/>
       </defs>
       <use xlink:href="#DejaVuSans-30"/>
       <use xlink:href="#DejaVuSans-2e" x="63.623047"/>
       <use xlink:href="#DejaVuSans-35" x="95.410156"/>
      </g>
     </g>
    </g>
    <g id="ytick_3">
     <g id="line2d_3">
      <g>
       <use xlink:href="#m801292ca5a" x="46.42" y="22.585286" style="stroke: #000000; stroke-width: 0.8"/>
      </g>
     </g>
     <g id="text_3">
      <!-- 1.0 -->
      <g transform="translate(10.794375 29.42388) scale(0.18 -0.18)">
       <defs>
        <path id="DejaVuSans-31" d="M 794 531 
L 1825 531 
L 1825 4091 
L 703 3866 
L 703 4441 
L 1819 4666 
L 2450 4666 
L 2450 531 
L 3481 531 
L 3481 0 
L 794 0 
L 794 531 
z
" transform="scale(0.015625)"/>
       </defs>
       <use xlink:href="#DejaVuSans-31"/>
       <use xlink:href="#DejaVuSans-2e" x="63.623047"/>
       <use xlink:href="#DejaVuSans-30" x="95.410156"/>
      </g>
     </g>
    </g>
   </g>
   <g id="line2d_4">
    <path d="M 64.764545 128.213004 
L 78.917607 211.560665 
L 82.183698 228.792987 
L 86.538487 249.76268 
L 93.070669 282.174581 
L 95.248063 291.761788 
L 97.425457 300.144833 
L 99.602851 307.256335 
L 101.780245 312.691366 
L 102.868943 314.758419 
L 103.95764 316.442477 
L 105.046337 317.47583 
L 106.135034 317.921137 
L 107.223731 317.762252 
L 108.312428 317.031209 
L 109.401125 315.713529 
L 110.489822 313.881135 
L 111.578519 311.608257 
L 112.667216 308.975472 
L 113.755913 306.021483 
L 114.84461 302.727428 
L 117.022004 295.109747 
L 120.288095 282.917514 
L 122.46549 273.932116 
L 124.642884 264.113708 
L 126.820278 253.251233 
L 128.997672 241.031537 
L 133.35246 214.608722 
L 139.884643 174.561856 
L 144.239431 149.166352 
L 148.594219 125.348233 
L 152.949007 102.525727 
L 156.215098 86.639476 
L 158.392493 76.769677 
L 160.569887 67.664248 
L 162.747281 59.35563 
L 164.924675 51.917453 
L 167.102069 45.613539 
L 169.279463 40.49463 
L 170.36816 38.290339 
L 171.456857 36.346909 
L 173.634251 33.103086 
L 175.811646 30.358774 
L 177.98904 28.231219 
L 180.166434 26.599533 
L 181.255131 26.017752 
L 182.343828 25.652429 
L 183.432525 25.521615 
L 184.521222 25.626559 
L 185.609919 25.925109 
L 186.698616 26.405195 
L 187.787313 27.037056 
L 189.964707 28.809893 
L 192.142101 31.039644 
L 196.49689 36.21822 
L 198.674284 39.077188 
L 200.851678 42.403835 
L 203.029072 46.295337 
L 209.561254 58.773671 
L 210.649951 60.80187 
L 217.182134 71.648643 
L 219.359528 75.688706 
L 221.536922 80.334599 
L 229.157801 97.756036 
L 231.335196 101.888635 
L 233.51259 105.336776 
L 234.601287 106.72317 
L 235.689984 107.851525 
L 236.778681 108.660744 
L 237.867378 109.217137 
L 238.956075 109.315904 
L 240.044772 109.198409 
L 241.133469 108.749406 
L 242.222166 108.140844 
L 244.39956 106.233443 
L 246.576954 103.711981 
L 248.754349 100.755103 
L 252.02044 95.825925 
L 254.197834 92.54127 
L 256.375228 89.750521 
L 257.463925 88.604902 
L 258.552622 87.672349 
L 259.641319 86.892785 
L 261.818713 85.816313 
L 262.90741 85.465238 
L 263.996107 85.305965 
L 266.173501 85.330263 
L 268.350896 85.81933 
L 270.52829 86.615409 
L 274.883078 88.724272 
L 277.060472 89.584339 
L 279.237866 90.140196 
L 281.41526 90.40236 
L 282.503957 90.581665 
L 284.681351 91.277781 
L 286.858746 92.560374 
L 287.947443 93.489588 
L 289.03614 94.690393 
L 291.213534 97.662572 
L 293.390928 101.117051 
L 295.568322 105.311905 
L 303.189202 121.615594 
L 305.366596 127.118375 
L 306.455293 130.263003 
L 308.632687 137.520519 
L 310.810081 145.749723 
L 314.076172 159.365071 
L 317.342263 173.844806 
L 320.608354 189.111578 
L 332.584022 246.712945 
L 336.93881 266.643561 
L 340.204902 280.797511 
L 342.382296 289.457527 
L 344.55969 297.284418 
L 346.737084 304.14944 
L 348.914478 309.878872 
L 350.003175 312.329145 
L 351.091872 314.482304 
L 352.180569 316.309006 
L 353.269266 317.808486 
L 354.357963 318.925188 
L 355.44666 319.634345 
L 356.535357 319.953909 
L 357.624054 319.892328 
L 358.712752 319.429931 
L 359.801449 318.654468 
L 360.890146 317.614695 
L 361.978843 316.324238 
L 363.06754 314.827597 
L 364.156237 313.080955 
L 365.244934 311.042539 
L 367.422328 306.088284 
L 369.599722 299.994018 
L 371.777116 292.879901 
L 375.043207 280.809575 
L 377.220602 271.712051 
L 379.397996 261.527982 
L 381.57539 249.697064 
L 383.752784 236.496676 
L 387.018875 215.074445 
L 401.171937 119.380809 
L 404.438028 98.448171 
L 406.615422 85.927131 
L 408.792816 75.135223 
L 410.97021 65.901408 
L 413.147605 57.567028 
L 415.324999 50.20405 
L 417.502393 43.941539 
L 418.59109 41.211332 
L 419.679787 38.786976 
L 420.768484 36.754385 
L 421.857181 35.069923 
L 422.945878 33.756925 
L 424.034575 32.699807 
L 425.123272 31.943702 
L 426.211969 31.417017 
L 427.300666 31.083546 
L 429.47806 30.912561 
L 431.655455 31.216752 
L 431.655455 31.216752 
" clip-path="url(#pfcf160132e)" style="fill: none; stroke: #000000; stroke-width: 4; stroke-linecap: square"/>
   </g>
   <g id="patch_3">
    <path d="M 46.42 334.675524 
L 46.42 10.8 
" style="fill: none; stroke: #000000; stroke-width: 0.8; stroke-linejoin: miter; stroke-linecap: square"/>
   </g>
   <g id="patch_4">
    <path d="M 46.42 334.675524 
L 450 334.675524 
" style="fill: none; stroke: #000000; stroke-width: 0.8; stroke-linejoin: miter; stroke-linecap: square"/>
   </g>
  </g>
 </g>
 <defs>
  <clipPath id="pfcf160132e">
   <rect x="46.42" y="10.8" width="403.58" height="323.875524"/>
  </clipPath>
 </defs>
</svg>
