<?xml version="1.0" encoding="utf-8" standalone="no"?>
<!DOCTYPE svg PUBLIC "-//W3C//DTD SVG 1.1//EN"
  "http://www.w3.org/Graphics/SVG/1.1/DTD/svg11.dtd">
<svg xmlns:xlink="http://www.w3.org/1999/xlink" width="460.8pt" height="345.6pt" viewBox="0 0 460.8 345.6" xmlns="http://www.w3.org/2000/svg" version="1.1">
 <metadata>
  <rdf:RDF xmlns:dc="http://purl.org/dc/elements/1.1/" xmlns:cc="http://creativecommons.org/ns#" xmlns:rdf="http://www.w3.org/1999/02/22-rdf-syntax-ns#">
   <cc:Work>
    <dc:type rdf:resource="http://purl.org/dc/dcmitype/StillImage"/>
    <dc:date>2023-04-28T00:35:53.440715</dc:date>
    <dc:format>image/svg+xml</dc:format>
    <dc:creator>
     <cc:Agent>
      <dc:title>Matplotlib v3.7.1, https://matplotlib.org/</dc:title>
     </cc:Agent>
    </dc:creator>
   </cc:Work>
  </rdf:RDF>
 </metadata>
 <defs>
  <style type="text/css">*{stroke-linejoin: round; stroke-linecap: butt}</style>
 </defs>
 <g id="figure_1">
  <g id="patch_1">
   <path d="M 0 345.6 
L 460.8 345.6 
L 460.8 0 
L 0 0 
z
" style="fill: #ffffff"/>
  </g>
  <g id="axes_1">
   <g id="patch_2">
    <path d="M 46.42 334.8 
L 450 334.8 
L 450 10.8 
L 46.42 10.8 
z
" style="fill: #ffffff"/>
   </g>
   <g id="matplotlib.axis_1"/>
   <g id="matplotlib.axis_2">
    <g id="ytick_1">
     <g id="line2d_1">
      <defs>
       <path id="m9aacbf20fe" d="M 0 0 
L -3.5 0 
" style="stroke: #000000; stroke-width: 0.8"/>
      </defs>
      <g>
       <use xlink:href="#m9aacbf20fe" x="46.42" y="320.072727" style="stroke: #000000; stroke-width: 0.8"/>
      </g>
     </g>
     <g id="text_1">
      <!-- 0.0 -->
      <g transform="translate(10.794375 326.911321) scale(0.18 -0.18)">
       <defs>
        <path id="DejaVuSans-30" d="M 2034 4250 
Q 1547 4250 1301 3770 
Q 1056 3291 1056 2328 
Q 1056 1369 1301 889 
Q 1547 409 2034 409 
Q 2525 409 2770 889 
Q 3016 1369 3016 2328 
Q 3016 3291 2770 3770 
Q 2525 4250 2034 4250 
z
M 2034 4750 
Q 2819 4750 3233 4129 
Q 3647 3509 3647 2328 
Q 3647 1150 3233 529 
Q 2819 -91 2034 -91 
Q 1250 -91 836 529 
Q 422 1150 422 2328 
Q 422 3509 836 4129 
Q 1250 4750 2034 4750 
z
" transform="scale(0.015625)"/>
        <path id="DejaVuSans-2e" d="M 684 794 
L 1344 794 
L 1344 0 
L 684 0 
L 684 794 
z
" transform="scale(0.015625)"/>
       </defs>
       <use xlink:href="#DejaVuSans-30"/>
       <use xlink:href="#DejaVuSans-2e" x="63.623047"/>
       <use xlink:href="#DejaVuSans-30" x="95.410156"/>
      </g>
     </g>
    </g>
    <g id="ytick_2">
     <g id="line2d_2">
      <g>
       <use xlink:href="#m9aacbf20fe" x="46.42" y="172.8" style="stroke: #000000; stroke-width: 0.8"/>
      </g>
     </g>
     <g id="text_2">
      <!-- 0.5 -->
      <g transform="translate(10.794375 179.638594) scale(0.18 -0.18)">
       <defs>
        <path id="DejaVuSans-35" d="M 691 4666 
L 3169 4666 
L 3169 4134 
L 1269 4134 
L 1269 2991 
Q 1406 3038 1543 3061 
Q 1681 3084 1819 3084 
Q 2600 3084 3056 2656 
Q 3513 2228 3513 1497 
Q 3513 744 3044 326 
Q 2575 -91 1722 -91 
Q 1428 -91 1123 -41 
Q 819 9 494 109 
L 494 744 
Q 775 591 1075 516 
Q 1375 441 1709 441 
Q 2250 441 2565 725 
Q 2881 1009 2881 1497 
Q 2881 1984 2565 2268 
Q 2250 2553 1709 2553 
Q 1456 2553 1204 2497 
Q 953 2441 691 2322 
L 691 4666 
z
" transform="scale(0.015625)"/>
       </defs>
       <use xlink:href="#DejaVuSans-30"/>
       <use xlink:href="#DejaVuSans-2e" x="63.623047"/>
       <use xlink:href="#DejaVuSans-35" x="95.410156"/>
      </g>
     </g>
    </g>
    <g id="ytick_3">
     <g id="line2d_3">
      <g>
       <use xlink:href="#m9aacbf20fe" x="46.42" y="25.527273" style="stroke: #000000; stroke-width: 0.8"/>
      </g>
     </g>
     <g id="text_3">
      <!-- 1.0 -->
      <g transform="translate(10.794375 32.365866) scale(0.18 -0.18)">
       <defs>
        <path id="DejaVuSans-31" d="M 794 531 
L 1825 531 
L 1825 4091 
L 703 3866 
L 703 4441 
L 1819 4666 
L 2450 4666 
L 2450 531 
L 3481 531 
L 3481 0 
L 794 0 
L 794 531 
z
" transform="scale(0.015625)"/>
       </defs>
       <use xlink:href="#DejaVuSans-31"/>
       <use xlink:href="#DejaVuSans-2e" x="63.623047"/>
       <use xlink:href="#DejaVuSans-30" x="95.410156"/>
      </g>
     </g>
    </g>
   </g>
   <g id="line2d_4">
    <path d="M 64.764545 188.920665 
L 69.119334 209.41962 
L 71.296728 220.686449 
L 74.562819 238.209317 
L 78.917607 259.612538 
L 83.272395 279.369697 
L 85.44979 288.18234 
L 87.627184 294.392447 
L 89.804578 298.736375 
L 90.893275 300.221983 
L 91.981972 302.333082 
L 95.248063 307.802612 
L 98.514154 314.116191 
L 99.602851 315.952827 
L 101.780245 318.64326 
L 103.95764 320.072727 
L 105.046337 319.376709 
L 106.135034 318.44259 
L 108.312428 314.292961 
L 110.489822 307.636105 
L 115.933307 288.165925 
L 120.288095 273.140559 
L 124.642884 255.664145 
L 127.908975 240.861192 
L 131.175066 223.562527 
L 132.263763 217.608087 
L 134.441157 204.10185 
L 143.150734 138.057093 
L 144.239431 130.740831 
L 146.416825 118.494432 
L 148.594219 109.214605 
L 150.771613 103.050069 
L 151.86031 101.033591 
L 152.949007 97.812909 
L 154.037704 95.231083 
L 159.48119 79.45417 
L 162.747281 68.55827 
L 164.924675 60.849238 
L 170.36816 41.666758 
L 171.456857 38.218495 
L 173.634251 32.431138 
L 174.722948 30.164254 
L 175.811646 28.192456 
L 176.900343 27.133286 
L 177.98904 26.275346 
L 179.077737 25.77443 
L 180.166434 25.527273 
L 181.255131 25.716793 
L 182.343828 26.448521 
L 183.432525 27.609465 
L 184.521222 29.247027 
L 185.609919 31.252972 
L 186.698616 33.900967 
L 187.787313 37.075019 
L 189.964707 45.194411 
L 193.230798 59.584958 
L 196.49689 74.662394 
L 197.585587 79.072443 
L 198.674284 82.997834 
L 200.851678 89.828297 
L 203.029072 95.45482 
L 204.117769 98.020424 
L 206.295163 104.176831 
L 208.472557 110.752746 
L 210.649951 116.676234 
L 212.827346 121.798611 
L 213.916043 124.01718 
L 215.00474 125.96835 
L 217.182134 129.230271 
L 218.270831 131.2882 
L 220.448225 136.308927 
L 221.536922 139.542986 
L 222.625619 143.276153 
L 223.714316 147.807656 
L 225.89171 158.564405 
L 228.069104 171.593726 
L 232.423893 200.959171 
L 236.778681 233.980624 
L 238.956075 250.524404 
L 241.133469 266.065058 
L 243.310863 280.257737 
L 245.488257 292.928451 
L 247.665651 304.210288 
L 249.843046 313.429143 
L 250.931743 316.695449 
L 252.02044 319.062381 
L 253.109137 320.072727 
L 254.197834 319.744425 
L 255.286531 317.207114 
L 256.375228 312.363938 
L 257.463925 305.770897 
L 258.552622 297.612442 
L 260.730016 278.312282 
L 266.173501 225.84242 
L 268.350896 207.712246 
L 270.52829 191.448638 
L 272.705684 177.867277 
L 274.883078 166.015201 
L 277.060472 155.87603 
L 278.149169 152.264387 
L 279.237866 148.172142 
L 280.326563 145.196933 
L 281.41526 141.28492 
L 282.503957 138.288063 
L 285.770049 126.093069 
L 287.947443 115.982304 
L 290.124837 104.553115 
L 293.390928 86.390532 
L 295.568322 76.754523 
L 297.745716 69.458784 
L 298.834413 66.771322 
L 299.92311 63.664019 
L 301.011807 60.926978 
L 303.189202 54.814654 
L 305.366596 46.546104 
L 307.54399 37.082446 
L 308.632687 32.617428 
L 309.721384 29.300626 
L 310.810081 26.457826 
L 311.898778 25.527273 
L 312.987475 26.286371 
L 314.076172 28.763439 
L 315.164869 32.560651 
L 316.253566 37.932433 
L 318.43096 51.416654 
L 320.608354 65.953814 
L 321.697052 73.056171 
L 324.963143 91.038065 
L 328.229234 107.753115 
L 333.672719 140.45442 
L 335.850113 154.72339 
L 336.93881 161.295986 
L 339.116204 173.312441 
L 342.382296 188.52981 
L 344.55969 199.530801 
L 346.737084 211.603788 
L 348.914478 224.700121 
L 353.269266 252.995051 
L 358.712752 287.347855 
L 360.890146 299.739539 
L 361.978843 305.266382 
L 363.06754 310.026872 
L 364.156237 313.890496 
L 365.244934 316.901731 
L 366.333631 319.034204 
L 367.422328 320.072727 
L 368.511025 319.721426 
L 369.599722 317.643021 
L 370.688419 314.272924 
L 371.777116 309.549485 
L 372.865813 303.884159 
L 375.043207 289.358903 
L 377.220602 273.171058 
L 378.309299 265.022299 
L 379.397996 258.685549 
L 380.486693 251.4248 
L 384.841481 226.127227 
L 385.930178 218.446909 
L 388.107572 198.619464 
L 390.284966 173.453418 
L 395.728452 104.172635 
L 396.817149 91.767651 
L 397.905846 81.514118 
L 400.08324 63.434348 
L 402.260634 48.613426 
L 403.349331 42.448785 
L 404.438028 37.3996 
L 405.526725 33.910202 
L 406.615422 28.673252 
L 407.704119 25.527273 
L 408.792816 28.028006 
L 409.881513 35.792779 
L 412.058907 75.032481 
L 414.236302 142.704696 
L 415.324999 186.842151 
L 417.502393 256.373484 
L 418.59109 279.821341 
L 419.679787 300.537193 
L 420.768484 313.980605 
L 421.857181 320.072727 
L 424.034575 310.661231 
L 425.123272 297.366834 
L 426.211969 280.79722 
L 427.300666 266.398246 
L 428.389363 254.434946 
L 429.47806 240.380519 
L 430.566757 219.06101 
L 431.655455 200.243727 
L 431.655455 200.243727 
" clip-path="url(#p33cb347dad)" style="fill: none; stroke: #000000; stroke-width: 4; stroke-linecap: square"/>
   </g>
   <g id="patch_3">
    <path d="M 46.42 334.8 
L 46.42 10.8 
" style="fill: none; stroke: #000000; stroke-width: 0.8; stroke-linejoin: miter; stroke-linecap: square"/>
   </g>
   <g id="patch_4">
    <path d="M 46.42 334.8 
L 450 334.8 
" style="fill: none; stroke: #000000; stroke-width: 0.8; stroke-linejoin: miter; stroke-linecap: square"/>
   </g>
  </g>
 </g>
 <defs>
  <clipPath id="p33cb347dad">
   <rect x="46.42" y="10.8" width="403.58" height="324"/>
  </clipPath>
 </defs>
</svg>
