<?xml version="1.0" encoding="utf-8" standalone="no"?>
<!DOCTYPE svg PUBLIC "-//W3C//DTD SVG 1.1//EN"
  "http://www.w3.org/Graphics/SVG/1.1/DTD/svg11.dtd">
<svg xmlns:xlink="http://www.w3.org/1999/xlink" width="460.8pt" height="345.6pt" viewBox="0 0 460.8 345.6" xmlns="http://www.w3.org/2000/svg" version="1.1">
 <metadata>
  <rdf:RDF xmlns:dc="http://purl.org/dc/elements/1.1/" xmlns:cc="http://creativecommons.org/ns#" xmlns:rdf="http://www.w3.org/1999/02/22-rdf-syntax-ns#">
   <cc:Work>
    <dc:type rdf:resource="http://purl.org/dc/dcmitype/StillImage"/>
    <dc:date>2023-04-28T00:25:22.182849</dc:date>
    <dc:format>image/svg+xml</dc:format>
    <dc:creator>
     <cc:Agent>
      <dc:title>Matplotlib v3.7.1, https://matplotlib.org/</dc:title>
     </cc:Agent>
    </dc:creator>
   </cc:Work>
  </rdf:RDF>
 </metadata>
 <defs>
  <style type="text/css">*{stroke-linejoin: round; stroke-linecap: butt}</style>
 </defs>
 <g id="figure_1">
  <g id="patch_1">
   <path d="M 0 345.6 
L 460.8 345.6 
L 460.8 0 
L 0 0 
z
" style="fill: #ffffff"/>
  </g>
  <g id="axes_1">
   <g id="patch_2">
    <path d="M 46.42 334.8 
L 450 334.8 
L 450 10.8 
L 46.42 10.8 
z
" style="fill: #ffffff"/>
   </g>
   <g id="matplotlib.axis_1"/>
   <g id="matplotlib.axis_2">
    <g id="ytick_1">
     <g id="line2d_1">
      <defs>
       <path id="mf96885b37f" d="M 0 0 
L -3.5 0 
" style="stroke: #000000; stroke-width: 0.8"/>
      </defs>
      <g>
       <use xlink:href="#mf96885b37f" x="46.42" y="320.072727" style="stroke: #000000; stroke-width: 0.8"/>
      </g>
     </g>
     <g id="text_1">
      <!-- 0.0 -->
      <g transform="translate(10.794375 326.911321) scale(0.18 -0.18)">
       <defs>
        <path id="DejaVuSans-30" d="M 2034 4250 
Q 1547 4250 1301 3770 
Q 1056 3291 1056 2328 
Q 1056 1369 1301 889 
Q 1547 409 2034 409 
Q 2525 409 2770 889 
Q 3016 1369 3016 2328 
Q 3016 3291 2770 3770 
Q 2525 4250 2034 4250 
z
M 2034 4750 
Q 2819 4750 3233 4129 
Q 3647 3509 3647 2328 
Q 3647 1150 3233 529 
Q 2819 -91 2034 -91 
Q 1250 -91 836 529 
Q 422 1150 422 2328 
Q 422 3509 836 4129 
Q 1250 4750 2034 4750 
z
" transform="scale(0.015625)"/>
        <path id="DejaVuSans-2e" d="M 684 794 
L 1344 794 
L 1344 0 
L 684 0 
L 684 794 
z
" transform="scale(0.015625)"/>
       </defs>
       <use xlink:href="#DejaVuSans-30"/>
       <use xlink:href="#DejaVuSans-2e" x="63.623047"/>
       <use xlink:href="#DejaVuSans-30" x="95.410156"/>
      </g>
     </g>
    </g>
    <g id="ytick_2">
     <g id="line2d_2">
      <g>
       <use xlink:href="#mf96885b37f" x="46.42" y="172.8" style="stroke: #000000; stroke-width: 0.8"/>
      </g>
     </g>
     <g id="text_2">
      <!-- 0.5 -->
      <g transform="translate(10.794375 179.638594) scale(0.18 -0.18)">
       <defs>
        <path id="DejaVuSans-35" d="M 691 4666 
L 3169 4666 
L 3169 4134 
L 1269 4134 
L 1269 2991 
Q 1406 3038 1543 3061 
Q 1681 3084 1819 3084 
Q 2600 3084 3056 2656 
Q 3513 2228 3513 1497 
Q 3513 744 3044 326 
Q 2575 -91 1722 -91 
Q 1428 -91 1123 -41 
Q 819 9 494 109 
L 494 744 
Q 775 591 1075 516 
Q 1375 441 1709 441 
Q 2250 441 2565 725 
Q 2881 1009 2881 1497 
Q 2881 1984 2565 2268 
Q 2250 2553 1709 2553 
Q 1456 2553 1204 2497 
Q 953 2441 691 2322 
L 691 4666 
z
" transform="scale(0.015625)"/>
       </defs>
       <use xlink:href="#DejaVuSans-30"/>
       <use xlink:href="#DejaVuSans-2e" x="63.623047"/>
       <use xlink:href="#DejaVuSans-35" x="95.410156"/>
      </g>
     </g>
    </g>
    <g id="ytick_3">
     <g id="line2d_3">
      <g>
       <use xlink:href="#mf96885b37f" x="46.42" y="25.527273" style="stroke: #000000; stroke-width: 0.8"/>
      </g>
     </g>
     <g id="text_3">
      <!-- 1.0 -->
      <g transform="translate(10.794375 32.365866) scale(0.18 -0.18)">
       <defs>
        <path id="DejaVuSans-31" d="M 794 531 
L 1825 531 
L 1825 4091 
L 703 3866 
L 703 4441 
L 1819 4666 
L 2450 4666 
L 2450 531 
L 3481 531 
L 3481 0 
L 794 0 
L 794 531 
z
" transform="scale(0.015625)"/>
       </defs>
       <use xlink:href="#DejaVuSans-31"/>
       <use xlink:href="#DejaVuSans-2e" x="63.623047"/>
       <use xlink:href="#DejaVuSans-30" x="95.410156"/>
      </g>
     </g>
    </g>
   </g>
   <g id="line2d_4">
    <path d="M 64.764545 178.558564 
L 68.030637 193.788468 
L 74.562819 222.178232 
L 85.44979 267.975291 
L 87.627184 278.105583 
L 88.715881 284.228175 
L 91.981972 305.825658 
L 93.070669 311.549442 
L 94.159366 315.851448 
L 95.248063 318.553917 
L 96.33676 320.072727 
L 97.425457 319.666861 
L 98.514154 316.850372 
L 100.691548 308.268344 
L 102.868943 298.895393 
L 115.933307 250.734952 
L 123.554187 224.959585 
L 137.707248 174.737941 
L 146.416825 144.783377 
L 161.658584 94.46433 
L 171.456857 63.858577 
L 176.900343 43.926866 
L 179.077737 36.379106 
L 181.255131 30.275333 
L 182.343828 28.090507 
L 183.432525 26.439901 
L 184.521222 25.628256 
L 185.609919 25.527273 
L 186.698616 26.452278 
L 187.787313 28.231449 
L 188.87601 30.890048 
L 189.964707 34.339681 
L 191.053404 38.377678 
L 193.230798 47.667213 
L 197.585587 67.741253 
L 200.851678 81.973074 
L 205.206466 99.698752 
L 209.561254 116.758274 
L 218.270831 150.645892 
L 221.536922 164.552131 
L 225.89171 183.183177 
L 228.069104 191.896884 
L 231.335196 203.95558 
L 236.778681 223.694612 
L 240.044772 236.672861 
L 252.02044 287.063204 
L 254.197834 297.743682 
L 256.375228 308.641498 
L 257.463925 313.268948 
L 258.552622 316.825598 
L 259.641319 319.148201 
L 260.730016 320.072727 
L 261.818713 319.51916 
L 262.90741 317.459197 
L 263.996107 313.939759 
L 265.084804 309.411466 
L 267.262199 298.117264 
L 272.705684 267.144743 
L 274.883078 256.561336 
L 278.149169 242.32349 
L 280.326563 232.712473 
L 284.681351 211.982319 
L 287.947443 196.620497 
L 298.834413 148.675955 
L 311.898778 87.787151 
L 320.608354 46.445595 
L 322.785749 36.557039 
L 323.874446 32.007295 
L 324.963143 28.416281 
L 326.05184 26.183597 
L 327.140537 25.527273 
L 328.229234 26.115215 
L 329.317931 28.148021 
L 330.406628 31.398057 
L 331.495325 35.840146 
L 333.672719 46.921791 
L 338.027507 69.60731 
L 344.55969 102.522556 
L 355.44666 152.747712 
L 361.978843 185.372419 
L 365.244934 199.117053 
L 369.599722 216.047141 
L 371.777116 225.709739 
L 373.95451 236.656859 
L 377.220602 255.183436 
L 380.486693 274.56946 
L 381.57539 281.529632 
L 384.841481 306.940491 
L 385.930178 312.209421 
L 387.018875 316.466339 
L 388.107572 318.947705 
L 389.196269 320.072727 
L 390.284966 319.177304 
L 391.373663 315.229494 
L 393.551057 303.081424 
L 396.817149 286.773993 
L 401.171937 263.217637 
L 403.349331 252.337156 
L 405.526725 242.321172 
L 407.704119 233.926191 
L 409.881513 225.720808 
L 416.413696 200.587523 
L 420.768484 182.801802 
L 424.034575 169.321364 
L 429.47806 144.437255 
L 431.655455 133.832614 
L 431.655455 133.832614 
" clip-path="url(#p9a5de6314c)" style="fill: none; stroke: #000000; stroke-width: 4; stroke-linecap: square"/>
   </g>
   <g id="patch_3">
    <path d="M 46.42 334.8 
L 46.42 10.8 
" style="fill: none; stroke: #000000; stroke-width: 0.8; stroke-linejoin: miter; stroke-linecap: square"/>
   </g>
   <g id="patch_4">
    <path d="M 46.42 334.8 
L 450 334.8 
" style="fill: none; stroke: #000000; stroke-width: 0.8; stroke-linejoin: miter; stroke-linecap: square"/>
   </g>
  </g>
 </g>
 <defs>
  <clipPath id="p9a5de6314c">
   <rect x="46.42" y="10.8" width="403.58" height="324"/>
  </clipPath>
 </defs>
</svg>
