<?xml version="1.0" encoding="utf-8" standalone="no"?>
<!DOCTYPE svg PUBLIC "-//W3C//DTD SVG 1.1//EN"
  "http://www.w3.org/Graphics/SVG/1.1/DTD/svg11.dtd">
<svg xmlns:xlink="http://www.w3.org/1999/xlink" width="460.8pt" height="345.6pt" viewBox="0 0 460.8 345.6" xmlns="http://www.w3.org/2000/svg" version="1.1">
 <metadata>
  <rdf:RDF xmlns:dc="http://purl.org/dc/elements/1.1/" xmlns:cc="http://creativecommons.org/ns#" xmlns:rdf="http://www.w3.org/1999/02/22-rdf-syntax-ns#">
   <cc:Work>
    <dc:type rdf:resource="http://purl.org/dc/dcmitype/StillImage"/>
    <dc:date>2023-04-28T00:35:53.209662</dc:date>
    <dc:format>image/svg+xml</dc:format>
    <dc:creator>
     <cc:Agent>
      <dc:title>Matplotlib v3.7.1, https://matplotlib.org/</dc:title>
     </cc:Agent>
    </dc:creator>
   </cc:Work>
  </rdf:RDF>
 </metadata>
 <defs>
  <style type="text/css">*{stroke-linejoin: round; stroke-linecap: butt}</style>
 </defs>
 <g id="figure_1">
  <g id="patch_1">
   <path d="M 0 345.6 
L 460.8 345.6 
L 460.8 0 
L 0 0 
z
" style="fill: #ffffff"/>
  </g>
  <g id="axes_1">
   <g id="patch_2">
    <path d="M 46.42 334.8 
L 450 334.8 
L 450 10.8 
L 46.42 10.8 
z
" style="fill: #ffffff"/>
   </g>
   <g id="matplotlib.axis_1"/>
   <g id="matplotlib.axis_2">
    <g id="ytick_1">
     <g id="line2d_1">
      <defs>
       <path id="m5f0a229b62" d="M 0 0 
L -3.5 0 
" style="stroke: #000000; stroke-width: 0.8"/>
      </defs>
      <g>
       <use xlink:href="#m5f0a229b62" x="46.42" y="320.072727" style="stroke: #000000; stroke-width: 0.8"/>
      </g>
     </g>
     <g id="text_1">
      <!-- 0.0 -->
      <g transform="translate(10.794375 326.911321) scale(0.18 -0.18)">
       <defs>
        <path id="DejaVuSans-30" d="M 2034 4250 
Q 1547 4250 1301 3770 
Q 1056 3291 1056 2328 
Q 1056 1369 1301 889 
Q 1547 409 2034 409 
Q 2525 409 2770 889 
Q 3016 1369 3016 2328 
Q 3016 3291 2770 3770 
Q 2525 4250 2034 4250 
z
M 2034 4750 
Q 2819 4750 3233 4129 
Q 3647 3509 3647 2328 
Q 3647 1150 3233 529 
Q 2819 -91 2034 -91 
Q 1250 -91 836 529 
Q 422 1150 422 2328 
Q 422 3509 836 4129 
Q 1250 4750 2034 4750 
z
" transform="scale(0.015625)"/>
        <path id="DejaVuSans-2e" d="M 684 794 
L 1344 794 
L 1344 0 
L 684 0 
L 684 794 
z
" transform="scale(0.015625)"/>
       </defs>
       <use xlink:href="#DejaVuSans-30"/>
       <use xlink:href="#DejaVuSans-2e" x="63.623047"/>
       <use xlink:href="#DejaVuSans-30" x="95.410156"/>
      </g>
     </g>
    </g>
    <g id="ytick_2">
     <g id="line2d_2">
      <g>
       <use xlink:href="#m5f0a229b62" x="46.42" y="172.8" style="stroke: #000000; stroke-width: 0.8"/>
      </g>
     </g>
     <g id="text_2">
      <!-- 0.5 -->
      <g transform="translate(10.794375 179.638594) scale(0.18 -0.18)">
       <defs>
        <path id="DejaVuSans-35" d="M 691 4666 
L 3169 4666 
L 3169 4134 
L 1269 4134 
L 1269 2991 
Q 1406 3038 1543 3061 
Q 1681 3084 1819 3084 
Q 2600 3084 3056 2656 
Q 3513 2228 3513 1497 
Q 3513 744 3044 326 
Q 2575 -91 1722 -91 
Q 1428 -91 1123 -41 
Q 819 9 494 109 
L 494 744 
Q 775 591 1075 516 
Q 1375 441 1709 441 
Q 2250 441 2565 725 
Q 2881 1009 2881 1497 
Q 2881 1984 2565 2268 
Q 2250 2553 1709 2553 
Q 1456 2553 1204 2497 
Q 953 2441 691 2322 
L 691 4666 
z
" transform="scale(0.015625)"/>
       </defs>
       <use xlink:href="#DejaVuSans-30"/>
       <use xlink:href="#DejaVuSans-2e" x="63.623047"/>
       <use xlink:href="#DejaVuSans-35" x="95.410156"/>
      </g>
     </g>
    </g>
    <g id="ytick_3">
     <g id="line2d_3">
      <g>
       <use xlink:href="#m5f0a229b62" x="46.42" y="25.527273" style="stroke: #000000; stroke-width: 0.8"/>
      </g>
     </g>
     <g id="text_3">
      <!-- 1.0 -->
      <g transform="translate(10.794375 32.365866) scale(0.18 -0.18)">
       <defs>
        <path id="DejaVuSans-31" d="M 794 531 
L 1825 531 
L 1825 4091 
L 703 3866 
L 703 4441 
L 1819 4666 
L 2450 4666 
L 2450 531 
L 3481 531 
L 3481 0 
L 794 0 
L 794 531 
z
" transform="scale(0.015625)"/>
       </defs>
       <use xlink:href="#DejaVuSans-31"/>
       <use xlink:href="#DejaVuSans-2e" x="63.623047"/>
       <use xlink:href="#DejaVuSans-30" x="95.410156"/>
      </g>
     </g>
    </g>
   </g>
   <g id="line2d_4">
    <path d="M 64.764545 138.403531 
L 65.853243 140.456562 
L 66.94194 143.291444 
L 69.119334 150.374331 
L 71.296728 160.202054 
L 72.385425 166.244697 
L 73.474122 171.553013 
L 77.82891 201.773537 
L 81.095001 228.396578 
L 86.538487 275.081844 
L 88.715881 291.989417 
L 89.804578 299.678779 
L 90.893275 306.568801 
L 91.981972 312.154625 
L 93.070669 316.19191 
L 94.159366 318.639606 
L 95.248063 320.072727 
L 96.33676 319.872059 
L 97.425457 317.131194 
L 98.514154 312.514902 
L 99.602851 306.456956 
L 101.780245 290.991731 
L 103.95764 272.870929 
L 108.312428 234.340923 
L 110.489822 216.549918 
L 111.578519 208.165233 
L 114.84461 186.820715 
L 118.110701 166.031827 
L 119.199398 158.484436 
L 121.376793 140.645871 
L 123.554187 119.03671 
L 125.731581 95.18714 
L 126.820278 83.73202 
L 128.997672 64.13386 
L 131.175066 48.482491 
L 132.263763 42.205824 
L 133.35246 36.775983 
L 134.441157 33.292449 
L 135.529854 28.887246 
L 136.618551 26.359352 
L 137.707248 25.527273 
L 138.795946 26.444009 
L 139.884643 28.650464 
L 140.97334 32.355418 
L 142.062037 37.273089 
L 143.150734 43.129424 
L 146.416825 67.577032 
L 148.594219 84.890699 
L 150.771613 103.809045 
L 151.86031 113.60299 
L 159.48119 173.61979 
L 162.747281 196.814038 
L 166.013372 220.608473 
L 168.190766 238.242753 
L 173.634251 283.699994 
L 175.811646 299.401126 
L 176.900343 306.095988 
L 177.98904 311.568484 
L 179.077737 315.626977 
L 180.166434 318.418693 
L 181.255131 319.950051 
L 182.343828 320.072727 
L 183.432525 318.634043 
L 184.521222 315.493779 
L 185.609919 310.954222 
L 187.787313 298.138834 
L 189.964707 282.687627 
L 193.230798 256.87993 
L 201.940375 183.586427 
L 207.38386 140.646152 
L 209.561254 121.764166 
L 217.182134 48.01337 
L 218.270831 40.061746 
L 219.359528 33.258706 
L 220.448225 28.875536 
L 221.536922 25.865108 
L 222.625619 25.527273 
L 223.714316 26.287442 
L 224.803013 29.848715 
L 225.89171 35.70728 
L 226.980407 43.870299 
L 228.069104 53.302638 
L 229.157801 64.427629 
L 231.335196 89.554348 
L 234.601287 128.001173 
L 236.778681 151.369439 
L 238.956075 172.62284 
L 245.488257 232.670153 
L 249.843046 269.053501 
L 254.197834 301.349557 
L 255.286531 308.325509 
L 256.375228 313.995287 
L 257.463925 317.968482 
L 258.552622 320.055685 
L 259.641319 320.072727 
L 260.730016 317.489444 
L 261.818713 313.555533 
L 262.90741 308.185392 
L 263.996107 301.506795 
L 267.262199 278.339521 
L 270.52829 253.121561 
L 271.616987 243.39135 
L 273.794381 221.192877 
L 279.237866 161.390246 
L 286.858746 72.897971 
L 289.03614 52.003069 
L 290.124837 42.970523 
L 291.213534 35.737442 
L 292.302231 30.221242 
L 293.390928 27.345857 
L 294.479625 25.527273 
L 295.568322 27.470928 
L 296.657019 28.890634 
L 297.745716 33.930673 
L 298.834413 40.404076 
L 299.92311 49.056599 
L 301.011807 56.438294 
L 302.100504 64.807266 
L 305.366596 95.418233 
L 307.54399 118.383318 
L 309.721384 145.026953 
L 311.898778 174.185726 
L 318.43096 263.349642 
L 320.608354 286.666338 
L 322.785749 308.298563 
L 323.874446 315.500708 
L 324.963143 320.072727 
L 326.05184 319.499515 
L 327.140537 315.677117 
L 328.229234 310.359686 
L 329.317931 304.003804 
L 330.406628 296.095643 
L 333.672719 264.714937 
L 334.761416 256.295368 
L 338.027507 233.709704 
L 340.204902 215.069362 
L 341.293599 205.063899 
L 343.470993 182.521587 
L 344.55969 169.93687 
L 346.737084 141.220085 
L 351.091872 82.691933 
L 352.180569 68.635518 
L 353.269266 56.05734 
L 355.44666 37.01431 
L 356.535357 30.344188 
L 357.624054 26.047413 
L 358.712752 25.527273 
L 359.801449 26.874998 
L 360.890146 32.870063 
L 361.978843 40.763839 
L 363.06754 49.569559 
L 364.156237 60.693321 
L 365.244934 74.033125 
L 367.422328 105.78776 
L 369.599722 142.692793 
L 371.777116 183.843004 
L 373.95451 226.905866 
L 376.131905 266.69342 
L 377.220602 284.205907 
L 378.309299 299.49546 
L 379.397996 311.974189 
L 380.486693 317.36534 
L 381.57539 320.012212 
L 382.664087 320.072727 
L 383.752784 318.427581 
L 384.841481 315.448457 
L 385.930178 311.530767 
L 388.107572 301.231989 
L 389.196269 298.563624 
L 390.284966 296.542288 
L 391.373663 293.644629 
L 392.46236 291.458333 
L 395.728452 277.013153 
L 396.817149 270.528939 
L 398.994543 244.44312 
L 401.171937 216.39034 
L 403.349331 185.827846 
L 405.526725 153.311532 
L 413.147605 72.462488 
L 416.413696 43.296192 
L 417.502393 35.526152 
L 418.59109 29.164003 
L 419.679787 26.536566 
L 420.768484 25.527273 
L 421.857181 28.831329 
L 422.945878 34.798567 
L 424.034575 45.698803 
L 425.123272 59.12781 
L 427.300666 95.211455 
L 430.566757 153.308126 
L 431.655455 169.921192 
L 431.655455 169.921192 
" clip-path="url(#p547f3078ad)" style="fill: none; stroke: #000000; stroke-width: 4; stroke-linecap: square"/>
   </g>
   <g id="patch_3">
    <path d="M 46.42 334.8 
L 46.42 10.8 
" style="fill: none; stroke: #000000; stroke-width: 0.8; stroke-linejoin: miter; stroke-linecap: square"/>
   </g>
   <g id="patch_4">
    <path d="M 46.42 334.8 
L 450 334.8 
" style="fill: none; stroke: #000000; stroke-width: 0.8; stroke-linejoin: miter; stroke-linecap: square"/>
   </g>
  </g>
 </g>
 <defs>
  <clipPath id="p547f3078ad">
   <rect x="46.42" y="10.8" width="403.58" height="324"/>
  </clipPath>
 </defs>
</svg>
