<?xml version="1.0" encoding="utf-8" standalone="no"?>
<!DOCTYPE svg PUBLIC "-//W3C//DTD SVG 1.1//EN"
  "http://www.w3.org/Graphics/SVG/1.1/DTD/svg11.dtd">
<svg xmlns:xlink="http://www.w3.org/1999/xlink" width="460.8pt" height="345.6pt" viewBox="0 0 460.8 345.6" xmlns="http://www.w3.org/2000/svg" version="1.1">
 <metadata>
  <rdf:RDF xmlns:dc="http://purl.org/dc/elements/1.1/" xmlns:cc="http://creativecommons.org/ns#" xmlns:rdf="http://www.w3.org/1999/02/22-rdf-syntax-ns#">
   <cc:Work>
    <dc:type rdf:resource="http://purl.org/dc/dcmitype/StillImage"/>
    <dc:date>2023-04-28T00:49:25.127181</dc:date>
    <dc:format>image/svg+xml</dc:format>
    <dc:creator>
     <cc:Agent>
      <dc:title>Matplotlib v3.7.1, https://matplotlib.org/</dc:title>
     </cc:Agent>
    </dc:creator>
   </cc:Work>
  </rdf:RDF>
 </metadata>
 <defs>
  <style type="text/css">*{stroke-linejoin: round; stroke-linecap: butt}</style>
 </defs>
 <g id="figure_1">
  <g id="patch_1">
   <path d="M 0 345.6 
L 460.8 345.6 
L 460.8 0 
L 0 0 
z
" style="fill: #ffffff"/>
  </g>
  <g id="axes_1">
   <g id="patch_2">
    <path d="M 46.42 325.987518 
L 450 325.987518 
L 450 17.64 
L 46.42 17.64 
z
" style="fill: #ffffff"/>
   </g>
   <g id="matplotlib.axis_1"/>
   <g id="matplotlib.axis_2">
    <g id="ytick_1">
     <g id="line2d_1">
      <defs>
       <path id="mee86f5d2d5" d="M 0 0 
L -3.5 0 
" style="stroke: #000000; stroke-width: 0.8"/>
      </defs>
      <g>
       <use xlink:href="#mee86f5d2d5" x="46.42" y="324.101691" style="stroke: #000000; stroke-width: 0.8"/>
      </g>
     </g>
     <g id="text_1">
      <!-- 0.0 -->
      <g transform="translate(10.794375 330.940285) scale(0.18 -0.18)">
       <defs>
        <path id="DejaVuSans-30" d="M 2034 4250 
Q 1547 4250 1301 3770 
Q 1056 3291 1056 2328 
Q 1056 1369 1301 889 
Q 1547 409 2034 409 
Q 2525 409 2770 889 
Q 3016 1369 3016 2328 
Q 3016 3291 2770 3770 
Q 2525 4250 2034 4250 
z
M 2034 4750 
Q 2819 4750 3233 4129 
Q 3647 3509 3647 2328 
Q 3647 1150 3233 529 
Q 2819 -91 2034 -91 
Q 1250 -91 836 529 
Q 422 1150 422 2328 
Q 422 3509 836 4129 
Q 1250 4750 2034 4750 
z
" transform="scale(0.015625)"/>
        <path id="DejaVuSans-2e" d="M 684 794 
L 1344 794 
L 1344 0 
L 684 0 
L 684 794 
z
" transform="scale(0.015625)"/>
       </defs>
       <use xlink:href="#DejaVuSans-30"/>
       <use xlink:href="#DejaVuSans-2e" x="63.623047"/>
       <use xlink:href="#DejaVuSans-30" x="95.410156"/>
      </g>
     </g>
    </g>
    <g id="ytick_2">
     <g id="line2d_2">
      <g>
       <use xlink:href="#mee86f5d2d5" x="46.42" y="170.870846" style="stroke: #000000; stroke-width: 0.8"/>
      </g>
     </g>
     <g id="text_2">
      <!-- 0.5 -->
      <g transform="translate(10.794375 177.709439) scale(0.18 -0.18)">
       <defs>
        <path id="DejaVuSans-35" d="M 691 4666 
L 3169 4666 
L 3169 4134 
L 1269 4134 
L 1269 2991 
Q 1406 3038 1543 3061 
Q 1681 3084 1819 3084 
Q 2600 3084 3056 2656 
Q 3513 2228 3513 1497 
Q 3513 744 3044 326 
Q 2575 -91 1722 -91 
Q 1428 -91 1123 -41 
Q 819 9 494 109 
L 494 744 
Q 775 591 1075 516 
Q 1375 441 1709 441 
Q 2250 441 2565 725 
Q 2881 1009 2881 1497 
Q 2881 1984 2565 2268 
Q 2250 2553 1709 2553 
Q 1456 2553 1204 2497 
Q 953 2441 691 2322 
L 691 4666 
z
" transform="scale(0.015625)"/>
       </defs>
       <use xlink:href="#DejaVuSans-30"/>
       <use xlink:href="#DejaVuSans-2e" x="63.623047"/>
       <use xlink:href="#DejaVuSans-35" x="95.410156"/>
      </g>
     </g>
    </g>
    <g id="ytick_3">
     <g id="line2d_3">
      <g>
       <use xlink:href="#mee86f5d2d5" x="46.42" y="17.64" style="stroke: #000000; stroke-width: 0.8"/>
      </g>
     </g>
     <g id="text_3">
      <!-- 1.0 -->
      <g transform="translate(10.794375 24.478594) scale(0.18 -0.18)">
       <defs>
        <path id="DejaVuSans-31" d="M 794 531 
L 1825 531 
L 1825 4091 
L 703 3866 
L 703 4441 
L 1819 4666 
L 2450 4666 
L 2450 531 
L 3481 531 
L 3481 0 
L 794 0 
L 794 531 
z
" transform="scale(0.015625)"/>
       </defs>
       <use xlink:href="#DejaVuSans-31"/>
       <use xlink:href="#DejaVuSans-2e" x="63.623047"/>
       <use xlink:href="#DejaVuSans-30" x="95.410156"/>
      </g>
     </g>
    </g>
   </g>
   <g id="line2d_4">
    <path d="M 64.764545 229.819729 
L 66.94194 243.374845 
L 69.119334 255.718432 
L 71.296728 266.933576 
L 73.474122 276.912884 
L 75.651516 285.206363 
L 77.82891 292.652675 
L 80.006304 299.188678 
L 81.095001 302.037092 
L 82.183698 304.346679 
L 83.272395 306.329602 
L 84.361093 307.875265 
L 85.44979 309.152307 
L 86.538487 310.053419 
L 87.627184 310.732368 
L 88.715881 311.13553 
L 89.804578 311.344506 
L 90.893275 311.313364 
L 91.981972 311.128628 
L 93.070669 310.751656 
L 94.159366 310.104892 
L 95.248063 309.314592 
L 97.425457 307.172507 
L 98.514154 305.84148 
L 99.602851 304.334045 
L 101.780245 300.380504 
L 103.95764 295.449438 
L 106.135034 289.66323 
L 108.312428 283.136258 
L 110.489822 275.790332 
L 113.755913 263.578323 
L 115.933307 254.477097 
L 119.199398 238.306893 
L 121.376793 226.235871 
L 123.554187 213.01274 
L 124.642884 206.040384 
L 130.086369 166.676501 
L 133.35246 142.869591 
L 136.618551 121.48846 
L 139.884643 102.085412 
L 142.062037 89.735221 
L 144.239431 78.599993 
L 146.416825 68.915622 
L 148.594219 61.073248 
L 149.682916 57.961616 
L 150.771613 55.404026 
L 151.86031 53.490789 
L 152.949007 52.029648 
L 154.037704 51.299644 
L 155.126401 51.258289 
L 156.215098 51.967177 
L 157.303796 53.310151 
L 158.392493 55.22348 
L 159.48119 57.830663 
L 161.658584 64.435442 
L 163.835978 72.26028 
L 166.013372 81.012163 
L 168.190766 90.627213 
L 170.36816 101.298087 
L 174.722948 125.032223 
L 180.166434 156.194064 
L 192.142101 224.070208 
L 195.408193 241.488961 
L 197.585587 251.982659 
L 199.762981 261.395134 
L 201.940375 269.821744 
L 204.117769 277.602121 
L 206.295163 284.800951 
L 208.472557 291.222818 
L 209.561254 293.993553 
L 210.649951 296.367943 
L 211.738649 298.238487 
L 212.827346 299.589248 
L 213.916043 300.444197 
L 215.00474 300.858825 
L 216.093437 300.742882 
L 217.182134 300.257833 
L 218.270831 299.22844 
L 219.359528 297.846172 
L 220.448225 295.900121 
L 221.536922 293.681787 
L 223.714316 288.011446 
L 225.89171 281.144465 
L 228.069104 273.11701 
L 230.246499 264.404473 
L 234.601287 245.293498 
L 237.867378 229.563952 
L 241.133469 212.106355 
L 246.576954 182.492292 
L 248.754349 171.973798 
L 250.931743 162.047047 
L 253.109137 152.872001 
L 256.375228 139.656123 
L 262.90741 114.204129 
L 270.52829 84.088723 
L 272.705684 76.241929 
L 273.794381 72.686274 
L 274.883078 69.564887 
L 275.971775 66.880126 
L 277.060472 64.710536 
L 278.149169 63.170648 
L 279.237866 62.423437 
L 280.326563 62.403162 
L 281.41526 63.400332 
L 282.503957 65.290517 
L 283.592654 68.238901 
L 284.681351 71.951813 
L 285.770049 76.545007 
L 286.858746 81.87712 
L 289.03614 94.432371 
L 291.213534 108.626313 
L 296.657019 146.811529 
L 301.011807 176.916641 
L 303.189202 190.978114 
L 305.366596 203.620396 
L 307.54399 215.084887 
L 317.342263 263.364253 
L 319.519657 272.894985 
L 321.697052 281.309937 
L 323.874446 288.597914 
L 326.05184 294.866979 
L 328.229234 300.275095 
L 330.406628 304.866903 
L 332.584022 308.527239 
L 333.672719 310.030719 
L 334.761416 311.232844 
L 335.850113 312.086141 
L 336.93881 312.645997 
L 338.027507 312.905174 
L 339.116204 312.85841 
L 340.204902 312.557993 
L 341.293599 311.918844 
L 342.382296 310.919025 
L 343.470993 309.522542 
L 344.55969 307.789904 
L 345.648387 305.758426 
L 346.737084 303.353098 
L 347.825781 300.572312 
L 348.914478 297.295265 
L 350.003175 293.614582 
L 352.180569 284.99839 
L 354.357963 274.844897 
L 357.624054 258.125569 
L 366.333631 210.320755 
L 368.511025 199.145093 
L 370.688419 188.985828 
L 373.95451 174.449462 
L 379.397996 151.942618 
L 381.57539 143.469519 
L 385.930178 127.988718 
L 391.373663 108.269439 
L 394.639755 95.730793 
L 398.994543 80.783648 
L 400.08324 77.828561 
L 401.171937 75.221176 
L 402.260634 73.25102 
L 403.349331 71.54182 
L 404.438028 70.295586 
L 405.526725 69.303694 
L 406.615422 69.169691 
L 407.704119 69.299584 
L 408.792816 69.843379 
L 409.881513 70.611432 
L 412.058907 73.254089 
L 414.236302 76.79957 
L 416.413696 81.729307 
L 418.59109 87.557649 
L 422.945878 100.91533 
L 425.123272 108.556662 
L 428.389363 119.288017 
L 430.566757 125.79803 
L 431.655455 128.590016 
L 431.655455 128.590016 
" clip-path="url(#p93559e1545)" style="fill: none; stroke: #000000; stroke-width: 4; stroke-linecap: square"/>
   </g>
   <g id="patch_3">
    <path d="M 46.42 325.987518 
L 46.42 17.64 
" style="fill: none; stroke: #000000; stroke-width: 0.8; stroke-linejoin: miter; stroke-linecap: square"/>
   </g>
   <g id="patch_4">
    <path d="M 46.42 325.987518 
L 450 325.987518 
" style="fill: none; stroke: #000000; stroke-width: 0.8; stroke-linejoin: miter; stroke-linecap: square"/>
   </g>
  </g>
 </g>
 <defs>
  <clipPath id="p93559e1545">
   <rect x="46.42" y="17.64" width="403.58" height="308.347518"/>
  </clipPath>
 </defs>
</svg>
