<?xml version="1.0" encoding="utf-8" standalone="no"?>
<!DOCTYPE svg PUBLIC "-//W3C//DTD SVG 1.1//EN"
  "http://www.w3.org/Graphics/SVG/1.1/DTD/svg11.dtd">
<svg xmlns:xlink="http://www.w3.org/1999/xlink" width="460.8pt" height="345.6pt" viewBox="0 0 460.8 345.6" xmlns="http://www.w3.org/2000/svg" version="1.1">
 <metadata>
  <rdf:RDF xmlns:dc="http://purl.org/dc/elements/1.1/" xmlns:cc="http://creativecommons.org/ns#" xmlns:rdf="http://www.w3.org/1999/02/22-rdf-syntax-ns#">
   <cc:Work>
    <dc:type rdf:resource="http://purl.org/dc/dcmitype/StillImage"/>
    <dc:date>2023-04-28T00:35:53.286252</dc:date>
    <dc:format>image/svg+xml</dc:format>
    <dc:creator>
     <cc:Agent>
      <dc:title>Matplotlib v3.7.1, https://matplotlib.org/</dc:title>
     </cc:Agent>
    </dc:creator>
   </cc:Work>
  </rdf:RDF>
 </metadata>
 <defs>
  <style type="text/css">*{stroke-linejoin: round; stroke-linecap: butt}</style>
 </defs>
 <g id="figure_1">
  <g id="patch_1">
   <path d="M 0 345.6 
L 460.8 345.6 
L 460.8 0 
L 0 0 
z
" style="fill: #ffffff"/>
  </g>
  <g id="axes_1">
   <g id="patch_2">
    <path d="M 46.42 334.8 
L 450 334.8 
L 450 10.8 
L 46.42 10.8 
z
" style="fill: #ffffff"/>
   </g>
   <g id="matplotlib.axis_1"/>
   <g id="matplotlib.axis_2">
    <g id="ytick_1">
     <g id="line2d_1">
      <defs>
       <path id="m3580af20a5" d="M 0 0 
L -3.5 0 
" style="stroke: #000000; stroke-width: 0.8"/>
      </defs>
      <g>
       <use xlink:href="#m3580af20a5" x="46.42" y="320.072727" style="stroke: #000000; stroke-width: 0.8"/>
      </g>
     </g>
     <g id="text_1">
      <!-- 0.0 -->
      <g transform="translate(10.794375 326.911321) scale(0.18 -0.18)">
       <defs>
        <path id="DejaVuSans-30" d="M 2034 4250 
Q 1547 4250 1301 3770 
Q 1056 3291 1056 2328 
Q 1056 1369 1301 889 
Q 1547 409 2034 409 
Q 2525 409 2770 889 
Q 3016 1369 3016 2328 
Q 3016 3291 2770 3770 
Q 2525 4250 2034 4250 
z
M 2034 4750 
Q 2819 4750 3233 4129 
Q 3647 3509 3647 2328 
Q 3647 1150 3233 529 
Q 2819 -91 2034 -91 
Q 1250 -91 836 529 
Q 422 1150 422 2328 
Q 422 3509 836 4129 
Q 1250 4750 2034 4750 
z
" transform="scale(0.015625)"/>
        <path id="DejaVuSans-2e" d="M 684 794 
L 1344 794 
L 1344 0 
L 684 0 
L 684 794 
z
" transform="scale(0.015625)"/>
       </defs>
       <use xlink:href="#DejaVuSans-30"/>
       <use xlink:href="#DejaVuSans-2e" x="63.623047"/>
       <use xlink:href="#DejaVuSans-30" x="95.410156"/>
      </g>
     </g>
    </g>
    <g id="ytick_2">
     <g id="line2d_2">
      <g>
       <use xlink:href="#m3580af20a5" x="46.42" y="172.8" style="stroke: #000000; stroke-width: 0.8"/>
      </g>
     </g>
     <g id="text_2">
      <!-- 0.5 -->
      <g transform="translate(10.794375 179.638594) scale(0.18 -0.18)">
       <defs>
        <path id="DejaVuSans-35" d="M 691 4666 
L 3169 4666 
L 3169 4134 
L 1269 4134 
L 1269 2991 
Q 1406 3038 1543 3061 
Q 1681 3084 1819 3084 
Q 2600 3084 3056 2656 
Q 3513 2228 3513 1497 
Q 3513 744 3044 326 
Q 2575 -91 1722 -91 
Q 1428 -91 1123 -41 
Q 819 9 494 109 
L 494 744 
Q 775 591 1075 516 
Q 1375 441 1709 441 
Q 2250 441 2565 725 
Q 2881 1009 2881 1497 
Q 2881 1984 2565 2268 
Q 2250 2553 1709 2553 
Q 1456 2553 1204 2497 
Q 953 2441 691 2322 
L 691 4666 
z
" transform="scale(0.015625)"/>
       </defs>
       <use xlink:href="#DejaVuSans-30"/>
       <use xlink:href="#DejaVuSans-2e" x="63.623047"/>
       <use xlink:href="#DejaVuSans-35" x="95.410156"/>
      </g>
     </g>
    </g>
    <g id="ytick_3">
     <g id="line2d_3">
      <g>
       <use xlink:href="#m3580af20a5" x="46.42" y="25.527273" style="stroke: #000000; stroke-width: 0.8"/>
      </g>
     </g>
     <g id="text_3">
      <!-- 1.0 -->
      <g transform="translate(10.794375 32.365866) scale(0.18 -0.18)">
       <defs>
        <path id="DejaVuSans-31" d="M 794 531 
L 1825 531 
L 1825 4091 
L 703 3866 
L 703 4441 
L 1819 4666 
L 2450 4666 
L 2450 531 
L 3481 531 
L 3481 0 
L 794 0 
L 794 531 
z
" transform="scale(0.015625)"/>
       </defs>
       <use xlink:href="#DejaVuSans-31"/>
       <use xlink:href="#DejaVuSans-2e" x="63.623047"/>
       <use xlink:href="#DejaVuSans-30" x="95.410156"/>
      </g>
     </g>
    </g>
   </g>
   <g id="line2d_4">
    <path d="M 64.764545 174.525817 
L 65.853243 165.258052 
L 68.030637 151.804571 
L 69.119334 146.080961 
L 72.385425 125.815505 
L 74.562819 107.736121 
L 76.740213 83.629913 
L 80.006304 44.132239 
L 81.095001 33.691574 
L 82.183698 27.164308 
L 83.272395 25.527273 
L 84.361093 29.061738 
L 85.44979 37.699426 
L 86.538487 51.201063 
L 87.627184 68.099928 
L 90.893275 128.146417 
L 93.070669 147.385147 
L 94.159366 154.7249 
L 95.248063 160.55929 
L 96.33676 164.762491 
L 97.425457 167.512927 
L 98.514154 169.462306 
L 99.602851 170.025336 
L 101.780245 179.920677 
L 102.868943 185.625572 
L 103.95764 189.698856 
L 106.135034 201.307409 
L 110.489822 249.615217 
L 112.667216 277.412369 
L 114.84461 305.602289 
L 115.933307 313.928594 
L 117.022004 319.241476 
L 118.110701 320.072727 
L 119.199398 320.067355 
L 120.288095 312.935853 
L 121.376793 300.804085 
L 122.46549 285.192491 
L 124.642884 248.215056 
L 128.997672 181.995706 
L 134.441157 102.297695 
L 138.795946 57.484104 
L 139.884643 49.279739 
L 140.97334 39.466167 
L 143.150734 25.527273 
L 144.239431 26.296203 
L 145.328128 28.242755 
L 146.416825 30.926758 
L 147.505522 34.870355 
L 148.594219 39.342307 
L 150.771613 51.389758 
L 151.86031 60.109856 
L 152.949007 67.436336 
L 154.037704 78.126441 
L 155.126401 89.923697 
L 157.303796 121.806055 
L 164.924675 249.29866 
L 167.102069 279.29747 
L 169.279463 301.520366 
L 171.456857 317.639353 
L 172.545554 319.884736 
L 173.634251 320.072727 
L 174.722948 315.626618 
L 175.811646 310.515325 
L 176.900343 304.062547 
L 179.077737 287.816342 
L 180.166434 277.996072 
L 182.343828 260.674935 
L 184.521222 248.293941 
L 185.609919 243.37009 
L 186.698616 237.767873 
L 189.964707 225.460484 
L 192.142101 212.757832 
L 193.230798 204.686027 
L 194.319496 197.532555 
L 195.408193 189.528595 
L 196.49689 182.832938 
L 197.585587 174.899933 
L 199.762981 164.00492 
L 200.851678 160.431357 
L 201.940375 155.973994 
L 203.029072 152.35166 
L 204.117769 146.711671 
L 205.206466 141.959415 
L 206.295163 135.492929 
L 207.38386 128.172962 
L 210.649951 98.431891 
L 212.827346 77.893206 
L 216.093437 50.155166 
L 217.182134 42.455211 
L 218.270831 36.396662 
L 219.359528 31.201093 
L 221.536922 25.527273 
L 222.625619 25.738791 
L 223.714316 26.684126 
L 224.803013 28.725394 
L 225.89171 31.540227 
L 226.980407 35.259683 
L 228.069104 39.981654 
L 229.157801 45.364426 
L 232.423893 63.873009 
L 233.51259 69.664315 
L 234.601287 76.109418 
L 236.778681 87.704145 
L 241.133469 106.124384 
L 242.222166 109.631356 
L 243.310863 113.770336 
L 244.39956 117.181556 
L 247.665651 130.495236 
L 252.02044 148.463734 
L 253.109137 152.554013 
L 254.197834 157.585414 
L 255.286531 161.898289 
L 258.552622 178.54085 
L 259.641319 184.480972 
L 261.818713 198.637836 
L 263.996107 214.931001 
L 266.173501 233.51353 
L 268.350896 253.822535 
L 271.616987 285.468346 
L 273.794381 303.927265 
L 274.883078 310.628251 
L 275.971775 316.051229 
L 277.060472 319.244817 
L 278.149169 320.072727 
L 279.237866 318.623281 
L 280.326563 314.980547 
L 281.41526 309.536995 
L 283.592654 293.815618 
L 287.947443 258.82215 
L 290.124837 241.600092 
L 295.568322 200.685969 
L 299.92311 162.838445 
L 304.277899 122.480497 
L 308.632687 86.692324 
L 311.898778 62.674266 
L 314.076172 47.876256 
L 315.164869 41.273111 
L 316.253566 35.628119 
L 317.342263 31.359644 
L 318.43096 28.366211 
L 319.519657 26.711092 
L 320.608354 25.565282 
L 321.697052 25.527273 
L 322.785749 26.165777 
L 323.874446 27.862819 
L 324.963143 29.18888 
L 327.140537 33.981024 
L 329.317931 40.962927 
L 331.495325 52.256002 
L 332.584022 59.607132 
L 333.672719 68.000823 
L 335.850113 88.203077 
L 338.027507 112.01901 
L 343.470993 174.607103 
L 344.55969 185.84729 
L 348.914478 222.789919 
L 352.180569 245.112296 
L 354.357963 261.510188 
L 359.801449 309.225894 
L 360.890146 315.71605 
L 361.978843 320.072727 
L 363.06754 319.742441 
L 364.156237 318.080768 
L 365.244934 314.279689 
L 366.333631 309.19516 
L 367.422328 302.195743 
L 371.777116 270.817205 
L 373.95451 257.883803 
L 379.397996 227.810698 
L 381.57539 214.071358 
L 383.752784 198.5488 
L 384.841481 189.721556 
L 388.107572 159.41462 
L 390.284966 135.388574 
L 393.551057 95.830893 
L 395.728452 69.962913 
L 396.817149 58.290569 
L 397.905846 48.136984 
L 398.994543 39.289305 
L 400.08324 32.144339 
L 401.171937 27.318821 
L 402.260634 25.527273 
L 403.349331 26.705334 
L 404.438028 30.65209 
L 405.526725 36.414763 
L 406.615422 43.372614 
L 407.704119 51.843886 
L 409.881513 71.245188 
L 414.236302 113.150687 
L 416.413696 134.705775 
L 418.59109 154.595018 
L 419.679787 164.420722 
L 421.857181 181.431193 
L 422.945878 188.167088 
L 424.034575 193.721763 
L 426.211969 202.983436 
L 427.300666 206.699126 
L 428.389363 209.757184 
L 431.655455 216.615535 
L 431.655455 216.615535 
" clip-path="url(#p1c7ba44b91)" style="fill: none; stroke: #000000; stroke-width: 4; stroke-linecap: square"/>
   </g>
   <g id="patch_3">
    <path d="M 46.42 334.8 
L 46.42 10.8 
" style="fill: none; stroke: #000000; stroke-width: 0.8; stroke-linejoin: miter; stroke-linecap: square"/>
   </g>
   <g id="patch_4">
    <path d="M 46.42 334.8 
L 450 334.8 
" style="fill: none; stroke: #000000; stroke-width: 0.8; stroke-linejoin: miter; stroke-linecap: square"/>
   </g>
  </g>
 </g>
 <defs>
  <clipPath id="p1c7ba44b91">
   <rect x="46.42" y="10.8" width="403.58" height="324"/>
  </clipPath>
 </defs>
</svg>
