<?xml version="1.0" encoding="utf-8" standalone="no"?>
<!DOCTYPE svg PUBLIC "-//W3C//DTD SVG 1.1//EN"
  "http://www.w3.org/Graphics/SVG/1.1/DTD/svg11.dtd">
<svg xmlns:xlink="http://www.w3.org/1999/xlink" width="460.8pt" height="345.6pt" viewBox="0 0 460.8 345.6" xmlns="http://www.w3.org/2000/svg" version="1.1">
 <metadata>
  <rdf:RDF xmlns:dc="http://purl.org/dc/elements/1.1/" xmlns:cc="http://creativecommons.org/ns#" xmlns:rdf="http://www.w3.org/1999/02/22-rdf-syntax-ns#">
   <cc:Work>
    <dc:type rdf:resource="http://purl.org/dc/dcmitype/StillImage"/>
    <dc:date>2023-04-28T00:35:52.777401</dc:date>
    <dc:format>image/svg+xml</dc:format>
    <dc:creator>
     <cc:Agent>
      <dc:title>Matplotlib v3.7.1, https://matplotlib.org/</dc:title>
     </cc:Agent>
    </dc:creator>
   </cc:Work>
  </rdf:RDF>
 </metadata>
 <defs>
  <style type="text/css">*{stroke-linejoin: round; stroke-linecap: butt}</style>
 </defs>
 <g id="figure_1">
  <g id="patch_1">
   <path d="M 0 345.6 
L 460.8 345.6 
L 460.8 0 
L 0 0 
z
" style="fill: #ffffff"/>
  </g>
  <g id="axes_1">
   <g id="patch_2">
    <path d="M 46.42 334.8 
L 450 334.8 
L 450 10.8 
L 46.42 10.8 
z
" style="fill: #ffffff"/>
   </g>
   <g id="matplotlib.axis_1"/>
   <g id="matplotlib.axis_2">
    <g id="ytick_1">
     <g id="line2d_1">
      <defs>
       <path id="m2ac367ab57" d="M 0 0 
L -3.5 0 
" style="stroke: #000000; stroke-width: 0.8"/>
      </defs>
      <g>
       <use xlink:href="#m2ac367ab57" x="46.42" y="320.072727" style="stroke: #000000; stroke-width: 0.8"/>
      </g>
     </g>
     <g id="text_1">
      <!-- 0.0 -->
      <g transform="translate(10.794375 326.911321) scale(0.18 -0.18)">
       <defs>
        <path id="DejaVuSans-30" d="M 2034 4250 
Q 1547 4250 1301 3770 
Q 1056 3291 1056 2328 
Q 1056 1369 1301 889 
Q 1547 409 2034 409 
Q 2525 409 2770 889 
Q 3016 1369 3016 2328 
Q 3016 3291 2770 3770 
Q 2525 4250 2034 4250 
z
M 2034 4750 
Q 2819 4750 3233 4129 
Q 3647 3509 3647 2328 
Q 3647 1150 3233 529 
Q 2819 -91 2034 -91 
Q 1250 -91 836 529 
Q 422 1150 422 2328 
Q 422 3509 836 4129 
Q 1250 4750 2034 4750 
z
" transform="scale(0.015625)"/>
        <path id="DejaVuSans-2e" d="M 684 794 
L 1344 794 
L 1344 0 
L 684 0 
L 684 794 
z
" transform="scale(0.015625)"/>
       </defs>
       <use xlink:href="#DejaVuSans-30"/>
       <use xlink:href="#DejaVuSans-2e" x="63.623047"/>
       <use xlink:href="#DejaVuSans-30" x="95.410156"/>
      </g>
     </g>
    </g>
    <g id="ytick_2">
     <g id="line2d_2">
      <g>
       <use xlink:href="#m2ac367ab57" x="46.42" y="172.8" style="stroke: #000000; stroke-width: 0.8"/>
      </g>
     </g>
     <g id="text_2">
      <!-- 0.5 -->
      <g transform="translate(10.794375 179.638594) scale(0.18 -0.18)">
       <defs>
        <path id="DejaVuSans-35" d="M 691 4666 
L 3169 4666 
L 3169 4134 
L 1269 4134 
L 1269 2991 
Q 1406 3038 1543 3061 
Q 1681 3084 1819 3084 
Q 2600 3084 3056 2656 
Q 3513 2228 3513 1497 
Q 3513 744 3044 326 
Q 2575 -91 1722 -91 
Q 1428 -91 1123 -41 
Q 819 9 494 109 
L 494 744 
Q 775 591 1075 516 
Q 1375 441 1709 441 
Q 2250 441 2565 725 
Q 2881 1009 2881 1497 
Q 2881 1984 2565 2268 
Q 2250 2553 1709 2553 
Q 1456 2553 1204 2497 
Q 953 2441 691 2322 
L 691 4666 
z
" transform="scale(0.015625)"/>
       </defs>
       <use xlink:href="#DejaVuSans-30"/>
       <use xlink:href="#DejaVuSans-2e" x="63.623047"/>
       <use xlink:href="#DejaVuSans-35" x="95.410156"/>
      </g>
     </g>
    </g>
    <g id="ytick_3">
     <g id="line2d_3">
      <g>
       <use xlink:href="#m2ac367ab57" x="46.42" y="25.527273" style="stroke: #000000; stroke-width: 0.8"/>
      </g>
     </g>
     <g id="text_3">
      <!-- 1.0 -->
      <g transform="translate(10.794375 32.365866) scale(0.18 -0.18)">
       <defs>
        <path id="DejaVuSans-31" d="M 794 531 
L 1825 531 
L 1825 4091 
L 703 3866 
L 703 4441 
L 1819 4666 
L 2450 4666 
L 2450 531 
L 3481 531 
L 3481 0 
L 794 0 
L 794 531 
z
" transform="scale(0.015625)"/>
       </defs>
       <use xlink:href="#DejaVuSans-31"/>
       <use xlink:href="#DejaVuSans-2e" x="63.623047"/>
       <use xlink:href="#DejaVuSans-30" x="95.410156"/>
      </g>
     </g>
    </g>
   </g>
   <g id="line2d_4">
    <path d="M 64.764545 175.942609 
L 66.94194 179.456436 
L 70.208031 187.241899 
L 72.385425 193.019134 
L 73.474122 196.355599 
L 74.562819 202.376393 
L 76.740213 217.134068 
L 77.82891 225.031276 
L 81.095001 245.997141 
L 82.183698 252.255049 
L 83.272395 257.048119 
L 85.44979 264.189824 
L 86.538487 267.21075 
L 87.627184 269.320901 
L 88.715881 271.125032 
L 89.804578 273.414432 
L 90.893275 276.626256 
L 91.981972 280.248525 
L 93.070669 285.19246 
L 94.159366 290.669476 
L 95.248063 296.791541 
L 97.425457 306.427316 
L 98.514154 311.015565 
L 99.602851 314.99572 
L 100.691548 317.362488 
L 101.780245 319.363588 
L 102.868943 320.072727 
L 103.95764 287.955309 
L 106.135034 102.232245 
L 107.223731 26.646854 
L 108.312428 25.527273 
L 109.401125 28.73663 
L 110.489822 32.353592 
L 112.667216 46.998968 
L 113.755913 57.237789 
L 114.84461 64.710671 
L 115.933307 74.170274 
L 117.022004 82.056923 
L 118.110701 88.446776 
L 119.199398 93.09401 
L 120.288095 99.471802 
L 121.376793 108.134455 
L 122.46549 119.808572 
L 125.731581 162.506526 
L 127.908975 195.878016 
L 128.997672 208.947751 
L 130.086369 220.388993 
L 132.263763 240.077541 
L 134.441157 253.336402 
L 135.529854 255.809081 
L 136.618551 260.52 
L 137.707248 266.547184 
L 138.795946 274.371021 
L 139.884643 283.540836 
L 140.97334 294.415128 
L 142.062037 304.021155 
L 143.150734 311.075405 
L 144.239431 316.59767 
L 145.328128 320.072727 
L 146.416825 319.317878 
L 147.505522 317.648429 
L 148.594219 313.574469 
L 149.682916 308.348204 
L 150.771613 302.159505 
L 151.86031 294.976382 
L 155.126401 265.433414 
L 157.303796 245.744418 
L 162.747281 189.313742 
L 164.924675 164.148741 
L 167.102069 138.901374 
L 168.190766 127.561143 
L 171.456857 100.354092 
L 174.722948 77.990099 
L 177.98904 49.802601 
L 180.166434 35.77108 
L 182.343828 26.552788 
L 183.432525 25.527273 
L 184.521222 28.436629 
L 185.609919 40.00288 
L 186.698616 55.783339 
L 188.87601 96.829793 
L 189.964707 120.535033 
L 192.142101 173.729649 
L 194.319496 221.614825 
L 196.49689 259.991144 
L 198.674284 291.098264 
L 199.762981 303.076406 
L 200.851678 313.579879 
L 201.940375 319.447045 
L 203.029072 320.072727 
L 204.117769 318.366468 
L 205.206466 313.23336 
L 206.295163 307.448864 
L 208.472557 288.232946 
L 209.561254 276.366696 
L 210.649951 267.602045 
L 211.738649 257.277049 
L 212.827346 248.677532 
L 217.182134 206.434895 
L 219.359528 179.88883 
L 220.448225 164.038505 
L 221.536922 146.398063 
L 225.89171 67.333088 
L 226.980407 49.815434 
L 228.069104 35.785985 
L 229.157801 27.305232 
L 230.246499 25.527273 
L 231.335196 27.430479 
L 232.423893 31.378569 
L 233.51259 37.437521 
L 234.601287 44.850273 
L 236.778681 64.305209 
L 240.044772 97.466945 
L 243.310863 133.391705 
L 245.488257 159.74675 
L 255.286531 283.264395 
L 257.463925 305.758694 
L 258.552622 313.985601 
L 259.641319 318.766361 
L 260.730016 320.072727 
L 261.818713 318.953199 
L 262.90741 315.703645 
L 263.996107 310.169331 
L 265.084804 302.669321 
L 268.350896 274.723147 
L 270.52829 255.373773 
L 279.237866 175.84109 
L 280.326563 164.879099 
L 282.503957 138.328127 
L 284.681351 107.36937 
L 287.947443 59.544719 
L 289.03614 45.741711 
L 290.124837 35.223622 
L 291.213534 28.70833 
L 292.302231 25.527273 
L 293.390928 25.60754 
L 294.479625 29.386529 
L 295.568322 36.913747 
L 296.657019 47.067473 
L 303.189202 117.091703 
L 306.455293 150.777107 
L 309.721384 186.758153 
L 311.898778 213.329157 
L 316.253566 268.165794 
L 318.43096 292.943956 
L 319.519657 304.07349 
L 320.608354 312.6527 
L 321.697052 317.802573 
L 322.785749 320.072727 
L 323.874446 319.305729 
L 324.963143 317.276017 
L 326.05184 312.580859 
L 327.140537 306.514791 
L 328.229234 298.258877 
L 330.406628 283.600825 
L 334.761416 260.940899 
L 335.850113 254.83519 
L 338.027507 239.724415 
L 340.204902 220.659246 
L 345.648387 165.087615 
L 351.091872 104.730644 
L 353.269266 77.040392 
L 356.535357 41.093107 
L 357.624054 32.175712 
L 358.712752 27.092784 
L 359.801449 25.527273 
L 360.890146 28.714878 
L 361.978843 36.100593 
L 363.06754 45.896768 
L 365.244934 75.027899 
L 368.511025 121.575646 
L 369.599722 136.130221 
L 375.043207 198.545332 
L 376.131905 210.28432 
L 380.486693 251.331093 
L 384.841481 284.441982 
L 387.018875 298.661348 
L 389.196269 310.129511 
L 390.284966 315.015395 
L 391.373663 318.039451 
L 392.46236 319.355723 
L 393.551057 320.072727 
L 394.639755 319.544564 
L 395.728452 317.891475 
L 396.817149 315.00283 
L 397.905846 309.514337 
L 400.08324 296.785146 
L 402.260634 282.403044 
L 404.438028 267.800005 
L 405.526725 261.144837 
L 407.704119 251.891441 
L 409.881513 242.854181 
L 413.147605 229.491282 
L 414.236302 224.422021 
L 417.502393 197.148467 
L 421.857181 159.495642 
L 422.945878 152.16372 
L 424.034575 148.765579 
L 425.123272 146.176257 
L 426.211969 144.211376 
L 427.300666 142.838229 
L 428.389363 141.137886 
L 429.47806 140.085721 
L 431.655455 137.131263 
L 431.655455 137.131263 
" clip-path="url(#p7736afe09f)" style="fill: none; stroke: #000000; stroke-width: 4; stroke-linecap: square"/>
   </g>
   <g id="patch_3">
    <path d="M 46.42 334.8 
L 46.42 10.8 
" style="fill: none; stroke: #000000; stroke-width: 0.8; stroke-linejoin: miter; stroke-linecap: square"/>
   </g>
   <g id="patch_4">
    <path d="M 46.42 334.8 
L 450 334.8 
" style="fill: none; stroke: #000000; stroke-width: 0.8; stroke-linejoin: miter; stroke-linecap: square"/>
   </g>
  </g>
 </g>
 <defs>
  <clipPath id="p7736afe09f">
   <rect x="46.42" y="10.8" width="403.58" height="324"/>
  </clipPath>
 </defs>
</svg>
