<?xml version="1.0" encoding="utf-8" standalone="no"?>
<!DOCTYPE svg PUBLIC "-//W3C//DTD SVG 1.1//EN"
  "http://www.w3.org/Graphics/SVG/1.1/DTD/svg11.dtd">
<svg xmlns:xlink="http://www.w3.org/1999/xlink" width="460.8pt" height="345.6pt" viewBox="0 0 460.8 345.6" xmlns="http://www.w3.org/2000/svg" version="1.1">
 <metadata>
  <rdf:RDF xmlns:dc="http://purl.org/dc/elements/1.1/" xmlns:cc="http://creativecommons.org/ns#" xmlns:rdf="http://www.w3.org/1999/02/22-rdf-syntax-ns#">
   <cc:Work>
    <dc:type rdf:resource="http://purl.org/dc/dcmitype/StillImage"/>
    <dc:date>2023-04-28T00:49:24.566185</dc:date>
    <dc:format>image/svg+xml</dc:format>
    <dc:creator>
     <cc:Agent>
      <dc:title>Matplotlib v3.7.1, https://matplotlib.org/</dc:title>
     </cc:Agent>
    </dc:creator>
   </cc:Work>
  </rdf:RDF>
 </metadata>
 <defs>
  <style type="text/css">*{stroke-linejoin: round; stroke-linecap: butt}</style>
 </defs>
 <g id="figure_1">
  <g id="patch_1">
   <path d="M 0 345.6 
L 460.8 345.6 
L 460.8 0 
L 0 0 
z
" style="fill: #ffffff"/>
  </g>
  <g id="axes_1">
   <g id="patch_2">
    <path d="M 46.42 328.416969 
L 450 328.416969 
L 450 17.64 
L 46.42 17.64 
z
" style="fill: #ffffff"/>
   </g>
   <g id="matplotlib.axis_1"/>
   <g id="matplotlib.axis_2">
    <g id="ytick_1">
     <g id="line2d_1">
      <defs>
       <path id="m0d11969736" d="M 0 0 
L -3.5 0 
" style="stroke: #000000; stroke-width: 0.8"/>
      </defs>
      <g>
       <use xlink:href="#m0d11969736" x="46.42" y="323.679067" style="stroke: #000000; stroke-width: 0.8"/>
      </g>
     </g>
     <g id="text_1">
      <!-- 0.0 -->
      <g transform="translate(10.794375 330.517661) scale(0.18 -0.18)">
       <defs>
        <path id="DejaVuSans-30" d="M 2034 4250 
Q 1547 4250 1301 3770 
Q 1056 3291 1056 2328 
Q 1056 1369 1301 889 
Q 1547 409 2034 409 
Q 2525 409 2770 889 
Q 3016 1369 3016 2328 
Q 3016 3291 2770 3770 
Q 2525 4250 2034 4250 
z
M 2034 4750 
Q 2819 4750 3233 4129 
Q 3647 3509 3647 2328 
Q 3647 1150 3233 529 
Q 2819 -91 2034 -91 
Q 1250 -91 836 529 
Q 422 1150 422 2328 
Q 422 3509 836 4129 
Q 1250 4750 2034 4750 
z
" transform="scale(0.015625)"/>
        <path id="DejaVuSans-2e" d="M 684 794 
L 1344 794 
L 1344 0 
L 684 0 
L 684 794 
z
" transform="scale(0.015625)"/>
       </defs>
       <use xlink:href="#DejaVuSans-30"/>
       <use xlink:href="#DejaVuSans-2e" x="63.623047"/>
       <use xlink:href="#DejaVuSans-30" x="95.410156"/>
      </g>
     </g>
    </g>
    <g id="ytick_2">
     <g id="line2d_2">
      <g>
       <use xlink:href="#m0d11969736" x="46.42" y="170.659534" style="stroke: #000000; stroke-width: 0.8"/>
      </g>
     </g>
     <g id="text_2">
      <!-- 0.5 -->
      <g transform="translate(10.794375 177.498127) scale(0.18 -0.18)">
       <defs>
        <path id="DejaVuSans-35" d="M 691 4666 
L 3169 4666 
L 3169 4134 
L 1269 4134 
L 1269 2991 
Q 1406 3038 1543 3061 
Q 1681 3084 1819 3084 
Q 2600 3084 3056 2656 
Q 3513 2228 3513 1497 
Q 3513 744 3044 326 
Q 2575 -91 1722 -91 
Q 1428 -91 1123 -41 
Q 819 9 494 109 
L 494 744 
Q 775 591 1075 516 
Q 1375 441 1709 441 
Q 2250 441 2565 725 
Q 2881 1009 2881 1497 
Q 2881 1984 2565 2268 
Q 2250 2553 1709 2553 
Q 1456 2553 1204 2497 
Q 953 2441 691 2322 
L 691 4666 
z
" transform="scale(0.015625)"/>
       </defs>
       <use xlink:href="#DejaVuSans-30"/>
       <use xlink:href="#DejaVuSans-2e" x="63.623047"/>
       <use xlink:href="#DejaVuSans-35" x="95.410156"/>
      </g>
     </g>
    </g>
    <g id="ytick_3">
     <g id="line2d_3">
      <g>
       <use xlink:href="#m0d11969736" x="46.42" y="17.64" style="stroke: #000000; stroke-width: 0.8"/>
      </g>
     </g>
     <g id="text_3">
      <!-- 1.0 -->
      <g transform="translate(10.794375 24.478594) scale(0.18 -0.18)">
       <defs>
        <path id="DejaVuSans-31" d="M 794 531 
L 1825 531 
L 1825 4091 
L 703 3866 
L 703 4441 
L 1819 4666 
L 2450 4666 
L 2450 531 
L 3481 531 
L 3481 0 
L 794 0 
L 794 531 
z
" transform="scale(0.015625)"/>
       </defs>
       <use xlink:href="#DejaVuSans-31"/>
       <use xlink:href="#DejaVuSans-2e" x="63.623047"/>
       <use xlink:href="#DejaVuSans-30" x="95.410156"/>
      </g>
     </g>
    </g>
   </g>
   <g id="line2d_4">
    <path d="M 64.764545 162.419004 
L 70.208031 190.7333 
L 73.474122 209.211286 
L 80.006304 247.467505 
L 82.183698 259.029794 
L 84.361093 269.011219 
L 86.538487 277.829954 
L 89.804578 289.681801 
L 91.981972 297.029955 
L 94.159366 303.499321 
L 95.248063 306.299588 
L 96.33676 308.707105 
L 97.425457 310.687381 
L 98.514154 312.338835 
L 99.602851 313.620708 
L 100.691548 314.438992 
L 101.780245 314.894528 
L 102.868943 315.020118 
L 103.95764 314.806118 
L 105.046337 314.304143 
L 106.135034 313.436803 
L 107.223731 312.203381 
L 108.312428 310.640807 
L 109.401125 308.871666 
L 110.489822 306.858541 
L 112.667216 301.907482 
L 114.84461 295.938366 
L 117.022004 289.119845 
L 119.199398 281.010872 
L 126.820278 250.24834 
L 128.997672 241.066547 
L 131.175066 230.652068 
L 133.35246 218.762384 
L 135.529854 205.329764 
L 139.884643 176.623972 
L 144.239431 147.819211 
L 147.505522 127.299061 
L 150.771613 107.994422 
L 154.037704 90.047725 
L 156.215098 79.1848 
L 158.392493 69.54702 
L 160.569887 61.593955 
L 162.747281 54.766546 
L 163.835978 52.142474 
L 164.924675 50.031238 
L 166.013372 48.473864 
L 167.102069 47.423838 
L 168.190766 47.083089 
L 169.279463 47.358862 
L 170.36816 48.363139 
L 171.456857 49.949973 
L 172.545554 52.142036 
L 173.634251 54.942721 
L 174.722948 58.304912 
L 175.811646 62.321712 
L 176.900343 66.845859 
L 179.077737 77.254884 
L 181.255131 89.328031 
L 188.87601 134.353045 
L 194.319496 166.135551 
L 197.585587 186.376098 
L 204.117769 228.181414 
L 206.295163 241.071235 
L 208.472557 252.571157 
L 210.649951 262.701349 
L 212.827346 271.215294 
L 215.00474 278.321166 
L 217.182134 284.599237 
L 219.359528 290.314247 
L 221.536922 295.539972 
L 222.625619 297.935547 
L 223.714316 300.050937 
L 224.803013 301.870642 
L 225.89171 303.455017 
L 226.980407 304.695813 
L 228.069104 305.650366 
L 229.157801 306.169421 
L 230.246499 306.23438 
L 231.335196 305.786176 
L 232.423893 304.875588 
L 233.51259 303.473001 
L 234.601287 301.707927 
L 235.689984 299.494487 
L 236.778681 297.012865 
L 238.956075 291.079969 
L 242.222166 280.706392 
L 244.39956 273.222841 
L 246.576954 265.05358 
L 247.665651 260.620777 
L 249.843046 250.481145 
L 253.109137 232.785631 
L 258.552622 202.569154 
L 267.262199 157.512044 
L 272.705684 130.995488 
L 274.883078 121.207964 
L 278.149169 107.416007 
L 286.858746 73.090274 
L 289.03614 65.997198 
L 290.124837 63.137684 
L 291.213534 60.717805 
L 292.302231 59.205378 
L 293.390928 58.432419 
L 294.479625 58.772256 
L 295.568322 59.90342 
L 296.657019 62.111681 
L 297.745716 65.171759 
L 298.834413 69.30461 
L 299.92311 74.244295 
L 302.100504 86.351115 
L 304.277899 100.424025 
L 310.810081 146.510157 
L 314.076172 168.903877 
L 317.342263 189.813462 
L 319.519657 202.898839 
L 322.785749 220.709292 
L 326.05184 237.40922 
L 330.406628 258.201505 
L 333.672719 272.616357 
L 335.850113 281.137954 
L 338.027507 288.484389 
L 340.204902 294.747933 
L 342.382296 300.103682 
L 344.55969 304.593516 
L 346.737084 308.120498 
L 347.825781 309.582479 
L 348.914478 310.843287 
L 350.003175 311.908532 
L 351.091872 312.764349 
L 352.180569 313.40163 
L 354.357963 314.091776 
L 355.44666 314.188885 
L 356.535357 314.071347 
L 357.624054 313.681561 
L 358.712752 313.07984 
L 359.801449 312.215118 
L 360.890146 311.160305 
L 361.978843 309.864883 
L 363.06754 308.023695 
L 365.244934 303.654039 
L 367.422328 298.429286 
L 369.599722 292.53154 
L 371.777116 286.463685 
L 373.95451 280.150482 
L 376.131905 273.114684 
L 378.309299 265.164821 
L 379.397996 260.783403 
L 381.57539 250.252576 
L 384.841481 233.028588 
L 390.284966 203.55799 
L 396.817149 169.933017 
L 400.08324 150.660739 
L 405.526725 117.56575 
L 407.704119 106.884783 
L 409.881513 97.610078 
L 412.058907 89.276736 
L 415.324999 78.800473 
L 416.413696 75.487954 
L 417.502393 72.630994 
L 419.679787 67.755792 
L 420.768484 65.856065 
L 421.857181 64.443254 
L 424.034575 62.894637 
L 425.123272 62.728239 
L 426.211969 63.027288 
L 428.389363 64.701004 
L 430.566757 67.014227 
L 431.655455 68.634296 
L 431.655455 68.634296 
" clip-path="url(#pbfb9a998f3)" style="fill: none; stroke: #000000; stroke-width: 4; stroke-linecap: square"/>
   </g>
   <g id="patch_3">
    <path d="M 46.42 328.416969 
L 46.42 17.64 
" style="fill: none; stroke: #000000; stroke-width: 0.8; stroke-linejoin: miter; stroke-linecap: square"/>
   </g>
   <g id="patch_4">
    <path d="M 46.42 328.416969 
L 450 328.416969 
" style="fill: none; stroke: #000000; stroke-width: 0.8; stroke-linejoin: miter; stroke-linecap: square"/>
   </g>
  </g>
 </g>
 <defs>
  <clipPath id="pbfb9a998f3">
   <rect x="46.42" y="17.64" width="403.58" height="310.776969"/>
  </clipPath>
 </defs>
</svg>
