<?xml version="1.0" encoding="utf-8" standalone="no"?>
<!DOCTYPE svg PUBLIC "-//W3C//DTD SVG 1.1//EN"
  "http://www.w3.org/Graphics/SVG/1.1/DTD/svg11.dtd">
<svg xmlns:xlink="http://www.w3.org/1999/xlink" width="460.8pt" height="345.6pt" viewBox="0 0 460.8 345.6" xmlns="http://www.w3.org/2000/svg" version="1.1">
 <metadata>
  <rdf:RDF xmlns:dc="http://purl.org/dc/elements/1.1/" xmlns:cc="http://creativecommons.org/ns#" xmlns:rdf="http://www.w3.org/1999/02/22-rdf-syntax-ns#">
   <cc:Work>
    <dc:type rdf:resource="http://purl.org/dc/dcmitype/StillImage"/>
    <dc:date>2023-04-28T00:50:30.042691</dc:date>
    <dc:format>image/svg+xml</dc:format>
    <dc:creator>
     <cc:Agent>
      <dc:title>Matplotlib v3.7.1, https://matplotlib.org/</dc:title>
     </cc:Agent>
    </dc:creator>
   </cc:Work>
  </rdf:RDF>
 </metadata>
 <defs>
  <style type="text/css">*{stroke-linejoin: round; stroke-linecap: butt}</style>
 </defs>
 <g id="figure_1">
  <g id="patch_1">
   <path d="M 0 345.6 
L 460.8 345.6 
L 460.8 0 
L 0 0 
z
" style="fill: #ffffff"/>
  </g>
  <g id="axes_1">
   <g id="patch_2">
    <path d="M 46.42 334.134291 
L 450 334.134291 
L 450 10.8 
L 46.42 10.8 
z
" style="fill: #ffffff"/>
   </g>
   <g id="matplotlib.axis_1"/>
   <g id="matplotlib.axis_2">
    <g id="ytick_1">
     <g id="line2d_1">
      <defs>
       <path id="m4f2e10c7ed" d="M 0 0 
L -3.5 0 
" style="stroke: #000000; stroke-width: 0.8"/>
      </defs>
      <g>
       <use xlink:href="#m4f2e10c7ed" x="46.42" y="322.258226" style="stroke: #000000; stroke-width: 0.8"/>
      </g>
     </g>
     <g id="text_1">
      <!-- 0.0 -->
      <g transform="translate(10.794375 329.09682) scale(0.18 -0.18)">
       <defs>
        <path id="DejaVuSans-30" d="M 2034 4250 
Q 1547 4250 1301 3770 
Q 1056 3291 1056 2328 
Q 1056 1369 1301 889 
Q 1547 409 2034 409 
Q 2525 409 2770 889 
Q 3016 1369 3016 2328 
Q 3016 3291 2770 3770 
Q 2525 4250 2034 4250 
z
M 2034 4750 
Q 2819 4750 3233 4129 
Q 3647 3509 3647 2328 
Q 3647 1150 3233 529 
Q 2819 -91 2034 -91 
Q 1250 -91 836 529 
Q 422 1150 422 2328 
Q 422 3509 836 4129 
Q 1250 4750 2034 4750 
z
" transform="scale(0.015625)"/>
        <path id="DejaVuSans-2e" d="M 684 794 
L 1344 794 
L 1344 0 
L 684 0 
L 684 794 
z
" transform="scale(0.015625)"/>
       </defs>
       <use xlink:href="#DejaVuSans-30"/>
       <use xlink:href="#DejaVuSans-2e" x="63.623047"/>
       <use xlink:href="#DejaVuSans-30" x="95.410156"/>
      </g>
     </g>
    </g>
    <g id="ytick_2">
     <g id="line2d_2">
      <g>
       <use xlink:href="#m4f2e10c7ed" x="46.42" y="172.739125" style="stroke: #000000; stroke-width: 0.8"/>
      </g>
     </g>
     <g id="text_2">
      <!-- 0.5 -->
      <g transform="translate(10.794375 179.577719) scale(0.18 -0.18)">
       <defs>
        <path id="DejaVuSans-35" d="M 691 4666 
L 3169 4666 
L 3169 4134 
L 1269 4134 
L 1269 2991 
Q 1406 3038 1543 3061 
Q 1681 3084 1819 3084 
Q 2600 3084 3056 2656 
Q 3513 2228 3513 1497 
Q 3513 744 3044 326 
Q 2575 -91 1722 -91 
Q 1428 -91 1123 -41 
Q 819 9 494 109 
L 494 744 
Q 775 591 1075 516 
Q 1375 441 1709 441 
Q 2250 441 2565 725 
Q 2881 1009 2881 1497 
Q 2881 1984 2565 2268 
Q 2250 2553 1709 2553 
Q 1456 2553 1204 2497 
Q 953 2441 691 2322 
L 691 4666 
z
" transform="scale(0.015625)"/>
       </defs>
       <use xlink:href="#DejaVuSans-30"/>
       <use xlink:href="#DejaVuSans-2e" x="63.623047"/>
       <use xlink:href="#DejaVuSans-35" x="95.410156"/>
      </g>
     </g>
    </g>
    <g id="ytick_3">
     <g id="line2d_3">
      <g>
       <use xlink:href="#m4f2e10c7ed" x="46.42" y="23.220024" style="stroke: #000000; stroke-width: 0.8"/>
      </g>
     </g>
     <g id="text_3">
      <!-- 1.0 -->
      <g transform="translate(10.794375 30.058618) scale(0.18 -0.18)">
       <defs>
        <path id="DejaVuSans-31" d="M 794 531 
L 1825 531 
L 1825 4091 
L 703 3866 
L 703 4441 
L 1819 4666 
L 2450 4666 
L 2450 531 
L 3481 531 
L 3481 0 
L 794 0 
L 794 531 
z
" transform="scale(0.015625)"/>
       </defs>
       <use xlink:href="#DejaVuSans-31"/>
       <use xlink:href="#DejaVuSans-2e" x="63.623047"/>
       <use xlink:href="#DejaVuSans-30" x="95.410156"/>
      </g>
     </g>
    </g>
   </g>
   <g id="line2d_4">
    <path d="M 64.764545 209.766126 
L 66.94194 217.270343 
L 70.208031 228.900707 
L 72.385425 235.79895 
L 82.183698 264.518319 
L 84.361093 269.858752 
L 85.44979 272.14685 
L 86.538487 274.049948 
L 87.627184 275.541033 
L 88.715881 276.57015 
L 89.804578 277.082347 
L 90.893275 277.03874 
L 91.981972 276.807905 
L 93.070669 275.888081 
L 94.159366 274.261809 
L 95.248063 272.212794 
L 96.33676 269.62507 
L 97.425457 266.703977 
L 99.602851 259.594497 
L 102.868943 245.434462 
L 114.84461 189.711361 
L 117.022004 178.388953 
L 121.376793 154.555227 
L 124.642884 137.531979 
L 126.820278 127.147714 
L 128.997672 117.523841 
L 132.263763 104.270454 
L 137.707248 83.451214 
L 140.97334 71.740732 
L 143.150734 64.573871 
L 145.328128 57.994242 
L 147.505522 52.036067 
L 149.682916 46.815434 
L 151.86031 42.328724 
L 154.037704 38.543213 
L 156.215098 35.454713 
L 158.392493 32.867407 
L 160.569887 30.668844 
L 162.747281 28.807833 
L 164.924675 27.303286 
L 166.013372 26.699746 
L 168.190766 25.884562 
L 170.36816 25.503394 
L 172.545554 25.581125 
L 174.722948 25.974538 
L 179.077737 27.169588 
L 183.432525 28.635885 
L 185.609919 29.643836 
L 187.787313 30.981157 
L 189.964707 32.78702 
L 192.142101 35.00453 
L 195.408193 38.783945 
L 200.851678 45.576608 
L 204.117769 50.145486 
L 206.295163 53.499209 
L 209.561254 58.894019 
L 215.00474 68.417346 
L 221.536922 79.970709 
L 223.714316 83.744848 
L 225.89171 87.104916 
L 228.069104 89.95928 
L 229.157801 91.1241 
L 231.335196 92.824962 
L 233.51259 94.05042 
L 236.778681 95.580349 
L 242.222166 98.474674 
L 245.488257 99.661935 
L 246.576954 99.939973 
L 248.754349 100.158032 
L 252.02044 99.880084 
L 255.286531 99.977225 
L 257.463925 100.338626 
L 258.552622 100.701631 
L 262.90741 102.91497 
L 266.173501 105.173314 
L 268.350896 106.964472 
L 270.52829 108.961677 
L 271.616987 110.03793 
L 273.794381 112.571139 
L 277.060472 116.82733 
L 279.237866 119.966416 
L 281.41526 123.494297 
L 283.592654 127.561428 
L 284.681351 129.854851 
L 286.858746 135.136211 
L 289.03614 140.982433 
L 291.213534 147.473369 
L 293.390928 154.734698 
L 295.568322 162.524171 
L 298.834413 175.120697 
L 306.455293 205.743591 
L 312.987475 233.176513 
L 322.785749 275.559931 
L 324.963143 283.915733 
L 327.140537 291.577646 
L 329.317931 298.436866 
L 331.495325 304.514366 
L 333.672719 309.684443 
L 335.850113 313.98148 
L 336.93881 315.739973 
L 338.027507 317.190847 
L 339.116204 318.329759 
L 340.204902 319.09317 
L 341.293599 319.437277 
L 342.382296 319.331322 
L 343.470993 318.839116 
L 344.55969 317.858218 
L 345.648387 316.52907 
L 346.737084 314.860195 
L 347.825781 312.95553 
L 350.003175 308.364585 
L 352.180569 302.914242 
L 354.357963 296.721096 
L 356.535357 289.654153 
L 358.712752 281.836899 
L 361.978843 268.92425 
L 364.156237 259.869206 
L 366.333631 249.951503 
L 368.511025 238.846402 
L 370.688419 226.618665 
L 373.95451 206.412965 
L 378.309299 179.468476 
L 382.664087 154.134401 
L 388.107572 122.915639 
L 391.373663 104.65925 
L 393.551057 93.550972 
L 395.728452 83.81864 
L 397.905846 75.109053 
L 400.08324 67.155135 
L 402.260634 59.883023 
L 404.438028 53.357507 
L 406.615422 47.816504 
L 408.792816 43.291366 
L 409.881513 41.395741 
L 410.97021 39.799471 
L 412.058907 38.564103 
L 413.147605 37.521716 
L 414.236302 36.766867 
L 415.324999 36.262125 
L 417.502393 35.891367 
L 419.679787 36.144415 
L 429.47806 39.035051 
L 431.655455 39.537475 
L 431.655455 39.537475 
" clip-path="url(#p21bd696dde)" style="fill: none; stroke: #000000; stroke-width: 4; stroke-linecap: square"/>
   </g>
   <g id="patch_3">
    <path d="M 46.42 334.134291 
L 46.42 10.8 
" style="fill: none; stroke: #000000; stroke-width: 0.8; stroke-linejoin: miter; stroke-linecap: square"/>
   </g>
   <g id="patch_4">
    <path d="M 46.42 334.134291 
L 450 334.134291 
" style="fill: none; stroke: #000000; stroke-width: 0.8; stroke-linejoin: miter; stroke-linecap: square"/>
   </g>
  </g>
 </g>
 <defs>
  <clipPath id="p21bd696dde">
   <rect x="46.42" y="10.8" width="403.58" height="323.334291"/>
  </clipPath>
 </defs>
</svg>
