<?xml version="1.0" encoding="utf-8" standalone="no"?>
<!DOCTYPE svg PUBLIC "-//W3C//DTD SVG 1.1//EN"
  "http://www.w3.org/Graphics/SVG/1.1/DTD/svg11.dtd">
<svg xmlns:xlink="http://www.w3.org/1999/xlink" width="460.8pt" height="345.6pt" viewBox="0 0 460.8 345.6" xmlns="http://www.w3.org/2000/svg" version="1.1">
 <metadata>
  <rdf:RDF xmlns:dc="http://purl.org/dc/elements/1.1/" xmlns:cc="http://creativecommons.org/ns#" xmlns:rdf="http://www.w3.org/1999/02/22-rdf-syntax-ns#">
   <cc:Work>
    <dc:type rdf:resource="http://purl.org/dc/dcmitype/StillImage"/>
    <dc:date>2023-04-28T00:50:29.813444</dc:date>
    <dc:format>image/svg+xml</dc:format>
    <dc:creator>
     <cc:Agent>
      <dc:title>Matplotlib v3.7.1, https://matplotlib.org/</dc:title>
     </cc:Agent>
    </dc:creator>
   </cc:Work>
  </rdf:RDF>
 </metadata>
 <defs>
  <style type="text/css">*{stroke-linejoin: round; stroke-linecap: butt}</style>
 </defs>
 <g id="figure_1">
  <g id="patch_1">
   <path d="M 0 345.6 
L 460.8 345.6 
L 460.8 0 
L 0 0 
z
" style="fill: #ffffff"/>
  </g>
  <g id="axes_1">
   <g id="patch_2">
    <path d="M 46.42 324.36 
L 450 324.36 
L 450 10.8 
L 46.42 10.8 
z
" style="fill: #ffffff"/>
   </g>
   <g id="matplotlib.axis_1"/>
   <g id="matplotlib.axis_2">
    <g id="ytick_1">
     <g id="line2d_1">
      <defs>
       <path id="md1c97f9022" d="M 0 0 
L -3.5 0 
" style="stroke: #000000; stroke-width: 0.8"/>
      </defs>
      <g>
       <use xlink:href="#md1c97f9022" x="46.42" y="324.36" style="stroke: #000000; stroke-width: 0.8"/>
      </g>
     </g>
     <g id="text_1">
      <!-- 0.0 -->
      <g transform="translate(10.794375 331.198594) scale(0.18 -0.18)">
       <defs>
        <path id="DejaVuSans-30" d="M 2034 4250 
Q 1547 4250 1301 3770 
Q 1056 3291 1056 2328 
Q 1056 1369 1301 889 
Q 1547 409 2034 409 
Q 2525 409 2770 889 
Q 3016 1369 3016 2328 
Q 3016 3291 2770 3770 
Q 2525 4250 2034 4250 
z
M 2034 4750 
Q 2819 4750 3233 4129 
Q 3647 3509 3647 2328 
Q 3647 1150 3233 529 
Q 2819 -91 2034 -91 
Q 1250 -91 836 529 
Q 422 1150 422 2328 
Q 422 3509 836 4129 
Q 1250 4750 2034 4750 
z
" transform="scale(0.015625)"/>
        <path id="DejaVuSans-2e" d="M 684 794 
L 1344 794 
L 1344 0 
L 684 0 
L 684 794 
z
" transform="scale(0.015625)"/>
       </defs>
       <use xlink:href="#DejaVuSans-30"/>
       <use xlink:href="#DejaVuSans-2e" x="63.623047"/>
       <use xlink:href="#DejaVuSans-30" x="95.410156"/>
      </g>
     </g>
    </g>
    <g id="ytick_2">
     <g id="line2d_2">
      <g>
       <use xlink:href="#md1c97f9022" x="46.42" y="172.364379" style="stroke: #000000; stroke-width: 0.8"/>
      </g>
     </g>
     <g id="text_2">
      <!-- 0.5 -->
      <g transform="translate(10.794375 179.202973) scale(0.18 -0.18)">
       <defs>
        <path id="DejaVuSans-35" d="M 691 4666 
L 3169 4666 
L 3169 4134 
L 1269 4134 
L 1269 2991 
Q 1406 3038 1543 3061 
Q 1681 3084 1819 3084 
Q 2600 3084 3056 2656 
Q 3513 2228 3513 1497 
Q 3513 744 3044 326 
Q 2575 -91 1722 -91 
Q 1428 -91 1123 -41 
Q 819 9 494 109 
L 494 744 
Q 775 591 1075 516 
Q 1375 441 1709 441 
Q 2250 441 2565 725 
Q 2881 1009 2881 1497 
Q 2881 1984 2565 2268 
Q 2250 2553 1709 2553 
Q 1456 2553 1204 2497 
Q 953 2441 691 2322 
L 691 4666 
z
" transform="scale(0.015625)"/>
       </defs>
       <use xlink:href="#DejaVuSans-30"/>
       <use xlink:href="#DejaVuSans-2e" x="63.623047"/>
       <use xlink:href="#DejaVuSans-35" x="95.410156"/>
      </g>
     </g>
    </g>
    <g id="ytick_3">
     <g id="line2d_3">
      <g>
       <use xlink:href="#md1c97f9022" x="46.42" y="20.368758" style="stroke: #000000; stroke-width: 0.8"/>
      </g>
     </g>
     <g id="text_3">
      <!-- 1.0 -->
      <g transform="translate(10.794375 27.207352) scale(0.18 -0.18)">
       <defs>
        <path id="DejaVuSans-31" d="M 794 531 
L 1825 531 
L 1825 4091 
L 703 3866 
L 703 4441 
L 1819 4666 
L 2450 4666 
L 2450 531 
L 3481 531 
L 3481 0 
L 794 0 
L 794 531 
z
" transform="scale(0.015625)"/>
       </defs>
       <use xlink:href="#DejaVuSans-31"/>
       <use xlink:href="#DejaVuSans-2e" x="63.623047"/>
       <use xlink:href="#DejaVuSans-30" x="95.410156"/>
      </g>
     </g>
    </g>
   </g>
   <g id="line2d_4">
    <path d="M 64.764545 115.655894 
L 72.385425 95.300557 
L 74.562819 88.616532 
L 76.740213 81.323463 
L 81.095001 66.367819 
L 83.272395 59.956327 
L 85.44979 54.48711 
L 87.627184 49.756562 
L 89.804578 45.56046 
L 90.893275 43.756504 
L 91.981972 42.287591 
L 93.070669 41.105833 
L 94.159366 40.277546 
L 95.248063 39.814779 
L 96.33676 39.708292 
L 97.425457 40.043227 
L 98.514154 40.56644 
L 106.135034 45.508077 
L 108.312428 46.56436 
L 111.578519 47.612615 
L 118.110701 49.586802 
L 120.288095 50.390248 
L 122.46549 51.510092 
L 124.642884 53.064655 
L 125.731581 53.984589 
L 127.908975 56.372983 
L 130.086369 59.163608 
L 133.35246 63.756069 
L 135.529854 66.567693 
L 139.884643 71.478691 
L 140.97334 72.784222 
L 143.150734 75.901827 
L 147.505522 82.680145 
L 149.682916 85.498528 
L 150.771613 86.484453 
L 151.86031 87.282662 
L 152.949007 87.919972 
L 155.126401 88.813325 
L 159.48119 90.002947 
L 160.569887 90.466149 
L 163.835978 92.383369 
L 167.102069 94.454621 
L 171.456857 96.788114 
L 179.077737 101.536836 
L 182.343828 103.000675 
L 186.698616 104.838388 
L 188.87601 106.045078 
L 193.230798 109.359259 
L 196.49689 112.198951 
L 199.762981 115.182944 
L 203.029072 118.701964 
L 204.117769 119.990264 
L 205.206466 121.073308 
L 208.472557 125.230978 
L 210.649951 128.078225 
L 212.827346 131.470863 
L 217.182134 139.842138 
L 219.359528 144.971455 
L 221.536922 150.652596 
L 222.625619 153.764221 
L 225.89171 164.828856 
L 230.246499 180.71508 
L 232.423893 186.806839 
L 237.867378 199.202943 
L 238.956075 202.448996 
L 240.044772 206.055767 
L 242.222166 214.312112 
L 247.665651 237.432407 
L 250.931743 251.500265 
L 255.286531 269.00286 
L 258.552622 280.625737 
L 260.730016 287.655181 
L 262.90741 293.759998 
L 265.084804 299.302904 
L 266.173501 301.914906 
L 267.262199 304.021693 
L 268.350896 305.619848 
L 269.439593 306.741262 
L 270.52829 307.190584 
L 271.616987 307.106818 
L 272.705684 306.170668 
L 273.794381 304.39967 
L 275.971775 298.641482 
L 278.149169 291.400368 
L 280.326563 282.993407 
L 286.858746 255.497299 
L 292.302231 232.035749 
L 296.657019 211.667692 
L 301.011807 189.93191 
L 306.455293 161.681626 
L 310.810081 139.430033 
L 312.987475 128.902834 
L 316.253566 114.032442 
L 319.519657 100.150094 
L 323.874446 82.785001 
L 327.140537 70.879142 
L 329.317931 63.72137 
L 331.495325 57.397883 
L 333.672719 51.929608 
L 335.850113 47.17208 
L 341.293599 36.622794 
L 343.470993 32.484638 
L 345.648387 28.901386 
L 346.737084 27.453546 
L 347.825781 26.241003 
L 348.914478 25.466566 
L 350.003175 25.011174 
L 351.091872 24.913837 
L 352.180569 25.121267 
L 353.269266 25.488418 
L 355.44666 26.677569 
L 358.712752 28.734 
L 359.801449 29.284935 
L 361.978843 30.060694 
L 364.156237 30.634568 
L 365.244934 30.921995 
L 367.422328 31.9187 
L 369.599722 34.219651 
L 370.688419 36.043394 
L 371.777116 38.158694 
L 373.95451 43.504066 
L 377.220602 52.826495 
L 378.309299 56.040875 
L 379.397996 58.881454 
L 382.664087 68.194316 
L 392.46236 95.918153 
L 394.639755 102.515857 
L 397.905846 112.843055 
L 402.260634 126.656948 
L 405.526725 136.246601 
L 407.704119 141.837996 
L 412.058907 151.446674 
L 413.147605 153.442242 
L 419.679787 167.125114 
L 425.123272 179.847012 
L 427.300666 185.054061 
L 429.47806 190.57056 
L 430.566757 193.361619 
L 431.655455 196.658941 
L 431.655455 196.658941 
" clip-path="url(#pad5c04d604)" style="fill: none; stroke: #000000; stroke-width: 4; stroke-linecap: square"/>
   </g>
   <g id="patch_3">
    <path d="M 46.42 324.36 
L 46.42 10.8 
" style="fill: none; stroke: #000000; stroke-width: 0.8; stroke-linejoin: miter; stroke-linecap: square"/>
   </g>
   <g id="patch_4">
    <path d="M 46.42 324.36 
L 450 324.36 
" style="fill: none; stroke: #000000; stroke-width: 0.8; stroke-linejoin: miter; stroke-linecap: square"/>
   </g>
  </g>
 </g>
 <defs>
  <clipPath id="pad5c04d604">
   <rect x="46.42" y="10.8" width="403.58" height="313.56"/>
  </clipPath>
 </defs>
</svg>
