<?xml version="1.0" encoding="utf-8" standalone="no"?>
<!DOCTYPE svg PUBLIC "-//W3C//DTD SVG 1.1//EN"
  "http://www.w3.org/Graphics/SVG/1.1/DTD/svg11.dtd">
<svg xmlns:xlink="http://www.w3.org/1999/xlink" width="460.8pt" height="345.6pt" viewBox="0 0 460.8 345.6" xmlns="http://www.w3.org/2000/svg" version="1.1">
 <metadata>
  <rdf:RDF xmlns:dc="http://purl.org/dc/elements/1.1/" xmlns:cc="http://creativecommons.org/ns#" xmlns:rdf="http://www.w3.org/1999/02/22-rdf-syntax-ns#">
   <cc:Work>
    <dc:type rdf:resource="http://purl.org/dc/dcmitype/StillImage"/>
    <dc:date>2023-04-28T00:25:21.729545</dc:date>
    <dc:format>image/svg+xml</dc:format>
    <dc:creator>
     <cc:Agent>
      <dc:title>Matplotlib v3.7.1, https://matplotlib.org/</dc:title>
     </cc:Agent>
    </dc:creator>
   </cc:Work>
  </rdf:RDF>
 </metadata>
 <defs>
  <style type="text/css">*{stroke-linejoin: round; stroke-linecap: butt}</style>
 </defs>
 <g id="figure_1">
  <g id="patch_1">
   <path d="M 0 345.6 
L 460.8 345.6 
L 460.8 0 
L 0 0 
z
" style="fill: #ffffff"/>
  </g>
  <g id="axes_1">
   <g id="patch_2">
    <path d="M 46.42 334.8 
L 450 334.8 
L 450 10.8 
L 46.42 10.8 
z
" style="fill: #ffffff"/>
   </g>
   <g id="matplotlib.axis_1"/>
   <g id="matplotlib.axis_2">
    <g id="ytick_1">
     <g id="line2d_1">
      <defs>
       <path id="m95c28af352" d="M 0 0 
L -3.5 0 
" style="stroke: #000000; stroke-width: 0.8"/>
      </defs>
      <g>
       <use xlink:href="#m95c28af352" x="46.42" y="320.072727" style="stroke: #000000; stroke-width: 0.8"/>
      </g>
     </g>
     <g id="text_1">
      <!-- 0.0 -->
      <g transform="translate(10.794375 326.911321) scale(0.18 -0.18)">
       <defs>
        <path id="DejaVuSans-30" d="M 2034 4250 
Q 1547 4250 1301 3770 
Q 1056 3291 1056 2328 
Q 1056 1369 1301 889 
Q 1547 409 2034 409 
Q 2525 409 2770 889 
Q 3016 1369 3016 2328 
Q 3016 3291 2770 3770 
Q 2525 4250 2034 4250 
z
M 2034 4750 
Q 2819 4750 3233 4129 
Q 3647 3509 3647 2328 
Q 3647 1150 3233 529 
Q 2819 -91 2034 -91 
Q 1250 -91 836 529 
Q 422 1150 422 2328 
Q 422 3509 836 4129 
Q 1250 4750 2034 4750 
z
" transform="scale(0.015625)"/>
        <path id="DejaVuSans-2e" d="M 684 794 
L 1344 794 
L 1344 0 
L 684 0 
L 684 794 
z
" transform="scale(0.015625)"/>
       </defs>
       <use xlink:href="#DejaVuSans-30"/>
       <use xlink:href="#DejaVuSans-2e" x="63.623047"/>
       <use xlink:href="#DejaVuSans-30" x="95.410156"/>
      </g>
     </g>
    </g>
    <g id="ytick_2">
     <g id="line2d_2">
      <g>
       <use xlink:href="#m95c28af352" x="46.42" y="172.8" style="stroke: #000000; stroke-width: 0.8"/>
      </g>
     </g>
     <g id="text_2">
      <!-- 0.5 -->
      <g transform="translate(10.794375 179.638594) scale(0.18 -0.18)">
       <defs>
        <path id="DejaVuSans-35" d="M 691 4666 
L 3169 4666 
L 3169 4134 
L 1269 4134 
L 1269 2991 
Q 1406 3038 1543 3061 
Q 1681 3084 1819 3084 
Q 2600 3084 3056 2656 
Q 3513 2228 3513 1497 
Q 3513 744 3044 326 
Q 2575 -91 1722 -91 
Q 1428 -91 1123 -41 
Q 819 9 494 109 
L 494 744 
Q 775 591 1075 516 
Q 1375 441 1709 441 
Q 2250 441 2565 725 
Q 2881 1009 2881 1497 
Q 2881 1984 2565 2268 
Q 2250 2553 1709 2553 
Q 1456 2553 1204 2497 
Q 953 2441 691 2322 
L 691 4666 
z
" transform="scale(0.015625)"/>
       </defs>
       <use xlink:href="#DejaVuSans-30"/>
       <use xlink:href="#DejaVuSans-2e" x="63.623047"/>
       <use xlink:href="#DejaVuSans-35" x="95.410156"/>
      </g>
     </g>
    </g>
    <g id="ytick_3">
     <g id="line2d_3">
      <g>
       <use xlink:href="#m95c28af352" x="46.42" y="25.527273" style="stroke: #000000; stroke-width: 0.8"/>
      </g>
     </g>
     <g id="text_3">
      <!-- 1.0 -->
      <g transform="translate(10.794375 32.365866) scale(0.18 -0.18)">
       <defs>
        <path id="DejaVuSans-31" d="M 794 531 
L 1825 531 
L 1825 4091 
L 703 3866 
L 703 4441 
L 1819 4666 
L 2450 4666 
L 2450 531 
L 3481 531 
L 3481 0 
L 794 0 
L 794 531 
z
" transform="scale(0.015625)"/>
       </defs>
       <use xlink:href="#DejaVuSans-31"/>
       <use xlink:href="#DejaVuSans-2e" x="63.623047"/>
       <use xlink:href="#DejaVuSans-30" x="95.410156"/>
      </g>
     </g>
    </g>
   </g>
   <g id="line2d_4">
    <path d="M 64.764545 121.7438 
L 68.030637 142.971551 
L 72.385425 169.163235 
L 77.82891 200.877649 
L 80.006304 211.741859 
L 84.361093 231.295734 
L 87.627184 246.524325 
L 91.981972 268.501843 
L 97.425457 295.549367 
L 99.602851 305.922076 
L 101.780245 317.133342 
L 102.868943 319.805383 
L 103.95764 320.072727 
L 105.046337 318.516363 
L 106.135034 315.227349 
L 107.223731 310.207798 
L 108.312428 303.270073 
L 109.401125 293.968531 
L 110.489822 283.589392 
L 111.578519 274.472619 
L 113.755913 258.830964 
L 115.933307 244.976726 
L 138.795946 107.782276 
L 143.150734 78.540313 
L 148.594219 41.466266 
L 149.682916 35.36323 
L 150.771613 30.434042 
L 151.86031 27.170909 
L 152.949007 25.527273 
L 154.037704 25.704275 
L 155.126401 27.558499 
L 156.215098 31.201848 
L 157.303796 36.151559 
L 159.48119 48.373133 
L 167.102069 92.730139 
L 171.456857 117.459454 
L 174.722948 137.352086 
L 184.521222 201.077193 
L 197.585587 286.018299 
L 200.851678 308.84691 
L 201.940375 314.488548 
L 203.029072 318.038557 
L 204.117769 319.891833 
L 205.206466 320.072727 
L 206.295163 318.429337 
L 207.38386 314.442457 
L 208.472557 308.55838 
L 215.00474 268.478651 
L 219.359528 243.484995 
L 225.89171 207.433777 
L 236.778681 148.937859 
L 243.310863 112.069976 
L 246.576954 94.893493 
L 249.843046 78.341066 
L 258.552622 32.766656 
L 259.641319 29.037299 
L 260.730016 26.575681 
L 261.818713 25.527273 
L 262.90741 25.722025 
L 263.996107 27.554953 
L 265.084804 30.660992 
L 266.173501 34.768054 
L 268.350896 44.514545 
L 273.794381 70.846432 
L 278.149169 93.156317 
L 284.681351 126.901062 
L 287.947443 142.717143 
L 292.302231 163.712169 
L 295.568322 180.271091 
L 299.92311 203.805237 
L 309.721384 257.411148 
L 312.987475 273.528144 
L 316.253566 288.894787 
L 317.342263 293.850165 
L 321.697052 315.311659 
L 322.785749 318.26284 
L 323.874446 319.826894 
L 324.963143 320.072727 
L 326.05184 319.015014 
L 327.140537 316.22133 
L 328.229234 311.672224 
L 340.204902 251.618647 
L 343.470993 236.472465 
L 345.648387 227.063565 
L 352.180569 200.19456 
L 354.357963 190.625195 
L 357.624054 175.205157 
L 365.244934 139.033889 
L 373.95451 99.187759 
L 377.220602 85.322303 
L 381.57539 67.856791 
L 391.373663 30.234146 
L 392.46236 27.293101 
L 393.551057 25.694953 
L 394.639755 25.527273 
L 395.728452 26.962077 
L 396.817149 29.888164 
L 397.905846 33.857709 
L 398.994543 38.841901 
L 401.171937 50.985033 
L 403.349331 63.230607 
L 410.97021 102.966256 
L 418.59109 146.073535 
L 420.768484 156.61227 
L 425.123272 176.017276 
L 428.389363 190.640048 
L 430.566757 201.127387 
L 431.655455 206.598643 
L 431.655455 206.598643 
" clip-path="url(#pc07d605121)" style="fill: none; stroke: #000000; stroke-width: 4; stroke-linecap: square"/>
   </g>
   <g id="patch_3">
    <path d="M 46.42 334.8 
L 46.42 10.8 
" style="fill: none; stroke: #000000; stroke-width: 0.8; stroke-linejoin: miter; stroke-linecap: square"/>
   </g>
   <g id="patch_4">
    <path d="M 46.42 334.8 
L 450 334.8 
" style="fill: none; stroke: #000000; stroke-width: 0.8; stroke-linejoin: miter; stroke-linecap: square"/>
   </g>
  </g>
 </g>
 <defs>
  <clipPath id="pc07d605121">
   <rect x="46.42" y="10.8" width="403.58" height="324"/>
  </clipPath>
 </defs>
</svg>
