<?xml version="1.0" encoding="utf-8" standalone="no"?>
<!DOCTYPE svg PUBLIC "-//W3C//DTD SVG 1.1//EN"
  "http://www.w3.org/Graphics/SVG/1.1/DTD/svg11.dtd">
<svg xmlns:xlink="http://www.w3.org/1999/xlink" width="460.8pt" height="345.6pt" viewBox="0 0 460.8 345.6" xmlns="http://www.w3.org/2000/svg" version="1.1">
 <metadata>
  <rdf:RDF xmlns:dc="http://purl.org/dc/elements/1.1/" xmlns:cc="http://creativecommons.org/ns#" xmlns:rdf="http://www.w3.org/1999/02/22-rdf-syntax-ns#">
   <cc:Work>
    <dc:type rdf:resource="http://purl.org/dc/dcmitype/StillImage"/>
    <dc:date>2023-04-28T00:49:24.888145</dc:date>
    <dc:format>image/svg+xml</dc:format>
    <dc:creator>
     <cc:Agent>
      <dc:title>Matplotlib v3.7.1, https://matplotlib.org/</dc:title>
     </cc:Agent>
    </dc:creator>
   </cc:Work>
  </rdf:RDF>
 </metadata>
 <defs>
  <style type="text/css">*{stroke-linejoin: round; stroke-linecap: butt}</style>
 </defs>
 <g id="figure_1">
  <g id="patch_1">
   <path d="M 0 345.6 
L 460.8 345.6 
L 460.8 0 
L 0 0 
z
" style="fill: #ffffff"/>
  </g>
  <g id="axes_1">
   <g id="patch_2">
    <path d="M 46.42 327.271548 
L 450 327.271548 
L 450 17.64 
L 46.42 17.64 
z
" style="fill: #ffffff"/>
   </g>
   <g id="matplotlib.axis_1"/>
   <g id="matplotlib.axis_2">
    <g id="ytick_1">
     <g id="line2d_1">
      <defs>
       <path id="m4c03929704" d="M 0 0 
L -3.5 0 
" style="stroke: #000000; stroke-width: 0.8"/>
      </defs>
      <g>
       <use xlink:href="#m4c03929704" x="46.42" y="323.88385" style="stroke: #000000; stroke-width: 0.8"/>
      </g>
     </g>
     <g id="text_1">
      <!-- 0.0 -->
      <g transform="translate(10.794375 330.722444) scale(0.18 -0.18)">
       <defs>
        <path id="DejaVuSans-30" d="M 2034 4250 
Q 1547 4250 1301 3770 
Q 1056 3291 1056 2328 
Q 1056 1369 1301 889 
Q 1547 409 2034 409 
Q 2525 409 2770 889 
Q 3016 1369 3016 2328 
Q 3016 3291 2770 3770 
Q 2525 4250 2034 4250 
z
M 2034 4750 
Q 2819 4750 3233 4129 
Q 3647 3509 3647 2328 
Q 3647 1150 3233 529 
Q 2819 -91 2034 -91 
Q 1250 -91 836 529 
Q 422 1150 422 2328 
Q 422 3509 836 4129 
Q 1250 4750 2034 4750 
z
" transform="scale(0.015625)"/>
        <path id="DejaVuSans-2e" d="M 684 794 
L 1344 794 
L 1344 0 
L 684 0 
L 684 794 
z
" transform="scale(0.015625)"/>
       </defs>
       <use xlink:href="#DejaVuSans-30"/>
       <use xlink:href="#DejaVuSans-2e" x="63.623047"/>
       <use xlink:href="#DejaVuSans-30" x="95.410156"/>
      </g>
     </g>
    </g>
    <g id="ytick_2">
     <g id="line2d_2">
      <g>
       <use xlink:href="#m4c03929704" x="46.42" y="170.761925" style="stroke: #000000; stroke-width: 0.8"/>
      </g>
     </g>
     <g id="text_2">
      <!-- 0.5 -->
      <g transform="translate(10.794375 177.600519) scale(0.18 -0.18)">
       <defs>
        <path id="DejaVuSans-35" d="M 691 4666 
L 3169 4666 
L 3169 4134 
L 1269 4134 
L 1269 2991 
Q 1406 3038 1543 3061 
Q 1681 3084 1819 3084 
Q 2600 3084 3056 2656 
Q 3513 2228 3513 1497 
Q 3513 744 3044 326 
Q 2575 -91 1722 -91 
Q 1428 -91 1123 -41 
Q 819 9 494 109 
L 494 744 
Q 775 591 1075 516 
Q 1375 441 1709 441 
Q 2250 441 2565 725 
Q 2881 1009 2881 1497 
Q 2881 1984 2565 2268 
Q 2250 2553 1709 2553 
Q 1456 2553 1204 2497 
Q 953 2441 691 2322 
L 691 4666 
z
" transform="scale(0.015625)"/>
       </defs>
       <use xlink:href="#DejaVuSans-30"/>
       <use xlink:href="#DejaVuSans-2e" x="63.623047"/>
       <use xlink:href="#DejaVuSans-35" x="95.410156"/>
      </g>
     </g>
    </g>
    <g id="ytick_3">
     <g id="line2d_3">
      <g>
       <use xlink:href="#m4c03929704" x="46.42" y="17.64" style="stroke: #000000; stroke-width: 0.8"/>
      </g>
     </g>
     <g id="text_3">
      <!-- 1.0 -->
      <g transform="translate(10.794375 24.478594) scale(0.18 -0.18)">
       <defs>
        <path id="DejaVuSans-31" d="M 794 531 
L 1825 531 
L 1825 4091 
L 703 3866 
L 703 4441 
L 1819 4666 
L 2450 4666 
L 2450 531 
L 3481 531 
L 3481 0 
L 794 0 
L 794 531 
z
" transform="scale(0.015625)"/>
       </defs>
       <use xlink:href="#DejaVuSans-31"/>
       <use xlink:href="#DejaVuSans-2e" x="63.623047"/>
       <use xlink:href="#DejaVuSans-30" x="95.410156"/>
      </g>
     </g>
    </g>
   </g>
   <g id="line2d_4">
    <path d="M 64.764545 77.318358 
L 66.94194 70.787966 
L 70.208031 62.176595 
L 71.296728 59.527402 
L 73.474122 55.110626 
L 74.562819 53.466345 
L 75.651516 52.172077 
L 76.740213 51.206008 
L 77.82891 50.781612 
L 78.917607 50.705039 
L 80.006304 51.219387 
L 81.095001 52.142378 
L 82.183698 53.354798 
L 84.361093 56.481139 
L 86.538487 60.396746 
L 88.715881 64.748029 
L 90.893275 70.199672 
L 93.070669 78.872575 
L 95.248063 89.130983 
L 97.425457 100.959013 
L 100.691548 119.539271 
L 108.312428 161.149055 
L 114.84461 204.145789 
L 117.022004 218.975562 
L 121.376793 243.383861 
L 123.554187 253.935106 
L 126.820278 266.96046 
L 128.997672 274.885593 
L 132.263763 286.179524 
L 134.441157 293.393071 
L 136.618551 299.474698 
L 137.707248 302.302901 
L 139.884643 307.045283 
L 140.97334 308.874614 
L 142.062037 310.289762 
L 143.150734 311.295408 
L 144.239431 311.683695 
L 145.328128 311.587031 
L 146.416825 310.908688 
L 147.505522 309.807235 
L 148.594219 308.134895 
L 149.682916 306.063263 
L 150.771613 303.482943 
L 152.949007 297.392658 
L 155.126401 290.566967 
L 158.392493 279.393792 
L 168.190766 243.622901 
L 171.456857 230.361893 
L 180.166434 193.540866 
L 183.432525 178.939828 
L 185.609919 168.118281 
L 189.964707 144.387818 
L 193.230798 126.098394 
L 195.408193 114.712228 
L 198.674284 99.997105 
L 199.762981 95.541631 
L 201.940375 87.983108 
L 204.117769 82.276152 
L 205.206466 80.610022 
L 206.295163 79.325282 
L 207.38386 79.170839 
L 208.472557 79.505627 
L 209.561254 81.092792 
L 210.649951 83.09329 
L 211.738649 86.428142 
L 212.827346 90.175707 
L 215.00474 99.718939 
L 217.182134 110.612643 
L 220.448225 128.910336 
L 224.803013 155.439361 
L 229.157801 183.167699 
L 231.335196 195.839856 
L 233.51259 207.47616 
L 235.689984 218.127913 
L 237.867378 228.202525 
L 240.044772 237.810102 
L 242.222166 247.026322 
L 245.488257 260.229502 
L 248.754349 272.233652 
L 250.931743 279.424773 
L 253.109137 285.872458 
L 255.286531 291.779907 
L 257.463925 297.1557 
L 259.641319 302.094811 
L 260.730016 304.348876 
L 262.90741 308.026434 
L 263.996107 309.440674 
L 265.084804 310.606026 
L 266.173501 311.417835 
L 267.262199 312.035917 
L 268.350896 312.315762 
L 269.439593 312.386084 
L 270.52829 312.149048 
L 271.616987 311.71417 
L 272.705684 310.97541 
L 273.794381 310.019489 
L 274.883078 308.830997 
L 277.060472 305.901505 
L 279.237866 302.125853 
L 281.41526 297.831599 
L 284.681351 290.38452 
L 285.770049 287.630088 
L 287.947443 281.282752 
L 290.124837 273.701325 
L 292.302231 264.743775 
L 295.568322 249.220486 
L 297.745716 237.513655 
L 299.92311 225.059007 
L 302.100504 211.693826 
L 305.366596 189.628864 
L 309.721384 158.126668 
L 314.076172 126.377126 
L 317.342263 104.18772 
L 319.519657 90.597601 
L 321.697052 78.140498 
L 322.785749 72.440387 
L 324.963143 62.41192 
L 327.140537 54.052631 
L 329.317931 47.835032 
L 330.406628 45.454878 
L 331.495325 43.407523 
L 332.584022 41.984311 
L 333.672719 41.063821 
L 334.761416 40.899502 
L 335.850113 41.410438 
L 336.93881 42.560247 
L 338.027507 44.274274 
L 339.116204 46.721456 
L 340.204902 49.723582 
L 342.382296 56.980064 
L 344.55969 65.706176 
L 346.737084 75.855427 
L 348.914478 87.269813 
L 351.091872 100.234767 
L 361.978843 169.079075 
L 364.156237 183.664451 
L 367.422328 207.413176 
L 370.688419 231.020518 
L 372.865813 245.684019 
L 375.043207 258.336517 
L 377.220602 269.10889 
L 379.397996 278.231373 
L 381.57539 285.830386 
L 383.752784 292.642296 
L 385.930178 298.886778 
L 388.107572 304.398975 
L 390.284966 308.928481 
L 391.373663 310.643973 
L 392.46236 312.022363 
L 393.551057 312.955768 
L 394.639755 313.537334 
L 395.728452 313.634784 
L 396.817149 313.30693 
L 397.905846 312.551212 
L 398.994543 311.413851 
L 400.08324 310.033872 
L 402.260634 306.412012 
L 405.526725 299.530663 
L 407.704119 294.43446 
L 409.881513 288.499918 
L 412.058907 281.599497 
L 414.236302 273.192539 
L 416.413696 262.810628 
L 418.59109 250.588303 
L 420.768484 237.138672 
L 424.034575 215.876255 
L 427.300666 194.497471 
L 431.655455 166.564009 
L 431.655455 166.564009 
" clip-path="url(#pbe81816754)" style="fill: none; stroke: #000000; stroke-width: 4; stroke-linecap: square"/>
   </g>
   <g id="patch_3">
    <path d="M 46.42 327.271548 
L 46.42 17.64 
" style="fill: none; stroke: #000000; stroke-width: 0.8; stroke-linejoin: miter; stroke-linecap: square"/>
   </g>
   <g id="patch_4">
    <path d="M 46.42 327.271548 
L 450 327.271548 
" style="fill: none; stroke: #000000; stroke-width: 0.8; stroke-linejoin: miter; stroke-linecap: square"/>
   </g>
  </g>
 </g>
 <defs>
  <clipPath id="pbe81816754">
   <rect x="46.42" y="17.64" width="403.58" height="309.631548"/>
  </clipPath>
 </defs>
</svg>
