<?xml version="1.0" encoding="utf-8" standalone="no"?>
<!DOCTYPE svg PUBLIC "-//W3C//DTD SVG 1.1//EN"
  "http://www.w3.org/Graphics/SVG/1.1/DTD/svg11.dtd">
<svg xmlns:xlink="http://www.w3.org/1999/xlink" width="460.8pt" height="345.6pt" viewBox="0 0 460.8 345.6" xmlns="http://www.w3.org/2000/svg" version="1.1">
 <metadata>
  <rdf:RDF xmlns:dc="http://purl.org/dc/elements/1.1/" xmlns:cc="http://creativecommons.org/ns#" xmlns:rdf="http://www.w3.org/1999/02/22-rdf-syntax-ns#">
   <cc:Work>
    <dc:type rdf:resource="http://purl.org/dc/dcmitype/StillImage"/>
    <dc:date>2023-04-28T00:50:29.340905</dc:date>
    <dc:format>image/svg+xml</dc:format>
    <dc:creator>
     <cc:Agent>
      <dc:title>Matplotlib v3.7.1, https://matplotlib.org/</dc:title>
     </cc:Agent>
    </dc:creator>
   </cc:Work>
  </rdf:RDF>
 </metadata>
 <defs>
  <style type="text/css">*{stroke-linejoin: round; stroke-linecap: butt}</style>
 </defs>
 <g id="figure_1">
  <g id="patch_1">
   <path d="M 0 345.6 
L 460.8 345.6 
L 460.8 0 
L 0 0 
z
" style="fill: #ffffff"/>
  </g>
  <g id="axes_1">
   <g id="patch_2">
    <path d="M 46.42 333.91516 
L 450 333.91516 
L 450 10.8 
L 46.42 10.8 
z
" style="fill: #ffffff"/>
   </g>
   <g id="matplotlib.axis_1"/>
   <g id="matplotlib.axis_2">
    <g id="ytick_1">
     <g id="line2d_1">
      <defs>
       <path id="ma9d26241b2" d="M 0 0 
L -3.5 0 
" style="stroke: #000000; stroke-width: 0.8"/>
      </defs>
      <g>
       <use xlink:href="#ma9d26241b2" x="46.42" y="322.313214" style="stroke: #000000; stroke-width: 0.8"/>
      </g>
     </g>
     <g id="text_1">
      <!-- 0.0 -->
      <g transform="translate(10.794375 329.151808) scale(0.18 -0.18)">
       <defs>
        <path id="DejaVuSans-30" d="M 2034 4250 
Q 1547 4250 1301 3770 
Q 1056 3291 1056 2328 
Q 1056 1369 1301 889 
Q 1547 409 2034 409 
Q 2525 409 2770 889 
Q 3016 1369 3016 2328 
Q 3016 3291 2770 3770 
Q 2525 4250 2034 4250 
z
M 2034 4750 
Q 2819 4750 3233 4129 
Q 3647 3509 3647 2328 
Q 3647 1150 3233 529 
Q 2819 -91 2034 -91 
Q 1250 -91 836 529 
Q 422 1150 422 2328 
Q 422 3509 836 4129 
Q 1250 4750 2034 4750 
z
" transform="scale(0.015625)"/>
        <path id="DejaVuSans-2e" d="M 684 794 
L 1344 794 
L 1344 0 
L 684 0 
L 684 794 
z
" transform="scale(0.015625)"/>
       </defs>
       <use xlink:href="#DejaVuSans-30"/>
       <use xlink:href="#DejaVuSans-2e" x="63.623047"/>
       <use xlink:href="#DejaVuSans-30" x="95.410156"/>
      </g>
     </g>
    </g>
    <g id="ytick_2">
     <g id="line2d_2">
      <g>
       <use xlink:href="#ma9d26241b2" x="46.42" y="172.45154" style="stroke: #000000; stroke-width: 0.8"/>
      </g>
     </g>
     <g id="text_2">
      <!-- 0.5 -->
      <g transform="translate(10.794375 179.290134) scale(0.18 -0.18)">
       <defs>
        <path id="DejaVuSans-35" d="M 691 4666 
L 3169 4666 
L 3169 4134 
L 1269 4134 
L 1269 2991 
Q 1406 3038 1543 3061 
Q 1681 3084 1819 3084 
Q 2600 3084 3056 2656 
Q 3513 2228 3513 1497 
Q 3513 744 3044 326 
Q 2575 -91 1722 -91 
Q 1428 -91 1123 -41 
Q 819 9 494 109 
L 494 744 
Q 775 591 1075 516 
Q 1375 441 1709 441 
Q 2250 441 2565 725 
Q 2881 1009 2881 1497 
Q 2881 1984 2565 2268 
Q 2250 2553 1709 2553 
Q 1456 2553 1204 2497 
Q 953 2441 691 2322 
L 691 4666 
z
" transform="scale(0.015625)"/>
       </defs>
       <use xlink:href="#DejaVuSans-30"/>
       <use xlink:href="#DejaVuSans-2e" x="63.623047"/>
       <use xlink:href="#DejaVuSans-35" x="95.410156"/>
      </g>
     </g>
    </g>
    <g id="ytick_3">
     <g id="line2d_3">
      <g>
       <use xlink:href="#ma9d26241b2" x="46.42" y="22.589866" style="stroke: #000000; stroke-width: 0.8"/>
      </g>
     </g>
     <g id="text_3">
      <!-- 1.0 -->
      <g transform="translate(10.794375 29.428459) scale(0.18 -0.18)">
       <defs>
        <path id="DejaVuSans-31" d="M 794 531 
L 1825 531 
L 1825 4091 
L 703 3866 
L 703 4441 
L 1819 4666 
L 2450 4666 
L 2450 531 
L 3481 531 
L 3481 0 
L 794 0 
L 794 531 
z
" transform="scale(0.015625)"/>
       </defs>
       <use xlink:href="#DejaVuSans-31"/>
       <use xlink:href="#DejaVuSans-2e" x="63.623047"/>
       <use xlink:href="#DejaVuSans-30" x="95.410156"/>
      </g>
     </g>
    </g>
   </g>
   <g id="line2d_4">
    <path d="M 64.764545 46.198372 
L 66.94194 44.853019 
L 69.119334 44.036147 
L 71.296728 43.770067 
L 74.562819 43.744323 
L 77.82891 43.237657 
L 82.183698 42.508304 
L 84.361093 42.656905 
L 86.538487 43.1968 
L 87.627184 43.680117 
L 88.715881 44.314053 
L 90.893275 46.068119 
L 93.070669 48.86453 
L 95.248063 52.308133 
L 97.425457 56.535434 
L 99.602851 61.355867 
L 101.780245 66.62655 
L 103.95764 72.383086 
L 106.135034 78.652167 
L 108.312428 85.360349 
L 110.489822 92.9594 
L 113.755913 105.618006 
L 115.933307 115.02838 
L 119.199398 130.889181 
L 123.554187 153.844278 
L 131.175066 194.113513 
L 135.529854 218.117253 
L 140.97334 247.778076 
L 143.150734 258.753527 
L 146.416825 274.1905 
L 149.682916 288.253876 
L 151.86031 296.68454 
L 154.037704 304.018457 
L 156.215098 310.082422 
L 157.303796 312.549443 
L 158.392493 314.61134 
L 159.48119 316.21057 
L 160.569887 317.314669 
L 161.658584 317.823206 
L 162.747281 317.790981 
L 163.835978 317.188878 
L 164.924675 316.13931 
L 166.013372 314.674432 
L 167.102069 312.904066 
L 168.190766 310.855808 
L 169.279463 308.518871 
L 171.456857 303.061735 
L 173.634251 296.798011 
L 175.811646 289.601173 
L 177.98904 281.534401 
L 180.166434 272.437275 
L 182.343828 262.463031 
L 184.521222 251.414454 
L 186.698616 238.972045 
L 188.87601 225.422721 
L 192.142101 203.466102 
L 196.49689 174.162533 
L 199.762981 153.465256 
L 203.029072 134.395132 
L 206.295163 116.927258 
L 209.561254 100.807363 
L 212.827346 85.653279 
L 216.093437 71.661451 
L 218.270831 63.290618 
L 220.448225 55.906071 
L 222.625619 49.704823 
L 224.803013 44.656327 
L 225.89171 42.460498 
L 228.069104 38.757318 
L 230.246499 35.704902 
L 232.423893 33.074545 
L 234.601287 30.784443 
L 236.778681 28.798706 
L 238.956075 27.262145 
L 241.133469 26.247133 
L 243.310863 25.742628 
L 246.576954 25.51753 
L 249.843046 25.49159 
L 253.109137 25.631812 
L 255.286531 25.872059 
L 257.463925 26.319057 
L 259.641319 27.010768 
L 261.818713 28.014865 
L 263.996107 29.272269 
L 266.173501 30.833107 
L 268.350896 32.72032 
L 270.52829 34.932853 
L 272.705684 37.58304 
L 274.883078 40.634258 
L 278.149169 45.848487 
L 283.592654 54.791247 
L 289.03614 63.688863 
L 291.213534 67.309846 
L 294.479625 72.356825 
L 296.657019 75.219675 
L 298.834413 77.444553 
L 301.011807 79.420679 
L 303.189202 81.026573 
L 305.366596 82.262985 
L 307.54399 83.229798 
L 308.632687 83.477942 
L 314.076172 84.206383 
L 316.253566 84.738864 
L 318.43096 85.518775 
L 323.874446 87.588048 
L 327.140537 89.292289 
L 329.317931 90.711602 
L 332.584022 93.157682 
L 334.761416 95.073193 
L 335.850113 96.210401 
L 338.027507 98.885796 
L 340.204902 101.946447 
L 342.382296 105.451326 
L 345.648387 111.283985 
L 347.825781 115.577118 
L 350.003175 120.303064 
L 352.180569 125.468094 
L 357.624054 139.652273 
L 359.801449 145.936146 
L 361.978843 152.633323 
L 364.156237 160.060443 
L 366.333631 168.305203 
L 372.865813 194.302032 
L 377.220602 210.18553 
L 380.486693 222.416674 
L 382.664087 231.149834 
L 385.930178 245.303902 
L 391.373663 269.330434 
L 393.551057 277.927686 
L 395.728452 285.628418 
L 397.905846 292.513014 
L 401.171937 301.701941 
L 403.349331 307.355536 
L 405.526725 312.302004 
L 406.615422 314.439388 
L 407.704119 316.240358 
L 408.792816 317.70521 
L 409.881513 318.754808 
L 410.97021 319.228108 
L 412.058907 319.134222 
L 413.147605 318.492823 
L 414.236302 317.433407 
L 415.324999 315.800011 
L 416.413696 313.80468 
L 417.502393 311.456317 
L 419.679787 305.841293 
L 421.857181 299.463779 
L 425.123272 288.390926 
L 427.300666 279.994026 
L 429.47806 270.259364 
L 431.655455 259.539515 
L 431.655455 259.539515 
" clip-path="url(#pd437828d57)" style="fill: none; stroke: #000000; stroke-width: 4; stroke-linecap: square"/>
   </g>
   <g id="patch_3">
    <path d="M 46.42 333.91516 
L 46.42 10.8 
" style="fill: none; stroke: #000000; stroke-width: 0.8; stroke-linejoin: miter; stroke-linecap: square"/>
   </g>
   <g id="patch_4">
    <path d="M 46.42 333.91516 
L 450 333.91516 
" style="fill: none; stroke: #000000; stroke-width: 0.8; stroke-linejoin: miter; stroke-linecap: square"/>
   </g>
  </g>
 </g>
 <defs>
  <clipPath id="pd437828d57">
   <rect x="46.42" y="10.8" width="403.58" height="323.11516"/>
  </clipPath>
 </defs>
</svg>
