<?xml version="1.0" encoding="utf-8" standalone="no"?>
<!DOCTYPE svg PUBLIC "-//W3C//DTD SVG 1.1//EN"
  "http://www.w3.org/Graphics/SVG/1.1/DTD/svg11.dtd">
<svg xmlns:xlink="http://www.w3.org/1999/xlink" width="460.8pt" height="345.6pt" viewBox="0 0 460.8 345.6" xmlns="http://www.w3.org/2000/svg" version="1.1">
 <metadata>
  <rdf:RDF xmlns:dc="http://purl.org/dc/elements/1.1/" xmlns:cc="http://creativecommons.org/ns#" xmlns:rdf="http://www.w3.org/1999/02/22-rdf-syntax-ns#">
   <cc:Work>
    <dc:type rdf:resource="http://purl.org/dc/dcmitype/StillImage"/>
    <dc:date>2023-04-28T00:49:24.473123</dc:date>
    <dc:format>image/svg+xml</dc:format>
    <dc:creator>
     <cc:Agent>
      <dc:title>Matplotlib v3.7.1, https://matplotlib.org/</dc:title>
     </cc:Agent>
    </dc:creator>
   </cc:Work>
  </rdf:RDF>
 </metadata>
 <defs>
  <style type="text/css">*{stroke-linejoin: round; stroke-linecap: butt}</style>
 </defs>
 <g id="figure_1">
  <g id="patch_1">
   <path d="M 0 345.6 
L 460.8 345.6 
L 460.8 0 
L 0 0 
z
" style="fill: #ffffff"/>
  </g>
  <g id="axes_1">
   <g id="patch_2">
    <path d="M 46.42 327.592711 
L 450 327.592711 
L 450 17.64 
L 46.42 17.64 
z
" style="fill: #ffffff"/>
   </g>
   <g id="matplotlib.axis_1"/>
   <g id="matplotlib.axis_2">
    <g id="ytick_1">
     <g id="line2d_1">
      <defs>
       <path id="m9480799e18" d="M 0 0 
L -3.5 0 
" style="stroke: #000000; stroke-width: 0.8"/>
      </defs>
      <g>
       <use xlink:href="#m9480799e18" x="46.42" y="323.827426" style="stroke: #000000; stroke-width: 0.8"/>
      </g>
     </g>
     <g id="text_1">
      <!-- 0.0 -->
      <g transform="translate(10.794375 330.66602) scale(0.18 -0.18)">
       <defs>
        <path id="DejaVuSans-30" d="M 2034 4250 
Q 1547 4250 1301 3770 
Q 1056 3291 1056 2328 
Q 1056 1369 1301 889 
Q 1547 409 2034 409 
Q 2525 409 2770 889 
Q 3016 1369 3016 2328 
Q 3016 3291 2770 3770 
Q 2525 4250 2034 4250 
z
M 2034 4750 
Q 2819 4750 3233 4129 
Q 3647 3509 3647 2328 
Q 3647 1150 3233 529 
Q 2819 -91 2034 -91 
Q 1250 -91 836 529 
Q 422 1150 422 2328 
Q 422 3509 836 4129 
Q 1250 4750 2034 4750 
z
" transform="scale(0.015625)"/>
        <path id="DejaVuSans-2e" d="M 684 794 
L 1344 794 
L 1344 0 
L 684 0 
L 684 794 
z
" transform="scale(0.015625)"/>
       </defs>
       <use xlink:href="#DejaVuSans-30"/>
       <use xlink:href="#DejaVuSans-2e" x="63.623047"/>
       <use xlink:href="#DejaVuSans-30" x="95.410156"/>
      </g>
     </g>
    </g>
    <g id="ytick_2">
     <g id="line2d_2">
      <g>
       <use xlink:href="#m9480799e18" x="46.42" y="170.733713" style="stroke: #000000; stroke-width: 0.8"/>
      </g>
     </g>
     <g id="text_2">
      <!-- 0.5 -->
      <g transform="translate(10.794375 177.572307) scale(0.18 -0.18)">
       <defs>
        <path id="DejaVuSans-35" d="M 691 4666 
L 3169 4666 
L 3169 4134 
L 1269 4134 
L 1269 2991 
Q 1406 3038 1543 3061 
Q 1681 3084 1819 3084 
Q 2600 3084 3056 2656 
Q 3513 2228 3513 1497 
Q 3513 744 3044 326 
Q 2575 -91 1722 -91 
Q 1428 -91 1123 -41 
Q 819 9 494 109 
L 494 744 
Q 775 591 1075 516 
Q 1375 441 1709 441 
Q 2250 441 2565 725 
Q 2881 1009 2881 1497 
Q 2881 1984 2565 2268 
Q 2250 2553 1709 2553 
Q 1456 2553 1204 2497 
Q 953 2441 691 2322 
L 691 4666 
z
" transform="scale(0.015625)"/>
       </defs>
       <use xlink:href="#DejaVuSans-30"/>
       <use xlink:href="#DejaVuSans-2e" x="63.623047"/>
       <use xlink:href="#DejaVuSans-35" x="95.410156"/>
      </g>
     </g>
    </g>
    <g id="ytick_3">
     <g id="line2d_3">
      <g>
       <use xlink:href="#m9480799e18" x="46.42" y="17.64" style="stroke: #000000; stroke-width: 0.8"/>
      </g>
     </g>
     <g id="text_3">
      <!-- 1.0 -->
      <g transform="translate(10.794375 24.478594) scale(0.18 -0.18)">
       <defs>
        <path id="DejaVuSans-31" d="M 794 531 
L 1825 531 
L 1825 4091 
L 703 3866 
L 703 4441 
L 1819 4666 
L 2450 4666 
L 2450 531 
L 3481 531 
L 3481 0 
L 794 0 
L 794 531 
z
" transform="scale(0.015625)"/>
       </defs>
       <use xlink:href="#DejaVuSans-31"/>
       <use xlink:href="#DejaVuSans-2e" x="63.623047"/>
       <use xlink:href="#DejaVuSans-30" x="95.410156"/>
      </g>
     </g>
    </g>
   </g>
   <g id="line2d_4">
    <path d="M 64.764545 190.006163 
L 66.94194 179.323787 
L 69.119334 167.806747 
L 74.562819 137.809909 
L 76.740213 127.101627 
L 80.006304 112.531311 
L 83.272395 98.473042 
L 88.715881 73.390999 
L 93.070669 55.038368 
L 94.159366 51.008725 
L 95.248063 47.427746 
L 96.33676 44.366714 
L 97.425457 41.796685 
L 98.514154 39.997545 
L 99.602851 38.787995 
L 100.691548 38.653582 
L 101.780245 39.186105 
L 102.868943 40.69598 
L 103.95764 43.013279 
L 105.046337 46.104315 
L 106.135034 49.90468 
L 107.223731 54.532363 
L 108.312428 59.817728 
L 110.489822 72.856816 
L 112.667216 88.104742 
L 114.84461 105.158234 
L 122.46549 166.874564 
L 124.642884 182.733242 
L 127.908975 204.923569 
L 131.175066 225.779369 
L 135.529854 252.096047 
L 137.707248 263.513619 
L 139.884643 273.59409 
L 142.062037 282.371474 
L 144.239431 289.853875 
L 146.416825 296.13783 
L 148.594219 301.239963 
L 149.682916 303.470568 
L 151.86031 307.124851 
L 154.037704 310.163859 
L 155.126401 311.358237 
L 156.215098 312.345103 
L 157.303796 313.09405 
L 158.392493 313.583192 
L 159.48119 313.833705 
L 160.569887 313.817575 
L 161.658584 313.513157 
L 162.747281 312.930863 
L 163.835978 312.097454 
L 164.924675 310.860154 
L 166.013372 309.244005 
L 167.102069 307.218162 
L 168.190766 304.809062 
L 170.36816 299.043908 
L 172.545554 292.065012 
L 174.722948 284.341282 
L 177.98904 271.778387 
L 180.166434 262.524554 
L 182.343828 252.134788 
L 184.521222 240.399015 
L 186.698616 227.558188 
L 192.142101 194.395033 
L 197.585587 161.629933 
L 206.295163 105.145112 
L 208.472557 93.036218 
L 210.649951 82.405426 
L 212.827346 72.724174 
L 215.00474 63.910936 
L 217.182134 56.227496 
L 218.270831 52.859842 
L 219.359528 49.920357 
L 220.448225 47.523997 
L 221.536922 45.89889 
L 222.625619 44.993407 
L 223.714316 44.974463 
L 224.803013 45.735934 
L 225.89171 47.408218 
L 226.980407 49.711301 
L 228.069104 52.826408 
L 229.157801 56.467559 
L 231.335196 65.509781 
L 233.51259 76.440917 
L 235.689984 89.207602 
L 237.867378 103.354859 
L 242.222166 133.879693 
L 246.576954 163.540984 
L 249.843046 184.336403 
L 253.109137 203.885316 
L 256.375228 221.631694 
L 259.641319 238.147133 
L 263.996107 258.742297 
L 266.173501 268.346607 
L 268.350896 276.802081 
L 270.52829 284.057245 
L 272.705684 290.453604 
L 274.883078 296.033074 
L 277.060472 300.930723 
L 278.149169 303.067966 
L 279.237866 304.956245 
L 280.326563 306.480741 
L 281.41526 307.755156 
L 282.503957 308.704818 
L 283.592654 309.409678 
L 284.681351 309.708454 
L 285.770049 309.733324 
L 286.858746 309.282764 
L 287.947443 308.565424 
L 289.03614 307.351772 
L 290.124837 305.814925 
L 291.213534 303.815428 
L 292.302231 301.550588 
L 294.479625 295.939744 
L 296.657019 289.090164 
L 299.92311 277.793838 
L 307.54399 250.409898 
L 309.721384 241.765306 
L 312.987475 227.57768 
L 322.785749 182.297008 
L 326.05184 167.747598 
L 330.406628 146.29665 
L 334.761416 123.539426 
L 336.93881 112.965027 
L 339.116204 103.382143 
L 341.293599 94.846747 
L 343.470993 87.041669 
L 346.737084 75.544814 
L 348.914478 69.359094 
L 350.003175 67.260376 
L 351.091872 65.767894 
L 352.180569 65.462988 
L 353.269266 65.908311 
L 354.357963 67.906433 
L 355.44666 70.637447 
L 356.535357 74.5487 
L 357.624054 79.013737 
L 359.801449 89.636864 
L 364.156237 114.008756 
L 372.865813 163.502804 
L 376.131905 179.759583 
L 379.397996 194.409159 
L 384.841481 215.532799 
L 392.46236 246.736942 
L 396.817149 262.096966 
L 398.994543 268.904744 
L 402.260634 278.208286 
L 405.526725 286.528054 
L 407.704119 291.089982 
L 409.881513 294.595091 
L 410.97021 295.810779 
L 412.058907 296.624332 
L 413.147605 296.841963 
L 415.324999 296.64255 
L 416.413696 296.105819 
L 417.502393 295.095538 
L 418.59109 293.628129 
L 419.679787 291.689596 
L 420.768484 289.334726 
L 421.857181 286.688103 
L 422.945878 283.69757 
L 425.123272 276.368338 
L 428.389363 264.253303 
L 431.655455 250.79208 
L 431.655455 250.79208 
" clip-path="url(#p94d7c39a99)" style="fill: none; stroke: #000000; stroke-width: 4; stroke-linecap: square"/>
   </g>
   <g id="patch_3">
    <path d="M 46.42 327.592711 
L 46.42 17.64 
" style="fill: none; stroke: #000000; stroke-width: 0.8; stroke-linejoin: miter; stroke-linecap: square"/>
   </g>
   <g id="patch_4">
    <path d="M 46.42 327.592711 
L 450 327.592711 
" style="fill: none; stroke: #000000; stroke-width: 0.8; stroke-linejoin: miter; stroke-linecap: square"/>
   </g>
  </g>
 </g>
 <defs>
  <clipPath id="p94d7c39a99">
   <rect x="46.42" y="17.64" width="403.58" height="309.952711"/>
  </clipPath>
 </defs>
</svg>
