<?xml version="1.0" encoding="utf-8" standalone="no"?>
<!DOCTYPE svg PUBLIC "-//W3C//DTD SVG 1.1//EN"
  "http://www.w3.org/Graphics/SVG/1.1/DTD/svg11.dtd">
<svg xmlns:xlink="http://www.w3.org/1999/xlink" width="460.8pt" height="345.6pt" viewBox="0 0 460.8 345.6" xmlns="http://www.w3.org/2000/svg" version="1.1">
 <metadata>
  <rdf:RDF xmlns:dc="http://purl.org/dc/elements/1.1/" xmlns:cc="http://creativecommons.org/ns#" xmlns:rdf="http://www.w3.org/1999/02/22-rdf-syntax-ns#">
   <cc:Work>
    <dc:type rdf:resource="http://purl.org/dc/dcmitype/StillImage"/>
    <dc:date>2023-04-28T00:35:52.859766</dc:date>
    <dc:format>image/svg+xml</dc:format>
    <dc:creator>
     <cc:Agent>
      <dc:title>Matplotlib v3.7.1, https://matplotlib.org/</dc:title>
     </cc:Agent>
    </dc:creator>
   </cc:Work>
  </rdf:RDF>
 </metadata>
 <defs>
  <style type="text/css">*{stroke-linejoin: round; stroke-linecap: butt}</style>
 </defs>
 <g id="figure_1">
  <g id="patch_1">
   <path d="M 0 345.6 
L 460.8 345.6 
L 460.8 0 
L 0 0 
z
" style="fill: #ffffff"/>
  </g>
  <g id="axes_1">
   <g id="patch_2">
    <path d="M 46.42 334.8 
L 450 334.8 
L 450 10.8 
L 46.42 10.8 
z
" style="fill: #ffffff"/>
   </g>
   <g id="matplotlib.axis_1"/>
   <g id="matplotlib.axis_2">
    <g id="ytick_1">
     <g id="line2d_1">
      <defs>
       <path id="m2ca8d1b26b" d="M 0 0 
L -3.5 0 
" style="stroke: #000000; stroke-width: 0.8"/>
      </defs>
      <g>
       <use xlink:href="#m2ca8d1b26b" x="46.42" y="320.072727" style="stroke: #000000; stroke-width: 0.8"/>
      </g>
     </g>
     <g id="text_1">
      <!-- 0.0 -->
      <g transform="translate(10.794375 326.911321) scale(0.18 -0.18)">
       <defs>
        <path id="DejaVuSans-30" d="M 2034 4250 
Q 1547 4250 1301 3770 
Q 1056 3291 1056 2328 
Q 1056 1369 1301 889 
Q 1547 409 2034 409 
Q 2525 409 2770 889 
Q 3016 1369 3016 2328 
Q 3016 3291 2770 3770 
Q 2525 4250 2034 4250 
z
M 2034 4750 
Q 2819 4750 3233 4129 
Q 3647 3509 3647 2328 
Q 3647 1150 3233 529 
Q 2819 -91 2034 -91 
Q 1250 -91 836 529 
Q 422 1150 422 2328 
Q 422 3509 836 4129 
Q 1250 4750 2034 4750 
z
" transform="scale(0.015625)"/>
        <path id="DejaVuSans-2e" d="M 684 794 
L 1344 794 
L 1344 0 
L 684 0 
L 684 794 
z
" transform="scale(0.015625)"/>
       </defs>
       <use xlink:href="#DejaVuSans-30"/>
       <use xlink:href="#DejaVuSans-2e" x="63.623047"/>
       <use xlink:href="#DejaVuSans-30" x="95.410156"/>
      </g>
     </g>
    </g>
    <g id="ytick_2">
     <g id="line2d_2">
      <g>
       <use xlink:href="#m2ca8d1b26b" x="46.42" y="172.8" style="stroke: #000000; stroke-width: 0.8"/>
      </g>
     </g>
     <g id="text_2">
      <!-- 0.5 -->
      <g transform="translate(10.794375 179.638594) scale(0.18 -0.18)">
       <defs>
        <path id="DejaVuSans-35" d="M 691 4666 
L 3169 4666 
L 3169 4134 
L 1269 4134 
L 1269 2991 
Q 1406 3038 1543 3061 
Q 1681 3084 1819 3084 
Q 2600 3084 3056 2656 
Q 3513 2228 3513 1497 
Q 3513 744 3044 326 
Q 2575 -91 1722 -91 
Q 1428 -91 1123 -41 
Q 819 9 494 109 
L 494 744 
Q 775 591 1075 516 
Q 1375 441 1709 441 
Q 2250 441 2565 725 
Q 2881 1009 2881 1497 
Q 2881 1984 2565 2268 
Q 2250 2553 1709 2553 
Q 1456 2553 1204 2497 
Q 953 2441 691 2322 
L 691 4666 
z
" transform="scale(0.015625)"/>
       </defs>
       <use xlink:href="#DejaVuSans-30"/>
       <use xlink:href="#DejaVuSans-2e" x="63.623047"/>
       <use xlink:href="#DejaVuSans-35" x="95.410156"/>
      </g>
     </g>
    </g>
    <g id="ytick_3">
     <g id="line2d_3">
      <g>
       <use xlink:href="#m2ca8d1b26b" x="46.42" y="25.527273" style="stroke: #000000; stroke-width: 0.8"/>
      </g>
     </g>
     <g id="text_3">
      <!-- 1.0 -->
      <g transform="translate(10.794375 32.365866) scale(0.18 -0.18)">
       <defs>
        <path id="DejaVuSans-31" d="M 794 531 
L 1825 531 
L 1825 4091 
L 703 3866 
L 703 4441 
L 1819 4666 
L 2450 4666 
L 2450 531 
L 3481 531 
L 3481 0 
L 794 0 
L 794 531 
z
" transform="scale(0.015625)"/>
       </defs>
       <use xlink:href="#DejaVuSans-31"/>
       <use xlink:href="#DejaVuSans-2e" x="63.623047"/>
       <use xlink:href="#DejaVuSans-30" x="95.410156"/>
      </g>
     </g>
    </g>
   </g>
   <g id="line2d_4">
    <path d="M 64.764545 202.62966 
L 65.853243 199.970024 
L 66.94194 196.263684 
L 69.119334 178.039601 
L 71.296728 154.333483 
L 72.385425 139.751923 
L 75.651516 101.893181 
L 76.740213 90.889486 
L 77.82891 82.281485 
L 78.917607 74.689466 
L 81.095001 63.351289 
L 82.183698 58.68462 
L 83.272395 55.045906 
L 84.361093 51.874311 
L 85.44979 47.908454 
L 86.538487 44.490615 
L 87.627184 39.741923 
L 88.715881 35.883879 
L 89.804578 32.608439 
L 91.981972 26.862551 
L 93.070669 25.527273 
L 94.159366 26.453577 
L 95.248063 30.275438 
L 96.33676 34.891247 
L 97.425457 42.807811 
L 98.514154 52.747754 
L 99.602851 65.872967 
L 100.691548 80.868872 
L 103.95764 131.155404 
L 107.223731 177.361235 
L 108.312428 190.98459 
L 109.401125 202.363524 
L 111.578519 222.027898 
L 112.667216 230.131937 
L 113.755913 237.074321 
L 115.933307 248.932827 
L 117.022004 253.883188 
L 118.110701 258.074938 
L 119.199398 261.195816 
L 120.288095 265.404499 
L 121.376793 270.225791 
L 124.642884 295.738889 
L 125.731581 302.593889 
L 126.820278 310.798579 
L 127.908975 316.974489 
L 128.997672 320.072727 
L 130.086369 319.218825 
L 131.175066 314.515807 
L 132.263763 307.23341 
L 133.35246 297.770486 
L 134.441157 286.942593 
L 136.618551 257.830282 
L 138.795946 229.188866 
L 140.97334 204.17513 
L 142.062037 192.291743 
L 143.150734 182.082329 
L 144.239431 175.020035 
L 145.328128 168.850083 
L 147.505522 154.844879 
L 149.682916 138.252617 
L 151.86031 118.462111 
L 157.303796 50.048652 
L 158.392493 40.114555 
L 159.48119 31.763824 
L 160.569887 27.025736 
L 161.658584 25.527273 
L 162.747281 28.590229 
L 163.835978 34.503148 
L 164.924675 44.776467 
L 166.013372 56.116505 
L 167.102069 70.229031 
L 169.279463 103.61554 
L 171.456857 137.690255 
L 174.722948 190.439389 
L 176.900343 222.667473 
L 179.077737 251.345112 
L 180.166434 263.816341 
L 181.255131 274.937092 
L 182.343828 284.226854 
L 183.432525 292.341172 
L 185.609919 304.121955 
L 186.698616 308.264542 
L 187.787313 310.470059 
L 188.87601 313.655945 
L 189.964707 318.751055 
L 191.053404 320.072727 
L 192.142101 318.663836 
L 193.230798 315.481587 
L 194.319496 311.439341 
L 195.408193 305.158255 
L 196.49689 299.711956 
L 197.585587 288.928076 
L 199.762981 264.837629 
L 200.851678 255.115511 
L 201.940375 243.73174 
L 203.029072 233.795379 
L 204.117769 222.736715 
L 206.295163 203.899813 
L 207.38386 194.674331 
L 209.561254 171.325571 
L 211.738649 143.72354 
L 213.916043 107.850254 
L 216.093437 68.106108 
L 217.182134 50.98384 
L 218.270831 38.809158 
L 219.359528 29.222097 
L 220.448225 25.527273 
L 221.536922 25.867074 
L 222.625619 30.084865 
L 223.714316 37.117453 
L 224.803013 46.79658 
L 225.89171 58.158247 
L 226.980407 71.295452 
L 229.157801 102.93562 
L 232.423893 153.523559 
L 234.601287 184.106225 
L 236.778681 210.65962 
L 243.310863 281.621096 
L 245.488257 303.844378 
L 246.576954 312.039183 
L 247.665651 318.116817 
L 248.754349 320.072727 
L 249.843046 318.788187 
L 250.931743 313.14147 
L 252.02044 305.941182 
L 253.109137 294.738811 
L 258.552622 229.846603 
L 261.818713 197.354007 
L 263.996107 172.886798 
L 266.173501 147.021644 
L 267.262199 133.447376 
L 272.705684 56.149405 
L 274.883078 33.588185 
L 275.971775 27.501476 
L 277.060472 25.527273 
L 278.149169 28.176006 
L 279.237866 33.888783 
L 280.326563 42.212688 
L 281.41526 52.192449 
L 282.503957 63.922307 
L 284.681351 94.029531 
L 290.124837 172.199154 
L 295.568322 245.607014 
L 297.745716 274.155627 
L 298.834413 287.679706 
L 299.92311 298.629128 
L 301.011807 308.404983 
L 302.100504 314.660264 
L 303.189202 318.899402 
L 304.277899 320.072727 
L 305.366596 319.984735 
L 306.455293 315.638215 
L 309.721384 301.702965 
L 310.810081 297.879758 
L 311.898778 294.626927 
L 312.987475 290.494427 
L 314.076172 285.561324 
L 315.164869 278.627189 
L 316.253566 270.396907 
L 318.43096 246.632103 
L 322.785749 190.69485 
L 328.229234 104.994146 
L 330.406628 72.783416 
L 331.495325 57.765162 
L 332.584022 47.248777 
L 333.672719 38.869569 
L 334.761416 32.445008 
L 335.850113 27.08857 
L 336.93881 25.527273 
L 338.027507 191.341913 
L 339.116204 320.072727 
L 340.204902 319.402552 
L 342.382296 316.658501 
L 343.470993 316.257434 
L 344.55969 313.934186 
L 346.737084 302.086085 
L 347.825781 298.809778 
L 348.914478 292.21203 
L 350.003175 288.083408 
L 351.091872 282.266224 
L 352.180569 277.268535 
L 353.269266 268.699268 
L 354.357963 264.005036 
L 356.535357 245.602484 
L 358.712752 224.275663 
L 359.801449 212.597684 
L 361.978843 192.291769 
L 364.156237 166.07419 
L 366.333631 137.724454 
L 370.688419 79.867532 
L 371.777116 74.313182 
L 372.865813 67.067988 
L 375.043207 56.500952 
L 376.131905 52.747385 
L 378.309299 43.114607 
L 379.397996 41.124638 
L 380.486693 32.80988 
L 381.57539 28.753397 
L 382.664087 25.527273 
L 383.752784 32.401749 
L 384.841481 41.252536 
L 385.930178 60.698096 
L 387.018875 82.197812 
L 389.196269 140.542483 
L 390.284966 172.177138 
L 391.373663 199.256221 
L 393.551057 240.710849 
L 394.639755 258.339436 
L 395.728452 272.276842 
L 396.817149 279.862071 
L 397.905846 282.54884 
L 398.994543 285.718795 
L 402.260634 308.836389 
L 403.349331 314.971935 
L 404.438028 320.072727 
L 406.615422 319.336128 
L 407.704119 317.509188 
L 408.792816 314.67175 
L 412.058907 301.379659 
L 413.147605 296.064404 
L 414.236302 289.414479 
L 417.502393 266.733035 
L 419.679787 251.592181 
L 421.857181 234.555961 
L 424.034575 215.801195 
L 425.123272 205.264058 
L 427.300666 181.681001 
L 429.47806 155.468215 
L 431.655455 128.055545 
L 431.655455 128.055545 
" clip-path="url(#p2432978145)" style="fill: none; stroke: #000000; stroke-width: 4; stroke-linecap: square"/>
   </g>
   <g id="patch_3">
    <path d="M 46.42 334.8 
L 46.42 10.8 
" style="fill: none; stroke: #000000; stroke-width: 0.8; stroke-linejoin: miter; stroke-linecap: square"/>
   </g>
   <g id="patch_4">
    <path d="M 46.42 334.8 
L 450 334.8 
" style="fill: none; stroke: #000000; stroke-width: 0.8; stroke-linejoin: miter; stroke-linecap: square"/>
   </g>
  </g>
 </g>
 <defs>
  <clipPath id="p2432978145">
   <rect x="46.42" y="10.8" width="403.58" height="324"/>
  </clipPath>
 </defs>
</svg>
