<?xml version="1.0" encoding="utf-8" standalone="no"?>
<!DOCTYPE svg PUBLIC "-//W3C//DTD SVG 1.1//EN"
  "http://www.w3.org/Graphics/SVG/1.1/DTD/svg11.dtd">
<svg xmlns:xlink="http://www.w3.org/1999/xlink" width="460.8pt" height="345.6pt" viewBox="0 0 460.8 345.6" xmlns="http://www.w3.org/2000/svg" version="1.1">
 <metadata>
  <rdf:RDF xmlns:dc="http://purl.org/dc/elements/1.1/" xmlns:cc="http://creativecommons.org/ns#" xmlns:rdf="http://www.w3.org/1999/02/22-rdf-syntax-ns#">
   <cc:Work>
    <dc:type rdf:resource="http://purl.org/dc/dcmitype/StillImage"/>
    <dc:date>2023-04-28T00:25:21.834228</dc:date>
    <dc:format>image/svg+xml</dc:format>
    <dc:creator>
     <cc:Agent>
      <dc:title>Matplotlib v3.7.1, https://matplotlib.org/</dc:title>
     </cc:Agent>
    </dc:creator>
   </cc:Work>
  </rdf:RDF>
 </metadata>
 <defs>
  <style type="text/css">*{stroke-linejoin: round; stroke-linecap: butt}</style>
 </defs>
 <g id="figure_1">
  <g id="patch_1">
   <path d="M 0 345.6 
L 460.8 345.6 
L 460.8 0 
L 0 0 
z
" style="fill: #ffffff"/>
  </g>
  <g id="axes_1">
   <g id="patch_2">
    <path d="M 46.42 334.8 
L 450 334.8 
L 450 10.8 
L 46.42 10.8 
z
" style="fill: #ffffff"/>
   </g>
   <g id="matplotlib.axis_1"/>
   <g id="matplotlib.axis_2">
    <g id="ytick_1">
     <g id="line2d_1">
      <defs>
       <path id="mfed51889df" d="M 0 0 
L -3.5 0 
" style="stroke: #000000; stroke-width: 0.8"/>
      </defs>
      <g>
       <use xlink:href="#mfed51889df" x="46.42" y="320.072727" style="stroke: #000000; stroke-width: 0.8"/>
      </g>
     </g>
     <g id="text_1">
      <!-- 0.0 -->
      <g transform="translate(10.794375 326.911321) scale(0.18 -0.18)">
       <defs>
        <path id="DejaVuSans-30" d="M 2034 4250 
Q 1547 4250 1301 3770 
Q 1056 3291 1056 2328 
Q 1056 1369 1301 889 
Q 1547 409 2034 409 
Q 2525 409 2770 889 
Q 3016 1369 3016 2328 
Q 3016 3291 2770 3770 
Q 2525 4250 2034 4250 
z
M 2034 4750 
Q 2819 4750 3233 4129 
Q 3647 3509 3647 2328 
Q 3647 1150 3233 529 
Q 2819 -91 2034 -91 
Q 1250 -91 836 529 
Q 422 1150 422 2328 
Q 422 3509 836 4129 
Q 1250 4750 2034 4750 
z
" transform="scale(0.015625)"/>
        <path id="DejaVuSans-2e" d="M 684 794 
L 1344 794 
L 1344 0 
L 684 0 
L 684 794 
z
" transform="scale(0.015625)"/>
       </defs>
       <use xlink:href="#DejaVuSans-30"/>
       <use xlink:href="#DejaVuSans-2e" x="63.623047"/>
       <use xlink:href="#DejaVuSans-30" x="95.410156"/>
      </g>
     </g>
    </g>
    <g id="ytick_2">
     <g id="line2d_2">
      <g>
       <use xlink:href="#mfed51889df" x="46.42" y="172.8" style="stroke: #000000; stroke-width: 0.8"/>
      </g>
     </g>
     <g id="text_2">
      <!-- 0.5 -->
      <g transform="translate(10.794375 179.638594) scale(0.18 -0.18)">
       <defs>
        <path id="DejaVuSans-35" d="M 691 4666 
L 3169 4666 
L 3169 4134 
L 1269 4134 
L 1269 2991 
Q 1406 3038 1543 3061 
Q 1681 3084 1819 3084 
Q 2600 3084 3056 2656 
Q 3513 2228 3513 1497 
Q 3513 744 3044 326 
Q 2575 -91 1722 -91 
Q 1428 -91 1123 -41 
Q 819 9 494 109 
L 494 744 
Q 775 591 1075 516 
Q 1375 441 1709 441 
Q 2250 441 2565 725 
Q 2881 1009 2881 1497 
Q 2881 1984 2565 2268 
Q 2250 2553 1709 2553 
Q 1456 2553 1204 2497 
Q 953 2441 691 2322 
L 691 4666 
z
" transform="scale(0.015625)"/>
       </defs>
       <use xlink:href="#DejaVuSans-30"/>
       <use xlink:href="#DejaVuSans-2e" x="63.623047"/>
       <use xlink:href="#DejaVuSans-35" x="95.410156"/>
      </g>
     </g>
    </g>
    <g id="ytick_3">
     <g id="line2d_3">
      <g>
       <use xlink:href="#mfed51889df" x="46.42" y="25.527273" style="stroke: #000000; stroke-width: 0.8"/>
      </g>
     </g>
     <g id="text_3">
      <!-- 1.0 -->
      <g transform="translate(10.794375 32.365866) scale(0.18 -0.18)">
       <defs>
        <path id="DejaVuSans-31" d="M 794 531 
L 1825 531 
L 1825 4091 
L 703 3866 
L 703 4441 
L 1819 4666 
L 2450 4666 
L 2450 531 
L 3481 531 
L 3481 0 
L 794 0 
L 794 531 
z
" transform="scale(0.015625)"/>
       </defs>
       <use xlink:href="#DejaVuSans-31"/>
       <use xlink:href="#DejaVuSans-2e" x="63.623047"/>
       <use xlink:href="#DejaVuSans-30" x="95.410156"/>
      </g>
     </g>
    </g>
   </g>
   <g id="line2d_4">
    <path d="M 64.764545 63.049251 
L 65.853243 25.527273 
L 66.94194 25.830821 
L 68.030637 26.785584 
L 69.119334 28.290666 
L 70.208031 30.161989 
L 72.385425 34.612067 
L 75.651516 41.881419 
L 78.917607 49.559745 
L 81.095001 55.324366 
L 82.183698 58.605353 
L 84.361093 66.614544 
L 86.538487 75.636136 
L 88.715881 85.57434 
L 91.981972 101.772587 
L 94.159366 113.645862 
L 97.425457 132.661066 
L 105.046337 178.524172 
L 109.401125 203.32473 
L 112.667216 221.168246 
L 119.199398 256.250151 
L 122.46549 275.342748 
L 123.554187 282.142426 
L 125.731581 297.890255 
L 126.820278 305.800344 
L 127.908975 312.467599 
L 128.997672 317.332327 
L 130.086369 319.698772 
L 131.175066 320.072727 
L 132.263763 318.850126 
L 133.35246 315.451402 
L 134.441157 309.983712 
L 138.795946 283.47652 
L 142.062037 267.139928 
L 148.594219 236.108638 
L 155.126401 203.698697 
L 161.658584 169.601071 
L 171.456857 117.526344 
L 174.722948 99.295905 
L 176.900343 88.069491 
L 180.166434 72.527305 
L 185.609919 47.323444 
L 187.787313 37.393876 
L 188.87601 32.945502 
L 189.964707 29.171499 
L 191.053404 26.561443 
L 192.142101 25.527273 
L 193.230798 26.001591 
L 194.319496 28.096055 
L 195.408193 31.775675 
L 196.49689 36.898315 
L 197.585587 43.109937 
L 199.762981 57.726556 
L 204.117769 87.500931 
L 207.38386 108.507631 
L 209.561254 121.664516 
L 211.738649 133.796887 
L 219.359528 174.530399 
L 223.714316 198.268198 
L 226.980407 214.932599 
L 231.335196 236.305593 
L 234.601287 253.529205 
L 242.222166 294.645844 
L 244.39956 304.996972 
L 246.576954 314.237536 
L 247.665651 317.702689 
L 248.754349 319.651087 
L 249.843046 320.072727 
L 250.931743 319.02474 
L 252.02044 316.477929 
L 253.109137 312.322778 
L 254.197834 306.63614 
L 255.286531 299.672204 
L 262.90741 246.077706 
L 266.173501 225.741665 
L 271.616987 193.70016 
L 293.390928 60.037296 
L 296.657019 42.276365 
L 297.745716 36.820471 
L 298.834413 31.954801 
L 299.92311 28.145247 
L 301.011807 25.983525 
L 302.100504 25.527273 
L 303.189202 26.660952 
L 304.277899 29.260299 
L 305.366596 33.315413 
L 306.455293 38.814232 
L 308.632687 52.979058 
L 311.898778 75.071666 
L 316.253566 102.776788 
L 321.697052 137.102172 
L 331.495325 201.86734 
L 336.93881 238.648671 
L 345.648387 300.496427 
L 346.737084 307.356481 
L 347.825781 313.105825 
L 348.914478 317.026186 
L 350.003175 319.420873 
L 351.091872 320.072727 
L 352.180569 319.247459 
L 353.269266 316.684438 
L 354.357963 312.225001 
L 355.44666 306.575198 
L 358.712752 287.171305 
L 365.244934 246.823695 
L 375.043207 189.61154 
L 380.486693 155.172251 
L 390.284966 90.643031 
L 396.817149 46.653496 
L 397.905846 39.801913 
L 398.994543 33.907779 
L 400.08324 29.408456 
L 401.171937 26.644133 
L 402.260634 25.527273 
L 403.349331 26.139952 
L 404.438028 28.181501 
L 405.526725 31.620056 
L 406.615422 36.065762 
L 408.792816 47.07109 
L 412.058907 63.663018 
L 414.236302 75.079198 
L 418.59109 100.899706 
L 422.945878 128.216747 
L 426.211969 146.098202 
L 428.389363 156.966275 
L 431.655455 172.187988 
L 431.655455 172.187988 
" clip-path="url(#p3c977224da)" style="fill: none; stroke: #000000; stroke-width: 4; stroke-linecap: square"/>
   </g>
   <g id="patch_3">
    <path d="M 46.42 334.8 
L 46.42 10.8 
" style="fill: none; stroke: #000000; stroke-width: 0.8; stroke-linejoin: miter; stroke-linecap: square"/>
   </g>
   <g id="patch_4">
    <path d="M 46.42 334.8 
L 450 334.8 
" style="fill: none; stroke: #000000; stroke-width: 0.8; stroke-linejoin: miter; stroke-linecap: square"/>
   </g>
  </g>
 </g>
 <defs>
  <clipPath id="p3c977224da">
   <rect x="46.42" y="10.8" width="403.58" height="324"/>
  </clipPath>
 </defs>
</svg>
