<?xml version="1.0" encoding="utf-8" standalone="no"?>
<!DOCTYPE svg PUBLIC "-//W3C//DTD SVG 1.1//EN"
  "http://www.w3.org/Graphics/SVG/1.1/DTD/svg11.dtd">
<!-- Created with matplotlib (https://matplotlib.org/) -->
<svg height="288pt" version="1.1" viewBox="0 0 576 288" width="576pt" xmlns="http://www.w3.org/2000/svg" xmlns:xlink="http://www.w3.org/1999/xlink">
 <metadata>
  <rdf:RDF xmlns:cc="http://creativecommons.org/ns#" xmlns:dc="http://purl.org/dc/elements/1.1/" xmlns:rdf="http://www.w3.org/1999/02/22-rdf-syntax-ns#">
   <cc:Work>
    <dc:type rdf:resource="http://purl.org/dc/dcmitype/StillImage"/>
    <dc:date>2021-02-08T14:00:00.114165</dc:date>
    <dc:format>image/svg+xml</dc:format>
    <dc:creator>
     <cc:Agent>
      <dc:title>Matplotlib v3.3.3, https://matplotlib.org/</dc:title>
     </cc:Agent>
    </dc:creator>
   </cc:Work>
  </rdf:RDF>
 </metadata>
 <defs>
  <style type="text/css">*{stroke-linecap:butt;stroke-linejoin:round;}</style>
 </defs>
 <g id="figure_1">
  <g id="patch_1">
   <path d="M 0 288 
L 576 288 
L 576 0 
L 0 0 
z
" style="fill:#ffffff;"/>
  </g>
  <g id="axes_1">
   <g id="patch_2">
    <path d="M 57.6 227.52 
L 570.96 227.52 
L 570.96 39.024 
L 57.6 39.024 
z
" style="fill:#ffffff;"/>
   </g>
   <g id="matplotlib.axis_1">
    <g id="xtick_1">
     <g id="text_1">
      <!-- Song -->
      <g transform="translate(92.586469 244.397969)scale(0.13 -0.13)">
       <defs>
        <path d="M 53.515625 70.515625 
L 53.515625 60.890625 
Q 47.90625 63.578125 42.921875 64.890625 
Q 37.9375 66.21875 33.296875 66.21875 
Q 25.25 66.21875 20.875 63.09375 
Q 16.5 59.96875 16.5 54.203125 
Q 16.5 49.359375 19.40625 46.890625 
Q 22.3125 44.4375 30.421875 42.921875 
L 36.375 41.703125 
Q 47.40625 39.59375 52.65625 34.296875 
Q 57.90625 29 57.90625 20.125 
Q 57.90625 9.515625 50.796875 4.046875 
Q 43.703125 -1.421875 29.984375 -1.421875 
Q 24.8125 -1.421875 18.96875 -0.25 
Q 13.140625 0.921875 6.890625 3.21875 
L 6.890625 13.375 
Q 12.890625 10.015625 18.65625 8.296875 
Q 24.421875 6.59375 29.984375 6.59375 
Q 38.421875 6.59375 43.015625 9.90625 
Q 47.609375 13.234375 47.609375 19.390625 
Q 47.609375 24.75 44.3125 27.78125 
Q 41.015625 30.8125 33.5 32.328125 
L 27.484375 33.5 
Q 16.453125 35.6875 11.515625 40.375 
Q 6.59375 45.0625 6.59375 53.421875 
Q 6.59375 63.09375 13.40625 68.65625 
Q 20.21875 74.21875 32.171875 74.21875 
Q 37.3125 74.21875 42.625 73.28125 
Q 47.953125 72.359375 53.515625 70.515625 
z
" id="DejaVuSans-83"/>
        <path d="M 30.609375 48.390625 
Q 23.390625 48.390625 19.1875 42.75 
Q 14.984375 37.109375 14.984375 27.296875 
Q 14.984375 17.484375 19.15625 11.84375 
Q 23.34375 6.203125 30.609375 6.203125 
Q 37.796875 6.203125 41.984375 11.859375 
Q 46.1875 17.53125 46.1875 27.296875 
Q 46.1875 37.015625 41.984375 42.703125 
Q 37.796875 48.390625 30.609375 48.390625 
z
M 30.609375 56 
Q 42.328125 56 49.015625 48.375 
Q 55.71875 40.765625 55.71875 27.296875 
Q 55.71875 13.875 49.015625 6.21875 
Q 42.328125 -1.421875 30.609375 -1.421875 
Q 18.84375 -1.421875 12.171875 6.21875 
Q 5.515625 13.875 5.515625 27.296875 
Q 5.515625 40.765625 12.171875 48.375 
Q 18.84375 56 30.609375 56 
z
" id="DejaVuSans-111"/>
        <path d="M 54.890625 33.015625 
L 54.890625 0 
L 45.90625 0 
L 45.90625 32.71875 
Q 45.90625 40.484375 42.875 44.328125 
Q 39.84375 48.1875 33.796875 48.1875 
Q 26.515625 48.1875 22.3125 43.546875 
Q 18.109375 38.921875 18.109375 30.90625 
L 18.109375 0 
L 9.078125 0 
L 9.078125 54.6875 
L 18.109375 54.6875 
L 18.109375 46.1875 
Q 21.34375 51.125 25.703125 53.5625 
Q 30.078125 56 35.796875 56 
Q 45.21875 56 50.046875 50.171875 
Q 54.890625 44.34375 54.890625 33.015625 
z
" id="DejaVuSans-110"/>
        <path d="M 45.40625 27.984375 
Q 45.40625 37.75 41.375 43.109375 
Q 37.359375 48.484375 30.078125 48.484375 
Q 22.859375 48.484375 18.828125 43.109375 
Q 14.796875 37.75 14.796875 27.984375 
Q 14.796875 18.265625 18.828125 12.890625 
Q 22.859375 7.515625 30.078125 7.515625 
Q 37.359375 7.515625 41.375 12.890625 
Q 45.40625 18.265625 45.40625 27.984375 
z
M 54.390625 6.78125 
Q 54.390625 -7.171875 48.1875 -13.984375 
Q 42 -20.796875 29.203125 -20.796875 
Q 24.46875 -20.796875 20.265625 -20.09375 
Q 16.0625 -19.390625 12.109375 -17.921875 
L 12.109375 -9.1875 
Q 16.0625 -11.328125 19.921875 -12.34375 
Q 23.78125 -13.375 27.78125 -13.375 
Q 36.625 -13.375 41.015625 -8.765625 
Q 45.40625 -4.15625 45.40625 5.171875 
L 45.40625 9.625 
Q 42.625 4.78125 38.28125 2.390625 
Q 33.9375 0 27.875 0 
Q 17.828125 0 11.671875 7.65625 
Q 5.515625 15.328125 5.515625 27.984375 
Q 5.515625 40.671875 11.671875 48.328125 
Q 17.828125 56 27.875 56 
Q 33.9375 56 38.28125 53.609375 
Q 42.625 51.21875 45.40625 46.390625 
L 45.40625 54.6875 
L 54.390625 54.6875 
z
" id="DejaVuSans-103"/>
       </defs>
       <use xlink:href="#DejaVuSans-83"/>
       <use x="63.476562" xlink:href="#DejaVuSans-111"/>
       <use x="124.658203" xlink:href="#DejaVuSans-110"/>
       <use x="188.037109" xlink:href="#DejaVuSans-103"/>
      </g>
     </g>
    </g>
    <g id="xtick_2">
     <g id="text_2">
      <!-- Piano A -->
      <g transform="translate(187.437141 244.397969)scale(0.13 -0.13)">
       <defs>
        <path d="M 19.671875 64.796875 
L 19.671875 37.40625 
L 32.078125 37.40625 
Q 38.96875 37.40625 42.71875 40.96875 
Q 46.484375 44.53125 46.484375 51.125 
Q 46.484375 57.671875 42.71875 61.234375 
Q 38.96875 64.796875 32.078125 64.796875 
z
M 9.8125 72.90625 
L 32.078125 72.90625 
Q 44.34375 72.90625 50.609375 67.359375 
Q 56.890625 61.8125 56.890625 51.125 
Q 56.890625 40.328125 50.609375 34.8125 
Q 44.34375 29.296875 32.078125 29.296875 
L 19.671875 29.296875 
L 19.671875 0 
L 9.8125 0 
z
" id="DejaVuSans-80"/>
        <path d="M 9.421875 54.6875 
L 18.40625 54.6875 
L 18.40625 0 
L 9.421875 0 
z
M 9.421875 75.984375 
L 18.40625 75.984375 
L 18.40625 64.59375 
L 9.421875 64.59375 
z
" id="DejaVuSans-105"/>
        <path d="M 34.28125 27.484375 
Q 23.390625 27.484375 19.1875 25 
Q 14.984375 22.515625 14.984375 16.5 
Q 14.984375 11.71875 18.140625 8.90625 
Q 21.296875 6.109375 26.703125 6.109375 
Q 34.1875 6.109375 38.703125 11.40625 
Q 43.21875 16.703125 43.21875 25.484375 
L 43.21875 27.484375 
z
M 52.203125 31.203125 
L 52.203125 0 
L 43.21875 0 
L 43.21875 8.296875 
Q 40.140625 3.328125 35.546875 0.953125 
Q 30.953125 -1.421875 24.3125 -1.421875 
Q 15.921875 -1.421875 10.953125 3.296875 
Q 6 8.015625 6 15.921875 
Q 6 25.140625 12.171875 29.828125 
Q 18.359375 34.515625 30.609375 34.515625 
L 43.21875 34.515625 
L 43.21875 35.40625 
Q 43.21875 41.609375 39.140625 45 
Q 35.0625 48.390625 27.6875 48.390625 
Q 23 48.390625 18.546875 47.265625 
Q 14.109375 46.140625 10.015625 43.890625 
L 10.015625 52.203125 
Q 14.9375 54.109375 19.578125 55.046875 
Q 24.21875 56 28.609375 56 
Q 40.484375 56 46.34375 49.84375 
Q 52.203125 43.703125 52.203125 31.203125 
z
" id="DejaVuSans-97"/>
        <path id="DejaVuSans-32"/>
        <path d="M 34.1875 63.1875 
L 20.796875 26.90625 
L 47.609375 26.90625 
z
M 28.609375 72.90625 
L 39.796875 72.90625 
L 67.578125 0 
L 57.328125 0 
L 50.6875 18.703125 
L 17.828125 18.703125 
L 11.1875 0 
L 0.78125 0 
z
" id="DejaVuSans-65"/>
       </defs>
       <use xlink:href="#DejaVuSans-80"/>
       <use x="58.052734" xlink:href="#DejaVuSans-105"/>
       <use x="85.835938" xlink:href="#DejaVuSans-97"/>
       <use x="147.115234" xlink:href="#DejaVuSans-110"/>
       <use x="210.494141" xlink:href="#DejaVuSans-111"/>
       <use x="271.675781" xlink:href="#DejaVuSans-32"/>
       <use x="303.462891" xlink:href="#DejaVuSans-65"/>
      </g>
     </g>
    </g>
    <g id="xtick_3">
     <g id="text_3">
      <!-- Piano B -->
      <g transform="translate(290.095938 244.397969)scale(0.13 -0.13)">
       <defs>
        <path d="M 19.671875 34.8125 
L 19.671875 8.109375 
L 35.5 8.109375 
Q 43.453125 8.109375 47.28125 11.40625 
Q 51.125 14.703125 51.125 21.484375 
Q 51.125 28.328125 47.28125 31.5625 
Q 43.453125 34.8125 35.5 34.8125 
z
M 19.671875 64.796875 
L 19.671875 42.828125 
L 34.28125 42.828125 
Q 41.5 42.828125 45.03125 45.53125 
Q 48.578125 48.25 48.578125 53.8125 
Q 48.578125 59.328125 45.03125 62.0625 
Q 41.5 64.796875 34.28125 64.796875 
z
M 9.8125 72.90625 
L 35.015625 72.90625 
Q 46.296875 72.90625 52.390625 68.21875 
Q 58.5 63.53125 58.5 54.890625 
Q 58.5 48.1875 55.375 44.234375 
Q 52.25 40.28125 46.1875 39.3125 
Q 53.46875 37.75 57.5 32.78125 
Q 61.53125 27.828125 61.53125 20.40625 
Q 61.53125 10.640625 54.890625 5.3125 
Q 48.25 0 35.984375 0 
L 9.8125 0 
z
" id="DejaVuSans-66"/>
       </defs>
       <use xlink:href="#DejaVuSans-80"/>
       <use x="58.052734" xlink:href="#DejaVuSans-105"/>
       <use x="85.835938" xlink:href="#DejaVuSans-97"/>
       <use x="147.115234" xlink:href="#DejaVuSans-110"/>
       <use x="210.494141" xlink:href="#DejaVuSans-111"/>
       <use x="271.675781" xlink:href="#DejaVuSans-32"/>
       <use x="303.462891" xlink:href="#DejaVuSans-66"/>
      </g>
     </g>
    </g>
    <g id="xtick_4">
     <g id="text_4">
      <!-- EGtr -->
      <g transform="translate(402.588016 244.397969)scale(0.13 -0.13)">
       <defs>
        <path d="M 9.8125 72.90625 
L 55.90625 72.90625 
L 55.90625 64.59375 
L 19.671875 64.59375 
L 19.671875 43.015625 
L 54.390625 43.015625 
L 54.390625 34.71875 
L 19.671875 34.71875 
L 19.671875 8.296875 
L 56.78125 8.296875 
L 56.78125 0 
L 9.8125 0 
z
" id="DejaVuSans-69"/>
        <path d="M 59.515625 10.40625 
L 59.515625 29.984375 
L 43.40625 29.984375 
L 43.40625 38.09375 
L 69.28125 38.09375 
L 69.28125 6.78125 
Q 63.578125 2.734375 56.6875 0.65625 
Q 49.8125 -1.421875 42 -1.421875 
Q 24.90625 -1.421875 15.25 8.5625 
Q 5.609375 18.5625 5.609375 36.375 
Q 5.609375 54.25 15.25 64.234375 
Q 24.90625 74.21875 42 74.21875 
Q 49.125 74.21875 55.546875 72.453125 
Q 61.96875 70.703125 67.390625 67.28125 
L 67.390625 56.78125 
Q 61.921875 61.421875 55.765625 63.765625 
Q 49.609375 66.109375 42.828125 66.109375 
Q 29.4375 66.109375 22.71875 58.640625 
Q 16.015625 51.171875 16.015625 36.375 
Q 16.015625 21.625 22.71875 14.15625 
Q 29.4375 6.6875 42.828125 6.6875 
Q 48.046875 6.6875 52.140625 7.59375 
Q 56.25 8.5 59.515625 10.40625 
z
" id="DejaVuSans-71"/>
        <path d="M 18.3125 70.21875 
L 18.3125 54.6875 
L 36.8125 54.6875 
L 36.8125 47.703125 
L 18.3125 47.703125 
L 18.3125 18.015625 
Q 18.3125 11.328125 20.140625 9.421875 
Q 21.96875 7.515625 27.59375 7.515625 
L 36.8125 7.515625 
L 36.8125 0 
L 27.59375 0 
Q 17.1875 0 13.234375 3.875 
Q 9.28125 7.765625 9.28125 18.015625 
L 9.28125 47.703125 
L 2.6875 47.703125 
L 2.6875 54.6875 
L 9.28125 54.6875 
L 9.28125 70.21875 
z
" id="DejaVuSans-116"/>
        <path d="M 41.109375 46.296875 
Q 39.59375 47.171875 37.8125 47.578125 
Q 36.03125 48 33.890625 48 
Q 26.265625 48 22.1875 43.046875 
Q 18.109375 38.09375 18.109375 28.8125 
L 18.109375 0 
L 9.078125 0 
L 9.078125 54.6875 
L 18.109375 54.6875 
L 18.109375 46.1875 
Q 20.953125 51.171875 25.484375 53.578125 
Q 30.03125 56 36.53125 56 
Q 37.453125 56 38.578125 55.875 
Q 39.703125 55.765625 41.0625 55.515625 
z
" id="DejaVuSans-114"/>
       </defs>
       <use xlink:href="#DejaVuSans-69"/>
       <use x="63.183594" xlink:href="#DejaVuSans-71"/>
       <use x="140.673828" xlink:href="#DejaVuSans-116"/>
       <use x="179.882812" xlink:href="#DejaVuSans-114"/>
      </g>
     </g>
    </g>
    <g id="xtick_5">
     <g id="text_5">
      <!-- AcGtr -->
      <g transform="translate(501.460563 244.397969)scale(0.13 -0.13)">
       <defs>
        <path d="M 48.78125 52.59375 
L 48.78125 44.1875 
Q 44.96875 46.296875 41.140625 47.34375 
Q 37.3125 48.390625 33.40625 48.390625 
Q 24.65625 48.390625 19.8125 42.84375 
Q 14.984375 37.3125 14.984375 27.296875 
Q 14.984375 17.28125 19.8125 11.734375 
Q 24.65625 6.203125 33.40625 6.203125 
Q 37.3125 6.203125 41.140625 7.25 
Q 44.96875 8.296875 48.78125 10.40625 
L 48.78125 2.09375 
Q 45.015625 0.34375 40.984375 -0.53125 
Q 36.96875 -1.421875 32.421875 -1.421875 
Q 20.0625 -1.421875 12.78125 6.34375 
Q 5.515625 14.109375 5.515625 27.296875 
Q 5.515625 40.671875 12.859375 48.328125 
Q 20.21875 56 33.015625 56 
Q 37.15625 56 41.109375 55.140625 
Q 45.0625 54.296875 48.78125 52.59375 
z
" id="DejaVuSans-99"/>
       </defs>
       <use xlink:href="#DejaVuSans-65"/>
       <use x="66.658203" xlink:href="#DejaVuSans-99"/>
       <use x="121.638672" xlink:href="#DejaVuSans-71"/>
       <use x="199.128906" xlink:href="#DejaVuSans-116"/>
       <use x="238.337891" xlink:href="#DejaVuSans-114"/>
      </g>
     </g>
    </g>
   </g>
   <g id="matplotlib.axis_2">
    <g id="ytick_1">
     <g id="line2d_1">
      <path clip-path="url(#p0e90929b37)" d="M 57.6 225.672 
L 570.96 225.672 
" style="fill:none;stroke:#d3d3d3;stroke-linecap:square;"/>
     </g>
     <g id="text_6">
      <!-- 0 -->
      <g transform="translate(42.32875 230.610984)scale(0.13 -0.13)">
       <defs>
        <path d="M 31.78125 66.40625 
Q 24.171875 66.40625 20.328125 58.90625 
Q 16.5 51.421875 16.5 36.375 
Q 16.5 21.390625 20.328125 13.890625 
Q 24.171875 6.390625 31.78125 6.390625 
Q 39.453125 6.390625 43.28125 13.890625 
Q 47.125 21.390625 47.125 36.375 
Q 47.125 51.421875 43.28125 58.90625 
Q 39.453125 66.40625 31.78125 66.40625 
z
M 31.78125 74.21875 
Q 44.046875 74.21875 50.515625 64.515625 
Q 56.984375 54.828125 56.984375 36.375 
Q 56.984375 17.96875 50.515625 8.265625 
Q 44.046875 -1.421875 31.78125 -1.421875 
Q 19.53125 -1.421875 13.0625 8.265625 
Q 6.59375 17.96875 6.59375 36.375 
Q 6.59375 54.828125 13.0625 64.515625 
Q 19.53125 74.21875 31.78125 74.21875 
z
" id="DejaVuSans-48"/>
       </defs>
       <use xlink:href="#DejaVuSans-48"/>
      </g>
     </g>
    </g>
    <g id="ytick_2">
     <g id="line2d_2">
      <path clip-path="url(#p0e90929b37)" d="M 57.6 188.712 
L 570.96 188.712 
" style="fill:none;stroke:#d3d3d3;stroke-linecap:square;"/>
     </g>
     <g id="text_7">
      <!-- 20 -->
      <g transform="translate(34.0575 193.650984)scale(0.13 -0.13)">
       <defs>
        <path d="M 19.1875 8.296875 
L 53.609375 8.296875 
L 53.609375 0 
L 7.328125 0 
L 7.328125 8.296875 
Q 12.9375 14.109375 22.625 23.890625 
Q 32.328125 33.6875 34.8125 36.53125 
Q 39.546875 41.84375 41.421875 45.53125 
Q 43.3125 49.21875 43.3125 52.78125 
Q 43.3125 58.59375 39.234375 62.25 
Q 35.15625 65.921875 28.609375 65.921875 
Q 23.96875 65.921875 18.8125 64.3125 
Q 13.671875 62.703125 7.8125 59.421875 
L 7.8125 69.390625 
Q 13.765625 71.78125 18.9375 73 
Q 24.125 74.21875 28.421875 74.21875 
Q 39.75 74.21875 46.484375 68.546875 
Q 53.21875 62.890625 53.21875 53.421875 
Q 53.21875 48.921875 51.53125 44.890625 
Q 49.859375 40.875 45.40625 35.40625 
Q 44.1875 33.984375 37.640625 27.21875 
Q 31.109375 20.453125 19.1875 8.296875 
z
" id="DejaVuSans-50"/>
       </defs>
       <use xlink:href="#DejaVuSans-50"/>
       <use x="63.623047" xlink:href="#DejaVuSans-48"/>
      </g>
     </g>
    </g>
    <g id="ytick_3">
     <g id="line2d_3">
      <path clip-path="url(#p0e90929b37)" d="M 57.6 151.752 
L 570.96 151.752 
" style="fill:none;stroke:#d3d3d3;stroke-linecap:square;"/>
     </g>
     <g id="text_8">
      <!-- 40 -->
      <g transform="translate(34.0575 156.690984)scale(0.13 -0.13)">
       <defs>
        <path d="M 37.796875 64.3125 
L 12.890625 25.390625 
L 37.796875 25.390625 
z
M 35.203125 72.90625 
L 47.609375 72.90625 
L 47.609375 25.390625 
L 58.015625 25.390625 
L 58.015625 17.1875 
L 47.609375 17.1875 
L 47.609375 0 
L 37.796875 0 
L 37.796875 17.1875 
L 4.890625 17.1875 
L 4.890625 26.703125 
z
" id="DejaVuSans-52"/>
       </defs>
       <use xlink:href="#DejaVuSans-52"/>
       <use x="63.623047" xlink:href="#DejaVuSans-48"/>
      </g>
     </g>
    </g>
    <g id="ytick_4">
     <g id="line2d_4">
      <path clip-path="url(#p0e90929b37)" d="M 57.6 114.792 
L 570.96 114.792 
" style="fill:none;stroke:#d3d3d3;stroke-linecap:square;"/>
     </g>
     <g id="text_9">
      <!-- 60 -->
      <g transform="translate(34.0575 119.730984)scale(0.13 -0.13)">
       <defs>
        <path d="M 33.015625 40.375 
Q 26.375 40.375 22.484375 35.828125 
Q 18.609375 31.296875 18.609375 23.390625 
Q 18.609375 15.53125 22.484375 10.953125 
Q 26.375 6.390625 33.015625 6.390625 
Q 39.65625 6.390625 43.53125 10.953125 
Q 47.40625 15.53125 47.40625 23.390625 
Q 47.40625 31.296875 43.53125 35.828125 
Q 39.65625 40.375 33.015625 40.375 
z
M 52.59375 71.296875 
L 52.59375 62.3125 
Q 48.875 64.0625 45.09375 64.984375 
Q 41.3125 65.921875 37.59375 65.921875 
Q 27.828125 65.921875 22.671875 59.328125 
Q 17.53125 52.734375 16.796875 39.40625 
Q 19.671875 43.65625 24.015625 45.921875 
Q 28.375 48.1875 33.59375 48.1875 
Q 44.578125 48.1875 50.953125 41.515625 
Q 57.328125 34.859375 57.328125 23.390625 
Q 57.328125 12.15625 50.6875 5.359375 
Q 44.046875 -1.421875 33.015625 -1.421875 
Q 20.359375 -1.421875 13.671875 8.265625 
Q 6.984375 17.96875 6.984375 36.375 
Q 6.984375 53.65625 15.1875 63.9375 
Q 23.390625 74.21875 37.203125 74.21875 
Q 40.921875 74.21875 44.703125 73.484375 
Q 48.484375 72.75 52.59375 71.296875 
z
" id="DejaVuSans-54"/>
       </defs>
       <use xlink:href="#DejaVuSans-54"/>
       <use x="63.623047" xlink:href="#DejaVuSans-48"/>
      </g>
     </g>
    </g>
    <g id="ytick_5">
     <g id="line2d_5">
      <path clip-path="url(#p0e90929b37)" d="M 57.6 77.832 
L 570.96 77.832 
" style="fill:none;stroke:#d3d3d3;stroke-linecap:square;"/>
     </g>
     <g id="text_10">
      <!-- 80 -->
      <g transform="translate(34.0575 82.770984)scale(0.13 -0.13)">
       <defs>
        <path d="M 31.78125 34.625 
Q 24.75 34.625 20.71875 30.859375 
Q 16.703125 27.09375 16.703125 20.515625 
Q 16.703125 13.921875 20.71875 10.15625 
Q 24.75 6.390625 31.78125 6.390625 
Q 38.8125 6.390625 42.859375 10.171875 
Q 46.921875 13.96875 46.921875 20.515625 
Q 46.921875 27.09375 42.890625 30.859375 
Q 38.875 34.625 31.78125 34.625 
z
M 21.921875 38.8125 
Q 15.578125 40.375 12.03125 44.71875 
Q 8.5 49.078125 8.5 55.328125 
Q 8.5 64.0625 14.71875 69.140625 
Q 20.953125 74.21875 31.78125 74.21875 
Q 42.671875 74.21875 48.875 69.140625 
Q 55.078125 64.0625 55.078125 55.328125 
Q 55.078125 49.078125 51.53125 44.71875 
Q 48 40.375 41.703125 38.8125 
Q 48.828125 37.15625 52.796875 32.3125 
Q 56.78125 27.484375 56.78125 20.515625 
Q 56.78125 9.90625 50.3125 4.234375 
Q 43.84375 -1.421875 31.78125 -1.421875 
Q 19.734375 -1.421875 13.25 4.234375 
Q 6.78125 9.90625 6.78125 20.515625 
Q 6.78125 27.484375 10.78125 32.3125 
Q 14.796875 37.15625 21.921875 38.8125 
z
M 18.3125 54.390625 
Q 18.3125 48.734375 21.84375 45.5625 
Q 25.390625 42.390625 31.78125 42.390625 
Q 38.140625 42.390625 41.71875 45.5625 
Q 45.3125 48.734375 45.3125 54.390625 
Q 45.3125 60.0625 41.71875 63.234375 
Q 38.140625 66.40625 31.78125 66.40625 
Q 25.390625 66.40625 21.84375 63.234375 
Q 18.3125 60.0625 18.3125 54.390625 
z
" id="DejaVuSans-56"/>
       </defs>
       <use xlink:href="#DejaVuSans-56"/>
       <use x="63.623047" xlink:href="#DejaVuSans-48"/>
      </g>
     </g>
    </g>
    <g id="ytick_6">
     <g id="line2d_6">
      <path clip-path="url(#p0e90929b37)" d="M 57.6 40.872 
L 570.96 40.872 
" style="fill:none;stroke:#d3d3d3;stroke-linecap:square;"/>
     </g>
     <g id="text_11">
      <!-- 100 -->
      <g transform="translate(25.78625 45.810984)scale(0.13 -0.13)">
       <defs>
        <path d="M 12.40625 8.296875 
L 28.515625 8.296875 
L 28.515625 63.921875 
L 10.984375 60.40625 
L 10.984375 69.390625 
L 28.421875 72.90625 
L 38.28125 72.90625 
L 38.28125 8.296875 
L 54.390625 8.296875 
L 54.390625 0 
L 12.40625 0 
z
" id="DejaVuSans-49"/>
       </defs>
       <use xlink:href="#DejaVuSans-49"/>
       <use x="63.623047" xlink:href="#DejaVuSans-48"/>
       <use x="127.246094" xlink:href="#DejaVuSans-48"/>
      </g>
     </g>
    </g>
    <g id="text_12">
     <!-- Rating -->
     <g transform="translate(19.082656 154.225359)rotate(-90)scale(0.13 -0.13)">
      <defs>
       <path d="M 44.390625 34.1875 
Q 47.5625 33.109375 50.5625 29.59375 
Q 53.5625 26.078125 56.59375 19.921875 
L 66.609375 0 
L 56 0 
L 46.6875 18.703125 
Q 43.0625 26.03125 39.671875 28.421875 
Q 36.28125 30.8125 30.421875 30.8125 
L 19.671875 30.8125 
L 19.671875 0 
L 9.8125 0 
L 9.8125 72.90625 
L 32.078125 72.90625 
Q 44.578125 72.90625 50.734375 67.671875 
Q 56.890625 62.453125 56.890625 51.90625 
Q 56.890625 45.015625 53.6875 40.46875 
Q 50.484375 35.9375 44.390625 34.1875 
z
M 19.671875 64.796875 
L 19.671875 38.921875 
L 32.078125 38.921875 
Q 39.203125 38.921875 42.84375 42.21875 
Q 46.484375 45.515625 46.484375 51.90625 
Q 46.484375 58.296875 42.84375 61.546875 
Q 39.203125 64.796875 32.078125 64.796875 
z
" id="DejaVuSans-82"/>
      </defs>
      <use xlink:href="#DejaVuSans-82"/>
      <use x="67.232422" xlink:href="#DejaVuSans-97"/>
      <use x="128.511719" xlink:href="#DejaVuSans-116"/>
      <use x="167.720703" xlink:href="#DejaVuSans-105"/>
      <use x="195.503906" xlink:href="#DejaVuSans-110"/>
      <use x="258.882812" xlink:href="#DejaVuSans-103"/>
     </g>
    </g>
   </g>
   <g id="line2d_7">
    <path clip-path="url(#p0e90929b37)" d="M 78.1344 75.984 
L 78.1344 109.248 
" style="fill:none;stroke:#000000;stroke-linecap:square;"/>
   </g>
   <g id="line2d_8">
    <path clip-path="url(#p0e90929b37)" d="M 78.1344 40.872 
L 78.1344 40.872 
" style="fill:none;stroke:#000000;stroke-linecap:square;"/>
   </g>
   <g id="line2d_9">
    <path clip-path="url(#p0e90929b37)" d="M 75.82428 109.248 
L 80.44452 109.248 
" style="fill:none;stroke:#000000;stroke-linecap:square;"/>
   </g>
   <g id="line2d_10">
    <path clip-path="url(#p0e90929b37)" d="M 75.82428 40.872 
L 80.44452 40.872 
" style="fill:none;stroke:#000000;stroke-linecap:square;"/>
   </g>
   <g id="line2d_11"/>
   <g id="line2d_12">
    <path clip-path="url(#p0e90929b37)" d="M 98.6688 109.71 
L 98.6688 131.424 
" style="fill:none;stroke:#000000;stroke-linecap:square;"/>
   </g>
   <g id="line2d_13">
    <path clip-path="url(#p0e90929b37)" d="M 98.6688 68.13 
L 98.6688 40.872 
" style="fill:none;stroke:#000000;stroke-linecap:square;"/>
   </g>
   <g id="line2d_14">
    <path clip-path="url(#p0e90929b37)" d="M 96.35868 131.424 
L 100.97892 131.424 
" style="fill:none;stroke:#000000;stroke-linecap:square;"/>
   </g>
   <g id="line2d_15">
    <path clip-path="url(#p0e90929b37)" d="M 96.35868 40.872 
L 100.97892 40.872 
" style="fill:none;stroke:#000000;stroke-linecap:square;"/>
   </g>
   <g id="line2d_16">
    <defs>
     <path d="M 0 3 
C 0.795609 3 1.55874 2.683901 2.12132 2.12132 
C 2.683901 1.55874 3 0.795609 3 0 
C 3 -0.795609 2.683901 -1.55874 2.12132 -2.12132 
C 1.55874 -2.683901 0.795609 -3 0 -3 
C -0.795609 -3 -1.55874 -2.683901 -2.12132 -2.12132 
C -2.683901 -1.55874 -3 -0.795609 -3 0 
C -3 0.795609 -2.683901 1.55874 -2.12132 2.12132 
C -1.55874 2.683901 -0.795609 3 0 3 
z
" id="m8e8383333a" style="stroke:#000000;"/>
    </defs>
    <g clip-path="url(#p0e90929b37)">
     <use style="fill-opacity:0;stroke:#000000;" x="98.6688" xlink:href="#m8e8383333a" y="197.952"/>
    </g>
   </g>
   <g id="line2d_17">
    <path clip-path="url(#p0e90929b37)" d="M 119.2032 132.81 
L 119.2032 181.32 
" style="fill:none;stroke:#000000;stroke-linecap:square;"/>
   </g>
   <g id="line2d_18">
    <path clip-path="url(#p0e90929b37)" d="M 119.2032 95.85 
L 119.2032 40.872 
" style="fill:none;stroke:#000000;stroke-linecap:square;"/>
   </g>
   <g id="line2d_19">
    <path clip-path="url(#p0e90929b37)" d="M 116.89308 181.32 
L 121.51332 181.32 
" style="fill:none;stroke:#000000;stroke-linecap:square;"/>
   </g>
   <g id="line2d_20">
    <path clip-path="url(#p0e90929b37)" d="M 116.89308 40.872 
L 121.51332 40.872 
" style="fill:none;stroke:#000000;stroke-linecap:square;"/>
   </g>
   <g id="line2d_21"/>
   <g id="line2d_22">
    <path clip-path="url(#p0e90929b37)" d="M 139.7376 225.672 
L 139.7376 225.672 
" style="fill:none;stroke:#000000;stroke-linecap:square;"/>
   </g>
   <g id="line2d_23">
    <path clip-path="url(#p0e90929b37)" d="M 139.7376 197.028 
L 139.7376 170.232 
" style="fill:none;stroke:#000000;stroke-linecap:square;"/>
   </g>
   <g id="line2d_24">
    <path clip-path="url(#p0e90929b37)" d="M 137.42748 225.672 
L 142.04772 225.672 
" style="fill:none;stroke:#000000;stroke-linecap:square;"/>
   </g>
   <g id="line2d_25">
    <path clip-path="url(#p0e90929b37)" d="M 137.42748 170.232 
L 142.04772 170.232 
" style="fill:none;stroke:#000000;stroke-linecap:square;"/>
   </g>
   <g id="line2d_26"/>
   <g id="line2d_27">
    <path clip-path="url(#p0e90929b37)" d="M 160.272 227.52 
L 160.272 39.024 
" style="fill:none;stroke:#808080;stroke-dasharray:3.7,1.6;stroke-dashoffset:0;"/>
   </g>
   <g id="line2d_28">
    <path clip-path="url(#p0e90929b37)" d="M 180.8064 70.44 
L 180.8064 105.552 
" style="fill:none;stroke:#000000;stroke-linecap:square;"/>
   </g>
   <g id="line2d_29">
    <path clip-path="url(#p0e90929b37)" d="M 180.8064 40.872 
L 180.8064 40.872 
" style="fill:none;stroke:#000000;stroke-linecap:square;"/>
   </g>
   <g id="line2d_30">
    <path clip-path="url(#p0e90929b37)" d="M 178.49628 105.552 
L 183.11652 105.552 
" style="fill:none;stroke:#000000;stroke-linecap:square;"/>
   </g>
   <g id="line2d_31">
    <path clip-path="url(#p0e90929b37)" d="M 178.49628 40.872 
L 183.11652 40.872 
" style="fill:none;stroke:#000000;stroke-linecap:square;"/>
   </g>
   <g id="line2d_32">
    <g clip-path="url(#p0e90929b37)">
     <use style="fill-opacity:0;stroke:#000000;" x="180.8064" xlink:href="#m8e8383333a" y="124.032"/>
    </g>
   </g>
   <g id="line2d_33">
    <path clip-path="url(#p0e90929b37)" d="M 201.3408 116.178 
L 201.3408 148.056 
" style="fill:none;stroke:#000000;stroke-linecap:square;"/>
   </g>
   <g id="line2d_34">
    <path clip-path="url(#p0e90929b37)" d="M 201.3408 62.586 
L 201.3408 40.872 
" style="fill:none;stroke:#000000;stroke-linecap:square;"/>
   </g>
   <g id="line2d_35">
    <path clip-path="url(#p0e90929b37)" d="M 199.03068 148.056 
L 203.65092 148.056 
" style="fill:none;stroke:#000000;stroke-linecap:square;"/>
   </g>
   <g id="line2d_36">
    <path clip-path="url(#p0e90929b37)" d="M 199.03068 40.872 
L 203.65092 40.872 
" style="fill:none;stroke:#000000;stroke-linecap:square;"/>
   </g>
   <g id="line2d_37"/>
   <g id="line2d_38">
    <path clip-path="url(#p0e90929b37)" d="M 221.8752 81.066 
L 221.8752 105.552 
" style="fill:none;stroke:#000000;stroke-linecap:square;"/>
   </g>
   <g id="line2d_39">
    <path clip-path="url(#p0e90929b37)" d="M 221.8752 44.106 
L 221.8752 40.872 
" style="fill:none;stroke:#000000;stroke-linecap:square;"/>
   </g>
   <g id="line2d_40">
    <path clip-path="url(#p0e90929b37)" d="M 219.56508 105.552 
L 224.18532 105.552 
" style="fill:none;stroke:#000000;stroke-linecap:square;"/>
   </g>
   <g id="line2d_41">
    <path clip-path="url(#p0e90929b37)" d="M 219.56508 40.872 
L 224.18532 40.872 
" style="fill:none;stroke:#000000;stroke-linecap:square;"/>
   </g>
   <g id="line2d_42">
    <g clip-path="url(#p0e90929b37)">
     <use style="fill-opacity:0;stroke:#000000;" x="221.8752" xlink:href="#m8e8383333a" y="140.664"/>
    </g>
   </g>
   <g id="line2d_43">
    <path clip-path="url(#p0e90929b37)" d="M 242.4096 225.672 
L 242.4096 225.672 
" style="fill:none;stroke:#000000;stroke-linecap:square;"/>
   </g>
   <g id="line2d_44">
    <path clip-path="url(#p0e90929b37)" d="M 242.4096 207.192 
L 242.4096 199.8 
" style="fill:none;stroke:#000000;stroke-linecap:square;"/>
   </g>
   <g id="line2d_45">
    <path clip-path="url(#p0e90929b37)" d="M 240.09948 225.672 
L 244.71972 225.672 
" style="fill:none;stroke:#000000;stroke-linecap:square;"/>
   </g>
   <g id="line2d_46">
    <path clip-path="url(#p0e90929b37)" d="M 240.09948 199.8 
L 244.71972 199.8 
" style="fill:none;stroke:#000000;stroke-linecap:square;"/>
   </g>
   <g id="line2d_47">
    <g clip-path="url(#p0e90929b37)">
     <use style="fill-opacity:0;stroke:#000000;" x="242.4096" xlink:href="#m8e8383333a" y="172.08"/>
     <use style="fill-opacity:0;stroke:#000000;" x="242.4096" xlink:href="#m8e8383333a" y="177.624"/>
    </g>
   </g>
   <g id="line2d_48">
    <path clip-path="url(#p0e90929b37)" d="M 262.944 227.52 
L 262.944 39.024 
" style="fill:none;stroke:#808080;stroke-dasharray:3.7,1.6;stroke-dashoffset:0;"/>
   </g>
   <g id="line2d_49">
    <path clip-path="url(#p0e90929b37)" d="M 283.4784 65.82 
L 283.4784 81.528 
" style="fill:none;stroke:#000000;stroke-linecap:square;"/>
   </g>
   <g id="line2d_50">
    <path clip-path="url(#p0e90929b37)" d="M 283.4784 40.872 
L 283.4784 40.872 
" style="fill:none;stroke:#000000;stroke-linecap:square;"/>
   </g>
   <g id="line2d_51">
    <path clip-path="url(#p0e90929b37)" d="M 281.16828 81.528 
L 285.78852 81.528 
" style="fill:none;stroke:#000000;stroke-linecap:square;"/>
   </g>
   <g id="line2d_52">
    <path clip-path="url(#p0e90929b37)" d="M 281.16828 40.872 
L 285.78852 40.872 
" style="fill:none;stroke:#000000;stroke-linecap:square;"/>
   </g>
   <g id="line2d_53">
    <g clip-path="url(#p0e90929b37)">
     <use style="fill-opacity:0;stroke:#000000;" x="283.4784" xlink:href="#m8e8383333a" y="116.64"/>
     <use style="fill-opacity:0;stroke:#000000;" x="283.4784" xlink:href="#m8e8383333a" y="105.552"/>
    </g>
   </g>
   <g id="line2d_54">
    <path clip-path="url(#p0e90929b37)" d="M 304.0128 85.686 
L 304.0128 148.056 
" style="fill:none;stroke:#000000;stroke-linecap:square;"/>
   </g>
   <g id="line2d_55">
    <path clip-path="url(#p0e90929b37)" d="M 304.0128 40.872 
L 304.0128 40.872 
" style="fill:none;stroke:#000000;stroke-linecap:square;"/>
   </g>
   <g id="line2d_56">
    <path clip-path="url(#p0e90929b37)" d="M 301.70268 148.056 
L 306.32292 148.056 
" style="fill:none;stroke:#000000;stroke-linecap:square;"/>
   </g>
   <g id="line2d_57">
    <path clip-path="url(#p0e90929b37)" d="M 301.70268 40.872 
L 306.32292 40.872 
" style="fill:none;stroke:#000000;stroke-linecap:square;"/>
   </g>
   <g id="line2d_58">
    <g clip-path="url(#p0e90929b37)">
     <use style="fill-opacity:0;stroke:#000000;" x="304.0128" xlink:href="#m8e8383333a" y="164.688"/>
    </g>
   </g>
   <g id="line2d_59">
    <path clip-path="url(#p0e90929b37)" d="M 324.5472 97.236 
L 324.5472 149.904 
" style="fill:none;stroke:#000000;stroke-linecap:square;"/>
   </g>
   <g id="line2d_60">
    <path clip-path="url(#p0e90929b37)" d="M 324.5472 40.872 
L 324.5472 40.872 
" style="fill:none;stroke:#000000;stroke-linecap:square;"/>
   </g>
   <g id="line2d_61">
    <path clip-path="url(#p0e90929b37)" d="M 322.23708 149.904 
L 326.85732 149.904 
" style="fill:none;stroke:#000000;stroke-linecap:square;"/>
   </g>
   <g id="line2d_62">
    <path clip-path="url(#p0e90929b37)" d="M 322.23708 40.872 
L 326.85732 40.872 
" style="fill:none;stroke:#000000;stroke-linecap:square;"/>
   </g>
   <g id="line2d_63"/>
   <g id="line2d_64">
    <path clip-path="url(#p0e90929b37)" d="M 345.0816 225.672 
L 345.0816 225.672 
" style="fill:none;stroke:#000000;stroke-linecap:square;"/>
   </g>
   <g id="line2d_65">
    <path clip-path="url(#p0e90929b37)" d="M 345.0816 187.326 
L 345.0816 148.056 
" style="fill:none;stroke:#000000;stroke-linecap:square;"/>
   </g>
   <g id="line2d_66">
    <path clip-path="url(#p0e90929b37)" d="M 342.77148 225.672 
L 347.39172 225.672 
" style="fill:none;stroke:#000000;stroke-linecap:square;"/>
   </g>
   <g id="line2d_67">
    <path clip-path="url(#p0e90929b37)" d="M 342.77148 148.056 
L 347.39172 148.056 
" style="fill:none;stroke:#000000;stroke-linecap:square;"/>
   </g>
   <g id="line2d_68"/>
   <g id="line2d_69">
    <path clip-path="url(#p0e90929b37)" d="M 365.616 227.52 
L 365.616 39.024 
" style="fill:none;stroke:#808080;stroke-dasharray:3.7,1.6;stroke-dashoffset:0;"/>
   </g>
   <g id="line2d_70">
    <path clip-path="url(#p0e90929b37)" d="M 386.1504 77.37 
L 386.1504 100.008 
" style="fill:none;stroke:#000000;stroke-linecap:square;"/>
   </g>
   <g id="line2d_71">
    <path clip-path="url(#p0e90929b37)" d="M 386.1504 40.872 
L 386.1504 40.872 
" style="fill:none;stroke:#000000;stroke-linecap:square;"/>
   </g>
   <g id="line2d_72">
    <path clip-path="url(#p0e90929b37)" d="M 383.84028 100.008 
L 388.46052 100.008 
" style="fill:none;stroke:#000000;stroke-linecap:square;"/>
   </g>
   <g id="line2d_73">
    <path clip-path="url(#p0e90929b37)" d="M 383.84028 40.872 
L 388.46052 40.872 
" style="fill:none;stroke:#000000;stroke-linecap:square;"/>
   </g>
   <g id="line2d_74"/>
   <g id="line2d_75">
    <path clip-path="url(#p0e90929b37)" d="M 406.6848 105.552 
L 406.6848 125.88 
" style="fill:none;stroke:#000000;stroke-linecap:square;"/>
   </g>
   <g id="line2d_76">
    <path clip-path="url(#p0e90929b37)" d="M 406.6848 68.592 
L 406.6848 40.872 
" style="fill:none;stroke:#000000;stroke-linecap:square;"/>
   </g>
   <g id="line2d_77">
    <path clip-path="url(#p0e90929b37)" d="M 404.37468 125.88 
L 408.99492 125.88 
" style="fill:none;stroke:#000000;stroke-linecap:square;"/>
   </g>
   <g id="line2d_78">
    <path clip-path="url(#p0e90929b37)" d="M 404.37468 40.872 
L 408.99492 40.872 
" style="fill:none;stroke:#000000;stroke-linecap:square;"/>
   </g>
   <g id="line2d_79">
    <g clip-path="url(#p0e90929b37)">
     <use style="fill-opacity:0;stroke:#000000;" x="406.6848" xlink:href="#m8e8383333a" y="201.648"/>
    </g>
   </g>
   <g id="line2d_80">
    <path clip-path="url(#p0e90929b37)" d="M 427.2192 103.242 
L 427.2192 129.576 
" style="fill:none;stroke:#000000;stroke-linecap:square;"/>
   </g>
   <g id="line2d_81">
    <path clip-path="url(#p0e90929b37)" d="M 427.2192 59.814 
L 427.2192 40.872 
" style="fill:none;stroke:#000000;stroke-linecap:square;"/>
   </g>
   <g id="line2d_82">
    <path clip-path="url(#p0e90929b37)" d="M 424.90908 129.576 
L 429.52932 129.576 
" style="fill:none;stroke:#000000;stroke-linecap:square;"/>
   </g>
   <g id="line2d_83">
    <path clip-path="url(#p0e90929b37)" d="M 424.90908 40.872 
L 429.52932 40.872 
" style="fill:none;stroke:#000000;stroke-linecap:square;"/>
   </g>
   <g id="line2d_84"/>
   <g id="line2d_85">
    <path clip-path="url(#p0e90929b37)" d="M 447.7536 220.59 
L 447.7536 225.672 
" style="fill:none;stroke:#000000;stroke-linecap:square;"/>
   </g>
   <g id="line2d_86">
    <path clip-path="url(#p0e90929b37)" d="M 447.7536 173.466 
L 447.7536 135.12 
" style="fill:none;stroke:#000000;stroke-linecap:square;"/>
   </g>
   <g id="line2d_87">
    <path clip-path="url(#p0e90929b37)" d="M 445.44348 225.672 
L 450.06372 225.672 
" style="fill:none;stroke:#000000;stroke-linecap:square;"/>
   </g>
   <g id="line2d_88">
    <path clip-path="url(#p0e90929b37)" d="M 445.44348 135.12 
L 450.06372 135.12 
" style="fill:none;stroke:#000000;stroke-linecap:square;"/>
   </g>
   <g id="line2d_89">
    <g clip-path="url(#p0e90929b37)">
     <use style="fill-opacity:0;stroke:#000000;" x="447.7536" xlink:href="#m8e8383333a" y="64.896"/>
     <use style="fill-opacity:0;stroke:#000000;" x="447.7536" xlink:href="#m8e8383333a" y="40.872"/>
     <use style="fill-opacity:0;stroke:#000000;" x="447.7536" xlink:href="#m8e8383333a" y="40.872"/>
    </g>
   </g>
   <g id="line2d_90">
    <path clip-path="url(#p0e90929b37)" d="M 468.288 227.52 
L 468.288 39.024 
" style="fill:none;stroke:#808080;stroke-dasharray:3.7,1.6;stroke-dashoffset:0;"/>
   </g>
   <g id="line2d_91">
    <path clip-path="url(#p0e90929b37)" d="M 488.8224 66.282 
L 488.8224 85.224 
" style="fill:none;stroke:#000000;stroke-linecap:square;"/>
   </g>
   <g id="line2d_92">
    <path clip-path="url(#p0e90929b37)" d="M 488.8224 40.872 
L 488.8224 40.872 
" style="fill:none;stroke:#000000;stroke-linecap:square;"/>
   </g>
   <g id="line2d_93">
    <path clip-path="url(#p0e90929b37)" d="M 486.51228 85.224 
L 491.13252 85.224 
" style="fill:none;stroke:#000000;stroke-linecap:square;"/>
   </g>
   <g id="line2d_94">
    <path clip-path="url(#p0e90929b37)" d="M 486.51228 40.872 
L 491.13252 40.872 
" style="fill:none;stroke:#000000;stroke-linecap:square;"/>
   </g>
   <g id="line2d_95">
    <g clip-path="url(#p0e90929b37)">
     <use style="fill-opacity:0;stroke:#000000;" x="488.8224" xlink:href="#m8e8383333a" y="133.272"/>
     <use style="fill-opacity:0;stroke:#000000;" x="488.8224" xlink:href="#m8e8383333a" y="120.336"/>
    </g>
   </g>
   <g id="line2d_96">
    <path clip-path="url(#p0e90929b37)" d="M 509.3568 92.616 
L 509.3568 146.208 
" style="fill:none;stroke:#000000;stroke-linecap:square;"/>
   </g>
   <g id="line2d_97">
    <path clip-path="url(#p0e90929b37)" d="M 509.3568 40.872 
L 509.3568 40.872 
" style="fill:none;stroke:#000000;stroke-linecap:square;"/>
   </g>
   <g id="line2d_98">
    <path clip-path="url(#p0e90929b37)" d="M 507.04668 146.208 
L 511.66692 146.208 
" style="fill:none;stroke:#000000;stroke-linecap:square;"/>
   </g>
   <g id="line2d_99">
    <path clip-path="url(#p0e90929b37)" d="M 507.04668 40.872 
L 511.66692 40.872 
" style="fill:none;stroke:#000000;stroke-linecap:square;"/>
   </g>
   <g id="line2d_100"/>
   <g id="line2d_101">
    <path clip-path="url(#p0e90929b37)" d="M 529.8912 114.33 
L 529.8912 197.952 
" style="fill:none;stroke:#000000;stroke-linecap:square;"/>
   </g>
   <g id="line2d_102">
    <path clip-path="url(#p0e90929b37)" d="M 529.8912 47.802 
L 529.8912 40.872 
" style="fill:none;stroke:#000000;stroke-linecap:square;"/>
   </g>
   <g id="line2d_103">
    <path clip-path="url(#p0e90929b37)" d="M 527.58108 197.952 
L 532.20132 197.952 
" style="fill:none;stroke:#000000;stroke-linecap:square;"/>
   </g>
   <g id="line2d_104">
    <path clip-path="url(#p0e90929b37)" d="M 527.58108 40.872 
L 532.20132 40.872 
" style="fill:none;stroke:#000000;stroke-linecap:square;"/>
   </g>
   <g id="line2d_105"/>
   <g id="line2d_106">
    <path clip-path="url(#p0e90929b37)" d="M 550.4256 203.958 
L 550.4256 225.672 
" style="fill:none;stroke:#000000;stroke-linecap:square;"/>
   </g>
   <g id="line2d_107">
    <path clip-path="url(#p0e90929b37)" d="M 550.4256 97.236 
L 550.4256 40.872 
" style="fill:none;stroke:#000000;stroke-linecap:square;"/>
   </g>
   <g id="line2d_108">
    <path clip-path="url(#p0e90929b37)" d="M 548.11548 225.672 
L 552.73572 225.672 
" style="fill:none;stroke:#000000;stroke-linecap:square;"/>
   </g>
   <g id="line2d_109">
    <path clip-path="url(#p0e90929b37)" d="M 548.11548 40.872 
L 552.73572 40.872 
" style="fill:none;stroke:#000000;stroke-linecap:square;"/>
   </g>
   <g id="line2d_110"/>
   <g id="line2d_111">
    <path clip-path="url(#p0e90929b37)" d="M 570.96 227.52 
L 570.96 39.024 
" style="fill:none;stroke:#808080;stroke-dasharray:3.7,1.6;stroke-dashoffset:0;"/>
   </g>
   <g id="line2d_112"/>
   <g id="line2d_113"/>
   <g id="line2d_114"/>
   <g id="line2d_115"/>
   <g id="patch_3">
    <path clip-path="url(#p0e90929b37)" d="M 73.51416 75.984 
L 82.75464 75.984 
L 82.75464 40.872 
L 73.51416 40.872 
L 73.51416 75.984 
z
" style="fill:#7f7f7f;stroke:#000000;stroke-linejoin:miter;"/>
   </g>
   <g id="patch_4">
    <path clip-path="url(#p0e90929b37)" d="M 94.04856 109.71 
L 103.28904 109.71 
L 103.28904 68.13 
L 94.04856 68.13 
L 94.04856 109.71 
z
" style="fill:#2ca02c;stroke:#000000;stroke-linejoin:miter;"/>
   </g>
   <g id="patch_5">
    <path clip-path="url(#p0e90929b37)" d="M 114.58296 132.81 
L 123.82344 132.81 
L 123.82344 95.85 
L 114.58296 95.85 
L 114.58296 132.81 
z
" style="fill:#ff7f0e;stroke:#000000;stroke-linejoin:miter;"/>
   </g>
   <g id="patch_6">
    <path clip-path="url(#p0e90929b37)" d="M 135.11736 225.672 
L 144.35784 225.672 
L 144.35784 197.028 
L 135.11736 197.028 
L 135.11736 225.672 
z
" style="fill:#3e4966;stroke:#000000;stroke-linejoin:miter;"/>
   </g>
   <g id="patch_7">
    <path clip-path="url(#p0e90929b37)" d="M 176.18616 70.44 
L 185.42664 70.44 
L 185.42664 40.872 
L 176.18616 40.872 
L 176.18616 70.44 
z
" style="fill:#7f7f7f;stroke:#000000;stroke-linejoin:miter;"/>
   </g>
   <g id="patch_8">
    <path clip-path="url(#p0e90929b37)" d="M 196.72056 116.178 
L 205.96104 116.178 
L 205.96104 62.586 
L 196.72056 62.586 
L 196.72056 116.178 
z
" style="fill:#2ca02c;stroke:#000000;stroke-linejoin:miter;"/>
   </g>
   <g id="patch_9">
    <path clip-path="url(#p0e90929b37)" d="M 217.25496 81.066 
L 226.49544 81.066 
L 226.49544 44.106 
L 217.25496 44.106 
L 217.25496 81.066 
z
" style="fill:#ff7f0e;stroke:#000000;stroke-linejoin:miter;"/>
   </g>
   <g id="patch_10">
    <path clip-path="url(#p0e90929b37)" d="M 237.78936 225.672 
L 247.02984 225.672 
L 247.02984 207.192 
L 237.78936 207.192 
L 237.78936 225.672 
z
" style="fill:#3e4966;stroke:#000000;stroke-linejoin:miter;"/>
   </g>
   <g id="patch_11">
    <path clip-path="url(#p0e90929b37)" d="M 278.85816 65.82 
L 288.09864 65.82 
L 288.09864 40.872 
L 278.85816 40.872 
L 278.85816 65.82 
z
" style="fill:#7f7f7f;stroke:#000000;stroke-linejoin:miter;"/>
   </g>
   <g id="patch_12">
    <path clip-path="url(#p0e90929b37)" d="M 299.39256 85.686 
L 308.63304 85.686 
L 308.63304 40.872 
L 299.39256 40.872 
L 299.39256 85.686 
z
" style="fill:#2ca02c;stroke:#000000;stroke-linejoin:miter;"/>
   </g>
   <g id="patch_13">
    <path clip-path="url(#p0e90929b37)" d="M 319.92696 97.236 
L 329.16744 97.236 
L 329.16744 40.872 
L 319.92696 40.872 
L 319.92696 97.236 
z
" style="fill:#ff7f0e;stroke:#000000;stroke-linejoin:miter;"/>
   </g>
   <g id="patch_14">
    <path clip-path="url(#p0e90929b37)" d="M 340.46136 225.672 
L 349.70184 225.672 
L 349.70184 187.326 
L 340.46136 187.326 
L 340.46136 225.672 
z
" style="fill:#3e4966;stroke:#000000;stroke-linejoin:miter;"/>
   </g>
   <g id="patch_15">
    <path clip-path="url(#p0e90929b37)" d="M 381.53016 77.37 
L 390.77064 77.37 
L 390.77064 40.872 
L 381.53016 40.872 
L 381.53016 77.37 
z
" style="fill:#7f7f7f;stroke:#000000;stroke-linejoin:miter;"/>
   </g>
   <g id="patch_16">
    <path clip-path="url(#p0e90929b37)" d="M 402.06456 105.552 
L 411.30504 105.552 
L 411.30504 68.592 
L 402.06456 68.592 
L 402.06456 105.552 
z
" style="fill:#2ca02c;stroke:#000000;stroke-linejoin:miter;"/>
   </g>
   <g id="patch_17">
    <path clip-path="url(#p0e90929b37)" d="M 422.59896 103.242 
L 431.83944 103.242 
L 431.83944 59.814 
L 422.59896 59.814 
L 422.59896 103.242 
z
" style="fill:#ff7f0e;stroke:#000000;stroke-linejoin:miter;"/>
   </g>
   <g id="patch_18">
    <path clip-path="url(#p0e90929b37)" d="M 443.13336 220.59 
L 452.37384 220.59 
L 452.37384 173.466 
L 443.13336 173.466 
L 443.13336 220.59 
z
" style="fill:#3e4966;stroke:#000000;stroke-linejoin:miter;"/>
   </g>
   <g id="patch_19">
    <path clip-path="url(#p0e90929b37)" d="M 484.20216 66.282 
L 493.44264 66.282 
L 493.44264 40.872 
L 484.20216 40.872 
L 484.20216 66.282 
z
" style="fill:#7f7f7f;stroke:#000000;stroke-linejoin:miter;"/>
   </g>
   <g id="patch_20">
    <path clip-path="url(#p0e90929b37)" d="M 504.73656 92.616 
L 513.97704 92.616 
L 513.97704 40.872 
L 504.73656 40.872 
L 504.73656 92.616 
z
" style="fill:#2ca02c;stroke:#000000;stroke-linejoin:miter;"/>
   </g>
   <g id="patch_21">
    <path clip-path="url(#p0e90929b37)" d="M 525.27096 114.33 
L 534.51144 114.33 
L 534.51144 47.802 
L 525.27096 47.802 
L 525.27096 114.33 
z
" style="fill:#ff7f0e;stroke:#000000;stroke-linejoin:miter;"/>
   </g>
   <g id="patch_22">
    <path clip-path="url(#p0e90929b37)" d="M 545.80536 203.958 
L 555.04584 203.958 
L 555.04584 97.236 
L 545.80536 97.236 
L 545.80536 203.958 
z
" style="fill:#3e4966;stroke:#000000;stroke-linejoin:miter;"/>
   </g>
   <g id="line2d_116">
    <path clip-path="url(#p0e90929b37)" d="M 73.51416 40.872 
L 82.75464 40.872 
" style="fill:none;stroke:#000000;stroke-linecap:square;stroke-opacity:0.8;"/>
   </g>
   <g id="line2d_117">
    <path clip-path="url(#p0e90929b37)" d="M 94.04856 88.92 
L 103.28904 88.92 
" style="fill:none;stroke:#000000;stroke-linecap:square;stroke-opacity:0.8;"/>
   </g>
   <g id="line2d_118">
    <path clip-path="url(#p0e90929b37)" d="M 114.58296 111.096 
L 123.82344 111.096 
" style="fill:none;stroke:#000000;stroke-linecap:square;stroke-opacity:0.8;"/>
   </g>
   <g id="line2d_119">
    <path clip-path="url(#p0e90929b37)" d="M 135.11736 217.356 
L 144.35784 217.356 
" style="fill:none;stroke:#000000;stroke-linecap:square;stroke-opacity:0.8;"/>
   </g>
   <g id="line2d_120">
    <path clip-path="url(#p0e90929b37)" d="M 176.18616 40.872 
L 185.42664 40.872 
" style="fill:none;stroke:#000000;stroke-linecap:square;stroke-opacity:0.8;"/>
   </g>
   <g id="line2d_121">
    <path clip-path="url(#p0e90929b37)" d="M 196.72056 95.388 
L 205.96104 95.388 
" style="fill:none;stroke:#000000;stroke-linecap:square;stroke-opacity:0.8;"/>
   </g>
   <g id="line2d_122">
    <path clip-path="url(#p0e90929b37)" d="M 217.25496 67.668 
L 226.49544 67.668 
" style="fill:none;stroke:#000000;stroke-linecap:square;stroke-opacity:0.8;"/>
   </g>
   <g id="line2d_123">
    <path clip-path="url(#p0e90929b37)" d="M 237.78936 214.584 
L 247.02984 214.584 
" style="fill:none;stroke:#000000;stroke-linecap:square;stroke-opacity:0.8;"/>
   </g>
   <g id="line2d_124">
    <path clip-path="url(#p0e90929b37)" d="M 278.85816 40.872 
L 288.09864 40.872 
" style="fill:none;stroke:#000000;stroke-linecap:square;stroke-opacity:0.8;"/>
   </g>
   <g id="line2d_125">
    <path clip-path="url(#p0e90929b37)" d="M 299.39256 59.352 
L 308.63304 59.352 
" style="fill:none;stroke:#000000;stroke-linecap:square;stroke-opacity:0.8;"/>
   </g>
   <g id="line2d_126">
    <path clip-path="url(#p0e90929b37)" d="M 319.92696 88.92 
L 329.16744 88.92 
" style="fill:none;stroke:#000000;stroke-linecap:square;stroke-opacity:0.8;"/>
   </g>
   <g id="line2d_127">
    <path clip-path="url(#p0e90929b37)" d="M 340.46136 221.052 
L 349.70184 221.052 
" style="fill:none;stroke:#000000;stroke-linecap:square;stroke-opacity:0.8;"/>
   </g>
   <g id="line2d_128">
    <path clip-path="url(#p0e90929b37)" d="M 381.53016 52.884 
L 390.77064 52.884 
" style="fill:none;stroke:#000000;stroke-linecap:square;stroke-opacity:0.8;"/>
   </g>
   <g id="line2d_129">
    <path clip-path="url(#p0e90929b37)" d="M 402.06456 83.376 
L 411.30504 83.376 
" style="fill:none;stroke:#000000;stroke-linecap:square;stroke-opacity:0.8;"/>
   </g>
   <g id="line2d_130">
    <path clip-path="url(#p0e90929b37)" d="M 422.59896 81.528 
L 431.83944 81.528 
" style="fill:none;stroke:#000000;stroke-linecap:square;stroke-opacity:0.8;"/>
   </g>
   <g id="line2d_131">
    <path clip-path="url(#p0e90929b37)" d="M 443.13336 208.116 
L 452.37384 208.116 
" style="fill:none;stroke:#000000;stroke-linecap:square;stroke-opacity:0.8;"/>
   </g>
   <g id="line2d_132">
    <path clip-path="url(#p0e90929b37)" d="M 484.20216 40.872 
L 493.44264 40.872 
" style="fill:none;stroke:#000000;stroke-linecap:square;stroke-opacity:0.8;"/>
   </g>
   <g id="line2d_133">
    <path clip-path="url(#p0e90929b37)" d="M 504.73656 61.2 
L 513.97704 61.2 
" style="fill:none;stroke:#000000;stroke-linecap:square;stroke-opacity:0.8;"/>
   </g>
   <g id="line2d_134">
    <path clip-path="url(#p0e90929b37)" d="M 525.27096 93.54 
L 534.51144 93.54 
" style="fill:none;stroke:#000000;stroke-linecap:square;stroke-opacity:0.8;"/>
   </g>
   <g id="line2d_135">
    <path clip-path="url(#p0e90929b37)" d="M 545.80536 161.916 
L 555.04584 161.916 
" style="fill:none;stroke:#000000;stroke-linecap:square;stroke-opacity:0.8;"/>
   </g>
   <g id="text_13">
    <!-- MUSHRA -->
    <g transform="translate(280.580344 33.024)scale(0.156 -0.156)">
     <defs>
      <path d="M 9.8125 72.90625 
L 24.515625 72.90625 
L 43.109375 23.296875 
L 61.8125 72.90625 
L 76.515625 72.90625 
L 76.515625 0 
L 66.890625 0 
L 66.890625 64.015625 
L 48.09375 14.015625 
L 38.1875 14.015625 
L 19.390625 64.015625 
L 19.390625 0 
L 9.8125 0 
z
" id="DejaVuSans-77"/>
      <path d="M 8.6875 72.90625 
L 18.609375 72.90625 
L 18.609375 28.609375 
Q 18.609375 16.890625 22.84375 11.734375 
Q 27.09375 6.59375 36.625 6.59375 
Q 46.09375 6.59375 50.34375 11.734375 
Q 54.59375 16.890625 54.59375 28.609375 
L 54.59375 72.90625 
L 64.5 72.90625 
L 64.5 27.390625 
Q 64.5 13.140625 57.4375 5.859375 
Q 50.390625 -1.421875 36.625 -1.421875 
Q 22.796875 -1.421875 15.734375 5.859375 
Q 8.6875 13.140625 8.6875 27.390625 
z
" id="DejaVuSans-85"/>
      <path d="M 9.8125 72.90625 
L 19.671875 72.90625 
L 19.671875 43.015625 
L 55.515625 43.015625 
L 55.515625 72.90625 
L 65.375 72.90625 
L 65.375 0 
L 55.515625 0 
L 55.515625 34.71875 
L 19.671875 34.71875 
L 19.671875 0 
L 9.8125 0 
z
" id="DejaVuSans-72"/>
     </defs>
     <use xlink:href="#DejaVuSans-77"/>
     <use x="86.279297" xlink:href="#DejaVuSans-85"/>
     <use x="159.472656" xlink:href="#DejaVuSans-83"/>
     <use x="222.949219" xlink:href="#DejaVuSans-72"/>
     <use x="298.144531" xlink:href="#DejaVuSans-82"/>
     <use x="363.626953" xlink:href="#DejaVuSans-65"/>
    </g>
   </g>
   <g id="legend_1">
    <g id="line2d_136"/>
    <g id="line2d_137">
     <defs>
      <path d="M -3 3 
L 3 3 
L 3 -3 
L -3 -3 
z
" id="m1a74797ffd" style="stroke:#7f7f7f;stroke-linejoin:miter;"/>
     </defs>
     <g>
      <use style="fill:#7f7f7f;stroke:#7f7f7f;stroke-linejoin:miter;" x="102.822813" xlink:href="#m1a74797ffd" y="263.397569"/>
     </g>
    </g>
    <g id="text_14">
     <!-- Reference -->
     <g transform="translate(117.122813 267.947569)scale(0.13 -0.13)">
      <defs>
       <path d="M 56.203125 29.59375 
L 56.203125 25.203125 
L 14.890625 25.203125 
Q 15.484375 15.921875 20.484375 11.0625 
Q 25.484375 6.203125 34.421875 6.203125 
Q 39.59375 6.203125 44.453125 7.46875 
Q 49.3125 8.734375 54.109375 11.28125 
L 54.109375 2.78125 
Q 49.265625 0.734375 44.1875 -0.34375 
Q 39.109375 -1.421875 33.890625 -1.421875 
Q 20.796875 -1.421875 13.15625 6.1875 
Q 5.515625 13.8125 5.515625 26.8125 
Q 5.515625 40.234375 12.765625 48.109375 
Q 20.015625 56 32.328125 56 
Q 43.359375 56 49.78125 48.890625 
Q 56.203125 41.796875 56.203125 29.59375 
z
M 47.21875 32.234375 
Q 47.125 39.59375 43.09375 43.984375 
Q 39.0625 48.390625 32.421875 48.390625 
Q 24.90625 48.390625 20.390625 44.140625 
Q 15.875 39.890625 15.1875 32.171875 
z
" id="DejaVuSans-101"/>
       <path d="M 37.109375 75.984375 
L 37.109375 68.5 
L 28.515625 68.5 
Q 23.6875 68.5 21.796875 66.546875 
Q 19.921875 64.59375 19.921875 59.515625 
L 19.921875 54.6875 
L 34.71875 54.6875 
L 34.71875 47.703125 
L 19.921875 47.703125 
L 19.921875 0 
L 10.890625 0 
L 10.890625 47.703125 
L 2.296875 47.703125 
L 2.296875 54.6875 
L 10.890625 54.6875 
L 10.890625 58.5 
Q 10.890625 67.625 15.140625 71.796875 
Q 19.390625 75.984375 28.609375 75.984375 
z
" id="DejaVuSans-102"/>
      </defs>
      <use xlink:href="#DejaVuSans-82"/>
      <use x="64.982422" xlink:href="#DejaVuSans-101"/>
      <use x="126.505859" xlink:href="#DejaVuSans-102"/>
      <use x="161.710938" xlink:href="#DejaVuSans-101"/>
      <use x="223.234375" xlink:href="#DejaVuSans-114"/>
      <use x="262.097656" xlink:href="#DejaVuSans-101"/>
      <use x="323.621094" xlink:href="#DejaVuSans-110"/>
      <use x="387" xlink:href="#DejaVuSans-99"/>
      <use x="441.980469" xlink:href="#DejaVuSans-101"/>
     </g>
    </g>
    <g id="line2d_138"/>
    <g id="line2d_139">
     <defs>
      <path d="M -3 3 
L 3 3 
L 3 -3 
L -3 -3 
z
" id="md610cf55f9" style="stroke:#2ca02c;stroke-linejoin:miter;"/>
     </defs>
     <g>
      <use style="fill:#2ca02c;stroke:#2ca02c;stroke-linejoin:miter;" x="221.581875" xlink:href="#md610cf55f9" y="263.397569"/>
     </g>
    </g>
    <g id="text_15">
     <!-- LSTM-32 -->
     <g transform="translate(235.881875 267.947569)scale(0.13 -0.13)">
      <defs>
       <path d="M 9.8125 72.90625 
L 19.671875 72.90625 
L 19.671875 8.296875 
L 55.171875 8.296875 
L 55.171875 0 
L 9.8125 0 
z
" id="DejaVuSans-76"/>
       <path d="M -0.296875 72.90625 
L 61.375 72.90625 
L 61.375 64.59375 
L 35.5 64.59375 
L 35.5 0 
L 25.59375 0 
L 25.59375 64.59375 
L -0.296875 64.59375 
z
" id="DejaVuSans-84"/>
       <path d="M 4.890625 31.390625 
L 31.203125 31.390625 
L 31.203125 23.390625 
L 4.890625 23.390625 
z
" id="DejaVuSans-45"/>
       <path d="M 40.578125 39.3125 
Q 47.65625 37.796875 51.625 33 
Q 55.609375 28.21875 55.609375 21.1875 
Q 55.609375 10.40625 48.1875 4.484375 
Q 40.765625 -1.421875 27.09375 -1.421875 
Q 22.515625 -1.421875 17.65625 -0.515625 
Q 12.796875 0.390625 7.625 2.203125 
L 7.625 11.71875 
Q 11.71875 9.328125 16.59375 8.109375 
Q 21.484375 6.890625 26.8125 6.890625 
Q 36.078125 6.890625 40.9375 10.546875 
Q 45.796875 14.203125 45.796875 21.1875 
Q 45.796875 27.640625 41.28125 31.265625 
Q 36.765625 34.90625 28.71875 34.90625 
L 20.21875 34.90625 
L 20.21875 43.015625 
L 29.109375 43.015625 
Q 36.375 43.015625 40.234375 45.921875 
Q 44.09375 48.828125 44.09375 54.296875 
Q 44.09375 59.90625 40.109375 62.90625 
Q 36.140625 65.921875 28.71875 65.921875 
Q 24.65625 65.921875 20.015625 65.03125 
Q 15.375 64.15625 9.8125 62.3125 
L 9.8125 71.09375 
Q 15.4375 72.65625 20.34375 73.4375 
Q 25.25 74.21875 29.59375 74.21875 
Q 40.828125 74.21875 47.359375 69.109375 
Q 53.90625 64.015625 53.90625 55.328125 
Q 53.90625 49.265625 50.4375 45.09375 
Q 46.96875 40.921875 40.578125 39.3125 
z
" id="DejaVuSans-51"/>
      </defs>
      <use xlink:href="#DejaVuSans-76"/>
      <use x="55.712891" xlink:href="#DejaVuSans-83"/>
      <use x="119.189453" xlink:href="#DejaVuSans-84"/>
      <use x="180.273438" xlink:href="#DejaVuSans-77"/>
      <use x="266.552734" xlink:href="#DejaVuSans-45"/>
      <use x="302.636719" xlink:href="#DejaVuSans-51"/>
      <use x="366.259766" xlink:href="#DejaVuSans-50"/>
     </g>
    </g>
    <g id="line2d_140"/>
    <g id="line2d_141">
     <defs>
      <path d="M -3 3 
L 3 3 
L 3 -3 
L -3 -3 
z
" id="m6464c40c4b" style="stroke:#ff7f0e;stroke-linejoin:miter;"/>
     </defs>
     <g>
      <use style="fill:#ff7f0e;stroke:#ff7f0e;stroke-linejoin:miter;" x="330.767656" xlink:href="#m6464c40c4b" y="263.397569"/>
     </g>
    </g>
    <g id="text_16">
     <!-- TCN-300-C -->
     <g transform="translate(345.067656 267.947569)scale(0.13 -0.13)">
      <defs>
       <path d="M 64.40625 67.28125 
L 64.40625 56.890625 
Q 59.421875 61.53125 53.78125 63.8125 
Q 48.140625 66.109375 41.796875 66.109375 
Q 29.296875 66.109375 22.65625 58.46875 
Q 16.015625 50.828125 16.015625 36.375 
Q 16.015625 21.96875 22.65625 14.328125 
Q 29.296875 6.6875 41.796875 6.6875 
Q 48.140625 6.6875 53.78125 8.984375 
Q 59.421875 11.28125 64.40625 15.921875 
L 64.40625 5.609375 
Q 59.234375 2.09375 53.4375 0.328125 
Q 47.65625 -1.421875 41.21875 -1.421875 
Q 24.65625 -1.421875 15.125 8.703125 
Q 5.609375 18.84375 5.609375 36.375 
Q 5.609375 53.953125 15.125 64.078125 
Q 24.65625 74.21875 41.21875 74.21875 
Q 47.75 74.21875 53.53125 72.484375 
Q 59.328125 70.75 64.40625 67.28125 
z
" id="DejaVuSans-67"/>
       <path d="M 9.8125 72.90625 
L 23.09375 72.90625 
L 55.421875 11.921875 
L 55.421875 72.90625 
L 64.984375 72.90625 
L 64.984375 0 
L 51.703125 0 
L 19.390625 60.984375 
L 19.390625 0 
L 9.8125 0 
z
" id="DejaVuSans-78"/>
      </defs>
      <use xlink:href="#DejaVuSans-84"/>
      <use x="55.208984" xlink:href="#DejaVuSans-67"/>
      <use x="125.033203" xlink:href="#DejaVuSans-78"/>
      <use x="199.837891" xlink:href="#DejaVuSans-45"/>
      <use x="235.921875" xlink:href="#DejaVuSans-51"/>
      <use x="299.544922" xlink:href="#DejaVuSans-48"/>
      <use x="363.167969" xlink:href="#DejaVuSans-48"/>
      <use x="426.791016" xlink:href="#DejaVuSans-45"/>
      <use x="462.875" xlink:href="#DejaVuSans-67"/>
     </g>
    </g>
    <g id="line2d_142"/>
    <g id="line2d_143">
     <defs>
      <path d="M -3 3 
L 3 3 
L 3 -3 
L -3 -3 
z
" id="m67f3ec8a0a" style="stroke:#3e4966;stroke-linejoin:miter;"/>
     </defs>
     <g>
      <use style="fill:#3e4966;stroke:#3e4966;stroke-linejoin:miter;" x="453.319063" xlink:href="#m67f3ec8a0a" y="263.397569"/>
     </g>
    </g>
    <g id="text_17">
     <!-- SignalTrain -->
     <g transform="translate(467.619063 267.947569)scale(0.13 -0.13)">
      <defs>
       <path d="M 9.421875 75.984375 
L 18.40625 75.984375 
L 18.40625 0 
L 9.421875 0 
z
" id="DejaVuSans-108"/>
      </defs>
      <use xlink:href="#DejaVuSans-83"/>
      <use x="63.476562" xlink:href="#DejaVuSans-105"/>
      <use x="91.259766" xlink:href="#DejaVuSans-103"/>
      <use x="154.736328" xlink:href="#DejaVuSans-110"/>
      <use x="218.115234" xlink:href="#DejaVuSans-97"/>
      <use x="279.394531" xlink:href="#DejaVuSans-108"/>
      <use x="307.177734" xlink:href="#DejaVuSans-84"/>
      <use x="353.511719" xlink:href="#DejaVuSans-114"/>
      <use x="394.625" xlink:href="#DejaVuSans-97"/>
      <use x="455.904297" xlink:href="#DejaVuSans-105"/>
      <use x="483.6875" xlink:href="#DejaVuSans-110"/>
     </g>
    </g>
   </g>
  </g>
 </g>
 <defs>
  <clipPath id="p0e90929b37">
   <rect height="188.496" width="513.36" x="57.6" y="39.024"/>
  </clipPath>
 </defs>
</svg>
